;Layer: Drill PTH
;EasyEDA v6.3.43, 2020-05-25T11:21:51+02:00
;b2f46ff1345c4209a88c0a1db2e3f32b,10
;Gerber Generator version 0.2
M48
INCH,LZ,00.0000
;Holesize 1 = 0.010 INCH
T01C0.010
;Holesize 2 = 0.016 INCH
T02C0.016
;Holesize 3 = 0.028 INCH
T03C0.028
;Holesize 4 = 0.032 INCH
T04C0.032
;Holesize 5 = 0.039 INCH
T05C0.039
;Holesize 6 = 0.043 INCH
T06C0.043
;Holesize 7 = 0.087 INCH
T07C0.087
%
G05
G90
T01
X+060234Y+007734
X+060000Y+007031
X+065390Y+008203
X+064218Y+008437
X+056267Y+008420
X+052613Y+008285
X+062812Y+005390
X+051093Y+007500
X+052031Y+007031
X+053906Y+006328
X+054753Y+005080
X+054753Y+005842
X+043828Y+007265
X+064921Y+010546
X+002578Y+008203
T02
X+069123Y+009375G85X+069124Y+009375
X+068933Y+008915G85X+068933Y+008915
X+068474Y+008725G85X+068474Y+008725
X+068014Y+008915G85X+068015Y+008915
X+067824Y+009375G85X+067824Y+009375
X+068014Y+009834G85X+068015Y+009834
X+068474Y+010024G85X+068474Y+010024
X+068933Y+009834G85X+068933Y+009834
X+068933Y+044288G85X+068933Y+044288
X+068474Y+044478G85X+068474Y+044478
X+068014Y+044288G85X+068015Y+044288
X+067824Y+043828G85X+067824Y+043828
X+068014Y+043369G85X+068015Y+043369
X+068474Y+043179G85X+068474Y+043179
X+068933Y+043369G85X+068933Y+043369
X+069123Y+043828G85X+069124Y+043828
X+069123Y+020859G85X+069124Y+020859
X+068933Y+020400G85X+068933Y+020400
X+068474Y+020210G85X+068474Y+020210
X+068014Y+020400G85X+068015Y+020400
X+067824Y+020859G85X+067824Y+020859
X+068014Y+021319G85X+068015Y+021319
X+068474Y+021509G85X+068474Y+021509
X+068933Y+021319G85X+068933Y+021319
X+069123Y+032344G85X+069124Y+032344
X+068933Y+031884G85X+068933Y+031884
X+068474Y+031694G85X+068474Y+031694
X+068014Y+031884G85X+068015Y+031884
X+067824Y+032344G85X+067824Y+032344
X+068014Y+032803G85X+068015Y+032803
X+068474Y+032993G85X+068474Y+032993
X+068933Y+032803G85X+068933Y+032803
T03
X+051796Y+001641G85X+051796Y+001639
X+051796Y+002389G85X+051796Y+002387
X+067780Y+002343G85X+067778Y+002343
X+067032Y+002343G85X+067030Y+002343
X+051329Y+005156G85X+051327Y+005156
X+050581Y+005156G85X+050579Y+005156
X+051374Y+006562G85X+051372Y+006562
X+050626Y+006562G85X+050624Y+006562
X+051372Y+003750G85X+051374Y+003750
X+050624Y+003750G85X+050626Y+003750
X+068671Y+002389G85X+068671Y+002387
X+068671Y+001641G85X+068671Y+001639
X+053481Y+002343G85X+053483Y+002343
X+052733Y+002343G85X+052735Y+002343
T04
X+012549Y+030310G85X+012551Y+030310
X+012549Y+028751G85X+012551Y+028751
X+014107Y+030310G85X+014109Y+030310
X+014107Y+028751G85X+014109Y+028751
X+015667Y+030310G85X+015669Y+030310
X+015667Y+028751G85X+015669Y+028751
X+017226Y+030310G85X+017228Y+030310
X+017226Y+028751G85X+017228Y+028751
X+018785Y+030310G85X+018787Y+030310
X+018785Y+028751G85X+018787Y+028751
X+020344Y+030310G85X+020346Y+030310
X+020344Y+028751G85X+020346Y+028751
X+021903Y+030310G85X+021905Y+030310
X+021903Y+028751G85X+021905Y+028751
X+023462Y+030310G85X+023464Y+030310
X+023462Y+028751G85X+023464Y+028751
X+025021Y+030310G85X+025023Y+030310
X+025021Y+028751G85X+025023Y+028751
X+026580Y+030310G85X+026582Y+030310
X+026580Y+028751G85X+026582Y+028751
X+028139Y+030310G85X+028141Y+030310
X+028139Y+028751G85X+028141Y+028751
X+029698Y+030310G85X+029700Y+030310
X+029698Y+028751G85X+029700Y+028751
X+031257Y+030310G85X+031259Y+030310
X+031257Y+028751G85X+031259Y+028751
X+032816Y+030310G85X+032818Y+030310
X+032816Y+028751G85X+032818Y+028751
X+034375Y+030310G85X+034377Y+030310
X+034375Y+028751G85X+034377Y+028751
X+035934Y+030310G85X+035936Y+030310
X+035934Y+028751G85X+035936Y+028751
X+037493Y+030310G85X+037495Y+030310
X+037493Y+028751G85X+037495Y+028751
X+039052Y+030310G85X+039054Y+030310
X+039052Y+028751G85X+039054Y+028751
X+040611Y+030310G85X+040613Y+030310
X+040611Y+028751G85X+040613Y+028751
X+042171Y+030310G85X+042173Y+030310
X+042171Y+028751G85X+042173Y+028751
X+043729Y+030310G85X+043731Y+030310
X+043729Y+028751G85X+043731Y+028751
X+045289Y+030310G85X+045291Y+030310
X+045289Y+028751G85X+045291Y+028751
X+046848Y+030310G85X+046850Y+030310
X+046848Y+028751G85X+046850Y+028751
X+048407Y+030310G85X+048409Y+030310
X+048407Y+028751G85X+048409Y+028751
X+049966Y+030310G85X+049968Y+030310
X+049966Y+028751G85X+049968Y+028751
X+051525Y+030310G85X+051527Y+030310
X+051525Y+028751G85X+051527Y+028751
X+053084Y+030310G85X+053086Y+030310
X+053084Y+028751G85X+053086Y+028751
X+054643Y+030310G85X+054645Y+030310
X+054643Y+028751G85X+054645Y+028751
X+056202Y+030310G85X+056204Y+030310
X+056202Y+028751G85X+056204Y+028751
X+057761Y+030310G85X+057763Y+030310
X+057761Y+028751G85X+057763Y+028751
X+057867Y+021328G85X+057869Y+021328
X+056308Y+021328G85X+056310Y+021328
X+054749Y+021328G85X+054751Y+021328
X+053190Y+021328G85X+053192Y+021328
X+051631Y+021328G85X+051633Y+021328
X+050072Y+021328G85X+050074Y+021328
X+048513Y+021328G85X+048515Y+021328
X+046954Y+021328G85X+046956Y+021328
X+045395Y+021328G85X+045397Y+021328
X+043836Y+021328G85X+043838Y+021328
X+042277Y+021328G85X+042279Y+021328
X+040718Y+021328G85X+040720Y+021328
X+039159Y+021328G85X+039161Y+021328
X+037600Y+021328G85X+037602Y+021328
X+036041Y+021328G85X+036042Y+021328
X+034481Y+021328G85X+034484Y+021328
X+032922Y+021328G85X+032924Y+021328
X+031363Y+021328G85X+031365Y+021328
X+029804Y+021328G85X+029806Y+021328
X+028245Y+021328G85X+028247Y+021328
X+026686Y+021328G85X+026688Y+021328
X+025127Y+021328G85X+025129Y+021328
X+023568Y+021328G85X+023570Y+021328
X+022009Y+021328G85X+022011Y+021328
X+020450Y+021328G85X+020452Y+021328
X+018891Y+021328G85X+018893Y+021328
X+017332Y+021328G85X+017334Y+021328
X+015773Y+021328G85X+015775Y+021328
X+014214Y+021328G85X+014216Y+021328
X+012655Y+021328G85X+012657Y+021328
X+061406Y+004452G85X+061406Y+004454
X+067406Y+007452G85X+067406Y+007454
X+062406Y+004452G85X+062406Y+004454
X+066406Y+007452G85X+066406Y+007454
X+063406Y+004452G85X+063406Y+004454
X+065406Y+007452G85X+065406Y+007454
X+064406Y+004452G85X+064406Y+004454
X+064406Y+007452G85X+064406Y+007454
X+065406Y+004452G85X+065406Y+004454
X+063406Y+007452G85X+063406Y+007454
X+066406Y+004452G85X+066406Y+004454
X+062406Y+007452G85X+062406Y+007454
X+067406Y+004452G85X+067406Y+004454
X+061406Y+007452G85X+061406Y+007454
X+058842Y+001171G85X+058844Y+001171
X+057842Y+001171G85X+057844Y+001171
X+056842Y+001171G85X+056844Y+001171
X+055842Y+001171G85X+055844Y+001171
X+054842Y+001171G85X+054844Y+001171
X+052968Y+007452G85X+052968Y+007454
X+058968Y+004452G85X+058968Y+004454
X+053968Y+007452G85X+053968Y+007454
X+057968Y+004452G85X+057968Y+004454
X+054968Y+007452G85X+054968Y+007454
X+056968Y+004452G85X+056968Y+004454
X+055968Y+007452G85X+055968Y+007454
X+055968Y+004452G85X+055968Y+004454
X+056968Y+007452G85X+056968Y+007454
X+054968Y+004452G85X+054968Y+004454
X+057968Y+007452G85X+057968Y+007454
X+053968Y+004452G85X+053968Y+004454
X+058968Y+007452G85X+058968Y+007454
X+052968Y+004452G85X+052968Y+004454
X+061391Y+009140G85X+061389Y+009140
X+062391Y+009140G85X+062389Y+009140
X+063391Y+009140G85X+063389Y+009140
X+064391Y+009140G85X+064389Y+009140
X+065391Y+009140G85X+065389Y+009140
X+044531Y+004266G85X+044531Y+004264
X+044531Y+003282G85X+044531Y+003280
X+044531Y+005579G85X+044531Y+005577
X+044531Y+006563G85X+044531Y+006561
X+046171Y+003514G85X+046171Y+003516
X+049171Y+006514G85X+049171Y+006516
X+047171Y+003514G85X+047171Y+003516
X+048171Y+006514G85X+048171Y+006516
X+048171Y+003514G85X+048171Y+003516
X+047171Y+006514G85X+047171Y+006516
X+049171Y+003514G85X+049171Y+003516
X+046171Y+006514G85X+046171Y+006516
X+034687Y+006514G85X+034687Y+006516
X+041687Y+003514G85X+041687Y+003516
X+035687Y+006514G85X+035687Y+006516
X+040687Y+003514G85X+040687Y+003516
X+036687Y+006514G85X+036687Y+006516
X+039687Y+003514G85X+039687Y+003516
X+037687Y+006514G85X+037687Y+006516
X+038687Y+003514G85X+038687Y+003516
X+038687Y+006514G85X+038687Y+006516
X+037687Y+003514G85X+037687Y+003516
X+039687Y+006514G85X+039687Y+006516
X+036687Y+003514G85X+036687Y+003516
X+040687Y+006514G85X+040687Y+006516
X+035687Y+003514G85X+035687Y+003516
X+041687Y+006514G85X+041687Y+006516
X+034687Y+003514G85X+034687Y+003516
X+024609Y+003514G85X+024609Y+003516
X+031609Y+006514G85X+031609Y+006516
X+025609Y+003514G85X+025609Y+003516
X+030609Y+006514G85X+030609Y+006516
X+026609Y+003514G85X+026609Y+003516
X+029609Y+006514G85X+029609Y+006516
X+027609Y+003514G85X+027609Y+003516
X+028609Y+006514G85X+028609Y+006516
X+028609Y+003514G85X+028609Y+003516
X+027609Y+006514G85X+027609Y+006516
X+029609Y+003514G85X+029609Y+003516
X+026609Y+006514G85X+026609Y+006516
X+030609Y+003514G85X+030609Y+003516
X+025609Y+006514G85X+025609Y+006516
X+031609Y+003514G85X+031609Y+003516
X+024609Y+006514G85X+024609Y+006516
X+059766Y+009140G85X+059764Y+009140
X+058782Y+009140G85X+058780Y+009140
X+022968Y+005436G85X+022968Y+005438
X+022968Y+004452G85X+022968Y+004454
X+032812Y+005436G85X+032812Y+005438
X+032812Y+004452G85X+032812Y+004454
X+042890Y+004452G85X+042890Y+004454
X+042890Y+005436G85X+042890Y+005438
X+068671Y+006375G85X+068671Y+006373
X+068671Y+005391G85X+068671Y+005389
X+060234Y+005344G85X+060234Y+005342
X+060234Y+006329G85X+060234Y+006327
X+065625Y+001171G85X+065623Y+001171
X+064626Y+001171G85X+064624Y+001171
X+063626Y+001171G85X+063624Y+001171
X+062626Y+001171G85X+062624Y+001171
X+061626Y+001171G85X+061624Y+001171
X+056969Y+009140G85X+056967Y+009140
X+055969Y+009140G85X+055967Y+009140
X+054969Y+009140G85X+054967Y+009140
X+053969Y+009140G85X+053967Y+009140
X+052969Y+009140G85X+052967Y+009140
X+014765Y+006514G85X+014765Y+006516
X+021765Y+003514G85X+021765Y+003516
X+015765Y+006514G85X+015765Y+006516
X+020765Y+003514G85X+020765Y+003516
X+016765Y+006514G85X+016765Y+006516
X+019765Y+003514G85X+019765Y+003516
X+017765Y+006514G85X+017765Y+006516
X+018765Y+003514G85X+018765Y+003516
X+018765Y+006514G85X+018765Y+006516
X+017765Y+003514G85X+017765Y+003516
X+019765Y+006514G85X+019765Y+006516
X+016765Y+003514G85X+016765Y+003516
X+020765Y+006514G85X+020765Y+006516
X+015765Y+003514G85X+015765Y+003516
X+021765Y+006514G85X+021765Y+006516
X+014765Y+003514G85X+014765Y+003516
T05
X+065765Y+002578G85X+065765Y+002578
X+064765Y+002578G85X+064765Y+002578
X+063765Y+002578G85X+063765Y+002578
X+062765Y+002578G85X+062765Y+002578
X+061765Y+002578G85X+061765Y+002578
X+060765Y+002578G85X+060765Y+002578
X+059765Y+002578G85X+059765Y+002578
X+058765Y+002578G85X+058765Y+002578
X+057765Y+002578G85X+057765Y+002578
X+056765Y+002578G85X+056765Y+002578
X+055765Y+002578G85X+055765Y+002578
X+054765Y+002578G85X+054765Y+002578
X+014437Y+001171G85X+014437Y+001171
X+015437Y+001171G85X+015437Y+001171
X+016437Y+001171G85X+016437Y+001171
X+017437Y+001171G85X+017437Y+001171
X+018437Y+001171G85X+018437Y+001171
X+019437Y+001171G85X+019437Y+001171
X+020437Y+001171G85X+020437Y+001171
X+021437Y+001171G85X+021437Y+001171
X+022437Y+001171G85X+022437Y+001171
X+023437Y+001171G85X+023437Y+001171
X+024437Y+001171G85X+024437Y+001171
X+025437Y+001171G85X+025437Y+001171
X+026437Y+001171G85X+026437Y+001171
X+027437Y+001171G85X+027437Y+001171
X+028437Y+001171G85X+028437Y+001171
X+029437Y+001171G85X+029437Y+001171
X+030437Y+001171G85X+030437Y+001171
X+031437Y+001171G85X+031437Y+001171
X+032437Y+001171G85X+032437Y+001171
X+033437Y+001171G85X+033437Y+001171
X+034437Y+001171G85X+034437Y+001171
X+035437Y+001171G85X+035437Y+001171
X+036437Y+001171G85X+036437Y+001171
X+037437Y+001171G85X+037437Y+001171
X+038437Y+001171G85X+038437Y+001171
X+039437Y+001171G85X+039437Y+001171
X+040437Y+001171G85X+040437Y+001171
X+018281Y+041015G85X+018281Y+041015
X+019281Y+041015G85X+019281Y+041015
X+020281Y+041015G85X+020281Y+041015
X+021281Y+041015G85X+021281Y+041015
X+022281Y+041015G85X+022281Y+041015
X+023281Y+041015G85X+023281Y+041015
X+024281Y+041015G85X+024281Y+041015
X+025281Y+041015G85X+025281Y+041015
X+026281Y+041015G85X+026281Y+041015
X+027281Y+041015G85X+027281Y+041015
X+028281Y+041015G85X+028281Y+041015
X+029281Y+041015G85X+029281Y+041015
X+030281Y+041015G85X+030281Y+041015
X+031281Y+041015G85X+031281Y+041015
X+032281Y+041015G85X+032281Y+041015
X+033281Y+041015G85X+033281Y+041015
X+034281Y+041015G85X+034281Y+041015
X+035281Y+041015G85X+035281Y+041015
X+036281Y+041015G85X+036281Y+041015
X+037281Y+041015G85X+037281Y+041015
X+038281Y+041015G85X+038281Y+041015
X+039281Y+041015G85X+039281Y+041015
X+040281Y+041015G85X+040281Y+041015
X+041281Y+041015G85X+041281Y+041015
X+042281Y+041015G85X+042281Y+041015
X+043281Y+041015G85X+043281Y+041015
X+044281Y+041015G85X+044281Y+041015
X+045281Y+041015G85X+045281Y+041015
X+046281Y+041015G85X+046281Y+041015
X+047281Y+041015G85X+047281Y+041015
X+003281Y+009843G85X+003281Y+009843
X+003281Y+008843G85X+003281Y+008843
X+002281Y+009843G85X+002281Y+009843
X+002281Y+008843G85X+002281Y+008843
X+001281Y+009843G85X+001281Y+009843
X+001281Y+008843G85X+001281Y+008843
X+065765Y+014062G85X+065765Y+014062
X+064765Y+014062G85X+064765Y+014062
X+063765Y+014062G85X+063765Y+014062
X+062765Y+014062G85X+062765Y+014062
X+061765Y+014062G85X+061765Y+014062
X+060765Y+014062G85X+060765Y+014062
X+059765Y+014062G85X+059765Y+014062
X+058765Y+014062G85X+058765Y+014062
X+057765Y+014062G85X+057765Y+014062
X+056765Y+014062G85X+056765Y+014062
X+055765Y+014062G85X+055765Y+014062
X+054765Y+014062G85X+054765Y+014062
X+054765Y+025547G85X+054765Y+025547
X+055765Y+025547G85X+055765Y+025547
X+056765Y+025547G85X+056765Y+025547
X+057765Y+025547G85X+057765Y+025547
X+058765Y+025547G85X+058765Y+025547
X+059765Y+025547G85X+059765Y+025547
X+060765Y+025547G85X+060765Y+025547
X+061765Y+025547G85X+061765Y+025547
X+062765Y+025547G85X+062765Y+025547
X+063765Y+025547G85X+063765Y+025547
X+064765Y+025547G85X+064765Y+025547
X+065765Y+025547G85X+065765Y+025547
X+054765Y+037031G85X+054765Y+037032
X+055765Y+037031G85X+055765Y+037032
X+056765Y+037031G85X+056765Y+037032
X+057765Y+037031G85X+057765Y+037032
X+058765Y+037031G85X+058765Y+037032
X+059765Y+037031G85X+059765Y+037032
X+060765Y+037031G85X+060765Y+037032
X+061765Y+037031G85X+061765Y+037032
X+062765Y+037031G85X+062765Y+037032
X+063765Y+037031G85X+063765Y+037032
X+064765Y+037031G85X+064765Y+037032
X+065765Y+037031G85X+065765Y+037032
X+040437Y+024141G85X+040437Y+024141
X+039437Y+024141G85X+039437Y+024141
X+038437Y+024141G85X+038437Y+024141
X+037437Y+024141G85X+037437Y+024141
X+036437Y+024141G85X+036437Y+024141
X+035437Y+024141G85X+035437Y+024141
X+034437Y+024141G85X+034437Y+024141
X+033437Y+024141G85X+033437Y+024141
X+032437Y+024141G85X+032437Y+024141
X+031437Y+024141G85X+031437Y+024141
X+030437Y+024141G85X+030437Y+024141
X+029437Y+024141G85X+029437Y+024141
X+028437Y+024141G85X+028437Y+024141
X+027437Y+024141G85X+027437Y+024141
X+026437Y+024141G85X+026437Y+024141
X+025437Y+024141G85X+025437Y+024141
X+024437Y+024141G85X+024437Y+024141
X+023437Y+024141G85X+023437Y+024141
X+022437Y+024141G85X+022437Y+024141
X+021437Y+024141G85X+021437Y+024141
X+020437Y+024141G85X+020437Y+024141
X+019437Y+024141G85X+019437Y+024141
X+018437Y+024141G85X+018437Y+024141
X+017437Y+024141G85X+017437Y+024141
X+016437Y+024141G85X+016437Y+024141
X+015437Y+024141G85X+015437Y+024141
X+014437Y+024141G85X+014437Y+024141
X+040437Y+035625G85X+040437Y+035625
X+039437Y+035625G85X+039437Y+035625
X+038437Y+035625G85X+038437Y+035625
X+037437Y+035625G85X+037437Y+035625
X+036437Y+035625G85X+036437Y+035625
X+035437Y+035625G85X+035437Y+035625
X+034437Y+035625G85X+034437Y+035625
X+033437Y+035625G85X+033437Y+035625
X+032437Y+035625G85X+032437Y+035625
X+031437Y+035625G85X+031437Y+035625
X+030437Y+035625G85X+030437Y+035625
X+029437Y+035625G85X+029437Y+035625
X+028437Y+035625G85X+028437Y+035625
X+027437Y+035625G85X+027437Y+035625
X+026437Y+035625G85X+026437Y+035625
X+025437Y+035625G85X+025437Y+035625
X+024437Y+035625G85X+024437Y+035625
X+023437Y+035625G85X+023437Y+035625
X+022437Y+035625G85X+022437Y+035625
X+021437Y+035625G85X+021437Y+035625
X+020437Y+035625G85X+020437Y+035625
X+019437Y+035625G85X+019437Y+035625
X+018437Y+035625G85X+018437Y+035625
X+017437Y+035625G85X+017437Y+035625
X+016437Y+035625G85X+016437Y+035625
X+015437Y+035625G85X+015437Y+035625
X+014437Y+035625G85X+014437Y+035625
X+040437Y+012656G85X+040437Y+012656
X+039437Y+012656G85X+039437Y+012656
X+038437Y+012656G85X+038437Y+012656
X+037437Y+012656G85X+037437Y+012656
X+036437Y+012656G85X+036437Y+012656
X+035437Y+012656G85X+035437Y+012656
X+034437Y+012656G85X+034437Y+012656
X+033437Y+012656G85X+033437Y+012656
X+032437Y+012656G85X+032437Y+012656
X+031437Y+012656G85X+031437Y+012656
X+030437Y+012656G85X+030437Y+012656
X+029437Y+012656G85X+029437Y+012656
X+028437Y+012656G85X+028437Y+012656
X+027437Y+012656G85X+027437Y+012656
X+026437Y+012656G85X+026437Y+012656
X+025437Y+012656G85X+025437Y+012656
X+024437Y+012656G85X+024437Y+012656
X+023437Y+012656G85X+023437Y+012656
X+022437Y+012656G85X+022437Y+012656
X+021437Y+012656G85X+021437Y+012656
X+020437Y+012656G85X+020437Y+012656
X+019437Y+012656G85X+019437Y+012656
X+018437Y+012656G85X+018437Y+012656
X+017437Y+012656G85X+017437Y+012656
X+016437Y+012656G85X+016437Y+012656
X+015437Y+012656G85X+015437Y+012656
X+014437Y+012656G85X+014437Y+012656
T06
X+001531Y+001218G85X+001531Y+001218
X+002531Y+001218G85X+002531Y+001218
X+003531Y+001218G85X+003531Y+001218
X+004531Y+001218G85X+004531Y+001218
X+005531Y+001218G85X+005531Y+001218
X+006531Y+001218G85X+006531Y+001218
X+007531Y+001218G85X+007531Y+001218
X+008531Y+001218G85X+008531Y+001218
X+009531Y+001218G85X+009531Y+001218
X+010531Y+001218G85X+010531Y+001218
X+011531Y+001218G85X+011531Y+001218
X+012531Y+001218G85X+012531Y+001218
X+012531Y+007218G85X+012531Y+007218
X+011531Y+007218G85X+011531Y+007218
X+010531Y+007218G85X+010531Y+007218
X+009531Y+007218G85X+009531Y+007218
X+008531Y+007218G85X+008531Y+007218
X+007531Y+007218G85X+007531Y+007218
X+006531Y+007218G85X+006531Y+007218
X+005531Y+007218G85X+005531Y+007218
X+004531Y+007218G85X+004531Y+007218
X+003531Y+007218G85X+003531Y+007218
X+002531Y+007218G85X+002531Y+007218
X+001531Y+007218G85X+001531Y+007218
T07
X+068474Y+009375G85X+068474Y+009375
X+068474Y+043828G85X+068474Y+043828
X+068474Y+020859G85X+068474Y+020859
X+068474Y+032344G85X+068474Y+032344
M30
