G04 Layer: TopSilkLayer*
G04 EasyEDA v6.3.43, 2020-05-25T11:21:51+02:00*
G04 b2f46ff1345c4209a88c0a1db2e3f32b,10*
G04 Gerber Generator version 0.2*
G04 Scale: 100 percent, Rotated: No, Reflected: No *
G04 Dimensions in inches *
G04 leading zeros omitted , absolute positions ,2 integer and 4 decimal *
%FSLAX24Y24*%
%MOIN*%
G90*
G70D02*

%ADD20C,0.005910*%
%ADD21C,0.004720*%

%LPD*%
G54D20*
G01X13031Y718D02*
G01X13031Y7718D01*
G01X1031Y7718D01*
G01X1031Y5718D01*
G01X31Y5718D01*
G01X31Y2718D01*
G01X1031Y2718D01*
G01X1031Y718D01*
G01X13031Y718D01*
G54D21*
G01X65765Y3101D02*
G01X66289Y3101D01*
G01X66289Y2578D01*
G01X14437Y648D02*
G01X13913Y648D01*
G01X13913Y1171D01*
G01X11959Y29041D02*
G01X11959Y28062D01*
G01X13156Y28062D01*
G01X18281Y40515D02*
G01X17781Y40515D01*
G01X17781Y41015D01*
G01X13435Y22328D02*
G01X13435Y20328D01*
G01X60882Y5559D02*
G01X60882Y4909D01*
G01X67929Y4909D01*
G01X67929Y6996D01*
G01X60882Y6996D01*
G01X60882Y6346D01*
G01X55343Y1723D02*
G01X55343Y620D01*
G01X54276Y620D02*
G01X59410Y620D01*
G01X59410Y1723D01*
G01X54276Y1723D01*
G01X54276Y620D01*
G01X1281Y8320D02*
G01X757Y8320D01*
G01X757Y8843D01*
G01X3804Y10367D02*
G01X3804Y8320D01*
G01X1781Y8320D01*
G01X1781Y9343D01*
G01X757Y9343D01*
G01X757Y10367D01*
G01X3804Y10367D01*
G01X52445Y5559D02*
G01X52445Y4909D01*
G01X59492Y4909D01*
G01X59492Y6996D01*
G01X52445Y6996D01*
G01X52445Y6346D01*
G01X64890Y8589D02*
G01X64890Y9691D01*
G01X65957Y9691D02*
G01X60823Y9691D01*
G01X60823Y8589D01*
G01X65957Y8589D01*
G01X65957Y9691D01*
G01X44893Y4021D02*
G01X44893Y3525D01*
G01X44168Y4021D02*
G01X44168Y3525D01*
G01X44168Y6318D02*
G01X44168Y5822D01*
G01X44893Y6318D02*
G01X44893Y5822D01*
G01X45648Y4621D02*
G01X45648Y3972D01*
G01X49695Y3972D01*
G01X49695Y6058D01*
G01X45648Y6058D01*
G01X45648Y5409D01*
G01X34163Y4621D02*
G01X34163Y3972D01*
G01X42211Y3972D01*
G01X42211Y6058D01*
G01X34163Y6058D01*
G01X34163Y5409D01*
G01X24085Y4621D02*
G01X24085Y3972D01*
G01X32133Y3972D01*
G01X32133Y6058D01*
G01X24085Y6058D01*
G01X24085Y5409D01*
G01X59521Y8778D02*
G01X59025Y8778D01*
G01X59521Y9502D02*
G01X59025Y9502D01*
G01X23331Y4697D02*
G01X23331Y5192D01*
G01X22606Y4697D02*
G01X22606Y5192D01*
G01X33174Y4697D02*
G01X33174Y5192D01*
G01X32450Y4697D02*
G01X32450Y5192D01*
G01X42528Y4697D02*
G01X42528Y5192D01*
G01X43252Y4697D02*
G01X43252Y5192D01*
G01X69034Y6130D02*
G01X69034Y5635D01*
G01X68309Y6130D02*
G01X68309Y5635D01*
G01X59872Y6083D02*
G01X59872Y5588D01*
G01X60596Y6083D02*
G01X60596Y5588D01*
G01X66191Y620D02*
G01X66191Y1723D01*
G01X61058Y1723D01*
G01X61058Y620D01*
G01X66191Y620D01*
G01X65125Y620D02*
G01X65125Y1723D01*
G01X57535Y8589D02*
G01X57535Y9691D01*
G01X52401Y9691D01*
G01X52401Y8589D01*
G01X57535Y8589D01*
G01X56468Y8589D02*
G01X56468Y9691D01*
G01X14242Y4621D02*
G01X14242Y3972D01*
G01X22289Y3972D01*
G01X22289Y6058D01*
G01X14242Y6058D01*
G01X14242Y5409D01*
G54D20*
G01X5771Y8365D02*
G01X5771Y7990D01*
G01X5771Y8365D02*
G01X5932Y8365D01*
G01X5986Y8347D01*
G01X6004Y8330D01*
G01X6022Y8294D01*
G01X6022Y8240D01*
G01X6004Y8204D01*
G01X5986Y8186D01*
G01X5932Y8169D01*
G01X5771Y8169D01*
G01X6140Y8240D02*
G01X6140Y7990D01*
G01X6140Y8133D02*
G01X6158Y8186D01*
G01X6193Y8222D01*
G01X6229Y8240D01*
G01X6283Y8240D01*
G01X6490Y8240D02*
G01X6455Y8222D01*
G01X6419Y8186D01*
G01X6401Y8133D01*
G01X6401Y8097D01*
G01X6419Y8043D01*
G01X6455Y8007D01*
G01X6490Y7990D01*
G01X6544Y7990D01*
G01X6580Y8007D01*
G01X6616Y8043D01*
G01X6634Y8097D01*
G01X6634Y8133D01*
G01X6616Y8186D01*
G01X6580Y8222D01*
G01X6544Y8240D01*
G01X6490Y8240D01*
G01X6752Y8365D02*
G01X6752Y7990D01*
G01X6752Y8365D02*
G01X6895Y7990D01*
G01X7038Y8365D02*
G01X6895Y7990D01*
G01X7038Y8365D02*
G01X7038Y7990D01*
G01X7156Y8365D02*
G01X7174Y8347D01*
G01X7192Y8365D01*
G01X7174Y8383D01*
G01X7156Y8365D01*
G01X7174Y8240D02*
G01X7174Y7990D01*
G01X7525Y8186D02*
G01X7489Y8222D01*
G01X7453Y8240D01*
G01X7400Y8240D01*
G01X7364Y8222D01*
G01X7328Y8186D01*
G01X7310Y8133D01*
G01X7310Y8097D01*
G01X7328Y8043D01*
G01X7364Y8007D01*
G01X7400Y7990D01*
G01X7453Y7990D01*
G01X7489Y8007D01*
G01X7525Y8043D01*
G01X7643Y8240D02*
G01X7643Y7990D01*
G01X7643Y8133D02*
G01X7661Y8186D01*
G01X7697Y8222D01*
G01X7732Y8240D01*
G01X7786Y8240D01*
G01X7994Y8240D02*
G01X7958Y8222D01*
G01X7922Y8186D01*
G01X7904Y8133D01*
G01X7904Y8097D01*
G01X7922Y8043D01*
G01X7958Y8007D01*
G01X7994Y7990D01*
G01X8047Y7990D01*
G01X8083Y8007D01*
G01X8119Y8043D01*
G01X8137Y8097D01*
G01X8137Y8133D01*
G01X8119Y8186D01*
G01X8083Y8222D01*
G01X8047Y8240D01*
G01X7994Y8240D01*
G01X59604Y2037D02*
G01X59604Y1661D01*
G01X59604Y2037D02*
G01X59765Y2037D01*
G01X59819Y2019D01*
G01X59837Y2001D01*
G01X59855Y1966D01*
G01X59855Y1930D01*
G01X59837Y1894D01*
G01X59819Y1876D01*
G01X59765Y1858D01*
G01X59604Y1858D01*
G01X59729Y1858D02*
G01X59855Y1661D01*
G01X60080Y2037D02*
G01X60044Y2019D01*
G01X60009Y1983D01*
G01X59991Y1948D01*
G01X59973Y1894D01*
G01X59973Y1805D01*
G01X59991Y1751D01*
G01X60009Y1715D01*
G01X60044Y1679D01*
G01X60080Y1661D01*
G01X60152Y1661D01*
G01X60187Y1679D01*
G01X60223Y1715D01*
G01X60241Y1751D01*
G01X60259Y1805D01*
G01X60259Y1894D01*
G01X60241Y1948D01*
G01X60223Y1983D01*
G01X60187Y2019D01*
G01X60152Y2037D01*
G01X60080Y2037D01*
G01X60377Y2037D02*
G01X60467Y1661D01*
G01X60556Y2037D02*
G01X60467Y1661D01*
G01X60556Y2037D02*
G01X60646Y1661D01*
G01X60735Y2037D02*
G01X60646Y1661D01*
G01X61104Y1983D02*
G01X61068Y2019D01*
G01X61014Y2037D01*
G01X60943Y2037D01*
G01X60889Y2019D01*
G01X60853Y1983D01*
G01X60853Y1948D01*
G01X60871Y1912D01*
G01X60889Y1894D01*
G01X60925Y1876D01*
G01X61032Y1840D01*
G01X61068Y1822D01*
G01X61086Y1805D01*
G01X61104Y1769D01*
G01X61104Y1715D01*
G01X61068Y1679D01*
G01X61014Y1661D01*
G01X60943Y1661D01*
G01X60889Y1679D01*
G01X60853Y1715D01*
G01X26588Y542D02*
G01X26570Y577D01*
G01X26534Y613D01*
G01X26498Y631D01*
G01X26427Y631D01*
G01X26391Y613D01*
G01X26355Y577D01*
G01X26337Y542D01*
G01X26319Y488D01*
G01X26319Y398D01*
G01X26337Y345D01*
G01X26355Y309D01*
G01X26391Y273D01*
G01X26427Y255D01*
G01X26498Y255D01*
G01X26534Y273D01*
G01X26570Y309D01*
G01X26588Y345D01*
G01X26813Y631D02*
G01X26777Y613D01*
G01X26742Y577D01*
G01X26724Y542D01*
G01X26706Y488D01*
G01X26706Y398D01*
G01X26724Y345D01*
G01X26742Y309D01*
G01X26777Y273D01*
G01X26813Y255D01*
G01X26885Y255D01*
G01X26920Y273D01*
G01X26956Y309D01*
G01X26974Y345D01*
G01X26992Y398D01*
G01X26992Y488D01*
G01X26974Y542D01*
G01X26956Y577D01*
G01X26920Y613D01*
G01X26885Y631D01*
G01X26813Y631D01*
G01X27110Y631D02*
G01X27110Y255D01*
G01X27110Y255D02*
G01X27325Y255D01*
G01X27443Y631D02*
G01X27443Y363D01*
G01X27461Y309D01*
G01X27497Y273D01*
G01X27550Y255D01*
G01X27586Y255D01*
G01X27640Y273D01*
G01X27676Y309D01*
G01X27694Y363D01*
G01X27694Y631D01*
G01X27812Y631D02*
G01X27812Y255D01*
G01X27812Y631D02*
G01X27955Y255D01*
G01X28098Y631D02*
G01X27955Y255D01*
G01X28098Y631D02*
G01X28098Y255D01*
G01X28216Y631D02*
G01X28216Y255D01*
G01X28216Y631D02*
G01X28467Y255D01*
G01X28467Y631D02*
G01X28467Y255D01*
G01X28835Y577D02*
G01X28800Y613D01*
G01X28746Y631D01*
G01X28674Y631D01*
G01X28621Y613D01*
G01X28585Y577D01*
G01X28585Y542D01*
G01X28603Y506D01*
G01X28621Y488D01*
G01X28656Y470D01*
G01X28764Y434D01*
G01X28800Y416D01*
G01X28817Y398D01*
G01X28835Y363D01*
G01X28835Y309D01*
G01X28800Y273D01*
G01X28746Y255D01*
G01X28674Y255D01*
G01X28621Y273D01*
G01X28585Y309D01*
G01X11168Y29237D02*
G01X11454Y29237D01*
G01X11508Y29219D01*
G01X11526Y29202D01*
G01X11543Y29166D01*
G01X11543Y29130D01*
G01X11526Y29094D01*
G01X11508Y29076D01*
G01X11454Y29058D01*
G01X11418Y29058D01*
G01X11239Y29355D02*
G01X11221Y29391D01*
G01X11168Y29445D01*
G01X11543Y29445D01*
G01X11168Y29670D02*
G01X11186Y29617D01*
G01X11239Y29581D01*
G01X11329Y29563D01*
G01X11382Y29563D01*
G01X11472Y29581D01*
G01X11526Y29617D01*
G01X11543Y29670D01*
G01X11543Y29706D01*
G01X11526Y29760D01*
G01X11472Y29796D01*
G01X11382Y29814D01*
G01X11329Y29814D01*
G01X11239Y29796D01*
G01X11186Y29760D01*
G01X11168Y29706D01*
G01X11168Y29670D01*
G01X29959Y31803D02*
G01X29959Y31427D01*
G01X29959Y31803D02*
G01X30084Y31803D01*
G01X30138Y31785D01*
G01X30174Y31749D01*
G01X30192Y31713D01*
G01X30210Y31660D01*
G01X30210Y31570D01*
G01X30192Y31516D01*
G01X30174Y31481D01*
G01X30138Y31445D01*
G01X30084Y31427D01*
G01X29959Y31427D01*
G01X30328Y31803D02*
G01X30328Y31427D01*
G01X30696Y31749D02*
G01X30661Y31785D01*
G01X30607Y31803D01*
G01X30535Y31803D01*
G01X30482Y31785D01*
G01X30446Y31749D01*
G01X30446Y31713D01*
G01X30464Y31678D01*
G01X30482Y31660D01*
G01X30517Y31642D01*
G01X30625Y31606D01*
G01X30661Y31588D01*
G01X30678Y31570D01*
G01X30696Y31534D01*
G01X30696Y31481D01*
G01X30661Y31445D01*
G01X30607Y31427D01*
G01X30535Y31427D01*
G01X30482Y31445D01*
G01X30446Y31481D01*
G01X30815Y31803D02*
G01X30815Y31427D01*
G01X30815Y31803D02*
G01X30976Y31803D01*
G01X31029Y31785D01*
G01X31047Y31767D01*
G01X31065Y31731D01*
G01X31065Y31678D01*
G01X31047Y31642D01*
G01X31029Y31624D01*
G01X30976Y31606D01*
G01X30815Y31606D01*
G01X31183Y31803D02*
G01X31183Y31427D01*
G01X31183Y31427D02*
G01X31398Y31427D01*
G01X31659Y31803D02*
G01X31516Y31427D01*
G01X31659Y31803D02*
G01X31802Y31427D01*
G01X31570Y31552D02*
G01X31749Y31552D01*
G01X31920Y31803D02*
G01X32064Y31624D01*
G01X32064Y31427D01*
G01X32207Y31803D02*
G01X32064Y31624D01*
G01X32325Y31803D02*
G01X32414Y31427D01*
G01X32504Y31803D02*
G01X32414Y31427D01*
G01X32504Y31803D02*
G01X32593Y31427D01*
G01X32683Y31803D02*
G01X32593Y31427D01*
G01X32801Y31803D02*
G01X32801Y31427D01*
G01X32801Y31803D02*
G01X32962Y31803D01*
G01X33016Y31785D01*
G01X33034Y31767D01*
G01X33051Y31731D01*
G01X33051Y31695D01*
G01X33034Y31660D01*
G01X33016Y31642D01*
G01X32962Y31624D01*
G01X32801Y31624D01*
G01X32926Y31624D02*
G01X33051Y31427D01*
G01X33170Y31803D02*
G01X33170Y31427D01*
G01X33413Y31803D02*
G01X33413Y31427D01*
G01X33288Y31803D02*
G01X33538Y31803D01*
G01X33656Y31803D02*
G01X33656Y31427D01*
G01X33656Y31803D02*
G01X33889Y31803D01*
G01X33656Y31624D02*
G01X33799Y31624D01*
G01X33656Y31427D02*
G01X33889Y31427D01*
G01X34007Y31803D02*
G01X34007Y31427D01*
G01X34007Y31803D02*
G01X34168Y31803D01*
G01X34222Y31785D01*
G01X34240Y31767D01*
G01X34258Y31731D01*
G01X34258Y31695D01*
G01X34240Y31660D01*
G01X34222Y31642D01*
G01X34168Y31624D01*
G01X34007Y31624D01*
G01X34132Y31624D02*
G01X34258Y31427D01*
G01X34651Y31803D02*
G01X34651Y31427D01*
G01X34651Y31803D02*
G01X34812Y31803D01*
G01X34866Y31785D01*
G01X34884Y31767D01*
G01X34902Y31731D01*
G01X34902Y31678D01*
G01X34884Y31642D01*
G01X34866Y31624D01*
G01X34812Y31606D01*
G01X34651Y31606D01*
G01X35020Y31803D02*
G01X35020Y31427D01*
G01X35020Y31427D02*
G01X35235Y31427D01*
G01X35353Y31803D02*
G01X35353Y31534D01*
G01X35371Y31481D01*
G01X35406Y31445D01*
G01X35460Y31427D01*
G01X35496Y31427D01*
G01X35550Y31445D01*
G01X35585Y31481D01*
G01X35603Y31534D01*
G01X35603Y31803D01*
G01X35990Y31713D02*
G01X35972Y31749D01*
G01X35936Y31785D01*
G01X35900Y31803D01*
G01X35829Y31803D01*
G01X35793Y31785D01*
G01X35757Y31749D01*
G01X35739Y31713D01*
G01X35721Y31660D01*
G01X35721Y31570D01*
G01X35739Y31516D01*
G01X35757Y31481D01*
G01X35793Y31445D01*
G01X35829Y31427D01*
G01X35900Y31427D01*
G01X35936Y31445D01*
G01X35972Y31481D01*
G01X35990Y31516D01*
G01X35990Y31570D01*
G01X35900Y31570D02*
G01X35990Y31570D01*
G01X36108Y31803D02*
G01X36108Y31427D01*
G01X36108Y31803D02*
G01X36269Y31803D01*
G01X36323Y31785D01*
G01X36341Y31767D01*
G01X36359Y31731D01*
G01X36359Y31695D01*
G01X36341Y31660D01*
G01X36323Y31642D01*
G01X36269Y31624D01*
G01X36108Y31624D02*
G01X36269Y31624D01*
G01X36323Y31606D01*
G01X36341Y31588D01*
G01X36359Y31552D01*
G01X36359Y31499D01*
G01X36341Y31463D01*
G01X36323Y31445D01*
G01X36269Y31427D01*
G01X36108Y31427D01*
G01X36584Y31803D02*
G01X36548Y31785D01*
G01X36512Y31749D01*
G01X36495Y31713D01*
G01X36477Y31660D01*
G01X36477Y31570D01*
G01X36495Y31516D01*
G01X36512Y31481D01*
G01X36548Y31445D01*
G01X36584Y31427D01*
G01X36656Y31427D01*
G01X36691Y31445D01*
G01X36727Y31481D01*
G01X36745Y31516D01*
G01X36763Y31570D01*
G01X36763Y31660D01*
G01X36745Y31713D01*
G01X36727Y31749D01*
G01X36691Y31785D01*
G01X36656Y31803D01*
G01X36584Y31803D01*
G01X37024Y31803D02*
G01X36881Y31427D01*
G01X37024Y31803D02*
G01X37167Y31427D01*
G01X36935Y31552D02*
G01X37114Y31552D01*
G01X37285Y31803D02*
G01X37285Y31427D01*
G01X37285Y31803D02*
G01X37447Y31803D01*
G01X37500Y31785D01*
G01X37518Y31767D01*
G01X37536Y31731D01*
G01X37536Y31695D01*
G01X37518Y31660D01*
G01X37500Y31642D01*
G01X37447Y31624D01*
G01X37285Y31624D01*
G01X37411Y31624D02*
G01X37536Y31427D01*
G01X37654Y31803D02*
G01X37654Y31427D01*
G01X37654Y31803D02*
G01X37779Y31803D01*
G01X37833Y31785D01*
G01X37869Y31749D01*
G01X37887Y31713D01*
G01X37905Y31660D01*
G01X37905Y31570D01*
G01X37887Y31516D01*
G01X37869Y31481D01*
G01X37833Y31445D01*
G01X37779Y31427D01*
G01X37654Y31427D01*
G01X38567Y31713D02*
G01X38549Y31749D01*
G01X38513Y31785D01*
G01X38477Y31803D01*
G01X38406Y31803D01*
G01X38370Y31785D01*
G01X38334Y31749D01*
G01X38316Y31713D01*
G01X38298Y31660D01*
G01X38298Y31570D01*
G01X38316Y31516D01*
G01X38334Y31481D01*
G01X38370Y31445D01*
G01X38406Y31427D01*
G01X38477Y31427D01*
G01X38513Y31445D01*
G01X38549Y31481D01*
G01X38567Y31516D01*
G01X38792Y31803D02*
G01X38757Y31785D01*
G01X38721Y31749D01*
G01X38703Y31713D01*
G01X38685Y31660D01*
G01X38685Y31570D01*
G01X38703Y31516D01*
G01X38721Y31481D01*
G01X38757Y31445D01*
G01X38792Y31427D01*
G01X38864Y31427D01*
G01X38900Y31445D01*
G01X38935Y31481D01*
G01X38953Y31516D01*
G01X38971Y31570D01*
G01X38971Y31660D01*
G01X38953Y31713D01*
G01X38935Y31749D01*
G01X38900Y31785D01*
G01X38864Y31803D01*
G01X38792Y31803D01*
G01X39089Y31803D02*
G01X39089Y31427D01*
G01X39089Y31803D02*
G01X39340Y31427D01*
G01X39340Y31803D02*
G01X39340Y31427D01*
G01X39458Y31803D02*
G01X39458Y31427D01*
G01X39458Y31803D02*
G01X39709Y31427D01*
G01X39709Y31803D02*
G01X39709Y31427D01*
G01X39827Y31803D02*
G01X39827Y31427D01*
G01X39827Y31803D02*
G01X40059Y31803D01*
G01X39827Y31624D02*
G01X39970Y31624D01*
G01X39827Y31427D02*
G01X40059Y31427D01*
G01X40446Y31713D02*
G01X40428Y31749D01*
G01X40392Y31785D01*
G01X40356Y31803D01*
G01X40285Y31803D01*
G01X40249Y31785D01*
G01X40213Y31749D01*
G01X40195Y31713D01*
G01X40177Y31660D01*
G01X40177Y31570D01*
G01X40195Y31516D01*
G01X40213Y31481D01*
G01X40249Y31445D01*
G01X40285Y31427D01*
G01X40356Y31427D01*
G01X40392Y31445D01*
G01X40428Y31481D01*
G01X40446Y31516D01*
G01X40689Y31803D02*
G01X40689Y31427D01*
G01X40564Y31803D02*
G01X40814Y31803D01*
G01X41040Y31803D02*
G01X41004Y31785D01*
G01X40968Y31749D01*
G01X40950Y31713D01*
G01X40933Y31660D01*
G01X40933Y31570D01*
G01X40950Y31516D01*
G01X40968Y31481D01*
G01X41004Y31445D01*
G01X41040Y31427D01*
G01X41112Y31427D01*
G01X41147Y31445D01*
G01X41183Y31481D01*
G01X41201Y31516D01*
G01X41219Y31570D01*
G01X41219Y31660D01*
G01X41201Y31713D01*
G01X41183Y31749D01*
G01X41147Y31785D01*
G01X41112Y31803D01*
G01X41040Y31803D01*
G01X41337Y31803D02*
G01X41337Y31427D01*
G01X41337Y31803D02*
G01X41498Y31803D01*
G01X41552Y31785D01*
G01X41570Y31767D01*
G01X41588Y31731D01*
G01X41588Y31695D01*
G01X41570Y31660D01*
G01X41552Y31642D01*
G01X41498Y31624D01*
G01X41337Y31624D01*
G01X41462Y31624D02*
G01X41588Y31427D01*
G01X16989Y42605D02*
G01X17276Y42605D01*
G01X17329Y42587D01*
G01X17347Y42569D01*
G01X17365Y42534D01*
G01X17365Y42498D01*
G01X17347Y42462D01*
G01X17329Y42444D01*
G01X17276Y42426D01*
G01X17240Y42426D01*
G01X16989Y42902D02*
G01X17240Y42723D01*
G01X17240Y42992D01*
G01X16989Y42902D02*
G01X17365Y42902D01*
G01X29498Y40360D02*
G01X29498Y39984D01*
G01X29498Y40360D02*
G01X29641Y39984D01*
G01X29784Y40360D02*
G01X29641Y39984D01*
G01X29784Y40360D02*
G01X29784Y39984D01*
G01X30010Y40360D02*
G01X29974Y40342D01*
G01X29938Y40306D01*
G01X29920Y40270D01*
G01X29902Y40217D01*
G01X29902Y40127D01*
G01X29920Y40073D01*
G01X29938Y40038D01*
G01X29974Y40002D01*
G01X30010Y39984D01*
G01X30081Y39984D01*
G01X30117Y40002D01*
G01X30153Y40038D01*
G01X30171Y40073D01*
G01X30188Y40127D01*
G01X30188Y40217D01*
G01X30171Y40270D01*
G01X30153Y40306D01*
G01X30117Y40342D01*
G01X30081Y40360D01*
G01X30010Y40360D01*
G01X30307Y40360D02*
G01X30307Y39984D01*
G01X30307Y40360D02*
G01X30432Y40360D01*
G01X30486Y40342D01*
G01X30521Y40306D01*
G01X30539Y40270D01*
G01X30557Y40217D01*
G01X30557Y40127D01*
G01X30539Y40073D01*
G01X30521Y40038D01*
G01X30486Y40002D01*
G01X30432Y39984D01*
G01X30307Y39984D01*
G01X30675Y40360D02*
G01X30675Y39984D01*
G01X30675Y40360D02*
G01X30908Y40360D01*
G01X30675Y40181D02*
G01X30818Y40181D01*
G01X30675Y39984D02*
G01X30908Y39984D01*
G01X31026Y40360D02*
G01X31026Y39984D01*
G01X31026Y39984D02*
G01X31241Y39984D01*
G01X31634Y40360D02*
G01X31634Y39984D01*
G01X31634Y40360D02*
G01X31867Y40360D01*
G01X31634Y40181D02*
G01X31778Y40181D01*
G01X32261Y40360D02*
G01X32261Y39984D01*
G01X32261Y40360D02*
G01X32422Y40360D01*
G01X32476Y40342D01*
G01X32493Y40324D01*
G01X32511Y40288D01*
G01X32511Y40234D01*
G01X32493Y40199D01*
G01X32476Y40181D01*
G01X32422Y40163D01*
G01X32261Y40163D01*
G01X32629Y40360D02*
G01X32629Y39984D01*
G01X32629Y39984D02*
G01X32844Y39984D01*
G01X32962Y40360D02*
G01X32962Y40091D01*
G01X32980Y40038D01*
G01X33016Y40002D01*
G01X33070Y39984D01*
G01X33105Y39984D01*
G01X33159Y40002D01*
G01X33195Y40038D01*
G01X33213Y40091D01*
G01X33213Y40360D01*
G01X33599Y40270D02*
G01X33581Y40306D01*
G01X33546Y40342D01*
G01X33510Y40360D01*
G01X33438Y40360D01*
G01X33402Y40342D01*
G01X33367Y40306D01*
G01X33349Y40270D01*
G01X33331Y40217D01*
G01X33331Y40127D01*
G01X33349Y40073D01*
G01X33367Y40038D01*
G01X33402Y40002D01*
G01X33438Y39984D01*
G01X33510Y39984D01*
G01X33546Y40002D01*
G01X33581Y40038D01*
G01X33599Y40073D01*
G01X33599Y40127D01*
G01X33510Y40127D02*
G01X33599Y40127D01*
G01X33717Y40360D02*
G01X33717Y39984D01*
G01X33717Y40360D02*
G01X33879Y40360D01*
G01X33932Y40342D01*
G01X33950Y40324D01*
G01X33968Y40288D01*
G01X33968Y40252D01*
G01X33950Y40217D01*
G01X33932Y40199D01*
G01X33879Y40181D01*
G01X33717Y40181D02*
G01X33879Y40181D01*
G01X33932Y40163D01*
G01X33950Y40145D01*
G01X33968Y40109D01*
G01X33968Y40055D01*
G01X33950Y40020D01*
G01X33932Y40002D01*
G01X33879Y39984D01*
G01X33717Y39984D01*
G01X34193Y40360D02*
G01X34158Y40342D01*
G01X34122Y40306D01*
G01X34104Y40270D01*
G01X34086Y40217D01*
G01X34086Y40127D01*
G01X34104Y40073D01*
G01X34122Y40038D01*
G01X34158Y40002D01*
G01X34193Y39984D01*
G01X34265Y39984D01*
G01X34301Y40002D01*
G01X34337Y40038D01*
G01X34355Y40073D01*
G01X34372Y40127D01*
G01X34372Y40217D01*
G01X34355Y40270D01*
G01X34337Y40306D01*
G01X34301Y40342D01*
G01X34265Y40360D01*
G01X34193Y40360D01*
G01X34634Y40360D02*
G01X34491Y39984D01*
G01X34634Y40360D02*
G01X34777Y39984D01*
G01X34544Y40109D02*
G01X34723Y40109D01*
G01X34895Y40360D02*
G01X34895Y39984D01*
G01X34895Y40360D02*
G01X35056Y40360D01*
G01X35110Y40342D01*
G01X35128Y40324D01*
G01X35146Y40288D01*
G01X35146Y40252D01*
G01X35128Y40217D01*
G01X35110Y40199D01*
G01X35056Y40181D01*
G01X34895Y40181D01*
G01X35020Y40181D02*
G01X35146Y39984D01*
G01X35264Y40360D02*
G01X35264Y39984D01*
G01X35264Y40360D02*
G01X35389Y40360D01*
G01X35443Y40342D01*
G01X35478Y40306D01*
G01X35496Y40270D01*
G01X35514Y40217D01*
G01X35514Y40127D01*
G01X35496Y40073D01*
G01X35478Y40038D01*
G01X35443Y40002D01*
G01X35389Y39984D01*
G01X35264Y39984D01*
G01X36176Y40270D02*
G01X36158Y40306D01*
G01X36123Y40342D01*
G01X36087Y40360D01*
G01X36015Y40360D01*
G01X35979Y40342D01*
G01X35944Y40306D01*
G01X35926Y40270D01*
G01X35908Y40217D01*
G01X35908Y40127D01*
G01X35926Y40073D01*
G01X35944Y40038D01*
G01X35979Y40002D01*
G01X36015Y39984D01*
G01X36087Y39984D01*
G01X36123Y40002D01*
G01X36158Y40038D01*
G01X36176Y40073D01*
G01X36402Y40360D02*
G01X36366Y40342D01*
G01X36330Y40306D01*
G01X36312Y40270D01*
G01X36294Y40217D01*
G01X36294Y40127D01*
G01X36312Y40073D01*
G01X36330Y40038D01*
G01X36366Y40002D01*
G01X36402Y39984D01*
G01X36473Y39984D01*
G01X36509Y40002D01*
G01X36545Y40038D01*
G01X36563Y40073D01*
G01X36581Y40127D01*
G01X36581Y40217D01*
G01X36563Y40270D01*
G01X36545Y40306D01*
G01X36509Y40342D01*
G01X36473Y40360D01*
G01X36402Y40360D01*
G01X36699Y40360D02*
G01X36699Y39984D01*
G01X36699Y40360D02*
G01X36949Y39984D01*
G01X36949Y40360D02*
G01X36949Y39984D01*
G01X37067Y40360D02*
G01X37067Y39984D01*
G01X37067Y40360D02*
G01X37318Y39984D01*
G01X37318Y40360D02*
G01X37318Y39984D01*
G01X37436Y40360D02*
G01X37436Y39984D01*
G01X37436Y40360D02*
G01X37669Y40360D01*
G01X37436Y40181D02*
G01X37579Y40181D01*
G01X37436Y39984D02*
G01X37669Y39984D01*
G01X38055Y40270D02*
G01X38037Y40306D01*
G01X38002Y40342D01*
G01X37966Y40360D01*
G01X37894Y40360D01*
G01X37858Y40342D01*
G01X37823Y40306D01*
G01X37805Y40270D01*
G01X37787Y40217D01*
G01X37787Y40127D01*
G01X37805Y40073D01*
G01X37823Y40038D01*
G01X37858Y40002D01*
G01X37894Y39984D01*
G01X37966Y39984D01*
G01X38002Y40002D01*
G01X38037Y40038D01*
G01X38055Y40073D01*
G01X38299Y40360D02*
G01X38299Y39984D01*
G01X38173Y40360D02*
G01X38424Y40360D01*
G01X38649Y40360D02*
G01X38614Y40342D01*
G01X38578Y40306D01*
G01X38560Y40270D01*
G01X38542Y40217D01*
G01X38542Y40127D01*
G01X38560Y40073D01*
G01X38578Y40038D01*
G01X38614Y40002D01*
G01X38649Y39984D01*
G01X38721Y39984D01*
G01X38757Y40002D01*
G01X38793Y40038D01*
G01X38810Y40073D01*
G01X38828Y40127D01*
G01X38828Y40217D01*
G01X38810Y40270D01*
G01X38793Y40306D01*
G01X38757Y40342D01*
G01X38721Y40360D01*
G01X38649Y40360D01*
G01X38947Y40360D02*
G01X38947Y39984D01*
G01X38947Y40360D02*
G01X39108Y40360D01*
G01X39161Y40342D01*
G01X39179Y40324D01*
G01X39197Y40288D01*
G01X39197Y40252D01*
G01X39179Y40217D01*
G01X39161Y40199D01*
G01X39108Y40181D01*
G01X38947Y40181D01*
G01X39072Y40181D02*
G01X39197Y39984D01*
G01X30538Y19850D02*
G01X30538Y19474D01*
G01X30538Y19850D02*
G01X30699Y19850D01*
G01X30753Y19832D01*
G01X30770Y19814D01*
G01X30788Y19778D01*
G01X30788Y19742D01*
G01X30770Y19707D01*
G01X30753Y19689D01*
G01X30699Y19671D01*
G01X30538Y19671D02*
G01X30699Y19671D01*
G01X30753Y19653D01*
G01X30770Y19635D01*
G01X30788Y19599D01*
G01X30788Y19545D01*
G01X30770Y19510D01*
G01X30753Y19492D01*
G01X30699Y19474D01*
G01X30538Y19474D01*
G01X30906Y19850D02*
G01X30906Y19474D01*
G01X30906Y19850D02*
G01X31139Y19850D01*
G01X30906Y19671D02*
G01X31050Y19671D01*
G01X30906Y19474D02*
G01X31139Y19474D01*
G01X31400Y19850D02*
G01X31257Y19474D01*
G01X31400Y19850D02*
G01X31544Y19474D01*
G01X31311Y19599D02*
G01X31490Y19599D01*
G01X31662Y19850D02*
G01X31662Y19474D01*
G01X31662Y19850D02*
G01X31805Y19474D01*
G01X31948Y19850D02*
G01X31805Y19474D01*
G01X31948Y19850D02*
G01X31948Y19474D01*
G01X32317Y19796D02*
G01X32281Y19832D01*
G01X32227Y19850D01*
G01X32156Y19850D01*
G01X32102Y19832D01*
G01X32066Y19796D01*
G01X32066Y19760D01*
G01X32084Y19724D01*
G01X32102Y19707D01*
G01X32138Y19689D01*
G01X32245Y19653D01*
G01X32281Y19635D01*
G01X32299Y19617D01*
G01X32317Y19581D01*
G01X32317Y19528D01*
G01X32281Y19492D01*
G01X32227Y19474D01*
G01X32156Y19474D01*
G01X32102Y19492D01*
G01X32066Y19528D01*
G01X32435Y19850D02*
G01X32435Y19474D01*
G01X32435Y19850D02*
G01X32596Y19850D01*
G01X32649Y19832D01*
G01X32667Y19814D01*
G01X32685Y19778D01*
G01X32685Y19724D01*
G01X32667Y19689D01*
G01X32649Y19671D01*
G01X32596Y19653D01*
G01X32435Y19653D01*
G01X32803Y19850D02*
G01X32803Y19474D01*
G01X32803Y19850D02*
G01X32964Y19850D01*
G01X33018Y19832D01*
G01X33036Y19814D01*
G01X33054Y19778D01*
G01X33054Y19742D01*
G01X33036Y19707D01*
G01X33018Y19689D01*
G01X32964Y19671D01*
G01X32803Y19671D01*
G01X32929Y19671D02*
G01X33054Y19474D01*
G01X33172Y19850D02*
G01X33172Y19474D01*
G01X33290Y19850D02*
G01X33290Y19474D01*
G01X33290Y19850D02*
G01X33541Y19474D01*
G01X33541Y19850D02*
G01X33541Y19474D01*
G01X33927Y19760D02*
G01X33909Y19796D01*
G01X33874Y19832D01*
G01X33838Y19850D01*
G01X33766Y19850D01*
G01X33730Y19832D01*
G01X33695Y19796D01*
G01X33677Y19760D01*
G01X33659Y19707D01*
G01X33659Y19617D01*
G01X33677Y19563D01*
G01X33695Y19528D01*
G01X33730Y19492D01*
G01X33766Y19474D01*
G01X33838Y19474D01*
G01X33874Y19492D01*
G01X33909Y19528D01*
G01X33927Y19563D01*
G01X33927Y19617D01*
G01X33838Y19617D02*
G01X33927Y19617D01*
G01X34321Y19850D02*
G01X34321Y19474D01*
G01X34321Y19850D02*
G01X34482Y19850D01*
G01X34536Y19832D01*
G01X34554Y19814D01*
G01X34571Y19778D01*
G01X34571Y19724D01*
G01X34554Y19689D01*
G01X34536Y19671D01*
G01X34482Y19653D01*
G01X34321Y19653D01*
G01X34690Y19850D02*
G01X34690Y19474D01*
G01X34690Y19474D02*
G01X34904Y19474D01*
G01X35022Y19850D02*
G01X35022Y19581D01*
G01X35040Y19528D01*
G01X35076Y19492D01*
G01X35130Y19474D01*
G01X35166Y19474D01*
G01X35219Y19492D01*
G01X35255Y19528D01*
G01X35273Y19581D01*
G01X35273Y19850D01*
G01X35659Y19760D02*
G01X35642Y19796D01*
G01X35606Y19832D01*
G01X35570Y19850D01*
G01X35498Y19850D01*
G01X35463Y19832D01*
G01X35427Y19796D01*
G01X35409Y19760D01*
G01X35391Y19707D01*
G01X35391Y19617D01*
G01X35409Y19563D01*
G01X35427Y19528D01*
G01X35463Y19492D01*
G01X35498Y19474D01*
G01X35570Y19474D01*
G01X35606Y19492D01*
G01X35642Y19528D01*
G01X35659Y19563D01*
G01X35659Y19617D01*
G01X35570Y19617D02*
G01X35659Y19617D01*
G01X35778Y19850D02*
G01X35778Y19474D01*
G01X35778Y19850D02*
G01X35939Y19850D01*
G01X35992Y19832D01*
G01X36010Y19814D01*
G01X36028Y19778D01*
G01X36028Y19742D01*
G01X36010Y19707D01*
G01X35992Y19689D01*
G01X35939Y19671D01*
G01X35778Y19671D02*
G01X35939Y19671D01*
G01X35992Y19653D01*
G01X36010Y19635D01*
G01X36028Y19599D01*
G01X36028Y19545D01*
G01X36010Y19510D01*
G01X35992Y19492D01*
G01X35939Y19474D01*
G01X35778Y19474D01*
G01X36254Y19850D02*
G01X36218Y19832D01*
G01X36182Y19796D01*
G01X36164Y19760D01*
G01X36146Y19707D01*
G01X36146Y19617D01*
G01X36164Y19563D01*
G01X36182Y19528D01*
G01X36218Y19492D01*
G01X36254Y19474D01*
G01X36325Y19474D01*
G01X36361Y19492D01*
G01X36397Y19528D01*
G01X36415Y19563D01*
G01X36433Y19617D01*
G01X36433Y19707D01*
G01X36415Y19760D01*
G01X36397Y19796D01*
G01X36361Y19832D01*
G01X36325Y19850D01*
G01X36254Y19850D01*
G01X36694Y19850D02*
G01X36551Y19474D01*
G01X36694Y19850D02*
G01X36837Y19474D01*
G01X36604Y19599D02*
G01X36783Y19599D01*
G01X36955Y19850D02*
G01X36955Y19474D01*
G01X36955Y19850D02*
G01X37116Y19850D01*
G01X37170Y19832D01*
G01X37188Y19814D01*
G01X37206Y19778D01*
G01X37206Y19742D01*
G01X37188Y19707D01*
G01X37170Y19689D01*
G01X37116Y19671D01*
G01X36955Y19671D01*
G01X37080Y19671D02*
G01X37206Y19474D01*
G01X37324Y19850D02*
G01X37324Y19474D01*
G01X37324Y19850D02*
G01X37449Y19850D01*
G01X37503Y19832D01*
G01X37539Y19796D01*
G01X37556Y19760D01*
G01X37574Y19707D01*
G01X37574Y19617D01*
G01X37556Y19563D01*
G01X37539Y19528D01*
G01X37503Y19492D01*
G01X37449Y19474D01*
G01X37324Y19474D01*
G01X38236Y19760D02*
G01X38219Y19796D01*
G01X38183Y19832D01*
G01X38147Y19850D01*
G01X38075Y19850D01*
G01X38040Y19832D01*
G01X38004Y19796D01*
G01X37986Y19760D01*
G01X37968Y19707D01*
G01X37968Y19617D01*
G01X37986Y19563D01*
G01X38004Y19528D01*
G01X38040Y19492D01*
G01X38075Y19474D01*
G01X38147Y19474D01*
G01X38183Y19492D01*
G01X38219Y19528D01*
G01X38236Y19563D01*
G01X38462Y19850D02*
G01X38426Y19832D01*
G01X38390Y19796D01*
G01X38372Y19760D01*
G01X38355Y19707D01*
G01X38355Y19617D01*
G01X38372Y19563D01*
G01X38390Y19528D01*
G01X38426Y19492D01*
G01X38462Y19474D01*
G01X38533Y19474D01*
G01X38569Y19492D01*
G01X38605Y19528D01*
G01X38623Y19563D01*
G01X38641Y19617D01*
G01X38641Y19707D01*
G01X38623Y19760D01*
G01X38605Y19796D01*
G01X38569Y19832D01*
G01X38533Y19850D01*
G01X38462Y19850D01*
G01X38759Y19850D02*
G01X38759Y19474D01*
G01X38759Y19850D02*
G01X39010Y19474D01*
G01X39010Y19850D02*
G01X39010Y19474D01*
G01X39128Y19850D02*
G01X39128Y19474D01*
G01X39128Y19850D02*
G01X39378Y19474D01*
G01X39378Y19850D02*
G01X39378Y19474D01*
G01X39496Y19850D02*
G01X39496Y19474D01*
G01X39496Y19850D02*
G01X39729Y19850D01*
G01X39496Y19671D02*
G01X39639Y19671D01*
G01X39496Y19474D02*
G01X39729Y19474D01*
G01X40115Y19760D02*
G01X40098Y19796D01*
G01X40062Y19832D01*
G01X40026Y19850D01*
G01X39954Y19850D01*
G01X39919Y19832D01*
G01X39883Y19796D01*
G01X39865Y19760D01*
G01X39847Y19707D01*
G01X39847Y19617D01*
G01X39865Y19563D01*
G01X39883Y19528D01*
G01X39919Y19492D01*
G01X39954Y19474D01*
G01X40026Y19474D01*
G01X40062Y19492D01*
G01X40098Y19528D01*
G01X40115Y19563D01*
G01X40359Y19850D02*
G01X40359Y19474D01*
G01X40234Y19850D02*
G01X40484Y19850D01*
G01X40710Y19850D02*
G01X40674Y19832D01*
G01X40638Y19796D01*
G01X40620Y19760D01*
G01X40602Y19707D01*
G01X40602Y19617D01*
G01X40620Y19563D01*
G01X40638Y19528D01*
G01X40674Y19492D01*
G01X40710Y19474D01*
G01X40781Y19474D01*
G01X40817Y19492D01*
G01X40853Y19528D01*
G01X40871Y19563D01*
G01X40889Y19617D01*
G01X40889Y19707D01*
G01X40871Y19760D01*
G01X40853Y19796D01*
G01X40817Y19832D01*
G01X40781Y19850D01*
G01X40710Y19850D01*
G01X41007Y19850D02*
G01X41007Y19474D01*
G01X41007Y19850D02*
G01X41168Y19850D01*
G01X41221Y19832D01*
G01X41239Y19814D01*
G01X41257Y19778D01*
G01X41257Y19742D01*
G01X41239Y19707D01*
G01X41221Y19689D01*
G01X41168Y19671D01*
G01X41007Y19671D01*
G01X41132Y19671D02*
G01X41257Y19474D01*
G01X63665Y8600D02*
G01X63665Y8224D01*
G01X63665Y8224D02*
G01X63880Y8224D01*
G01X63998Y8600D02*
G01X63998Y8224D01*
G01X63998Y8600D02*
G01X64141Y8224D01*
G01X64285Y8600D02*
G01X64141Y8224D01*
G01X64285Y8600D02*
G01X64285Y8224D01*
G01X64438Y8600D02*
G01X64635Y8600D01*
G01X64528Y8457D01*
G01X64582Y8457D01*
G01X64617Y8439D01*
G01X64635Y8421D01*
G01X64653Y8367D01*
G01X64653Y8331D01*
G01X64635Y8278D01*
G01X64600Y8242D01*
G01X64546Y8224D01*
G01X64492Y8224D01*
G01X64438Y8242D01*
G01X64421Y8260D01*
G01X64403Y8295D01*
G01X64807Y8600D02*
G01X65004Y8600D01*
G01X64897Y8457D01*
G01X64950Y8457D01*
G01X64986Y8439D01*
G01X65004Y8421D01*
G01X65022Y8367D01*
G01X65022Y8331D01*
G01X65004Y8278D01*
G01X64968Y8242D01*
G01X64915Y8224D01*
G01X64861Y8224D01*
G01X64807Y8242D01*
G01X64789Y8260D01*
G01X64771Y8295D01*
G01X65373Y8474D02*
G01X65355Y8421D01*
G01X65319Y8385D01*
G01X65265Y8367D01*
G01X65247Y8367D01*
G01X65194Y8385D01*
G01X65158Y8421D01*
G01X65140Y8474D01*
G01X65140Y8492D01*
G01X65158Y8546D01*
G01X65194Y8582D01*
G01X65247Y8600D01*
G01X65265Y8600D01*
G01X65319Y8582D01*
G01X65355Y8546D01*
G01X65373Y8474D01*
G01X65373Y8385D01*
G01X65355Y8295D01*
G01X65319Y8242D01*
G01X65265Y8224D01*
G01X65229Y8224D01*
G01X65176Y8242D01*
G01X65158Y8278D01*
G01X51503Y1379D02*
G01X51324Y1128D01*
G01X51593Y1128D01*
G01X51503Y1379D02*
G01X51503Y1003D01*
G01X51711Y1379D02*
G01X51711Y1003D01*
G01X51961Y1379D02*
G01X51711Y1128D01*
G01X51800Y1218D02*
G01X51961Y1003D01*
G01X52330Y1379D02*
G01X52151Y1003D01*
G01X52079Y1379D02*
G01X52330Y1379D01*
G01X67185Y3372D02*
G01X67220Y3390D01*
G01X67274Y3443D01*
G01X67274Y3068D01*
G01X67392Y3443D02*
G01X67392Y3068D01*
G01X67643Y3443D02*
G01X67392Y3193D01*
G01X67482Y3282D02*
G01X67643Y3068D01*
G01X56323Y559D02*
G01X56359Y577D01*
G01X56412Y631D01*
G01X56412Y255D01*
G01X56638Y631D02*
G01X56584Y613D01*
G01X56548Y559D01*
G01X56530Y470D01*
G01X56530Y416D01*
G01X56548Y327D01*
G01X56584Y273D01*
G01X56638Y255D01*
G01X56674Y255D01*
G01X56727Y273D01*
G01X56763Y327D01*
G01X56781Y416D01*
G01X56781Y470D01*
G01X56763Y559D01*
G01X56727Y613D01*
G01X56674Y631D01*
G01X56638Y631D01*
G01X57007Y631D02*
G01X56953Y613D01*
G01X56917Y559D01*
G01X56899Y470D01*
G01X56899Y416D01*
G01X56917Y327D01*
G01X56953Y273D01*
G01X57007Y255D01*
G01X57042Y255D01*
G01X57096Y273D01*
G01X57132Y327D01*
G01X57150Y416D01*
G01X57150Y470D01*
G01X57132Y559D01*
G01X57096Y613D01*
G01X57042Y631D01*
G01X57007Y631D01*
G01X57268Y631D02*
G01X57268Y255D01*
G01X57518Y631D02*
G01X57268Y380D01*
G01X57357Y470D02*
G01X57518Y255D01*
G01X4511Y10709D02*
G01X4511Y10333D01*
G01X4511Y10709D02*
G01X4744Y10709D01*
G01X4511Y10530D02*
G01X4654Y10530D01*
G01X4511Y10333D02*
G01X4744Y10333D01*
G01X4862Y10709D02*
G01X5113Y10333D01*
G01X5113Y10709D02*
G01X4862Y10333D01*
G01X5231Y10709D02*
G01X5231Y10333D01*
G01X5231Y10709D02*
G01X5392Y10709D01*
G01X5445Y10691D01*
G01X5463Y10673D01*
G01X5481Y10637D01*
G01X5481Y10584D01*
G01X5463Y10548D01*
G01X5445Y10530D01*
G01X5392Y10512D01*
G01X5231Y10512D01*
G01X5743Y10709D02*
G01X5599Y10333D01*
G01X5743Y10709D02*
G01X5886Y10333D01*
G01X5653Y10459D02*
G01X5832Y10459D01*
G01X6004Y10709D02*
G01X6004Y10333D01*
G01X6004Y10709D02*
G01X6254Y10333D01*
G01X6254Y10709D02*
G01X6254Y10333D01*
G01X6623Y10655D02*
G01X6587Y10691D01*
G01X6533Y10709D01*
G01X6462Y10709D01*
G01X6408Y10691D01*
G01X6372Y10655D01*
G01X6372Y10620D01*
G01X6390Y10584D01*
G01X6408Y10566D01*
G01X6444Y10548D01*
G01X6551Y10512D01*
G01X6587Y10494D01*
G01X6605Y10476D01*
G01X6623Y10441D01*
G01X6623Y10387D01*
G01X6587Y10351D01*
G01X6533Y10333D01*
G01X6462Y10333D01*
G01X6408Y10351D01*
G01X6372Y10387D01*
G01X6741Y10709D02*
G01X6741Y10333D01*
G01X6967Y10709D02*
G01X6931Y10691D01*
G01X6895Y10655D01*
G01X6877Y10620D01*
G01X6859Y10566D01*
G01X6859Y10476D01*
G01X6877Y10423D01*
G01X6895Y10387D01*
G01X6931Y10351D01*
G01X6967Y10333D01*
G01X7038Y10333D01*
G01X7074Y10351D01*
G01X7110Y10387D01*
G01X7128Y10423D01*
G01X7146Y10476D01*
G01X7146Y10566D01*
G01X7128Y10620D01*
G01X7110Y10655D01*
G01X7074Y10691D01*
G01X7038Y10709D01*
G01X6967Y10709D01*
G01X7264Y10709D02*
G01X7264Y10333D01*
G01X7264Y10709D02*
G01X7514Y10333D01*
G01X7514Y10709D02*
G01X7514Y10333D01*
G01X7908Y10709D02*
G01X7908Y10333D01*
G01X8158Y10709D02*
G01X8158Y10333D01*
G01X7908Y10530D02*
G01X8158Y10530D01*
G01X8277Y10709D02*
G01X8277Y10333D01*
G01X8277Y10709D02*
G01X8509Y10709D01*
G01X8277Y10530D02*
G01X8420Y10530D01*
G01X8277Y10333D02*
G01X8509Y10333D01*
G01X8770Y10709D02*
G01X8627Y10333D01*
G01X8770Y10709D02*
G01X8914Y10333D01*
G01X8681Y10459D02*
G01X8860Y10459D01*
G01X9032Y10709D02*
G01X9032Y10333D01*
G01X9032Y10709D02*
G01X9157Y10709D01*
G01X9211Y10691D01*
G01X9246Y10655D01*
G01X9264Y10620D01*
G01X9282Y10566D01*
G01X9282Y10476D01*
G01X9264Y10423D01*
G01X9246Y10387D01*
G01X9211Y10351D01*
G01X9157Y10333D01*
G01X9032Y10333D01*
G01X9400Y10709D02*
G01X9400Y10333D01*
G01X9400Y10709D02*
G01X9633Y10709D01*
G01X9400Y10530D02*
G01X9544Y10530D01*
G01X9400Y10333D02*
G01X9633Y10333D01*
G01X9751Y10709D02*
G01X9751Y10333D01*
G01X9751Y10709D02*
G01X9912Y10709D01*
G01X9966Y10691D01*
G01X9984Y10673D01*
G01X10002Y10637D01*
G01X10002Y10602D01*
G01X9984Y10566D01*
G01X9966Y10548D01*
G01X9912Y10530D01*
G01X9751Y10530D01*
G01X9876Y10530D02*
G01X10002Y10333D01*
G01X55228Y8600D02*
G01X55228Y8224D01*
G01X55228Y8224D02*
G01X55443Y8224D01*
G01X55561Y8600D02*
G01X55561Y8224D01*
G01X55561Y8600D02*
G01X55704Y8224D01*
G01X55847Y8600D02*
G01X55704Y8224D01*
G01X55847Y8600D02*
G01X55847Y8224D01*
G01X56001Y8600D02*
G01X56198Y8600D01*
G01X56090Y8457D01*
G01X56144Y8457D01*
G01X56180Y8439D01*
G01X56198Y8421D01*
G01X56216Y8367D01*
G01X56216Y8331D01*
G01X56198Y8278D01*
G01X56162Y8242D01*
G01X56108Y8224D01*
G01X56055Y8224D01*
G01X56001Y8242D01*
G01X55983Y8260D01*
G01X55965Y8295D01*
G01X56370Y8600D02*
G01X56566Y8600D01*
G01X56459Y8457D01*
G01X56513Y8457D01*
G01X56549Y8439D01*
G01X56566Y8421D01*
G01X56584Y8367D01*
G01X56584Y8331D01*
G01X56566Y8278D01*
G01X56531Y8242D01*
G01X56477Y8224D01*
G01X56423Y8224D01*
G01X56370Y8242D01*
G01X56352Y8260D01*
G01X56334Y8295D01*
G01X56935Y8474D02*
G01X56917Y8421D01*
G01X56881Y8385D01*
G01X56828Y8367D01*
G01X56810Y8367D01*
G01X56756Y8385D01*
G01X56720Y8421D01*
G01X56702Y8474D01*
G01X56702Y8492D01*
G01X56720Y8546D01*
G01X56756Y8582D01*
G01X56810Y8600D01*
G01X56828Y8600D01*
G01X56881Y8582D01*
G01X56917Y8546D01*
G01X56935Y8474D01*
G01X56935Y8385D01*
G01X56917Y8295D01*
G01X56881Y8242D01*
G01X56828Y8224D01*
G01X56792Y8224D01*
G01X56738Y8242D01*
G01X56720Y8278D01*
G01X62418Y10410D02*
G01X62454Y10428D01*
G01X62507Y10482D01*
G01X62507Y10106D01*
G01X62733Y10482D02*
G01X62679Y10464D01*
G01X62643Y10410D01*
G01X62625Y10321D01*
G01X62625Y10267D01*
G01X62643Y10178D01*
G01X62679Y10124D01*
G01X62733Y10106D01*
G01X62769Y10106D01*
G01X62822Y10124D01*
G01X62858Y10178D01*
G01X62876Y10267D01*
G01X62876Y10321D01*
G01X62858Y10410D01*
G01X62822Y10464D01*
G01X62769Y10482D01*
G01X62733Y10482D01*
G01X62994Y10482D02*
G01X62994Y10106D01*
G01X63245Y10482D02*
G01X62994Y10232D01*
G01X63084Y10321D02*
G01X63245Y10106D01*
G01X44166Y5318D02*
G01X44112Y5301D01*
G01X44076Y5247D01*
G01X44059Y5157D01*
G01X44059Y5104D01*
G01X44076Y5014D01*
G01X44112Y4961D01*
G01X44166Y4943D01*
G01X44202Y4943D01*
G01X44255Y4961D01*
G01X44291Y5014D01*
G01X44309Y5104D01*
G01X44309Y5157D01*
G01X44291Y5247D01*
G01X44255Y5301D01*
G01X44202Y5318D01*
G01X44166Y5318D01*
G01X44427Y5318D02*
G01X44427Y5050D01*
G01X44445Y4996D01*
G01X44481Y4961D01*
G01X44535Y4943D01*
G01X44570Y4943D01*
G01X44624Y4961D01*
G01X44660Y4996D01*
G01X44678Y5050D01*
G01X44678Y5318D01*
G01X44796Y5247D02*
G01X44832Y5265D01*
G01X44885Y5318D01*
G01X44885Y4943D01*
G01X44166Y7662D02*
G01X44112Y7644D01*
G01X44076Y7591D01*
G01X44059Y7501D01*
G01X44059Y7447D01*
G01X44076Y7358D01*
G01X44112Y7304D01*
G01X44166Y7286D01*
G01X44202Y7286D01*
G01X44255Y7304D01*
G01X44291Y7358D01*
G01X44309Y7447D01*
G01X44309Y7501D01*
G01X44291Y7591D01*
G01X44255Y7644D01*
G01X44202Y7662D01*
G01X44166Y7662D01*
G01X44427Y7662D02*
G01X44427Y7394D01*
G01X44445Y7340D01*
G01X44481Y7304D01*
G01X44535Y7286D01*
G01X44570Y7286D01*
G01X44624Y7304D01*
G01X44660Y7340D01*
G01X44678Y7394D01*
G01X44678Y7662D01*
G01X44796Y7591D02*
G01X44832Y7608D01*
G01X44885Y7662D01*
G01X44885Y7286D01*
G01X50499Y6167D02*
G01X50499Y6184D01*
G01X50517Y6220D01*
G01X50535Y6238D01*
G01X50571Y6256D01*
G01X50642Y6256D01*
G01X50678Y6238D01*
G01X50696Y6220D01*
G01X50714Y6184D01*
G01X50714Y6149D01*
G01X50696Y6113D01*
G01X50660Y6059D01*
G01X50481Y5880D01*
G01X50732Y5880D01*
G01X50957Y6256D02*
G01X50904Y6238D01*
G01X50868Y6184D01*
G01X50850Y6095D01*
G01X50850Y6041D01*
G01X50868Y5952D01*
G01X50904Y5898D01*
G01X50957Y5880D01*
G01X50993Y5880D01*
G01X51047Y5898D01*
G01X51083Y5952D01*
G01X51100Y6041D01*
G01X51100Y6095D01*
G01X51083Y6184D01*
G01X51047Y6238D01*
G01X50993Y6256D01*
G01X50957Y6256D01*
G01X51219Y6256D02*
G01X51219Y5880D01*
G01X51469Y6256D02*
G01X51219Y6005D01*
G01X51308Y6095D02*
G01X51469Y5880D01*
G01X50544Y7573D02*
G01X50544Y7591D01*
G01X50562Y7626D01*
G01X50580Y7644D01*
G01X50616Y7662D01*
G01X50687Y7662D01*
G01X50723Y7644D01*
G01X50741Y7626D01*
G01X50759Y7591D01*
G01X50759Y7555D01*
G01X50741Y7519D01*
G01X50705Y7465D01*
G01X50526Y7286D01*
G01X50777Y7286D01*
G01X51002Y7662D02*
G01X50949Y7644D01*
G01X50913Y7591D01*
G01X50895Y7501D01*
G01X50895Y7447D01*
G01X50913Y7358D01*
G01X50949Y7304D01*
G01X51002Y7286D01*
G01X51038Y7286D01*
G01X51092Y7304D01*
G01X51127Y7358D01*
G01X51145Y7447D01*
G01X51145Y7501D01*
G01X51127Y7591D01*
G01X51092Y7644D01*
G01X51038Y7662D01*
G01X51002Y7662D01*
G01X51263Y7662D02*
G01X51263Y7286D01*
G01X51514Y7662D02*
G01X51263Y7412D01*
G01X51353Y7501D02*
G01X51514Y7286D01*
G01X50705Y4850D02*
G01X50526Y4599D01*
G01X50795Y4599D01*
G01X50705Y4850D02*
G01X50705Y4474D01*
G01X50913Y4850D02*
G01X50913Y4474D01*
G01X51163Y4850D02*
G01X50913Y4599D01*
G01X51002Y4689D02*
G01X51163Y4474D01*
G01X51532Y4850D02*
G01X51353Y4474D01*
G01X51281Y4850D02*
G01X51532Y4850D01*
G01X46237Y7662D02*
G01X46237Y7286D01*
G01X46237Y7662D02*
G01X46381Y7286D01*
G01X46524Y7662D02*
G01X46381Y7286D01*
G01X46524Y7662D02*
G01X46524Y7286D01*
G01X46910Y7573D02*
G01X46892Y7608D01*
G01X46857Y7644D01*
G01X46821Y7662D01*
G01X46749Y7662D01*
G01X46713Y7644D01*
G01X46678Y7608D01*
G01X46660Y7573D01*
G01X46642Y7519D01*
G01X46642Y7430D01*
G01X46660Y7376D01*
G01X46678Y7340D01*
G01X46713Y7304D01*
G01X46749Y7286D01*
G01X46821Y7286D01*
G01X46857Y7304D01*
G01X46892Y7340D01*
G01X46910Y7376D01*
G01X47028Y7662D02*
G01X47028Y7286D01*
G01X47028Y7662D02*
G01X47189Y7662D01*
G01X47243Y7644D01*
G01X47261Y7626D01*
G01X47279Y7591D01*
G01X47279Y7537D01*
G01X47261Y7501D01*
G01X47243Y7483D01*
G01X47189Y7465D01*
G01X47028Y7465D01*
G01X47576Y7662D02*
G01X47397Y7412D01*
G01X47665Y7412D01*
G01X47576Y7662D02*
G01X47576Y7286D01*
G01X48016Y7537D02*
G01X47998Y7483D01*
G01X47963Y7447D01*
G01X47909Y7430D01*
G01X47891Y7430D01*
G01X47837Y7447D01*
G01X47801Y7483D01*
G01X47784Y7537D01*
G01X47784Y7555D01*
G01X47801Y7608D01*
G01X47837Y7644D01*
G01X47891Y7662D01*
G01X47909Y7662D01*
G01X47963Y7644D01*
G01X47998Y7608D01*
G01X48016Y7537D01*
G01X48016Y7447D01*
G01X47998Y7358D01*
G01X47963Y7304D01*
G01X47909Y7286D01*
G01X47873Y7286D01*
G01X47819Y7304D01*
G01X47801Y7340D01*
G01X48152Y7573D02*
G01X48152Y7591D01*
G01X48170Y7626D01*
G01X48188Y7644D01*
G01X48224Y7662D01*
G01X48295Y7662D01*
G01X48331Y7644D01*
G01X48349Y7626D01*
G01X48367Y7591D01*
G01X48367Y7555D01*
G01X48349Y7519D01*
G01X48313Y7465D01*
G01X48134Y7286D01*
G01X48385Y7286D01*
G01X48503Y7591D02*
G01X48539Y7608D01*
G01X48592Y7662D01*
G01X48592Y7286D01*
G01X48711Y7447D02*
G01X49033Y7447D01*
G01X49151Y7662D02*
G01X49151Y7286D01*
G01X49151Y7662D02*
G01X49383Y7662D01*
G01X49151Y7483D02*
G01X49294Y7483D01*
G01X49151Y7286D02*
G01X49383Y7286D01*
G01X49502Y7662D02*
G01X49502Y7286D01*
G01X49502Y7662D02*
G01X49663Y7662D01*
G01X49716Y7644D01*
G01X49734Y7626D01*
G01X49752Y7591D01*
G01X49752Y7537D01*
G01X49734Y7501D01*
G01X49716Y7483D01*
G01X49663Y7465D01*
G01X49502Y7465D01*
G01X37194Y7662D02*
G01X37015Y7286D01*
G01X36943Y7662D02*
G01X37194Y7662D01*
G01X37491Y7662D02*
G01X37312Y7412D01*
G01X37580Y7412D01*
G01X37491Y7662D02*
G01X37491Y7286D01*
G01X37698Y7662D02*
G01X37698Y7286D01*
G01X37949Y7662D02*
G01X37949Y7286D01*
G01X37698Y7483D02*
G01X37949Y7483D01*
G01X38335Y7573D02*
G01X38317Y7608D01*
G01X38282Y7644D01*
G01X38246Y7662D01*
G01X38174Y7662D01*
G01X38138Y7644D01*
G01X38103Y7608D01*
G01X38085Y7573D01*
G01X38067Y7519D01*
G01X38067Y7430D01*
G01X38085Y7376D01*
G01X38103Y7340D01*
G01X38138Y7304D01*
G01X38174Y7286D01*
G01X38246Y7286D01*
G01X38282Y7304D01*
G01X38317Y7340D01*
G01X38335Y7376D01*
G01X38579Y7662D02*
G01X38579Y7286D01*
G01X38453Y7662D02*
G01X38704Y7662D01*
G01X39037Y7662D02*
G01X38858Y7662D01*
G01X38840Y7501D01*
G01X38858Y7519D01*
G01X38912Y7537D01*
G01X38965Y7537D01*
G01X39019Y7519D01*
G01X39055Y7483D01*
G01X39073Y7430D01*
G01X39073Y7394D01*
G01X39055Y7340D01*
G01X39019Y7304D01*
G01X38965Y7286D01*
G01X38912Y7286D01*
G01X38858Y7304D01*
G01X38840Y7322D01*
G01X38822Y7358D01*
G01X39423Y7537D02*
G01X39405Y7483D01*
G01X39370Y7447D01*
G01X39316Y7430D01*
G01X39298Y7430D01*
G01X39244Y7447D01*
G01X39209Y7483D01*
G01X39191Y7537D01*
G01X39191Y7555D01*
G01X39209Y7608D01*
G01X39244Y7644D01*
G01X39298Y7662D01*
G01X39316Y7662D01*
G01X39370Y7644D01*
G01X39405Y7608D01*
G01X39423Y7537D01*
G01X39423Y7447D01*
G01X39405Y7358D01*
G01X39370Y7304D01*
G01X39316Y7286D01*
G01X39280Y7286D01*
G01X39226Y7304D01*
G01X39209Y7340D01*
G01X39756Y7662D02*
G01X39577Y7662D01*
G01X39559Y7501D01*
G01X39577Y7519D01*
G01X39631Y7537D01*
G01X39685Y7537D01*
G01X39738Y7519D01*
G01X39774Y7483D01*
G01X39792Y7430D01*
G01X39792Y7394D01*
G01X39774Y7340D01*
G01X39738Y7304D01*
G01X39685Y7286D01*
G01X39631Y7286D01*
G01X39577Y7304D01*
G01X39559Y7322D01*
G01X39541Y7358D01*
G01X27115Y7662D02*
G01X26936Y7286D01*
G01X26865Y7662D02*
G01X27115Y7662D01*
G01X27413Y7662D02*
G01X27234Y7412D01*
G01X27502Y7412D01*
G01X27413Y7662D02*
G01X27413Y7286D01*
G01X27620Y7662D02*
G01X27620Y7286D01*
G01X27871Y7662D02*
G01X27871Y7286D01*
G01X27620Y7483D02*
G01X27871Y7483D01*
G01X28257Y7573D02*
G01X28239Y7608D01*
G01X28203Y7644D01*
G01X28168Y7662D01*
G01X28096Y7662D01*
G01X28060Y7644D01*
G01X28025Y7608D01*
G01X28007Y7573D01*
G01X27989Y7519D01*
G01X27989Y7430D01*
G01X28007Y7376D01*
G01X28025Y7340D01*
G01X28060Y7304D01*
G01X28096Y7286D01*
G01X28168Y7286D01*
G01X28203Y7304D01*
G01X28239Y7340D01*
G01X28257Y7376D01*
G01X28501Y7662D02*
G01X28501Y7286D01*
G01X28375Y7662D02*
G01X28626Y7662D01*
G01X28959Y7662D02*
G01X28780Y7662D01*
G01X28762Y7501D01*
G01X28780Y7519D01*
G01X28833Y7537D01*
G01X28887Y7537D01*
G01X28941Y7519D01*
G01X28977Y7483D01*
G01X28994Y7430D01*
G01X28994Y7394D01*
G01X28977Y7340D01*
G01X28941Y7304D01*
G01X28887Y7286D01*
G01X28833Y7286D01*
G01X28780Y7304D01*
G01X28762Y7322D01*
G01X28744Y7358D01*
G01X29345Y7537D02*
G01X29327Y7483D01*
G01X29292Y7447D01*
G01X29238Y7430D01*
G01X29220Y7430D01*
G01X29166Y7447D01*
G01X29130Y7483D01*
G01X29113Y7537D01*
G01X29113Y7555D01*
G01X29130Y7608D01*
G01X29166Y7644D01*
G01X29220Y7662D01*
G01X29238Y7662D01*
G01X29292Y7644D01*
G01X29327Y7608D01*
G01X29345Y7537D01*
G01X29345Y7447D01*
G01X29327Y7358D01*
G01X29292Y7304D01*
G01X29238Y7286D01*
G01X29202Y7286D01*
G01X29148Y7304D01*
G01X29130Y7340D01*
G01X29678Y7662D02*
G01X29499Y7662D01*
G01X29481Y7501D01*
G01X29499Y7519D01*
G01X29553Y7537D01*
G01X29606Y7537D01*
G01X29660Y7519D01*
G01X29696Y7483D01*
G01X29714Y7430D01*
G01X29714Y7394D01*
G01X29696Y7340D01*
G01X29660Y7304D01*
G01X29606Y7286D01*
G01X29553Y7286D01*
G01X29499Y7304D01*
G01X29481Y7322D01*
G01X29463Y7358D01*
G01X58824Y10169D02*
G01X58860Y10187D01*
G01X58914Y10240D01*
G01X58914Y9865D01*
G01X59139Y10240D02*
G01X59085Y10222D01*
G01X59050Y10169D01*
G01X59032Y10079D01*
G01X59032Y10026D01*
G01X59050Y9936D01*
G01X59085Y9882D01*
G01X59139Y9865D01*
G01X59175Y9865D01*
G01X59229Y9882D01*
G01X59264Y9936D01*
G01X59282Y10026D01*
G01X59282Y10079D01*
G01X59264Y10169D01*
G01X59229Y10222D01*
G01X59175Y10240D01*
G01X59139Y10240D01*
G01X59400Y10240D02*
G01X59400Y9972D01*
G01X59418Y9918D01*
G01X59454Y9882D01*
G01X59508Y9865D01*
G01X59543Y9865D01*
G01X59597Y9882D01*
G01X59633Y9918D01*
G01X59651Y9972D01*
G01X59651Y10240D01*
G01X22603Y6490D02*
G01X22550Y6472D01*
G01X22514Y6419D01*
G01X22496Y6329D01*
G01X22496Y6276D01*
G01X22514Y6186D01*
G01X22550Y6132D01*
G01X22603Y6115D01*
G01X22639Y6115D01*
G01X22693Y6132D01*
G01X22729Y6186D01*
G01X22747Y6276D01*
G01X22747Y6329D01*
G01X22729Y6419D01*
G01X22693Y6472D01*
G01X22639Y6490D01*
G01X22603Y6490D01*
G01X22865Y6490D02*
G01X22865Y6222D01*
G01X22883Y6168D01*
G01X22918Y6132D01*
G01X22972Y6115D01*
G01X23008Y6115D01*
G01X23061Y6132D01*
G01X23097Y6168D01*
G01X23115Y6222D01*
G01X23115Y6490D01*
G01X23233Y6419D02*
G01X23269Y6437D01*
G01X23323Y6490D01*
G01X23323Y6115D01*
G01X32447Y6490D02*
G01X32393Y6472D01*
G01X32358Y6419D01*
G01X32340Y6329D01*
G01X32340Y6276D01*
G01X32358Y6186D01*
G01X32393Y6132D01*
G01X32447Y6115D01*
G01X32483Y6115D01*
G01X32537Y6132D01*
G01X32572Y6186D01*
G01X32590Y6276D01*
G01X32590Y6329D01*
G01X32572Y6419D01*
G01X32537Y6472D01*
G01X32483Y6490D01*
G01X32447Y6490D01*
G01X32708Y6490D02*
G01X32708Y6222D01*
G01X32726Y6168D01*
G01X32762Y6132D01*
G01X32816Y6115D01*
G01X32852Y6115D01*
G01X32905Y6132D01*
G01X32941Y6168D01*
G01X32959Y6222D01*
G01X32959Y6490D01*
G01X33077Y6419D02*
G01X33113Y6437D01*
G01X33166Y6490D01*
G01X33166Y6115D01*
G01X42525Y6490D02*
G01X42472Y6472D01*
G01X42436Y6419D01*
G01X42418Y6329D01*
G01X42418Y6276D01*
G01X42436Y6186D01*
G01X42472Y6132D01*
G01X42525Y6115D01*
G01X42561Y6115D01*
G01X42615Y6132D01*
G01X42651Y6186D01*
G01X42668Y6276D01*
G01X42668Y6329D01*
G01X42651Y6419D01*
G01X42615Y6472D01*
G01X42561Y6490D01*
G01X42525Y6490D01*
G01X42787Y6490D02*
G01X42787Y6222D01*
G01X42804Y6168D01*
G01X42840Y6132D01*
G01X42894Y6115D01*
G01X42930Y6115D01*
G01X42983Y6132D01*
G01X43019Y6168D01*
G01X43037Y6222D01*
G01X43037Y6490D01*
G01X43155Y6419D02*
G01X43191Y6437D01*
G01X43245Y6490D01*
G01X43245Y6115D01*
G01X68306Y7662D02*
G01X68253Y7644D01*
G01X68217Y7591D01*
G01X68199Y7501D01*
G01X68199Y7447D01*
G01X68217Y7358D01*
G01X68253Y7304D01*
G01X68306Y7286D01*
G01X68342Y7286D01*
G01X68396Y7304D01*
G01X68432Y7358D01*
G01X68450Y7447D01*
G01X68450Y7501D01*
G01X68432Y7591D01*
G01X68396Y7644D01*
G01X68342Y7662D01*
G01X68306Y7662D01*
G01X68568Y7662D02*
G01X68568Y7394D01*
G01X68586Y7340D01*
G01X68621Y7304D01*
G01X68675Y7286D01*
G01X68711Y7286D01*
G01X68765Y7304D01*
G01X68800Y7340D01*
G01X68818Y7394D01*
G01X68818Y7662D01*
G01X68936Y7591D02*
G01X68972Y7608D01*
G01X69026Y7662D01*
G01X69026Y7286D01*
G01X59869Y7662D02*
G01X59815Y7644D01*
G01X59779Y7591D01*
G01X59762Y7501D01*
G01X59762Y7447D01*
G01X59779Y7358D01*
G01X59815Y7304D01*
G01X59869Y7286D01*
G01X59905Y7286D01*
G01X59958Y7304D01*
G01X59994Y7358D01*
G01X60012Y7447D01*
G01X60012Y7501D01*
G01X59994Y7591D01*
G01X59958Y7644D01*
G01X59905Y7662D01*
G01X59869Y7662D01*
G01X60130Y7662D02*
G01X60130Y7394D01*
G01X60148Y7340D01*
G01X60184Y7304D01*
G01X60238Y7286D01*
G01X60273Y7286D01*
G01X60327Y7304D01*
G01X60363Y7340D01*
G01X60381Y7394D01*
G01X60381Y7662D01*
G01X60499Y7591D02*
G01X60535Y7608D01*
G01X60588Y7662D01*
G01X60588Y7286D01*
G01X68378Y3488D02*
G01X68199Y3238D01*
G01X68468Y3238D01*
G01X68378Y3488D02*
G01X68378Y3113D01*
G01X68586Y3488D02*
G01X68586Y3113D01*
G01X68836Y3488D02*
G01X68586Y3238D01*
G01X68675Y3327D02*
G01X68836Y3113D01*
G01X69205Y3488D02*
G01X69026Y3113D01*
G01X68954Y3488D02*
G01X69205Y3488D01*
G01X52888Y3372D02*
G01X52924Y3390D01*
G01X52977Y3443D01*
G01X52977Y3068D01*
G01X53095Y3443D02*
G01X53095Y3068D01*
G01X53346Y3443D02*
G01X53095Y3193D01*
G01X53185Y3282D02*
G01X53346Y3068D01*
G01X63120Y559D02*
G01X63155Y577D01*
G01X63209Y631D01*
G01X63209Y255D01*
G01X63435Y631D02*
G01X63381Y613D01*
G01X63345Y559D01*
G01X63327Y470D01*
G01X63327Y416D01*
G01X63345Y327D01*
G01X63381Y273D01*
G01X63435Y255D01*
G01X63470Y255D01*
G01X63524Y273D01*
G01X63560Y327D01*
G01X63578Y416D01*
G01X63578Y470D01*
G01X63560Y559D01*
G01X63524Y613D01*
G01X63470Y631D01*
G01X63435Y631D01*
G01X63803Y631D02*
G01X63750Y613D01*
G01X63714Y559D01*
G01X63696Y470D01*
G01X63696Y416D01*
G01X63714Y327D01*
G01X63750Y273D01*
G01X63803Y255D01*
G01X63839Y255D01*
G01X63893Y273D01*
G01X63929Y327D01*
G01X63946Y416D01*
G01X63946Y470D01*
G01X63929Y559D01*
G01X63893Y613D01*
G01X63839Y631D01*
G01X63803Y631D01*
G01X64065Y631D02*
G01X64065Y255D01*
G01X64315Y631D02*
G01X64065Y380D01*
G01X64154Y470D02*
G01X64315Y255D01*
G01X53996Y10410D02*
G01X54032Y10428D01*
G01X54085Y10482D01*
G01X54085Y10106D01*
G01X54311Y10482D02*
G01X54257Y10464D01*
G01X54221Y10410D01*
G01X54204Y10321D01*
G01X54204Y10267D01*
G01X54221Y10178D01*
G01X54257Y10124D01*
G01X54311Y10106D01*
G01X54347Y10106D01*
G01X54400Y10124D01*
G01X54436Y10178D01*
G01X54454Y10267D01*
G01X54454Y10321D01*
G01X54436Y10410D01*
G01X54400Y10464D01*
G01X54347Y10482D01*
G01X54311Y10482D01*
G01X54572Y10482D02*
G01X54572Y10106D01*
G01X54823Y10482D02*
G01X54572Y10232D01*
G01X54662Y10321D02*
G01X54823Y10106D01*
G01X17272Y7662D02*
G01X17093Y7286D01*
G01X17021Y7662D02*
G01X17272Y7662D01*
G01X17569Y7662D02*
G01X17390Y7412D01*
G01X17658Y7412D01*
G01X17569Y7662D02*
G01X17569Y7286D01*
G01X17776Y7662D02*
G01X17776Y7286D01*
G01X18027Y7662D02*
G01X18027Y7286D01*
G01X17776Y7483D02*
G01X18027Y7483D01*
G01X18413Y7573D02*
G01X18395Y7608D01*
G01X18360Y7644D01*
G01X18324Y7662D01*
G01X18252Y7662D01*
G01X18217Y7644D01*
G01X18181Y7608D01*
G01X18163Y7573D01*
G01X18145Y7519D01*
G01X18145Y7430D01*
G01X18163Y7376D01*
G01X18181Y7340D01*
G01X18217Y7304D01*
G01X18252Y7286D01*
G01X18324Y7286D01*
G01X18360Y7304D01*
G01X18395Y7340D01*
G01X18413Y7376D01*
G01X18657Y7662D02*
G01X18657Y7286D01*
G01X18531Y7662D02*
G01X18782Y7662D01*
G01X19115Y7662D02*
G01X18936Y7662D01*
G01X18918Y7501D01*
G01X18936Y7519D01*
G01X18990Y7537D01*
G01X19043Y7537D01*
G01X19097Y7519D01*
G01X19133Y7483D01*
G01X19151Y7430D01*
G01X19151Y7394D01*
G01X19133Y7340D01*
G01X19097Y7304D01*
G01X19043Y7286D01*
G01X18990Y7286D01*
G01X18936Y7304D01*
G01X18918Y7322D01*
G01X18900Y7358D01*
G01X19501Y7537D02*
G01X19484Y7483D01*
G01X19448Y7447D01*
G01X19394Y7430D01*
G01X19376Y7430D01*
G01X19322Y7447D01*
G01X19287Y7483D01*
G01X19269Y7537D01*
G01X19269Y7555D01*
G01X19287Y7608D01*
G01X19322Y7644D01*
G01X19376Y7662D01*
G01X19394Y7662D01*
G01X19448Y7644D01*
G01X19484Y7608D01*
G01X19501Y7537D01*
G01X19501Y7447D01*
G01X19484Y7358D01*
G01X19448Y7304D01*
G01X19394Y7286D01*
G01X19358Y7286D01*
G01X19305Y7304D01*
G01X19287Y7340D01*
G01X19834Y7662D02*
G01X19655Y7662D01*
G01X19637Y7501D01*
G01X19655Y7519D01*
G01X19709Y7537D01*
G01X19763Y7537D01*
G01X19816Y7519D01*
G01X19852Y7483D01*
G01X19870Y7430D01*
G01X19870Y7394D01*
G01X19852Y7340D01*
G01X19816Y7304D01*
G01X19763Y7286D01*
G01X19709Y7286D01*
G01X19655Y7304D01*
G01X19637Y7322D01*
G01X19620Y7358D01*
G01X66113Y10854D02*
G01X66095Y10890D01*
G01X66059Y10926D01*
G01X66023Y10943D01*
G01X65952Y10943D01*
G01X65916Y10926D01*
G01X65880Y10890D01*
G01X65862Y10854D01*
G01X65844Y10800D01*
G01X65844Y10711D01*
G01X65862Y10657D01*
G01X65880Y10621D01*
G01X65916Y10586D01*
G01X65952Y10568D01*
G01X66023Y10568D01*
G01X66059Y10586D01*
G01X66095Y10621D01*
G01X66113Y10657D01*
G01X66113Y10711D01*
G01X66023Y10711D02*
G01X66113Y10711D01*
G01X66231Y10943D02*
G01X66231Y10568D01*
G01X66231Y10943D02*
G01X66392Y10943D01*
G01X66446Y10926D01*
G01X66463Y10908D01*
G01X66481Y10872D01*
G01X66481Y10836D01*
G01X66463Y10800D01*
G01X66446Y10782D01*
G01X66392Y10765D01*
G01X66231Y10765D01*
G01X66356Y10765D02*
G01X66481Y10568D01*
G01X66707Y10943D02*
G01X66671Y10926D01*
G01X66635Y10890D01*
G01X66617Y10854D01*
G01X66599Y10800D01*
G01X66599Y10711D01*
G01X66617Y10657D01*
G01X66635Y10621D01*
G01X66671Y10586D01*
G01X66707Y10568D01*
G01X66778Y10568D01*
G01X66814Y10586D01*
G01X66850Y10621D01*
G01X66868Y10657D01*
G01X66886Y10711D01*
G01X66886Y10800D01*
G01X66868Y10854D01*
G01X66850Y10890D01*
G01X66814Y10926D01*
G01X66778Y10943D01*
G01X66707Y10943D01*
G01X67004Y10943D02*
G01X67004Y10675D01*
G01X67022Y10621D01*
G01X67058Y10586D01*
G01X67111Y10568D01*
G01X67147Y10568D01*
G01X67201Y10586D01*
G01X67237Y10621D01*
G01X67254Y10675D01*
G01X67254Y10943D01*
G01X67373Y10943D02*
G01X67373Y10568D01*
G01X67373Y10943D02*
G01X67623Y10568D01*
G01X67623Y10943D02*
G01X67623Y10568D01*
G01X67741Y10943D02*
G01X67741Y10568D01*
G01X67741Y10943D02*
G01X67866Y10943D01*
G01X67920Y10926D01*
G01X67956Y10890D01*
G01X67974Y10854D01*
G01X67992Y10800D01*
G01X67992Y10711D01*
G01X67974Y10657D01*
G01X67956Y10621D01*
G01X67920Y10586D01*
G01X67866Y10568D01*
G01X67741Y10568D01*
G01X68636Y10890D02*
G01X68600Y10926D01*
G01X68547Y10943D01*
G01X68475Y10943D01*
G01X68421Y10926D01*
G01X68385Y10890D01*
G01X68385Y10854D01*
G01X68403Y10818D01*
G01X68421Y10800D01*
G01X68457Y10782D01*
G01X68564Y10747D01*
G01X68600Y10729D01*
G01X68618Y10711D01*
G01X68636Y10675D01*
G01X68636Y10621D01*
G01X68600Y10586D01*
G01X68547Y10568D01*
G01X68475Y10568D01*
G01X68421Y10586D01*
G01X68385Y10621D01*
G01X68879Y10943D02*
G01X68879Y10568D01*
G01X68754Y10943D02*
G01X69005Y10943D01*
G01X69123Y10943D02*
G01X69123Y10568D01*
G01X69123Y10943D02*
G01X69284Y10943D01*
G01X69337Y10926D01*
G01X69355Y10908D01*
G01X69373Y10872D01*
G01X69373Y10836D01*
G01X69355Y10800D01*
G01X69337Y10782D01*
G01X69284Y10765D01*
G01X69123Y10765D01*
G01X69248Y10765D02*
G01X69373Y10568D01*
G01X69635Y10943D02*
G01X69491Y10568D01*
G01X69635Y10943D02*
G01X69778Y10568D01*
G01X69545Y10693D02*
G01X69724Y10693D01*
G01X69896Y10943D02*
G01X69896Y10568D01*
G01X69896Y10943D02*
G01X70057Y10943D01*
G01X70111Y10926D01*
G01X70128Y10908D01*
G01X70146Y10872D01*
G01X70146Y10818D01*
G01X70128Y10782D01*
G01X70111Y10765D01*
G01X70057Y10747D01*
G01X69896Y10747D01*
G01X66113Y45307D02*
G01X66095Y45343D01*
G01X66059Y45379D01*
G01X66023Y45397D01*
G01X65952Y45397D01*
G01X65916Y45379D01*
G01X65880Y45343D01*
G01X65862Y45307D01*
G01X65844Y45253D01*
G01X65844Y45164D01*
G01X65862Y45110D01*
G01X65880Y45074D01*
G01X65916Y45039D01*
G01X65952Y45021D01*
G01X66023Y45021D01*
G01X66059Y45039D01*
G01X66095Y45074D01*
G01X66113Y45110D01*
G01X66113Y45164D01*
G01X66023Y45164D02*
G01X66113Y45164D01*
G01X66231Y45397D02*
G01X66231Y45021D01*
G01X66231Y45397D02*
G01X66392Y45397D01*
G01X66446Y45379D01*
G01X66463Y45361D01*
G01X66481Y45325D01*
G01X66481Y45289D01*
G01X66463Y45253D01*
G01X66446Y45236D01*
G01X66392Y45218D01*
G01X66231Y45218D01*
G01X66356Y45218D02*
G01X66481Y45021D01*
G01X66707Y45397D02*
G01X66671Y45379D01*
G01X66635Y45343D01*
G01X66617Y45307D01*
G01X66599Y45253D01*
G01X66599Y45164D01*
G01X66617Y45110D01*
G01X66635Y45074D01*
G01X66671Y45039D01*
G01X66707Y45021D01*
G01X66778Y45021D01*
G01X66814Y45039D01*
G01X66850Y45074D01*
G01X66868Y45110D01*
G01X66886Y45164D01*
G01X66886Y45253D01*
G01X66868Y45307D01*
G01X66850Y45343D01*
G01X66814Y45379D01*
G01X66778Y45397D01*
G01X66707Y45397D01*
G01X67004Y45397D02*
G01X67004Y45128D01*
G01X67022Y45074D01*
G01X67058Y45039D01*
G01X67111Y45021D01*
G01X67147Y45021D01*
G01X67201Y45039D01*
G01X67237Y45074D01*
G01X67254Y45128D01*
G01X67254Y45397D01*
G01X67373Y45397D02*
G01X67373Y45021D01*
G01X67373Y45397D02*
G01X67623Y45021D01*
G01X67623Y45397D02*
G01X67623Y45021D01*
G01X67741Y45397D02*
G01X67741Y45021D01*
G01X67741Y45397D02*
G01X67866Y45397D01*
G01X67920Y45379D01*
G01X67956Y45343D01*
G01X67974Y45307D01*
G01X67992Y45253D01*
G01X67992Y45164D01*
G01X67974Y45110D01*
G01X67956Y45074D01*
G01X67920Y45039D01*
G01X67866Y45021D01*
G01X67741Y45021D01*
G01X68636Y45343D02*
G01X68600Y45379D01*
G01X68547Y45397D01*
G01X68475Y45397D01*
G01X68421Y45379D01*
G01X68385Y45343D01*
G01X68385Y45307D01*
G01X68403Y45271D01*
G01X68421Y45253D01*
G01X68457Y45236D01*
G01X68564Y45200D01*
G01X68600Y45182D01*
G01X68618Y45164D01*
G01X68636Y45128D01*
G01X68636Y45074D01*
G01X68600Y45039D01*
G01X68547Y45021D01*
G01X68475Y45021D01*
G01X68421Y45039D01*
G01X68385Y45074D01*
G01X68879Y45397D02*
G01X68879Y45021D01*
G01X68754Y45397D02*
G01X69005Y45397D01*
G01X69123Y45397D02*
G01X69123Y45021D01*
G01X69123Y45397D02*
G01X69284Y45397D01*
G01X69337Y45379D01*
G01X69355Y45361D01*
G01X69373Y45325D01*
G01X69373Y45289D01*
G01X69355Y45253D01*
G01X69337Y45236D01*
G01X69284Y45218D01*
G01X69123Y45218D01*
G01X69248Y45218D02*
G01X69373Y45021D01*
G01X69635Y45397D02*
G01X69491Y45021D01*
G01X69635Y45397D02*
G01X69778Y45021D01*
G01X69545Y45146D02*
G01X69724Y45146D01*
G01X69896Y45397D02*
G01X69896Y45021D01*
G01X69896Y45397D02*
G01X70057Y45397D01*
G01X70111Y45379D01*
G01X70128Y45361D01*
G01X70146Y45325D01*
G01X70146Y45271D01*
G01X70128Y45236D01*
G01X70111Y45218D01*
G01X70057Y45200D01*
G01X69896Y45200D01*
G01X66113Y22338D02*
G01X66095Y22374D01*
G01X66059Y22410D01*
G01X66023Y22428D01*
G01X65952Y22428D01*
G01X65916Y22410D01*
G01X65880Y22374D01*
G01X65862Y22338D01*
G01X65844Y22285D01*
G01X65844Y22195D01*
G01X65862Y22141D01*
G01X65880Y22106D01*
G01X65916Y22070D01*
G01X65952Y22052D01*
G01X66023Y22052D01*
G01X66059Y22070D01*
G01X66095Y22106D01*
G01X66113Y22141D01*
G01X66113Y22195D01*
G01X66023Y22195D02*
G01X66113Y22195D01*
G01X66231Y22428D02*
G01X66231Y22052D01*
G01X66231Y22428D02*
G01X66392Y22428D01*
G01X66446Y22410D01*
G01X66463Y22392D01*
G01X66481Y22356D01*
G01X66481Y22320D01*
G01X66463Y22285D01*
G01X66446Y22267D01*
G01X66392Y22249D01*
G01X66231Y22249D01*
G01X66356Y22249D02*
G01X66481Y22052D01*
G01X66707Y22428D02*
G01X66671Y22410D01*
G01X66635Y22374D01*
G01X66617Y22338D01*
G01X66599Y22285D01*
G01X66599Y22195D01*
G01X66617Y22141D01*
G01X66635Y22106D01*
G01X66671Y22070D01*
G01X66707Y22052D01*
G01X66778Y22052D01*
G01X66814Y22070D01*
G01X66850Y22106D01*
G01X66868Y22141D01*
G01X66886Y22195D01*
G01X66886Y22285D01*
G01X66868Y22338D01*
G01X66850Y22374D01*
G01X66814Y22410D01*
G01X66778Y22428D01*
G01X66707Y22428D01*
G01X67004Y22428D02*
G01X67004Y22159D01*
G01X67022Y22106D01*
G01X67058Y22070D01*
G01X67111Y22052D01*
G01X67147Y22052D01*
G01X67201Y22070D01*
G01X67237Y22106D01*
G01X67254Y22159D01*
G01X67254Y22428D01*
G01X67373Y22428D02*
G01X67373Y22052D01*
G01X67373Y22428D02*
G01X67623Y22052D01*
G01X67623Y22428D02*
G01X67623Y22052D01*
G01X67741Y22428D02*
G01X67741Y22052D01*
G01X67741Y22428D02*
G01X67866Y22428D01*
G01X67920Y22410D01*
G01X67956Y22374D01*
G01X67974Y22338D01*
G01X67992Y22285D01*
G01X67992Y22195D01*
G01X67974Y22141D01*
G01X67956Y22106D01*
G01X67920Y22070D01*
G01X67866Y22052D01*
G01X67741Y22052D01*
G01X68636Y22374D02*
G01X68600Y22410D01*
G01X68547Y22428D01*
G01X68475Y22428D01*
G01X68421Y22410D01*
G01X68385Y22374D01*
G01X68385Y22338D01*
G01X68403Y22303D01*
G01X68421Y22285D01*
G01X68457Y22267D01*
G01X68564Y22231D01*
G01X68600Y22213D01*
G01X68618Y22195D01*
G01X68636Y22159D01*
G01X68636Y22106D01*
G01X68600Y22070D01*
G01X68547Y22052D01*
G01X68475Y22052D01*
G01X68421Y22070D01*
G01X68385Y22106D01*
G01X68879Y22428D02*
G01X68879Y22052D01*
G01X68754Y22428D02*
G01X69005Y22428D01*
G01X69123Y22428D02*
G01X69123Y22052D01*
G01X69123Y22428D02*
G01X69284Y22428D01*
G01X69337Y22410D01*
G01X69355Y22392D01*
G01X69373Y22356D01*
G01X69373Y22320D01*
G01X69355Y22285D01*
G01X69337Y22267D01*
G01X69284Y22249D01*
G01X69123Y22249D01*
G01X69248Y22249D02*
G01X69373Y22052D01*
G01X69635Y22428D02*
G01X69491Y22052D01*
G01X69635Y22428D02*
G01X69778Y22052D01*
G01X69545Y22177D02*
G01X69724Y22177D01*
G01X69896Y22428D02*
G01X69896Y22052D01*
G01X69896Y22428D02*
G01X70057Y22428D01*
G01X70111Y22410D01*
G01X70128Y22392D01*
G01X70146Y22356D01*
G01X70146Y22303D01*
G01X70128Y22267D01*
G01X70111Y22249D01*
G01X70057Y22231D01*
G01X69896Y22231D01*
G01X66113Y33823D02*
G01X66095Y33858D01*
G01X66059Y33894D01*
G01X66023Y33912D01*
G01X65952Y33912D01*
G01X65916Y33894D01*
G01X65880Y33858D01*
G01X65862Y33823D01*
G01X65844Y33769D01*
G01X65844Y33680D01*
G01X65862Y33626D01*
G01X65880Y33590D01*
G01X65916Y33554D01*
G01X65952Y33536D01*
G01X66023Y33536D01*
G01X66059Y33554D01*
G01X66095Y33590D01*
G01X66113Y33626D01*
G01X66113Y33680D01*
G01X66023Y33680D02*
G01X66113Y33680D01*
G01X66231Y33912D02*
G01X66231Y33536D01*
G01X66231Y33912D02*
G01X66392Y33912D01*
G01X66446Y33894D01*
G01X66463Y33876D01*
G01X66481Y33841D01*
G01X66481Y33805D01*
G01X66463Y33769D01*
G01X66446Y33751D01*
G01X66392Y33733D01*
G01X66231Y33733D01*
G01X66356Y33733D02*
G01X66481Y33536D01*
G01X66707Y33912D02*
G01X66671Y33894D01*
G01X66635Y33858D01*
G01X66617Y33823D01*
G01X66599Y33769D01*
G01X66599Y33680D01*
G01X66617Y33626D01*
G01X66635Y33590D01*
G01X66671Y33554D01*
G01X66707Y33536D01*
G01X66778Y33536D01*
G01X66814Y33554D01*
G01X66850Y33590D01*
G01X66868Y33626D01*
G01X66886Y33680D01*
G01X66886Y33769D01*
G01X66868Y33823D01*
G01X66850Y33858D01*
G01X66814Y33894D01*
G01X66778Y33912D01*
G01X66707Y33912D01*
G01X67004Y33912D02*
G01X67004Y33644D01*
G01X67022Y33590D01*
G01X67058Y33554D01*
G01X67111Y33536D01*
G01X67147Y33536D01*
G01X67201Y33554D01*
G01X67237Y33590D01*
G01X67254Y33644D01*
G01X67254Y33912D01*
G01X67373Y33912D02*
G01X67373Y33536D01*
G01X67373Y33912D02*
G01X67623Y33536D01*
G01X67623Y33912D02*
G01X67623Y33536D01*
G01X67741Y33912D02*
G01X67741Y33536D01*
G01X67741Y33912D02*
G01X67866Y33912D01*
G01X67920Y33894D01*
G01X67956Y33858D01*
G01X67974Y33823D01*
G01X67992Y33769D01*
G01X67992Y33680D01*
G01X67974Y33626D01*
G01X67956Y33590D01*
G01X67920Y33554D01*
G01X67866Y33536D01*
G01X67741Y33536D01*
G01X68636Y33858D02*
G01X68600Y33894D01*
G01X68547Y33912D01*
G01X68475Y33912D01*
G01X68421Y33894D01*
G01X68385Y33858D01*
G01X68385Y33823D01*
G01X68403Y33787D01*
G01X68421Y33769D01*
G01X68457Y33751D01*
G01X68564Y33715D01*
G01X68600Y33697D01*
G01X68618Y33680D01*
G01X68636Y33644D01*
G01X68636Y33590D01*
G01X68600Y33554D01*
G01X68547Y33536D01*
G01X68475Y33536D01*
G01X68421Y33554D01*
G01X68385Y33590D01*
G01X68879Y33912D02*
G01X68879Y33536D01*
G01X68754Y33912D02*
G01X69005Y33912D01*
G01X69123Y33912D02*
G01X69123Y33536D01*
G01X69123Y33912D02*
G01X69284Y33912D01*
G01X69337Y33894D01*
G01X69355Y33876D01*
G01X69373Y33841D01*
G01X69373Y33805D01*
G01X69355Y33769D01*
G01X69337Y33751D01*
G01X69284Y33733D01*
G01X69123Y33733D01*
G01X69248Y33733D02*
G01X69373Y33536D01*
G01X69635Y33912D02*
G01X69491Y33536D01*
G01X69635Y33912D02*
G01X69778Y33536D01*
G01X69545Y33662D02*
G01X69724Y33662D01*
G01X69896Y33912D02*
G01X69896Y33536D01*
G01X69896Y33912D02*
G01X70057Y33912D01*
G01X70111Y33894D01*
G01X70128Y33876D01*
G01X70146Y33841D01*
G01X70146Y33787D01*
G01X70128Y33751D01*
G01X70111Y33733D01*
G01X70057Y33715D01*
G01X69896Y33715D01*
G54D21*
G75*
G01X60883Y5559D02*
G03X60883Y6347I0J394D01*
G01*
G75*
G01X52072Y2224D02*
G03X51502Y2263I-275J165D01*
G01*
G75*
G01X67615Y2068D02*
G03X67653Y2639I164J276D01*
G01*
G75*
G01X52445Y5559D02*
G03X52445Y6347I0J394D01*
G01*
G75*
G01X51164Y4881D02*
G03X51202Y5451I164J275D01*
G01*
G75*
G01X51209Y6287D02*
G03X51247Y6858I164J275D01*
G01*
G75*
G01X50789Y4026D02*
G03X50751Y3455I-164J-276D01*
G01*
G75*
G01X45648Y4622D02*
G03X45648Y5409I0J394D01*
G01*
G75*
G01X34164Y4622D02*
G03X34164Y5409I0J394D01*
G01*
G75*
G01X24086Y4622D02*
G03X24086Y5409I0J394D01*
G01*
G75*
G01X68947Y2224D02*
G03X68377Y2263I-275J165D01*
G01*
G75*
G01X52899Y2619D02*
G03X52860Y2049I-165J-275D01*
G01*
G75*
G01X14242Y4622D02*
G03X14242Y5409I0J394D01*
G01*
M00*
M02*
