G04 Layer: TopLayer*
G04 EasyEDA v6.3.43, 2020-05-25T11:21:51+02:00*
G04 b2f46ff1345c4209a88c0a1db2e3f32b,10*
G04 Gerber Generator version 0.2*
G04 Scale: 100 percent, Rotated: No, Reflected: No *
G04 Dimensions in inches *
G04 leading zeros omitted , absolute positions ,2 integer and 4 decimal *
%FSLAX24Y24*%
%MOIN*%
G90*
G70D02*

%ADD11C,0.006000*%
%ADD12C,0.020000*%
%ADD13R,0.062990X0.062990*%
%ADD14C,0.062990*%
%ADD15R,0.066930X0.066930*%
%ADD16C,0.066930*%
%ADD17C,0.055120*%
%ADD18C,0.173230*%
%ADD19C,0.027560*%

%LPD*%
G54D11*
G01X3281Y8843D02*
G01X2640Y8203D01*
G01X2578Y8203D01*
G01X63161Y8083D02*
G01X63001Y7923D01*
G01X63001Y5717D01*
G01X63406Y5312D01*
G01X63406Y4898D01*
G01X63406Y4453D01*
G01X51796Y2388D02*
G01X51521Y2664D01*
G01X51169Y2664D01*
G01X50259Y3574D01*
G01X50259Y4835D01*
G01X50304Y4880D01*
G01X50580Y5156D01*
G01X60234Y5343D02*
G01X59736Y5842D01*
G01X59736Y7763D01*
G01X59416Y8083D01*
G01X1281Y8843D02*
G01X1281Y8449D01*
G01X1761Y7968D01*
G01X3781Y7968D01*
G01X4531Y7218D01*
G01X68671Y5390D02*
G01X69076Y5795D01*
G01X69076Y7095D01*
G01X68088Y8083D01*
G01X65791Y8083D01*
G01X65481Y8393D01*
G01X65299Y8393D01*
G01X64989Y8083D01*
G01X63161Y8083D01*
G01X61989Y8083D01*
G01X59416Y8083D01*
G01X54893Y8083D01*
G01X54968Y4453D02*
G01X54968Y4898D01*
G01X54968Y5146D01*
G01X54498Y5616D01*
G01X54498Y7688D01*
G01X54893Y8083D01*
G01X52848Y8083D01*
G01X52265Y7500D01*
G01X52265Y6562D01*
G01X51562Y5859D01*
G01X51283Y5859D01*
G01X50580Y5156D01*
G01X44953Y5156D01*
G01X44531Y5578D01*
G01X47234Y5578D01*
G01X48171Y6515D01*
G01X44531Y3281D02*
G01X45937Y3281D01*
G01X46171Y3515D01*
G01X43828Y7265D02*
G01X43828Y7500D01*
G01X43359Y7968D01*
G01X5281Y7968D01*
G01X4846Y7533D01*
G01X4531Y7218D01*
G01X6828Y4921D01*
G01X22500Y4921D01*
G01X22653Y5075D01*
G01X22653Y5122D01*
G01X22968Y5437D01*
G01X23414Y5437D01*
G01X23906Y4945D01*
G01X32320Y4945D01*
G01X32812Y5437D01*
G01X33257Y5437D01*
G01X33773Y4921D01*
G01X42375Y4921D01*
G01X42890Y5437D01*
G01X42890Y5882D01*
G01X45210Y8203D01*
G01X51627Y8203D01*
G01X51747Y8083D01*
G01X52692Y8083D01*
G01X52806Y8197D01*
G01X56818Y8197D01*
G01X56968Y8348D01*
G01X56968Y9140D01*
G01X56968Y9515D01*
G01X58000Y10546D01*
G01X64921Y10546D01*
G01X40687Y6515D02*
G01X41765Y5437D01*
G01X42890Y5437D01*
G01X42890Y5156D01*
G01X36046Y5156D01*
G01X34687Y6515D01*
G01X30609Y6515D02*
G01X31687Y5437D01*
G01X32812Y5437D01*
G01X32812Y5156D01*
G01X25968Y5156D01*
G01X24609Y6515D01*
G01X14765Y6515D02*
G01X16125Y5156D01*
G01X22968Y5156D01*
G01X22968Y5437D01*
G01X21843Y5437D01*
G01X20765Y6515D01*
G01X54968Y7453D02*
G01X54968Y6057D01*
G01X54853Y5942D01*
G01X54753Y5842D01*
G01X53906Y6328D02*
G01X53906Y5927D01*
G01X54653Y5180D01*
G01X54753Y5080D01*
G01X51093Y7500D02*
G01X51562Y7500D01*
G01X52031Y7031D01*
G01X60234Y6328D02*
G01X61875Y6328D01*
G01X62812Y5390D01*
G01X50625Y3750D02*
G01X51328Y3046D01*
G01X52779Y3046D01*
G01X53482Y2343D01*
G01X54531Y2343D01*
G01X54765Y2578D01*
G01X55765Y2578D01*
G01X64765Y2578D02*
G01X65765Y2578D01*
G01X66796Y2578D01*
G01X67031Y2343D01*
G01X59765Y9140D02*
G01X60937Y10312D01*
G01X67536Y10312D01*
G01X68474Y9375D01*
G01X42890Y4453D02*
G01X44343Y4453D01*
G01X44531Y4265D01*
G01X44216Y4580D01*
G01X44126Y4670D01*
G01X44126Y6756D01*
G01X44336Y6967D01*
G01X44725Y6967D01*
G01X45582Y6110D01*
G01X46366Y6110D01*
G01X46576Y6321D01*
G01X46576Y6519D01*
G01X47088Y7031D01*
G01X48255Y7031D01*
G01X48771Y6515D01*
G01X49171Y6515D01*
G01X22968Y4453D02*
G01X32812Y4453D01*
G01X44531Y6562D02*
G01X45234Y5859D01*
G01X46515Y5859D01*
G01X47171Y6515D01*
G01X41687Y3515D02*
G01X42625Y4453D01*
G01X42890Y4453D01*
G01X32812Y4453D01*
G01X32546Y4453D01*
G01X31609Y3515D01*
G01X3531Y1218D02*
G01X3976Y1218D01*
G01X4531Y1218D01*
G01X21765Y3515D02*
G01X22703Y4453D01*
G01X22968Y4453D01*
G01X5296Y4453D01*
G01X2531Y7218D01*
G01X2531Y6609D01*
G01X6328Y2812D01*
G01X13191Y2812D01*
G01X14437Y1566D01*
G01X14437Y1171D01*
G01X15437Y1171D01*
G01X15772Y837D01*
G01X15862Y747D01*
G01X39012Y747D01*
G01X39437Y1171D01*
G01X40437Y1171D01*
G01X16765Y6515D02*
G01X16250Y7031D01*
G01X13125Y7031D01*
G01X12656Y6562D01*
G01X12187Y6562D01*
G01X11846Y6903D01*
G01X11531Y7218D01*
G01X31609Y6515D02*
G01X32239Y7145D01*
G01X36057Y7145D01*
G01X36372Y6830D01*
G01X36687Y6515D01*
G01X21765Y6515D02*
G01X22401Y7151D01*
G01X26419Y7151D01*
G01X26609Y6961D01*
G01X26609Y6515D01*
G01X9531Y7218D02*
G01X9531Y7664D01*
G01X9715Y7848D01*
G01X18432Y7848D01*
G01X19450Y6830D01*
G01X19765Y6515D01*
G01X19765Y6961D01*
G01X20544Y7740D01*
G01X20958Y7740D01*
G01X20964Y7734D01*
G01X28390Y7734D01*
G01X29294Y6830D01*
G01X29609Y6515D01*
G01X29609Y6961D01*
G01X30382Y7734D01*
G01X38468Y7734D01*
G01X39372Y6830D01*
G01X39687Y6515D01*
G01X8531Y7218D02*
G01X8846Y6903D01*
G01X9187Y6562D01*
G01X9843Y6562D01*
G01X10078Y6796D01*
G01X10078Y7728D01*
G01X17552Y7728D01*
G01X18765Y6515D01*
G01X19421Y5859D01*
G01X19752Y5859D01*
G01X20240Y6347D01*
G01X20240Y7050D01*
G01X20695Y7505D01*
G01X26818Y7505D01*
G01X26823Y7500D01*
G01X27625Y7500D01*
G01X28294Y6830D01*
G01X28609Y6515D01*
G01X29265Y5859D01*
G01X29531Y5859D01*
G01X30014Y6342D01*
G01X30014Y6811D01*
G01X30648Y7445D01*
G01X38203Y7445D01*
G01X38687Y6961D01*
G01X38687Y6515D01*
G01X12531Y7218D02*
G01X17062Y7218D01*
G01X17450Y6830D01*
G01X17765Y6515D01*
G01X18656Y5625D01*
G01X19687Y5625D01*
G01X20360Y6298D01*
G01X20360Y6702D01*
G01X21044Y7385D01*
G01X26768Y7385D01*
G01X27294Y6859D01*
G01X27294Y6830D01*
G01X27609Y6515D01*
G01X28500Y5625D01*
G01X29531Y5625D01*
G01X30204Y6298D01*
G01X30204Y6766D01*
G01X30703Y7265D01*
G01X36937Y7265D01*
G01X37687Y6515D01*
G01X51796Y1640D02*
G01X52500Y2343D01*
G01X52734Y2343D01*
G01X52734Y1953D01*
G01X53516Y1171D01*
G01X54468Y1171D01*
G01X54843Y1171D01*
G01X50625Y6562D02*
G01X50036Y7151D01*
G01X46807Y7151D01*
G01X46486Y6830D01*
G01X46171Y6515D01*
G01X56267Y8420D02*
G01X56164Y8317D01*
G01X52645Y8317D01*
G01X52613Y8285D01*
G01X64218Y8437D02*
G01X59484Y8437D01*
G01X58781Y9140D01*
G01X65406Y7453D02*
G01X65406Y8187D01*
G01X65390Y8203D01*
G01X60234Y7734D02*
G01X60234Y7265D01*
G01X60000Y7031D01*
G01X64406Y4453D02*
G01X64406Y6453D01*
G01X65406Y7453D01*
G01X65721Y7768D01*
G01X65916Y7963D01*
G01X66896Y7963D01*
G01X67406Y7453D01*
G01X55968Y4453D02*
G01X55968Y6453D01*
G01X56968Y7453D01*
G01X57283Y7768D01*
G01X57478Y7963D01*
G01X58458Y7963D01*
G01X58968Y7453D01*
G01X65624Y1171D02*
G01X66607Y1171D01*
G01X67779Y2343D01*
G01X68482Y1640D01*
G01X68671Y1640D01*
G54D13*
G01X1531Y1218D03*
G54D14*
G01X2531Y1218D03*
G01X3531Y1218D03*
G01X4531Y1218D03*
G01X5531Y1218D03*
G01X6531Y1218D03*
G01X7531Y1218D03*
G01X8531Y1218D03*
G01X9531Y1218D03*
G01X10531Y1218D03*
G01X11531Y1218D03*
G01X12531Y1218D03*
G01X12531Y7218D03*
G01X11531Y7218D03*
G01X10531Y7218D03*
G01X9531Y7218D03*
G01X8531Y7218D03*
G01X7531Y7218D03*
G01X6531Y7218D03*
G01X5531Y7218D03*
G01X4531Y7218D03*
G01X3531Y7218D03*
G01X2531Y7218D03*
G01X1531Y7218D03*
G54D15*
G01X65765Y2578D03*
G54D16*
G01X64765Y2578D03*
G01X63765Y2578D03*
G01X62765Y2578D03*
G01X61765Y2578D03*
G01X60765Y2578D03*
G01X59765Y2578D03*
G01X58765Y2578D03*
G01X57765Y2578D03*
G01X56765Y2578D03*
G01X55765Y2578D03*
G01X54765Y2578D03*
G54D15*
G01X14437Y1171D03*
G54D16*
G01X15437Y1171D03*
G01X16437Y1171D03*
G01X17437Y1171D03*
G01X18437Y1171D03*
G01X19437Y1171D03*
G01X20437Y1171D03*
G01X21437Y1171D03*
G01X22437Y1171D03*
G01X23437Y1171D03*
G01X24437Y1171D03*
G01X25437Y1171D03*
G01X26437Y1171D03*
G01X27437Y1171D03*
G01X28437Y1171D03*
G01X29437Y1171D03*
G01X30437Y1171D03*
G01X31437Y1171D03*
G01X32437Y1171D03*
G01X33437Y1171D03*
G01X34437Y1171D03*
G01X35437Y1171D03*
G01X36437Y1171D03*
G01X37437Y1171D03*
G01X38437Y1171D03*
G01X39437Y1171D03*
G01X40437Y1171D03*
G36*
G01X12943Y30212D02*
G01X12940Y30163D01*
G01X12931Y30114D01*
G01X12915Y30067D01*
G01X12894Y30022D01*
G01X12868Y29980D01*
G01X12837Y29942D01*
G01X12800Y29909D01*
G01X12760Y29879D01*
G01X12717Y29856D01*
G01X12671Y29837D01*
G01X12623Y29825D01*
G01X12574Y29819D01*
G01X12525Y29819D01*
G01X12476Y29825D01*
G01X12428Y29837D01*
G01X12382Y29856D01*
G01X12338Y29879D01*
G01X12299Y29909D01*
G01X12263Y29942D01*
G01X12231Y29980D01*
G01X12205Y30022D01*
G01X12183Y30067D01*
G01X12168Y30114D01*
G01X12159Y30163D01*
G01X12156Y30212D01*
G01X12156Y30409D01*
G01X12159Y30458D01*
G01X12168Y30507D01*
G01X12183Y30554D01*
G01X12205Y30598D01*
G01X12231Y30640D01*
G01X12263Y30678D01*
G01X12299Y30712D01*
G01X12338Y30741D01*
G01X12382Y30765D01*
G01X12428Y30783D01*
G01X12476Y30795D01*
G01X12525Y30802D01*
G01X12574Y30802D01*
G01X12623Y30795D01*
G01X12671Y30783D01*
G01X12717Y30765D01*
G01X12760Y30741D01*
G01X12800Y30712D01*
G01X12837Y30678D01*
G01X12868Y30640D01*
G01X12894Y30598D01*
G01X12915Y30554D01*
G01X12931Y30507D01*
G01X12940Y30458D01*
G01X12943Y30409D01*
G01X12943Y30212D01*
G37*
G36*
G01X12943Y28653D02*
G01X12940Y28603D01*
G01X12931Y28555D01*
G01X12915Y28508D01*
G01X12894Y28463D01*
G01X12868Y28421D01*
G01X12837Y28383D01*
G01X12800Y28349D01*
G01X12760Y28320D01*
G01X12717Y28297D01*
G01X12671Y28278D01*
G01X12623Y28266D01*
G01X12574Y28260D01*
G01X12525Y28260D01*
G01X12476Y28266D01*
G01X12428Y28278D01*
G01X12382Y28297D01*
G01X12338Y28320D01*
G01X12299Y28349D01*
G01X12263Y28383D01*
G01X12231Y28421D01*
G01X12205Y28463D01*
G01X12183Y28508D01*
G01X12168Y28555D01*
G01X12159Y28603D01*
G01X12156Y28653D01*
G01X12156Y28850D01*
G01X12159Y28899D01*
G01X12168Y28948D01*
G01X12183Y28995D01*
G01X12205Y29039D01*
G01X12231Y29081D01*
G01X12263Y29119D01*
G01X12299Y29153D01*
G01X12338Y29182D01*
G01X12382Y29206D01*
G01X12428Y29224D01*
G01X12476Y29236D01*
G01X12525Y29243D01*
G01X12574Y29243D01*
G01X12623Y29236D01*
G01X12671Y29224D01*
G01X12717Y29206D01*
G01X12760Y29182D01*
G01X12800Y29153D01*
G01X12837Y29119D01*
G01X12868Y29081D01*
G01X12894Y29039D01*
G01X12915Y28995D01*
G01X12931Y28948D01*
G01X12940Y28899D01*
G01X12943Y28850D01*
G01X12943Y28653D01*
G37*
G36*
G01X14502Y30212D02*
G01X14499Y30163D01*
G01X14490Y30114D01*
G01X14475Y30067D01*
G01X14453Y30022D01*
G01X14427Y29980D01*
G01X14395Y29942D01*
G01X14359Y29909D01*
G01X14319Y29879D01*
G01X14276Y29856D01*
G01X14230Y29837D01*
G01X14182Y29825D01*
G01X14133Y29819D01*
G01X14084Y29819D01*
G01X14035Y29825D01*
G01X13987Y29837D01*
G01X13941Y29856D01*
G01X13898Y29879D01*
G01X13858Y29909D01*
G01X13821Y29942D01*
G01X13790Y29980D01*
G01X13763Y30022D01*
G01X13743Y30067D01*
G01X13727Y30114D01*
G01X13718Y30163D01*
G01X13715Y30212D01*
G01X13715Y30409D01*
G01X13718Y30458D01*
G01X13727Y30507D01*
G01X13743Y30554D01*
G01X13763Y30598D01*
G01X13790Y30640D01*
G01X13821Y30678D01*
G01X13858Y30712D01*
G01X13898Y30741D01*
G01X13941Y30765D01*
G01X13987Y30783D01*
G01X14035Y30795D01*
G01X14084Y30802D01*
G01X14133Y30802D01*
G01X14182Y30795D01*
G01X14230Y30783D01*
G01X14276Y30765D01*
G01X14319Y30741D01*
G01X14359Y30712D01*
G01X14395Y30678D01*
G01X14427Y30640D01*
G01X14453Y30598D01*
G01X14475Y30554D01*
G01X14490Y30507D01*
G01X14499Y30458D01*
G01X14502Y30409D01*
G01X14502Y30212D01*
G37*
G36*
G01X14502Y28653D02*
G01X14499Y28603D01*
G01X14490Y28555D01*
G01X14475Y28508D01*
G01X14453Y28463D01*
G01X14427Y28421D01*
G01X14395Y28383D01*
G01X14359Y28349D01*
G01X14319Y28320D01*
G01X14276Y28297D01*
G01X14230Y28278D01*
G01X14182Y28266D01*
G01X14133Y28260D01*
G01X14084Y28260D01*
G01X14035Y28266D01*
G01X13987Y28278D01*
G01X13941Y28297D01*
G01X13898Y28320D01*
G01X13858Y28349D01*
G01X13821Y28383D01*
G01X13790Y28421D01*
G01X13763Y28463D01*
G01X13743Y28508D01*
G01X13727Y28555D01*
G01X13718Y28603D01*
G01X13715Y28653D01*
G01X13715Y28850D01*
G01X13718Y28899D01*
G01X13727Y28948D01*
G01X13743Y28995D01*
G01X13763Y29039D01*
G01X13790Y29081D01*
G01X13821Y29119D01*
G01X13858Y29153D01*
G01X13898Y29182D01*
G01X13941Y29206D01*
G01X13987Y29224D01*
G01X14035Y29236D01*
G01X14084Y29243D01*
G01X14133Y29243D01*
G01X14182Y29236D01*
G01X14230Y29224D01*
G01X14276Y29206D01*
G01X14319Y29182D01*
G01X14359Y29153D01*
G01X14395Y29119D01*
G01X14427Y29081D01*
G01X14453Y29039D01*
G01X14475Y28995D01*
G01X14490Y28948D01*
G01X14499Y28899D01*
G01X14502Y28850D01*
G01X14502Y28653D01*
G37*
G36*
G01X16061Y30212D02*
G01X16058Y30163D01*
G01X16049Y30114D01*
G01X16034Y30067D01*
G01X16013Y30022D01*
G01X15986Y29980D01*
G01X15955Y29942D01*
G01X15919Y29909D01*
G01X15878Y29879D01*
G01X15835Y29856D01*
G01X15789Y29837D01*
G01X15741Y29825D01*
G01X15692Y29819D01*
G01X15643Y29819D01*
G01X15594Y29825D01*
G01X15546Y29837D01*
G01X15500Y29856D01*
G01X15457Y29879D01*
G01X15417Y29909D01*
G01X15381Y29942D01*
G01X15349Y29980D01*
G01X15323Y30022D01*
G01X15301Y30067D01*
G01X15286Y30114D01*
G01X15277Y30163D01*
G01X15274Y30212D01*
G01X15274Y30409D01*
G01X15277Y30458D01*
G01X15286Y30507D01*
G01X15301Y30554D01*
G01X15323Y30598D01*
G01X15349Y30640D01*
G01X15381Y30678D01*
G01X15417Y30712D01*
G01X15457Y30741D01*
G01X15500Y30765D01*
G01X15546Y30783D01*
G01X15594Y30795D01*
G01X15643Y30802D01*
G01X15692Y30802D01*
G01X15741Y30795D01*
G01X15789Y30783D01*
G01X15835Y30765D01*
G01X15878Y30741D01*
G01X15919Y30712D01*
G01X15955Y30678D01*
G01X15986Y30640D01*
G01X16013Y30598D01*
G01X16034Y30554D01*
G01X16049Y30507D01*
G01X16058Y30458D01*
G01X16061Y30409D01*
G01X16061Y30212D01*
G37*
G36*
G01X16061Y28653D02*
G01X16058Y28603D01*
G01X16049Y28555D01*
G01X16034Y28508D01*
G01X16013Y28463D01*
G01X15986Y28421D01*
G01X15955Y28383D01*
G01X15919Y28349D01*
G01X15878Y28320D01*
G01X15835Y28297D01*
G01X15789Y28278D01*
G01X15741Y28266D01*
G01X15692Y28260D01*
G01X15643Y28260D01*
G01X15594Y28266D01*
G01X15546Y28278D01*
G01X15500Y28297D01*
G01X15457Y28320D01*
G01X15417Y28349D01*
G01X15381Y28383D01*
G01X15349Y28421D01*
G01X15323Y28463D01*
G01X15301Y28508D01*
G01X15286Y28555D01*
G01X15277Y28603D01*
G01X15274Y28653D01*
G01X15274Y28850D01*
G01X15277Y28899D01*
G01X15286Y28948D01*
G01X15301Y28995D01*
G01X15323Y29039D01*
G01X15349Y29081D01*
G01X15381Y29119D01*
G01X15417Y29153D01*
G01X15457Y29182D01*
G01X15500Y29206D01*
G01X15546Y29224D01*
G01X15594Y29236D01*
G01X15643Y29243D01*
G01X15692Y29243D01*
G01X15741Y29236D01*
G01X15789Y29224D01*
G01X15835Y29206D01*
G01X15878Y29182D01*
G01X15919Y29153D01*
G01X15955Y29119D01*
G01X15986Y29081D01*
G01X16013Y29039D01*
G01X16034Y28995D01*
G01X16049Y28948D01*
G01X16058Y28899D01*
G01X16061Y28850D01*
G01X16061Y28653D01*
G37*
G36*
G01X17620Y30212D02*
G01X17617Y30163D01*
G01X17608Y30114D01*
G01X17593Y30067D01*
G01X17572Y30022D01*
G01X17545Y29980D01*
G01X17514Y29942D01*
G01X17478Y29909D01*
G01X17438Y29879D01*
G01X17394Y29856D01*
G01X17348Y29837D01*
G01X17300Y29825D01*
G01X17251Y29819D01*
G01X17202Y29819D01*
G01X17153Y29825D01*
G01X17105Y29837D01*
G01X17059Y29856D01*
G01X17016Y29879D01*
G01X16976Y29909D01*
G01X16940Y29942D01*
G01X16908Y29980D01*
G01X16882Y30022D01*
G01X16861Y30067D01*
G01X16845Y30114D01*
G01X16836Y30163D01*
G01X16833Y30212D01*
G01X16833Y30409D01*
G01X16836Y30458D01*
G01X16845Y30507D01*
G01X16861Y30554D01*
G01X16882Y30598D01*
G01X16908Y30640D01*
G01X16940Y30678D01*
G01X16976Y30712D01*
G01X17016Y30741D01*
G01X17059Y30765D01*
G01X17105Y30783D01*
G01X17153Y30795D01*
G01X17202Y30802D01*
G01X17251Y30802D01*
G01X17300Y30795D01*
G01X17348Y30783D01*
G01X17394Y30765D01*
G01X17438Y30741D01*
G01X17478Y30712D01*
G01X17514Y30678D01*
G01X17545Y30640D01*
G01X17572Y30598D01*
G01X17593Y30554D01*
G01X17608Y30507D01*
G01X17617Y30458D01*
G01X17620Y30409D01*
G01X17620Y30212D01*
G37*
G36*
G01X17620Y28653D02*
G01X17617Y28603D01*
G01X17608Y28555D01*
G01X17593Y28508D01*
G01X17572Y28463D01*
G01X17545Y28421D01*
G01X17514Y28383D01*
G01X17478Y28349D01*
G01X17438Y28320D01*
G01X17394Y28297D01*
G01X17348Y28278D01*
G01X17300Y28266D01*
G01X17251Y28260D01*
G01X17202Y28260D01*
G01X17153Y28266D01*
G01X17105Y28278D01*
G01X17059Y28297D01*
G01X17016Y28320D01*
G01X16976Y28349D01*
G01X16940Y28383D01*
G01X16908Y28421D01*
G01X16882Y28463D01*
G01X16861Y28508D01*
G01X16845Y28555D01*
G01X16836Y28603D01*
G01X16833Y28653D01*
G01X16833Y28850D01*
G01X16836Y28899D01*
G01X16845Y28948D01*
G01X16861Y28995D01*
G01X16882Y29039D01*
G01X16908Y29081D01*
G01X16940Y29119D01*
G01X16976Y29153D01*
G01X17016Y29182D01*
G01X17059Y29206D01*
G01X17105Y29224D01*
G01X17153Y29236D01*
G01X17202Y29243D01*
G01X17251Y29243D01*
G01X17300Y29236D01*
G01X17348Y29224D01*
G01X17394Y29206D01*
G01X17438Y29182D01*
G01X17478Y29153D01*
G01X17514Y29119D01*
G01X17545Y29081D01*
G01X17572Y29039D01*
G01X17593Y28995D01*
G01X17608Y28948D01*
G01X17617Y28899D01*
G01X17620Y28850D01*
G01X17620Y28653D01*
G37*
G36*
G01X19179Y30212D02*
G01X19176Y30163D01*
G01X19167Y30114D01*
G01X19152Y30067D01*
G01X19131Y30022D01*
G01X19104Y29980D01*
G01X19073Y29942D01*
G01X19037Y29909D01*
G01X18997Y29879D01*
G01X18953Y29856D01*
G01X18907Y29837D01*
G01X18859Y29825D01*
G01X18810Y29819D01*
G01X18761Y29819D01*
G01X18712Y29825D01*
G01X18664Y29837D01*
G01X18618Y29856D01*
G01X18575Y29879D01*
G01X18535Y29909D01*
G01X18499Y29942D01*
G01X18467Y29980D01*
G01X18441Y30022D01*
G01X18420Y30067D01*
G01X18404Y30114D01*
G01X18395Y30163D01*
G01X18392Y30212D01*
G01X18392Y30409D01*
G01X18395Y30458D01*
G01X18404Y30507D01*
G01X18420Y30554D01*
G01X18441Y30598D01*
G01X18467Y30640D01*
G01X18499Y30678D01*
G01X18535Y30712D01*
G01X18575Y30741D01*
G01X18618Y30765D01*
G01X18664Y30783D01*
G01X18712Y30795D01*
G01X18761Y30802D01*
G01X18810Y30802D01*
G01X18859Y30795D01*
G01X18907Y30783D01*
G01X18953Y30765D01*
G01X18997Y30741D01*
G01X19037Y30712D01*
G01X19073Y30678D01*
G01X19104Y30640D01*
G01X19131Y30598D01*
G01X19152Y30554D01*
G01X19167Y30507D01*
G01X19176Y30458D01*
G01X19179Y30409D01*
G01X19179Y30212D01*
G37*
G36*
G01X19179Y28653D02*
G01X19176Y28603D01*
G01X19167Y28555D01*
G01X19152Y28508D01*
G01X19131Y28463D01*
G01X19104Y28421D01*
G01X19073Y28383D01*
G01X19037Y28349D01*
G01X18997Y28320D01*
G01X18953Y28297D01*
G01X18907Y28278D01*
G01X18859Y28266D01*
G01X18810Y28260D01*
G01X18761Y28260D01*
G01X18712Y28266D01*
G01X18664Y28278D01*
G01X18618Y28297D01*
G01X18575Y28320D01*
G01X18535Y28349D01*
G01X18499Y28383D01*
G01X18467Y28421D01*
G01X18441Y28463D01*
G01X18420Y28508D01*
G01X18404Y28555D01*
G01X18395Y28603D01*
G01X18392Y28653D01*
G01X18392Y28850D01*
G01X18395Y28899D01*
G01X18404Y28948D01*
G01X18420Y28995D01*
G01X18441Y29039D01*
G01X18467Y29081D01*
G01X18499Y29119D01*
G01X18535Y29153D01*
G01X18575Y29182D01*
G01X18618Y29206D01*
G01X18664Y29224D01*
G01X18712Y29236D01*
G01X18761Y29243D01*
G01X18810Y29243D01*
G01X18859Y29236D01*
G01X18907Y29224D01*
G01X18953Y29206D01*
G01X18997Y29182D01*
G01X19037Y29153D01*
G01X19073Y29119D01*
G01X19104Y29081D01*
G01X19131Y29039D01*
G01X19152Y28995D01*
G01X19167Y28948D01*
G01X19176Y28899D01*
G01X19179Y28850D01*
G01X19179Y28653D01*
G37*
G36*
G01X20738Y30212D02*
G01X20735Y30163D01*
G01X20726Y30114D01*
G01X20711Y30067D01*
G01X20690Y30022D01*
G01X20663Y29980D01*
G01X20632Y29942D01*
G01X20596Y29909D01*
G01X20556Y29879D01*
G01X20512Y29856D01*
G01X20466Y29837D01*
G01X20419Y29825D01*
G01X20370Y29819D01*
G01X20320Y29819D01*
G01X20271Y29825D01*
G01X20223Y29837D01*
G01X20177Y29856D01*
G01X20134Y29879D01*
G01X20094Y29909D01*
G01X20058Y29942D01*
G01X20026Y29980D01*
G01X20000Y30022D01*
G01X19979Y30067D01*
G01X19963Y30114D01*
G01X19954Y30163D01*
G01X19951Y30212D01*
G01X19951Y30409D01*
G01X19954Y30458D01*
G01X19963Y30507D01*
G01X19979Y30554D01*
G01X20000Y30598D01*
G01X20026Y30640D01*
G01X20058Y30678D01*
G01X20094Y30712D01*
G01X20134Y30741D01*
G01X20177Y30765D01*
G01X20223Y30783D01*
G01X20271Y30795D01*
G01X20320Y30802D01*
G01X20370Y30802D01*
G01X20419Y30795D01*
G01X20466Y30783D01*
G01X20512Y30765D01*
G01X20556Y30741D01*
G01X20596Y30712D01*
G01X20632Y30678D01*
G01X20663Y30640D01*
G01X20690Y30598D01*
G01X20711Y30554D01*
G01X20726Y30507D01*
G01X20735Y30458D01*
G01X20738Y30409D01*
G01X20738Y30212D01*
G37*
G36*
G01X20738Y28653D02*
G01X20735Y28603D01*
G01X20726Y28555D01*
G01X20711Y28508D01*
G01X20690Y28463D01*
G01X20663Y28421D01*
G01X20632Y28383D01*
G01X20596Y28349D01*
G01X20556Y28320D01*
G01X20512Y28297D01*
G01X20466Y28278D01*
G01X20419Y28266D01*
G01X20370Y28260D01*
G01X20320Y28260D01*
G01X20271Y28266D01*
G01X20223Y28278D01*
G01X20177Y28297D01*
G01X20134Y28320D01*
G01X20094Y28349D01*
G01X20058Y28383D01*
G01X20026Y28421D01*
G01X20000Y28463D01*
G01X19979Y28508D01*
G01X19963Y28555D01*
G01X19954Y28603D01*
G01X19951Y28653D01*
G01X19951Y28850D01*
G01X19954Y28899D01*
G01X19963Y28948D01*
G01X19979Y28995D01*
G01X20000Y29039D01*
G01X20026Y29081D01*
G01X20058Y29119D01*
G01X20094Y29153D01*
G01X20134Y29182D01*
G01X20177Y29206D01*
G01X20223Y29224D01*
G01X20271Y29236D01*
G01X20320Y29243D01*
G01X20370Y29243D01*
G01X20419Y29236D01*
G01X20466Y29224D01*
G01X20512Y29206D01*
G01X20556Y29182D01*
G01X20596Y29153D01*
G01X20632Y29119D01*
G01X20663Y29081D01*
G01X20690Y29039D01*
G01X20711Y28995D01*
G01X20726Y28948D01*
G01X20735Y28899D01*
G01X20738Y28850D01*
G01X20738Y28653D01*
G37*
G36*
G01X22297Y30212D02*
G01X22294Y30163D01*
G01X22285Y30114D01*
G01X22270Y30067D01*
G01X22249Y30022D01*
G01X22222Y29980D01*
G01X22191Y29942D01*
G01X22155Y29909D01*
G01X22115Y29879D01*
G01X22071Y29856D01*
G01X22026Y29837D01*
G01X21978Y29825D01*
G01X21928Y29819D01*
G01X21879Y29819D01*
G01X21830Y29825D01*
G01X21782Y29837D01*
G01X21736Y29856D01*
G01X21693Y29879D01*
G01X21653Y29909D01*
G01X21617Y29942D01*
G01X21585Y29980D01*
G01X21559Y30022D01*
G01X21538Y30067D01*
G01X21522Y30114D01*
G01X21513Y30163D01*
G01X21510Y30212D01*
G01X21510Y30409D01*
G01X21513Y30458D01*
G01X21522Y30507D01*
G01X21538Y30554D01*
G01X21559Y30598D01*
G01X21585Y30640D01*
G01X21617Y30678D01*
G01X21653Y30712D01*
G01X21693Y30741D01*
G01X21736Y30765D01*
G01X21782Y30783D01*
G01X21830Y30795D01*
G01X21879Y30802D01*
G01X21928Y30802D01*
G01X21978Y30795D01*
G01X22026Y30783D01*
G01X22071Y30765D01*
G01X22115Y30741D01*
G01X22155Y30712D01*
G01X22191Y30678D01*
G01X22222Y30640D01*
G01X22249Y30598D01*
G01X22270Y30554D01*
G01X22285Y30507D01*
G01X22294Y30458D01*
G01X22297Y30409D01*
G01X22297Y30212D01*
G37*
G36*
G01X22297Y28653D02*
G01X22294Y28603D01*
G01X22285Y28555D01*
G01X22270Y28508D01*
G01X22249Y28463D01*
G01X22222Y28421D01*
G01X22191Y28383D01*
G01X22155Y28349D01*
G01X22115Y28320D01*
G01X22071Y28297D01*
G01X22026Y28278D01*
G01X21978Y28266D01*
G01X21928Y28260D01*
G01X21879Y28260D01*
G01X21830Y28266D01*
G01X21782Y28278D01*
G01X21736Y28297D01*
G01X21693Y28320D01*
G01X21653Y28349D01*
G01X21617Y28383D01*
G01X21585Y28421D01*
G01X21559Y28463D01*
G01X21538Y28508D01*
G01X21522Y28555D01*
G01X21513Y28603D01*
G01X21510Y28653D01*
G01X21510Y28850D01*
G01X21513Y28899D01*
G01X21522Y28948D01*
G01X21538Y28995D01*
G01X21559Y29039D01*
G01X21585Y29081D01*
G01X21617Y29119D01*
G01X21653Y29153D01*
G01X21693Y29182D01*
G01X21736Y29206D01*
G01X21782Y29224D01*
G01X21830Y29236D01*
G01X21879Y29243D01*
G01X21928Y29243D01*
G01X21978Y29236D01*
G01X22026Y29224D01*
G01X22071Y29206D01*
G01X22115Y29182D01*
G01X22155Y29153D01*
G01X22191Y29119D01*
G01X22222Y29081D01*
G01X22249Y29039D01*
G01X22270Y28995D01*
G01X22285Y28948D01*
G01X22294Y28899D01*
G01X22297Y28850D01*
G01X22297Y28653D01*
G37*
G36*
G01X23857Y30212D02*
G01X23853Y30163D01*
G01X23844Y30114D01*
G01X23829Y30067D01*
G01X23808Y30022D01*
G01X23781Y29980D01*
G01X23750Y29942D01*
G01X23714Y29909D01*
G01X23674Y29879D01*
G01X23631Y29856D01*
G01X23584Y29837D01*
G01X23537Y29825D01*
G01X23488Y29819D01*
G01X23438Y29819D01*
G01X23389Y29825D01*
G01X23341Y29837D01*
G01X23295Y29856D01*
G01X23252Y29879D01*
G01X23212Y29909D01*
G01X23176Y29942D01*
G01X23144Y29980D01*
G01X23118Y30022D01*
G01X23097Y30067D01*
G01X23082Y30114D01*
G01X23072Y30163D01*
G01X23069Y30212D01*
G01X23069Y30409D01*
G01X23072Y30458D01*
G01X23082Y30507D01*
G01X23097Y30554D01*
G01X23118Y30598D01*
G01X23144Y30640D01*
G01X23176Y30678D01*
G01X23212Y30712D01*
G01X23252Y30741D01*
G01X23295Y30765D01*
G01X23341Y30783D01*
G01X23389Y30795D01*
G01X23438Y30802D01*
G01X23488Y30802D01*
G01X23537Y30795D01*
G01X23584Y30783D01*
G01X23631Y30765D01*
G01X23674Y30741D01*
G01X23714Y30712D01*
G01X23750Y30678D01*
G01X23781Y30640D01*
G01X23808Y30598D01*
G01X23829Y30554D01*
G01X23844Y30507D01*
G01X23853Y30458D01*
G01X23857Y30409D01*
G01X23857Y30212D01*
G37*
G36*
G01X23857Y28653D02*
G01X23853Y28603D01*
G01X23844Y28555D01*
G01X23829Y28508D01*
G01X23808Y28463D01*
G01X23781Y28421D01*
G01X23750Y28383D01*
G01X23714Y28349D01*
G01X23674Y28320D01*
G01X23631Y28297D01*
G01X23584Y28278D01*
G01X23537Y28266D01*
G01X23488Y28260D01*
G01X23438Y28260D01*
G01X23389Y28266D01*
G01X23341Y28278D01*
G01X23295Y28297D01*
G01X23252Y28320D01*
G01X23212Y28349D01*
G01X23176Y28383D01*
G01X23144Y28421D01*
G01X23118Y28463D01*
G01X23097Y28508D01*
G01X23082Y28555D01*
G01X23072Y28603D01*
G01X23069Y28653D01*
G01X23069Y28850D01*
G01X23072Y28899D01*
G01X23082Y28948D01*
G01X23097Y28995D01*
G01X23118Y29039D01*
G01X23144Y29081D01*
G01X23176Y29119D01*
G01X23212Y29153D01*
G01X23252Y29182D01*
G01X23295Y29206D01*
G01X23341Y29224D01*
G01X23389Y29236D01*
G01X23438Y29243D01*
G01X23488Y29243D01*
G01X23537Y29236D01*
G01X23584Y29224D01*
G01X23631Y29206D01*
G01X23674Y29182D01*
G01X23714Y29153D01*
G01X23750Y29119D01*
G01X23781Y29081D01*
G01X23808Y29039D01*
G01X23829Y28995D01*
G01X23844Y28948D01*
G01X23853Y28899D01*
G01X23857Y28850D01*
G01X23857Y28653D01*
G37*
G36*
G01X25416Y30212D02*
G01X25413Y30163D01*
G01X25403Y30114D01*
G01X25388Y30067D01*
G01X25367Y30022D01*
G01X25340Y29980D01*
G01X25309Y29942D01*
G01X25273Y29909D01*
G01X25233Y29879D01*
G01X25189Y29856D01*
G01X25144Y29837D01*
G01X25096Y29825D01*
G01X25047Y29819D01*
G01X24997Y29819D01*
G01X24948Y29825D01*
G01X24900Y29837D01*
G01X24854Y29856D01*
G01X24811Y29879D01*
G01X24771Y29909D01*
G01X24735Y29942D01*
G01X24703Y29980D01*
G01X24677Y30022D01*
G01X24656Y30067D01*
G01X24641Y30114D01*
G01X24631Y30163D01*
G01X24628Y30212D01*
G01X24628Y30409D01*
G01X24631Y30458D01*
G01X24641Y30507D01*
G01X24656Y30554D01*
G01X24677Y30598D01*
G01X24703Y30640D01*
G01X24735Y30678D01*
G01X24771Y30712D01*
G01X24811Y30741D01*
G01X24854Y30765D01*
G01X24900Y30783D01*
G01X24948Y30795D01*
G01X24997Y30802D01*
G01X25047Y30802D01*
G01X25096Y30795D01*
G01X25144Y30783D01*
G01X25189Y30765D01*
G01X25233Y30741D01*
G01X25273Y30712D01*
G01X25309Y30678D01*
G01X25340Y30640D01*
G01X25367Y30598D01*
G01X25388Y30554D01*
G01X25403Y30507D01*
G01X25413Y30458D01*
G01X25416Y30409D01*
G01X25416Y30212D01*
G37*
G36*
G01X25416Y28653D02*
G01X25413Y28603D01*
G01X25403Y28555D01*
G01X25388Y28508D01*
G01X25367Y28463D01*
G01X25340Y28421D01*
G01X25309Y28383D01*
G01X25273Y28349D01*
G01X25233Y28320D01*
G01X25189Y28297D01*
G01X25144Y28278D01*
G01X25096Y28266D01*
G01X25047Y28260D01*
G01X24997Y28260D01*
G01X24948Y28266D01*
G01X24900Y28278D01*
G01X24854Y28297D01*
G01X24811Y28320D01*
G01X24771Y28349D01*
G01X24735Y28383D01*
G01X24703Y28421D01*
G01X24677Y28463D01*
G01X24656Y28508D01*
G01X24641Y28555D01*
G01X24631Y28603D01*
G01X24628Y28653D01*
G01X24628Y28850D01*
G01X24631Y28899D01*
G01X24641Y28948D01*
G01X24656Y28995D01*
G01X24677Y29039D01*
G01X24703Y29081D01*
G01X24735Y29119D01*
G01X24771Y29153D01*
G01X24811Y29182D01*
G01X24854Y29206D01*
G01X24900Y29224D01*
G01X24948Y29236D01*
G01X24997Y29243D01*
G01X25047Y29243D01*
G01X25096Y29236D01*
G01X25144Y29224D01*
G01X25189Y29206D01*
G01X25233Y29182D01*
G01X25273Y29153D01*
G01X25309Y29119D01*
G01X25340Y29081D01*
G01X25367Y29039D01*
G01X25388Y28995D01*
G01X25403Y28948D01*
G01X25413Y28899D01*
G01X25416Y28850D01*
G01X25416Y28653D01*
G37*
G36*
G01X26975Y30212D02*
G01X26971Y30163D01*
G01X26962Y30114D01*
G01X26947Y30067D01*
G01X26926Y30022D01*
G01X26900Y29980D01*
G01X26868Y29942D01*
G01X26832Y29909D01*
G01X26792Y29879D01*
G01X26749Y29856D01*
G01X26703Y29837D01*
G01X26655Y29825D01*
G01X26606Y29819D01*
G01X26556Y29819D01*
G01X26507Y29825D01*
G01X26459Y29837D01*
G01X26413Y29856D01*
G01X26370Y29879D01*
G01X26330Y29909D01*
G01X26294Y29942D01*
G01X26262Y29980D01*
G01X26236Y30022D01*
G01X26215Y30067D01*
G01X26200Y30114D01*
G01X26190Y30163D01*
G01X26187Y30212D01*
G01X26187Y30409D01*
G01X26190Y30458D01*
G01X26200Y30507D01*
G01X26215Y30554D01*
G01X26236Y30598D01*
G01X26262Y30640D01*
G01X26294Y30678D01*
G01X26330Y30712D01*
G01X26370Y30741D01*
G01X26413Y30765D01*
G01X26459Y30783D01*
G01X26507Y30795D01*
G01X26556Y30802D01*
G01X26606Y30802D01*
G01X26655Y30795D01*
G01X26703Y30783D01*
G01X26749Y30765D01*
G01X26792Y30741D01*
G01X26832Y30712D01*
G01X26868Y30678D01*
G01X26900Y30640D01*
G01X26926Y30598D01*
G01X26947Y30554D01*
G01X26962Y30507D01*
G01X26971Y30458D01*
G01X26975Y30409D01*
G01X26975Y30212D01*
G37*
G36*
G01X26975Y28653D02*
G01X26971Y28603D01*
G01X26962Y28555D01*
G01X26947Y28508D01*
G01X26926Y28463D01*
G01X26900Y28421D01*
G01X26868Y28383D01*
G01X26832Y28349D01*
G01X26792Y28320D01*
G01X26749Y28297D01*
G01X26703Y28278D01*
G01X26655Y28266D01*
G01X26606Y28260D01*
G01X26556Y28260D01*
G01X26507Y28266D01*
G01X26459Y28278D01*
G01X26413Y28297D01*
G01X26370Y28320D01*
G01X26330Y28349D01*
G01X26294Y28383D01*
G01X26262Y28421D01*
G01X26236Y28463D01*
G01X26215Y28508D01*
G01X26200Y28555D01*
G01X26190Y28603D01*
G01X26187Y28653D01*
G01X26187Y28850D01*
G01X26190Y28899D01*
G01X26200Y28948D01*
G01X26215Y28995D01*
G01X26236Y29039D01*
G01X26262Y29081D01*
G01X26294Y29119D01*
G01X26330Y29153D01*
G01X26370Y29182D01*
G01X26413Y29206D01*
G01X26459Y29224D01*
G01X26507Y29236D01*
G01X26556Y29243D01*
G01X26606Y29243D01*
G01X26655Y29236D01*
G01X26703Y29224D01*
G01X26749Y29206D01*
G01X26792Y29182D01*
G01X26832Y29153D01*
G01X26868Y29119D01*
G01X26900Y29081D01*
G01X26926Y29039D01*
G01X26947Y28995D01*
G01X26962Y28948D01*
G01X26971Y28899D01*
G01X26975Y28850D01*
G01X26975Y28653D01*
G37*
G36*
G01X28534Y30212D02*
G01X28531Y30163D01*
G01X28521Y30114D01*
G01X28506Y30067D01*
G01X28485Y30022D01*
G01X28458Y29980D01*
G01X28427Y29942D01*
G01X28391Y29909D01*
G01X28351Y29879D01*
G01X28308Y29856D01*
G01X28262Y29837D01*
G01X28214Y29825D01*
G01X28165Y29819D01*
G01X28115Y29819D01*
G01X28066Y29825D01*
G01X28018Y29837D01*
G01X27972Y29856D01*
G01X27929Y29879D01*
G01X27889Y29909D01*
G01X27853Y29942D01*
G01X27821Y29980D01*
G01X27795Y30022D01*
G01X27774Y30067D01*
G01X27759Y30114D01*
G01X27749Y30163D01*
G01X27746Y30212D01*
G01X27746Y30409D01*
G01X27749Y30458D01*
G01X27759Y30507D01*
G01X27774Y30554D01*
G01X27795Y30598D01*
G01X27821Y30640D01*
G01X27853Y30678D01*
G01X27889Y30712D01*
G01X27929Y30741D01*
G01X27972Y30765D01*
G01X28018Y30783D01*
G01X28066Y30795D01*
G01X28115Y30802D01*
G01X28165Y30802D01*
G01X28214Y30795D01*
G01X28262Y30783D01*
G01X28308Y30765D01*
G01X28351Y30741D01*
G01X28391Y30712D01*
G01X28427Y30678D01*
G01X28458Y30640D01*
G01X28485Y30598D01*
G01X28506Y30554D01*
G01X28521Y30507D01*
G01X28531Y30458D01*
G01X28534Y30409D01*
G01X28534Y30212D01*
G37*
G36*
G01X28534Y28653D02*
G01X28531Y28603D01*
G01X28521Y28555D01*
G01X28506Y28508D01*
G01X28485Y28463D01*
G01X28458Y28421D01*
G01X28427Y28383D01*
G01X28391Y28349D01*
G01X28351Y28320D01*
G01X28308Y28297D01*
G01X28262Y28278D01*
G01X28214Y28266D01*
G01X28165Y28260D01*
G01X28115Y28260D01*
G01X28066Y28266D01*
G01X28018Y28278D01*
G01X27972Y28297D01*
G01X27929Y28320D01*
G01X27889Y28349D01*
G01X27853Y28383D01*
G01X27821Y28421D01*
G01X27795Y28463D01*
G01X27774Y28508D01*
G01X27759Y28555D01*
G01X27749Y28603D01*
G01X27746Y28653D01*
G01X27746Y28850D01*
G01X27749Y28899D01*
G01X27759Y28948D01*
G01X27774Y28995D01*
G01X27795Y29039D01*
G01X27821Y29081D01*
G01X27853Y29119D01*
G01X27889Y29153D01*
G01X27929Y29182D01*
G01X27972Y29206D01*
G01X28018Y29224D01*
G01X28066Y29236D01*
G01X28115Y29243D01*
G01X28165Y29243D01*
G01X28214Y29236D01*
G01X28262Y29224D01*
G01X28308Y29206D01*
G01X28351Y29182D01*
G01X28391Y29153D01*
G01X28427Y29119D01*
G01X28458Y29081D01*
G01X28485Y29039D01*
G01X28506Y28995D01*
G01X28521Y28948D01*
G01X28531Y28899D01*
G01X28534Y28850D01*
G01X28534Y28653D01*
G37*
G36*
G01X30093Y30212D02*
G01X30090Y30163D01*
G01X30080Y30114D01*
G01X30065Y30067D01*
G01X30044Y30022D01*
G01X30018Y29980D01*
G01X29986Y29942D01*
G01X29950Y29909D01*
G01X29910Y29879D01*
G01X29867Y29856D01*
G01X29821Y29837D01*
G01X29773Y29825D01*
G01X29724Y29819D01*
G01X29674Y29819D01*
G01X29625Y29825D01*
G01X29577Y29837D01*
G01X29531Y29856D01*
G01X29488Y29879D01*
G01X29448Y29909D01*
G01X29412Y29942D01*
G01X29381Y29980D01*
G01X29354Y30022D01*
G01X29333Y30067D01*
G01X29318Y30114D01*
G01X29308Y30163D01*
G01X29305Y30212D01*
G01X29305Y30409D01*
G01X29308Y30458D01*
G01X29318Y30507D01*
G01X29333Y30554D01*
G01X29354Y30598D01*
G01X29381Y30640D01*
G01X29412Y30678D01*
G01X29448Y30712D01*
G01X29488Y30741D01*
G01X29531Y30765D01*
G01X29577Y30783D01*
G01X29625Y30795D01*
G01X29674Y30802D01*
G01X29724Y30802D01*
G01X29773Y30795D01*
G01X29821Y30783D01*
G01X29867Y30765D01*
G01X29910Y30741D01*
G01X29950Y30712D01*
G01X29986Y30678D01*
G01X30018Y30640D01*
G01X30044Y30598D01*
G01X30065Y30554D01*
G01X30080Y30507D01*
G01X30090Y30458D01*
G01X30093Y30409D01*
G01X30093Y30212D01*
G37*
G36*
G01X30093Y28653D02*
G01X30090Y28603D01*
G01X30080Y28555D01*
G01X30065Y28508D01*
G01X30044Y28463D01*
G01X30018Y28421D01*
G01X29986Y28383D01*
G01X29950Y28349D01*
G01X29910Y28320D01*
G01X29867Y28297D01*
G01X29821Y28278D01*
G01X29773Y28266D01*
G01X29724Y28260D01*
G01X29674Y28260D01*
G01X29625Y28266D01*
G01X29577Y28278D01*
G01X29531Y28297D01*
G01X29488Y28320D01*
G01X29448Y28349D01*
G01X29412Y28383D01*
G01X29381Y28421D01*
G01X29354Y28463D01*
G01X29333Y28508D01*
G01X29318Y28555D01*
G01X29308Y28603D01*
G01X29305Y28653D01*
G01X29305Y28850D01*
G01X29308Y28899D01*
G01X29318Y28948D01*
G01X29333Y28995D01*
G01X29354Y29039D01*
G01X29381Y29081D01*
G01X29412Y29119D01*
G01X29448Y29153D01*
G01X29488Y29182D01*
G01X29531Y29206D01*
G01X29577Y29224D01*
G01X29625Y29236D01*
G01X29674Y29243D01*
G01X29724Y29243D01*
G01X29773Y29236D01*
G01X29821Y29224D01*
G01X29867Y29206D01*
G01X29910Y29182D01*
G01X29950Y29153D01*
G01X29986Y29119D01*
G01X30018Y29081D01*
G01X30044Y29039D01*
G01X30065Y28995D01*
G01X30080Y28948D01*
G01X30090Y28899D01*
G01X30093Y28850D01*
G01X30093Y28653D01*
G37*
G36*
G01X31652Y30212D02*
G01X31649Y30163D01*
G01X31639Y30114D01*
G01X31624Y30067D01*
G01X31603Y30022D01*
G01X31577Y29980D01*
G01X31545Y29942D01*
G01X31509Y29909D01*
G01X31469Y29879D01*
G01X31426Y29856D01*
G01X31380Y29837D01*
G01X31332Y29825D01*
G01X31283Y29819D01*
G01X31233Y29819D01*
G01X31184Y29825D01*
G01X31136Y29837D01*
G01X31090Y29856D01*
G01X31047Y29879D01*
G01X31007Y29909D01*
G01X30971Y29942D01*
G01X30940Y29980D01*
G01X30913Y30022D01*
G01X30892Y30067D01*
G01X30877Y30114D01*
G01X30867Y30163D01*
G01X30864Y30212D01*
G01X30864Y30409D01*
G01X30867Y30458D01*
G01X30877Y30507D01*
G01X30892Y30554D01*
G01X30913Y30598D01*
G01X30940Y30640D01*
G01X30971Y30678D01*
G01X31007Y30712D01*
G01X31047Y30741D01*
G01X31090Y30765D01*
G01X31136Y30783D01*
G01X31184Y30795D01*
G01X31233Y30802D01*
G01X31283Y30802D01*
G01X31332Y30795D01*
G01X31380Y30783D01*
G01X31426Y30765D01*
G01X31469Y30741D01*
G01X31509Y30712D01*
G01X31545Y30678D01*
G01X31577Y30640D01*
G01X31603Y30598D01*
G01X31624Y30554D01*
G01X31639Y30507D01*
G01X31649Y30458D01*
G01X31652Y30409D01*
G01X31652Y30212D01*
G37*
G36*
G01X31652Y28653D02*
G01X31649Y28603D01*
G01X31639Y28555D01*
G01X31624Y28508D01*
G01X31603Y28463D01*
G01X31577Y28421D01*
G01X31545Y28383D01*
G01X31509Y28349D01*
G01X31469Y28320D01*
G01X31426Y28297D01*
G01X31380Y28278D01*
G01X31332Y28266D01*
G01X31283Y28260D01*
G01X31233Y28260D01*
G01X31184Y28266D01*
G01X31136Y28278D01*
G01X31090Y28297D01*
G01X31047Y28320D01*
G01X31007Y28349D01*
G01X30971Y28383D01*
G01X30940Y28421D01*
G01X30913Y28463D01*
G01X30892Y28508D01*
G01X30877Y28555D01*
G01X30867Y28603D01*
G01X30864Y28653D01*
G01X30864Y28850D01*
G01X30867Y28899D01*
G01X30877Y28948D01*
G01X30892Y28995D01*
G01X30913Y29039D01*
G01X30940Y29081D01*
G01X30971Y29119D01*
G01X31007Y29153D01*
G01X31047Y29182D01*
G01X31090Y29206D01*
G01X31136Y29224D01*
G01X31184Y29236D01*
G01X31233Y29243D01*
G01X31283Y29243D01*
G01X31332Y29236D01*
G01X31380Y29224D01*
G01X31426Y29206D01*
G01X31469Y29182D01*
G01X31509Y29153D01*
G01X31545Y29119D01*
G01X31577Y29081D01*
G01X31603Y29039D01*
G01X31624Y28995D01*
G01X31639Y28948D01*
G01X31649Y28899D01*
G01X31652Y28850D01*
G01X31652Y28653D01*
G37*
G36*
G01X33211Y30212D02*
G01X33208Y30163D01*
G01X33199Y30114D01*
G01X33183Y30067D01*
G01X33162Y30022D01*
G01X33136Y29980D01*
G01X33104Y29942D01*
G01X33068Y29909D01*
G01X33028Y29879D01*
G01X32985Y29856D01*
G01X32939Y29837D01*
G01X32891Y29825D01*
G01X32842Y29819D01*
G01X32792Y29819D01*
G01X32743Y29825D01*
G01X32696Y29837D01*
G01X32650Y29856D01*
G01X32606Y29879D01*
G01X32566Y29909D01*
G01X32530Y29942D01*
G01X32499Y29980D01*
G01X32472Y30022D01*
G01X32451Y30067D01*
G01X32436Y30114D01*
G01X32427Y30163D01*
G01X32424Y30212D01*
G01X32424Y30409D01*
G01X32427Y30458D01*
G01X32436Y30507D01*
G01X32451Y30554D01*
G01X32472Y30598D01*
G01X32499Y30640D01*
G01X32530Y30678D01*
G01X32566Y30712D01*
G01X32606Y30741D01*
G01X32650Y30765D01*
G01X32696Y30783D01*
G01X32743Y30795D01*
G01X32792Y30802D01*
G01X32842Y30802D01*
G01X32891Y30795D01*
G01X32939Y30783D01*
G01X32985Y30765D01*
G01X33028Y30741D01*
G01X33068Y30712D01*
G01X33104Y30678D01*
G01X33136Y30640D01*
G01X33162Y30598D01*
G01X33183Y30554D01*
G01X33199Y30507D01*
G01X33208Y30458D01*
G01X33211Y30409D01*
G01X33211Y30212D01*
G37*
G36*
G01X33211Y28653D02*
G01X33208Y28603D01*
G01X33199Y28555D01*
G01X33183Y28508D01*
G01X33162Y28463D01*
G01X33136Y28421D01*
G01X33104Y28383D01*
G01X33068Y28349D01*
G01X33028Y28320D01*
G01X32985Y28297D01*
G01X32939Y28278D01*
G01X32891Y28266D01*
G01X32842Y28260D01*
G01X32792Y28260D01*
G01X32743Y28266D01*
G01X32696Y28278D01*
G01X32650Y28297D01*
G01X32606Y28320D01*
G01X32566Y28349D01*
G01X32530Y28383D01*
G01X32499Y28421D01*
G01X32472Y28463D01*
G01X32451Y28508D01*
G01X32436Y28555D01*
G01X32427Y28603D01*
G01X32424Y28653D01*
G01X32424Y28850D01*
G01X32427Y28899D01*
G01X32436Y28948D01*
G01X32451Y28995D01*
G01X32472Y29039D01*
G01X32499Y29081D01*
G01X32530Y29119D01*
G01X32566Y29153D01*
G01X32606Y29182D01*
G01X32650Y29206D01*
G01X32696Y29224D01*
G01X32743Y29236D01*
G01X32792Y29243D01*
G01X32842Y29243D01*
G01X32891Y29236D01*
G01X32939Y29224D01*
G01X32985Y29206D01*
G01X33028Y29182D01*
G01X33068Y29153D01*
G01X33104Y29119D01*
G01X33136Y29081D01*
G01X33162Y29039D01*
G01X33183Y28995D01*
G01X33199Y28948D01*
G01X33208Y28899D01*
G01X33211Y28850D01*
G01X33211Y28653D01*
G37*
G36*
G01X34770Y30212D02*
G01X34767Y30163D01*
G01X34758Y30114D01*
G01X34742Y30067D01*
G01X34721Y30022D01*
G01X34695Y29980D01*
G01X34663Y29942D01*
G01X34627Y29909D01*
G01X34587Y29879D01*
G01X34544Y29856D01*
G01X34498Y29837D01*
G01X34450Y29825D01*
G01X34401Y29819D01*
G01X34352Y29819D01*
G01X34302Y29825D01*
G01X34254Y29837D01*
G01X34209Y29856D01*
G01X34165Y29879D01*
G01X34125Y29909D01*
G01X34089Y29942D01*
G01X34058Y29980D01*
G01X34031Y30022D01*
G01X34010Y30067D01*
G01X33995Y30114D01*
G01X33986Y30163D01*
G01X33983Y30212D01*
G01X33983Y30409D01*
G01X33986Y30458D01*
G01X33995Y30507D01*
G01X34010Y30554D01*
G01X34031Y30598D01*
G01X34058Y30640D01*
G01X34089Y30678D01*
G01X34125Y30712D01*
G01X34165Y30741D01*
G01X34209Y30765D01*
G01X34254Y30783D01*
G01X34302Y30795D01*
G01X34352Y30802D01*
G01X34401Y30802D01*
G01X34450Y30795D01*
G01X34498Y30783D01*
G01X34544Y30765D01*
G01X34587Y30741D01*
G01X34627Y30712D01*
G01X34663Y30678D01*
G01X34695Y30640D01*
G01X34721Y30598D01*
G01X34742Y30554D01*
G01X34758Y30507D01*
G01X34767Y30458D01*
G01X34770Y30409D01*
G01X34770Y30212D01*
G37*
G36*
G01X34770Y28653D02*
G01X34767Y28603D01*
G01X34758Y28555D01*
G01X34742Y28508D01*
G01X34721Y28463D01*
G01X34695Y28421D01*
G01X34663Y28383D01*
G01X34627Y28349D01*
G01X34587Y28320D01*
G01X34544Y28297D01*
G01X34498Y28278D01*
G01X34450Y28266D01*
G01X34401Y28260D01*
G01X34352Y28260D01*
G01X34302Y28266D01*
G01X34254Y28278D01*
G01X34209Y28297D01*
G01X34165Y28320D01*
G01X34125Y28349D01*
G01X34089Y28383D01*
G01X34058Y28421D01*
G01X34031Y28463D01*
G01X34010Y28508D01*
G01X33995Y28555D01*
G01X33986Y28603D01*
G01X33983Y28653D01*
G01X33983Y28850D01*
G01X33986Y28899D01*
G01X33995Y28948D01*
G01X34010Y28995D01*
G01X34031Y29039D01*
G01X34058Y29081D01*
G01X34089Y29119D01*
G01X34125Y29153D01*
G01X34165Y29182D01*
G01X34209Y29206D01*
G01X34254Y29224D01*
G01X34302Y29236D01*
G01X34352Y29243D01*
G01X34401Y29243D01*
G01X34450Y29236D01*
G01X34498Y29224D01*
G01X34544Y29206D01*
G01X34587Y29182D01*
G01X34627Y29153D01*
G01X34663Y29119D01*
G01X34695Y29081D01*
G01X34721Y29039D01*
G01X34742Y28995D01*
G01X34758Y28948D01*
G01X34767Y28899D01*
G01X34770Y28850D01*
G01X34770Y28653D01*
G37*
G36*
G01X36329Y30212D02*
G01X36326Y30163D01*
G01X36317Y30114D01*
G01X36301Y30067D01*
G01X36280Y30022D01*
G01X36254Y29980D01*
G01X36222Y29942D01*
G01X36186Y29909D01*
G01X36146Y29879D01*
G01X36103Y29856D01*
G01X36057Y29837D01*
G01X36009Y29825D01*
G01X35960Y29819D01*
G01X35911Y29819D01*
G01X35862Y29825D01*
G01X35814Y29837D01*
G01X35768Y29856D01*
G01X35724Y29879D01*
G01X35684Y29909D01*
G01X35648Y29942D01*
G01X35617Y29980D01*
G01X35590Y30022D01*
G01X35569Y30067D01*
G01X35554Y30114D01*
G01X35545Y30163D01*
G01X35542Y30212D01*
G01X35542Y30409D01*
G01X35545Y30458D01*
G01X35554Y30507D01*
G01X35569Y30554D01*
G01X35590Y30598D01*
G01X35617Y30640D01*
G01X35648Y30678D01*
G01X35684Y30712D01*
G01X35724Y30741D01*
G01X35768Y30765D01*
G01X35814Y30783D01*
G01X35862Y30795D01*
G01X35911Y30802D01*
G01X35960Y30802D01*
G01X36009Y30795D01*
G01X36057Y30783D01*
G01X36103Y30765D01*
G01X36146Y30741D01*
G01X36186Y30712D01*
G01X36222Y30678D01*
G01X36254Y30640D01*
G01X36280Y30598D01*
G01X36301Y30554D01*
G01X36317Y30507D01*
G01X36326Y30458D01*
G01X36329Y30409D01*
G01X36329Y30212D01*
G37*
G36*
G01X36329Y28653D02*
G01X36326Y28603D01*
G01X36317Y28555D01*
G01X36301Y28508D01*
G01X36280Y28463D01*
G01X36254Y28421D01*
G01X36222Y28383D01*
G01X36186Y28349D01*
G01X36146Y28320D01*
G01X36103Y28297D01*
G01X36057Y28278D01*
G01X36009Y28266D01*
G01X35960Y28260D01*
G01X35911Y28260D01*
G01X35862Y28266D01*
G01X35814Y28278D01*
G01X35768Y28297D01*
G01X35724Y28320D01*
G01X35684Y28349D01*
G01X35648Y28383D01*
G01X35617Y28421D01*
G01X35590Y28463D01*
G01X35569Y28508D01*
G01X35554Y28555D01*
G01X35545Y28603D01*
G01X35542Y28653D01*
G01X35542Y28850D01*
G01X35545Y28899D01*
G01X35554Y28948D01*
G01X35569Y28995D01*
G01X35590Y29039D01*
G01X35617Y29081D01*
G01X35648Y29119D01*
G01X35684Y29153D01*
G01X35724Y29182D01*
G01X35768Y29206D01*
G01X35814Y29224D01*
G01X35862Y29236D01*
G01X35911Y29243D01*
G01X35960Y29243D01*
G01X36009Y29236D01*
G01X36057Y29224D01*
G01X36103Y29206D01*
G01X36146Y29182D01*
G01X36186Y29153D01*
G01X36222Y29119D01*
G01X36254Y29081D01*
G01X36280Y29039D01*
G01X36301Y28995D01*
G01X36317Y28948D01*
G01X36326Y28899D01*
G01X36329Y28850D01*
G01X36329Y28653D01*
G37*
G36*
G01X37888Y30212D02*
G01X37885Y30163D01*
G01X37876Y30114D01*
G01X37860Y30067D01*
G01X37839Y30022D01*
G01X37813Y29980D01*
G01X37781Y29942D01*
G01X37745Y29909D01*
G01X37705Y29879D01*
G01X37662Y29856D01*
G01X37616Y29837D01*
G01X37568Y29825D01*
G01X37519Y29819D01*
G01X37470Y29819D01*
G01X37421Y29825D01*
G01X37373Y29837D01*
G01X37327Y29856D01*
G01X37283Y29879D01*
G01X37243Y29909D01*
G01X37207Y29942D01*
G01X37176Y29980D01*
G01X37149Y30022D01*
G01X37128Y30067D01*
G01X37113Y30114D01*
G01X37104Y30163D01*
G01X37101Y30212D01*
G01X37101Y30409D01*
G01X37104Y30458D01*
G01X37113Y30507D01*
G01X37128Y30554D01*
G01X37149Y30598D01*
G01X37176Y30640D01*
G01X37207Y30678D01*
G01X37243Y30712D01*
G01X37283Y30741D01*
G01X37327Y30765D01*
G01X37373Y30783D01*
G01X37421Y30795D01*
G01X37470Y30802D01*
G01X37519Y30802D01*
G01X37568Y30795D01*
G01X37616Y30783D01*
G01X37662Y30765D01*
G01X37705Y30741D01*
G01X37745Y30712D01*
G01X37781Y30678D01*
G01X37813Y30640D01*
G01X37839Y30598D01*
G01X37860Y30554D01*
G01X37876Y30507D01*
G01X37885Y30458D01*
G01X37888Y30409D01*
G01X37888Y30212D01*
G37*
G36*
G01X37888Y28653D02*
G01X37885Y28603D01*
G01X37876Y28555D01*
G01X37860Y28508D01*
G01X37839Y28463D01*
G01X37813Y28421D01*
G01X37781Y28383D01*
G01X37745Y28349D01*
G01X37705Y28320D01*
G01X37662Y28297D01*
G01X37616Y28278D01*
G01X37568Y28266D01*
G01X37519Y28260D01*
G01X37470Y28260D01*
G01X37421Y28266D01*
G01X37373Y28278D01*
G01X37327Y28297D01*
G01X37283Y28320D01*
G01X37243Y28349D01*
G01X37207Y28383D01*
G01X37176Y28421D01*
G01X37149Y28463D01*
G01X37128Y28508D01*
G01X37113Y28555D01*
G01X37104Y28603D01*
G01X37101Y28653D01*
G01X37101Y28850D01*
G01X37104Y28899D01*
G01X37113Y28948D01*
G01X37128Y28995D01*
G01X37149Y29039D01*
G01X37176Y29081D01*
G01X37207Y29119D01*
G01X37243Y29153D01*
G01X37283Y29182D01*
G01X37327Y29206D01*
G01X37373Y29224D01*
G01X37421Y29236D01*
G01X37470Y29243D01*
G01X37519Y29243D01*
G01X37568Y29236D01*
G01X37616Y29224D01*
G01X37662Y29206D01*
G01X37705Y29182D01*
G01X37745Y29153D01*
G01X37781Y29119D01*
G01X37813Y29081D01*
G01X37839Y29039D01*
G01X37860Y28995D01*
G01X37876Y28948D01*
G01X37885Y28899D01*
G01X37888Y28850D01*
G01X37888Y28653D01*
G37*
G36*
G01X39447Y30212D02*
G01X39444Y30163D01*
G01X39435Y30114D01*
G01X39419Y30067D01*
G01X39398Y30022D01*
G01X39372Y29980D01*
G01X39340Y29942D01*
G01X39304Y29909D01*
G01X39264Y29879D01*
G01X39221Y29856D01*
G01X39175Y29837D01*
G01X39127Y29825D01*
G01X39078Y29819D01*
G01X39029Y29819D01*
G01X38980Y29825D01*
G01X38932Y29837D01*
G01X38886Y29856D01*
G01X38842Y29879D01*
G01X38802Y29909D01*
G01X38766Y29942D01*
G01X38735Y29980D01*
G01X38708Y30022D01*
G01X38687Y30067D01*
G01X38672Y30114D01*
G01X38663Y30163D01*
G01X38660Y30212D01*
G01X38660Y30409D01*
G01X38663Y30458D01*
G01X38672Y30507D01*
G01X38687Y30554D01*
G01X38708Y30598D01*
G01X38735Y30640D01*
G01X38766Y30678D01*
G01X38802Y30712D01*
G01X38842Y30741D01*
G01X38886Y30765D01*
G01X38932Y30783D01*
G01X38980Y30795D01*
G01X39029Y30802D01*
G01X39078Y30802D01*
G01X39127Y30795D01*
G01X39175Y30783D01*
G01X39221Y30765D01*
G01X39264Y30741D01*
G01X39304Y30712D01*
G01X39340Y30678D01*
G01X39372Y30640D01*
G01X39398Y30598D01*
G01X39419Y30554D01*
G01X39435Y30507D01*
G01X39444Y30458D01*
G01X39447Y30409D01*
G01X39447Y30212D01*
G37*
G36*
G01X39447Y28653D02*
G01X39444Y28603D01*
G01X39435Y28555D01*
G01X39419Y28508D01*
G01X39398Y28463D01*
G01X39372Y28421D01*
G01X39340Y28383D01*
G01X39304Y28349D01*
G01X39264Y28320D01*
G01X39221Y28297D01*
G01X39175Y28278D01*
G01X39127Y28266D01*
G01X39078Y28260D01*
G01X39029Y28260D01*
G01X38980Y28266D01*
G01X38932Y28278D01*
G01X38886Y28297D01*
G01X38842Y28320D01*
G01X38802Y28349D01*
G01X38766Y28383D01*
G01X38735Y28421D01*
G01X38708Y28463D01*
G01X38687Y28508D01*
G01X38672Y28555D01*
G01X38663Y28603D01*
G01X38660Y28653D01*
G01X38660Y28850D01*
G01X38663Y28899D01*
G01X38672Y28948D01*
G01X38687Y28995D01*
G01X38708Y29039D01*
G01X38735Y29081D01*
G01X38766Y29119D01*
G01X38802Y29153D01*
G01X38842Y29182D01*
G01X38886Y29206D01*
G01X38932Y29224D01*
G01X38980Y29236D01*
G01X39029Y29243D01*
G01X39078Y29243D01*
G01X39127Y29236D01*
G01X39175Y29224D01*
G01X39221Y29206D01*
G01X39264Y29182D01*
G01X39304Y29153D01*
G01X39340Y29119D01*
G01X39372Y29081D01*
G01X39398Y29039D01*
G01X39419Y28995D01*
G01X39435Y28948D01*
G01X39444Y28899D01*
G01X39447Y28850D01*
G01X39447Y28653D01*
G37*
G36*
G01X41006Y30212D02*
G01X41003Y30163D01*
G01X40994Y30114D01*
G01X40979Y30067D01*
G01X40957Y30022D01*
G01X40931Y29980D01*
G01X40899Y29942D01*
G01X40863Y29909D01*
G01X40823Y29879D01*
G01X40780Y29856D01*
G01X40734Y29837D01*
G01X40686Y29825D01*
G01X40637Y29819D01*
G01X40588Y29819D01*
G01X40539Y29825D01*
G01X40491Y29837D01*
G01X40445Y29856D01*
G01X40402Y29879D01*
G01X40362Y29909D01*
G01X40325Y29942D01*
G01X40294Y29980D01*
G01X40267Y30022D01*
G01X40246Y30067D01*
G01X40231Y30114D01*
G01X40222Y30163D01*
G01X40219Y30212D01*
G01X40219Y30409D01*
G01X40222Y30458D01*
G01X40231Y30507D01*
G01X40246Y30554D01*
G01X40267Y30598D01*
G01X40294Y30640D01*
G01X40325Y30678D01*
G01X40362Y30712D01*
G01X40402Y30741D01*
G01X40445Y30765D01*
G01X40491Y30783D01*
G01X40539Y30795D01*
G01X40588Y30802D01*
G01X40637Y30802D01*
G01X40686Y30795D01*
G01X40734Y30783D01*
G01X40780Y30765D01*
G01X40823Y30741D01*
G01X40863Y30712D01*
G01X40899Y30678D01*
G01X40931Y30640D01*
G01X40957Y30598D01*
G01X40979Y30554D01*
G01X40994Y30507D01*
G01X41003Y30458D01*
G01X41006Y30409D01*
G01X41006Y30212D01*
G37*
G36*
G01X41006Y28653D02*
G01X41003Y28603D01*
G01X40994Y28555D01*
G01X40979Y28508D01*
G01X40957Y28463D01*
G01X40931Y28421D01*
G01X40899Y28383D01*
G01X40863Y28349D01*
G01X40823Y28320D01*
G01X40780Y28297D01*
G01X40734Y28278D01*
G01X40686Y28266D01*
G01X40637Y28260D01*
G01X40588Y28260D01*
G01X40539Y28266D01*
G01X40491Y28278D01*
G01X40445Y28297D01*
G01X40402Y28320D01*
G01X40362Y28349D01*
G01X40325Y28383D01*
G01X40294Y28421D01*
G01X40267Y28463D01*
G01X40246Y28508D01*
G01X40231Y28555D01*
G01X40222Y28603D01*
G01X40219Y28653D01*
G01X40219Y28850D01*
G01X40222Y28899D01*
G01X40231Y28948D01*
G01X40246Y28995D01*
G01X40267Y29039D01*
G01X40294Y29081D01*
G01X40325Y29119D01*
G01X40362Y29153D01*
G01X40402Y29182D01*
G01X40445Y29206D01*
G01X40491Y29224D01*
G01X40539Y29236D01*
G01X40588Y29243D01*
G01X40637Y29243D01*
G01X40686Y29236D01*
G01X40734Y29224D01*
G01X40780Y29206D01*
G01X40823Y29182D01*
G01X40863Y29153D01*
G01X40899Y29119D01*
G01X40931Y29081D01*
G01X40957Y29039D01*
G01X40979Y28995D01*
G01X40994Y28948D01*
G01X41003Y28899D01*
G01X41006Y28850D01*
G01X41006Y28653D01*
G37*
G36*
G01X42565Y30212D02*
G01X42562Y30163D01*
G01X42553Y30114D01*
G01X42538Y30067D01*
G01X42516Y30022D01*
G01X42490Y29980D01*
G01X42459Y29942D01*
G01X42422Y29909D01*
G01X42382Y29879D01*
G01X42339Y29856D01*
G01X42293Y29837D01*
G01X42245Y29825D01*
G01X42196Y29819D01*
G01X42147Y29819D01*
G01X42098Y29825D01*
G01X42050Y29837D01*
G01X42004Y29856D01*
G01X41961Y29879D01*
G01X41921Y29909D01*
G01X41885Y29942D01*
G01X41853Y29980D01*
G01X41827Y30022D01*
G01X41805Y30067D01*
G01X41790Y30114D01*
G01X41781Y30163D01*
G01X41778Y30212D01*
G01X41778Y30409D01*
G01X41781Y30458D01*
G01X41790Y30507D01*
G01X41805Y30554D01*
G01X41827Y30598D01*
G01X41853Y30640D01*
G01X41885Y30678D01*
G01X41921Y30712D01*
G01X41961Y30741D01*
G01X42004Y30765D01*
G01X42050Y30783D01*
G01X42098Y30795D01*
G01X42147Y30802D01*
G01X42196Y30802D01*
G01X42245Y30795D01*
G01X42293Y30783D01*
G01X42339Y30765D01*
G01X42382Y30741D01*
G01X42422Y30712D01*
G01X42459Y30678D01*
G01X42490Y30640D01*
G01X42516Y30598D01*
G01X42538Y30554D01*
G01X42553Y30507D01*
G01X42562Y30458D01*
G01X42565Y30409D01*
G01X42565Y30212D01*
G37*
G36*
G01X42565Y28653D02*
G01X42562Y28603D01*
G01X42553Y28555D01*
G01X42538Y28508D01*
G01X42516Y28463D01*
G01X42490Y28421D01*
G01X42459Y28383D01*
G01X42422Y28349D01*
G01X42382Y28320D01*
G01X42339Y28297D01*
G01X42293Y28278D01*
G01X42245Y28266D01*
G01X42196Y28260D01*
G01X42147Y28260D01*
G01X42098Y28266D01*
G01X42050Y28278D01*
G01X42004Y28297D01*
G01X41961Y28320D01*
G01X41921Y28349D01*
G01X41885Y28383D01*
G01X41853Y28421D01*
G01X41827Y28463D01*
G01X41805Y28508D01*
G01X41790Y28555D01*
G01X41781Y28603D01*
G01X41778Y28653D01*
G01X41778Y28850D01*
G01X41781Y28899D01*
G01X41790Y28948D01*
G01X41805Y28995D01*
G01X41827Y29039D01*
G01X41853Y29081D01*
G01X41885Y29119D01*
G01X41921Y29153D01*
G01X41961Y29182D01*
G01X42004Y29206D01*
G01X42050Y29224D01*
G01X42098Y29236D01*
G01X42147Y29243D01*
G01X42196Y29243D01*
G01X42245Y29236D01*
G01X42293Y29224D01*
G01X42339Y29206D01*
G01X42382Y29182D01*
G01X42422Y29153D01*
G01X42459Y29119D01*
G01X42490Y29081D01*
G01X42516Y29039D01*
G01X42538Y28995D01*
G01X42553Y28948D01*
G01X42562Y28899D01*
G01X42565Y28850D01*
G01X42565Y28653D01*
G37*
G36*
G01X44124Y30212D02*
G01X44121Y30163D01*
G01X44112Y30114D01*
G01X44097Y30067D01*
G01X44076Y30022D01*
G01X44049Y29980D01*
G01X44017Y29942D01*
G01X43981Y29909D01*
G01X43941Y29879D01*
G01X43898Y29856D01*
G01X43852Y29837D01*
G01X43804Y29825D01*
G01X43755Y29819D01*
G01X43706Y29819D01*
G01X43657Y29825D01*
G01X43609Y29837D01*
G01X43563Y29856D01*
G01X43520Y29879D01*
G01X43480Y29909D01*
G01X43443Y29942D01*
G01X43412Y29980D01*
G01X43386Y30022D01*
G01X43365Y30067D01*
G01X43349Y30114D01*
G01X43340Y30163D01*
G01X43337Y30212D01*
G01X43337Y30409D01*
G01X43340Y30458D01*
G01X43349Y30507D01*
G01X43365Y30554D01*
G01X43386Y30598D01*
G01X43412Y30640D01*
G01X43443Y30678D01*
G01X43480Y30712D01*
G01X43520Y30741D01*
G01X43563Y30765D01*
G01X43609Y30783D01*
G01X43657Y30795D01*
G01X43706Y30802D01*
G01X43755Y30802D01*
G01X43804Y30795D01*
G01X43852Y30783D01*
G01X43898Y30765D01*
G01X43941Y30741D01*
G01X43981Y30712D01*
G01X44017Y30678D01*
G01X44049Y30640D01*
G01X44076Y30598D01*
G01X44097Y30554D01*
G01X44112Y30507D01*
G01X44121Y30458D01*
G01X44124Y30409D01*
G01X44124Y30212D01*
G37*
G36*
G01X44124Y28653D02*
G01X44121Y28603D01*
G01X44112Y28555D01*
G01X44097Y28508D01*
G01X44076Y28463D01*
G01X44049Y28421D01*
G01X44017Y28383D01*
G01X43981Y28349D01*
G01X43941Y28320D01*
G01X43898Y28297D01*
G01X43852Y28278D01*
G01X43804Y28266D01*
G01X43755Y28260D01*
G01X43706Y28260D01*
G01X43657Y28266D01*
G01X43609Y28278D01*
G01X43563Y28297D01*
G01X43520Y28320D01*
G01X43480Y28349D01*
G01X43443Y28383D01*
G01X43412Y28421D01*
G01X43386Y28463D01*
G01X43365Y28508D01*
G01X43349Y28555D01*
G01X43340Y28603D01*
G01X43337Y28653D01*
G01X43337Y28850D01*
G01X43340Y28899D01*
G01X43349Y28948D01*
G01X43365Y28995D01*
G01X43386Y29039D01*
G01X43412Y29081D01*
G01X43443Y29119D01*
G01X43480Y29153D01*
G01X43520Y29182D01*
G01X43563Y29206D01*
G01X43609Y29224D01*
G01X43657Y29236D01*
G01X43706Y29243D01*
G01X43755Y29243D01*
G01X43804Y29236D01*
G01X43852Y29224D01*
G01X43898Y29206D01*
G01X43941Y29182D01*
G01X43981Y29153D01*
G01X44017Y29119D01*
G01X44049Y29081D01*
G01X44076Y29039D01*
G01X44097Y28995D01*
G01X44112Y28948D01*
G01X44121Y28899D01*
G01X44124Y28850D01*
G01X44124Y28653D01*
G37*
G36*
G01X45683Y30212D02*
G01X45680Y30163D01*
G01X45671Y30114D01*
G01X45656Y30067D01*
G01X45635Y30022D01*
G01X45608Y29980D01*
G01X45577Y29942D01*
G01X45541Y29909D01*
G01X45501Y29879D01*
G01X45457Y29856D01*
G01X45411Y29837D01*
G01X45363Y29825D01*
G01X45314Y29819D01*
G01X45265Y29819D01*
G01X45216Y29825D01*
G01X45168Y29837D01*
G01X45122Y29856D01*
G01X45079Y29879D01*
G01X45039Y29909D01*
G01X45003Y29942D01*
G01X44971Y29980D01*
G01X44945Y30022D01*
G01X44924Y30067D01*
G01X44908Y30114D01*
G01X44899Y30163D01*
G01X44896Y30212D01*
G01X44896Y30409D01*
G01X44899Y30458D01*
G01X44908Y30507D01*
G01X44924Y30554D01*
G01X44945Y30598D01*
G01X44971Y30640D01*
G01X45003Y30678D01*
G01X45039Y30712D01*
G01X45079Y30741D01*
G01X45122Y30765D01*
G01X45168Y30783D01*
G01X45216Y30795D01*
G01X45265Y30802D01*
G01X45314Y30802D01*
G01X45363Y30795D01*
G01X45411Y30783D01*
G01X45457Y30765D01*
G01X45501Y30741D01*
G01X45541Y30712D01*
G01X45577Y30678D01*
G01X45608Y30640D01*
G01X45635Y30598D01*
G01X45656Y30554D01*
G01X45671Y30507D01*
G01X45680Y30458D01*
G01X45683Y30409D01*
G01X45683Y30212D01*
G37*
G36*
G01X45683Y28653D02*
G01X45680Y28603D01*
G01X45671Y28555D01*
G01X45656Y28508D01*
G01X45635Y28463D01*
G01X45608Y28421D01*
G01X45577Y28383D01*
G01X45541Y28349D01*
G01X45501Y28320D01*
G01X45457Y28297D01*
G01X45411Y28278D01*
G01X45363Y28266D01*
G01X45314Y28260D01*
G01X45265Y28260D01*
G01X45216Y28266D01*
G01X45168Y28278D01*
G01X45122Y28297D01*
G01X45079Y28320D01*
G01X45039Y28349D01*
G01X45003Y28383D01*
G01X44971Y28421D01*
G01X44945Y28463D01*
G01X44924Y28508D01*
G01X44908Y28555D01*
G01X44899Y28603D01*
G01X44896Y28653D01*
G01X44896Y28850D01*
G01X44899Y28899D01*
G01X44908Y28948D01*
G01X44924Y28995D01*
G01X44945Y29039D01*
G01X44971Y29081D01*
G01X45003Y29119D01*
G01X45039Y29153D01*
G01X45079Y29182D01*
G01X45122Y29206D01*
G01X45168Y29224D01*
G01X45216Y29236D01*
G01X45265Y29243D01*
G01X45314Y29243D01*
G01X45363Y29236D01*
G01X45411Y29224D01*
G01X45457Y29206D01*
G01X45501Y29182D01*
G01X45541Y29153D01*
G01X45577Y29119D01*
G01X45608Y29081D01*
G01X45635Y29039D01*
G01X45656Y28995D01*
G01X45671Y28948D01*
G01X45680Y28899D01*
G01X45683Y28850D01*
G01X45683Y28653D01*
G37*
G36*
G01X47242Y30212D02*
G01X47239Y30163D01*
G01X47230Y30114D01*
G01X47215Y30067D01*
G01X47194Y30022D01*
G01X47167Y29980D01*
G01X47136Y29942D01*
G01X47100Y29909D01*
G01X47060Y29879D01*
G01X47016Y29856D01*
G01X46970Y29837D01*
G01X46922Y29825D01*
G01X46873Y29819D01*
G01X46824Y29819D01*
G01X46775Y29825D01*
G01X46727Y29837D01*
G01X46681Y29856D01*
G01X46638Y29879D01*
G01X46598Y29909D01*
G01X46562Y29942D01*
G01X46530Y29980D01*
G01X46504Y30022D01*
G01X46483Y30067D01*
G01X46467Y30114D01*
G01X46458Y30163D01*
G01X46455Y30212D01*
G01X46455Y30409D01*
G01X46458Y30458D01*
G01X46467Y30507D01*
G01X46483Y30554D01*
G01X46504Y30598D01*
G01X46530Y30640D01*
G01X46562Y30678D01*
G01X46598Y30712D01*
G01X46638Y30741D01*
G01X46681Y30765D01*
G01X46727Y30783D01*
G01X46775Y30795D01*
G01X46824Y30802D01*
G01X46873Y30802D01*
G01X46922Y30795D01*
G01X46970Y30783D01*
G01X47016Y30765D01*
G01X47060Y30741D01*
G01X47100Y30712D01*
G01X47136Y30678D01*
G01X47167Y30640D01*
G01X47194Y30598D01*
G01X47215Y30554D01*
G01X47230Y30507D01*
G01X47239Y30458D01*
G01X47242Y30409D01*
G01X47242Y30212D01*
G37*
G36*
G01X47242Y28653D02*
G01X47239Y28603D01*
G01X47230Y28555D01*
G01X47215Y28508D01*
G01X47194Y28463D01*
G01X47167Y28421D01*
G01X47136Y28383D01*
G01X47100Y28349D01*
G01X47060Y28320D01*
G01X47016Y28297D01*
G01X46970Y28278D01*
G01X46922Y28266D01*
G01X46873Y28260D01*
G01X46824Y28260D01*
G01X46775Y28266D01*
G01X46727Y28278D01*
G01X46681Y28297D01*
G01X46638Y28320D01*
G01X46598Y28349D01*
G01X46562Y28383D01*
G01X46530Y28421D01*
G01X46504Y28463D01*
G01X46483Y28508D01*
G01X46467Y28555D01*
G01X46458Y28603D01*
G01X46455Y28653D01*
G01X46455Y28850D01*
G01X46458Y28899D01*
G01X46467Y28948D01*
G01X46483Y28995D01*
G01X46504Y29039D01*
G01X46530Y29081D01*
G01X46562Y29119D01*
G01X46598Y29153D01*
G01X46638Y29182D01*
G01X46681Y29206D01*
G01X46727Y29224D01*
G01X46775Y29236D01*
G01X46824Y29243D01*
G01X46873Y29243D01*
G01X46922Y29236D01*
G01X46970Y29224D01*
G01X47016Y29206D01*
G01X47060Y29182D01*
G01X47100Y29153D01*
G01X47136Y29119D01*
G01X47167Y29081D01*
G01X47194Y29039D01*
G01X47215Y28995D01*
G01X47230Y28948D01*
G01X47239Y28899D01*
G01X47242Y28850D01*
G01X47242Y28653D01*
G37*
G36*
G01X48801Y30212D02*
G01X48798Y30163D01*
G01X48789Y30114D01*
G01X48774Y30067D01*
G01X48753Y30022D01*
G01X48726Y29980D01*
G01X48695Y29942D01*
G01X48659Y29909D01*
G01X48619Y29879D01*
G01X48575Y29856D01*
G01X48529Y29837D01*
G01X48481Y29825D01*
G01X48432Y29819D01*
G01X48383Y29819D01*
G01X48334Y29825D01*
G01X48286Y29837D01*
G01X48240Y29856D01*
G01X48197Y29879D01*
G01X48157Y29909D01*
G01X48121Y29942D01*
G01X48089Y29980D01*
G01X48063Y30022D01*
G01X48042Y30067D01*
G01X48026Y30114D01*
G01X48017Y30163D01*
G01X48014Y30212D01*
G01X48014Y30409D01*
G01X48017Y30458D01*
G01X48026Y30507D01*
G01X48042Y30554D01*
G01X48063Y30598D01*
G01X48089Y30640D01*
G01X48121Y30678D01*
G01X48157Y30712D01*
G01X48197Y30741D01*
G01X48240Y30765D01*
G01X48286Y30783D01*
G01X48334Y30795D01*
G01X48383Y30802D01*
G01X48432Y30802D01*
G01X48481Y30795D01*
G01X48529Y30783D01*
G01X48575Y30765D01*
G01X48619Y30741D01*
G01X48659Y30712D01*
G01X48695Y30678D01*
G01X48726Y30640D01*
G01X48753Y30598D01*
G01X48774Y30554D01*
G01X48789Y30507D01*
G01X48798Y30458D01*
G01X48801Y30409D01*
G01X48801Y30212D01*
G37*
G36*
G01X48801Y28653D02*
G01X48798Y28603D01*
G01X48789Y28555D01*
G01X48774Y28508D01*
G01X48753Y28463D01*
G01X48726Y28421D01*
G01X48695Y28383D01*
G01X48659Y28349D01*
G01X48619Y28320D01*
G01X48575Y28297D01*
G01X48529Y28278D01*
G01X48481Y28266D01*
G01X48432Y28260D01*
G01X48383Y28260D01*
G01X48334Y28266D01*
G01X48286Y28278D01*
G01X48240Y28297D01*
G01X48197Y28320D01*
G01X48157Y28349D01*
G01X48121Y28383D01*
G01X48089Y28421D01*
G01X48063Y28463D01*
G01X48042Y28508D01*
G01X48026Y28555D01*
G01X48017Y28603D01*
G01X48014Y28653D01*
G01X48014Y28850D01*
G01X48017Y28899D01*
G01X48026Y28948D01*
G01X48042Y28995D01*
G01X48063Y29039D01*
G01X48089Y29081D01*
G01X48121Y29119D01*
G01X48157Y29153D01*
G01X48197Y29182D01*
G01X48240Y29206D01*
G01X48286Y29224D01*
G01X48334Y29236D01*
G01X48383Y29243D01*
G01X48432Y29243D01*
G01X48481Y29236D01*
G01X48529Y29224D01*
G01X48575Y29206D01*
G01X48619Y29182D01*
G01X48659Y29153D01*
G01X48695Y29119D01*
G01X48726Y29081D01*
G01X48753Y29039D01*
G01X48774Y28995D01*
G01X48789Y28948D01*
G01X48798Y28899D01*
G01X48801Y28850D01*
G01X48801Y28653D01*
G37*
G36*
G01X50360Y30212D02*
G01X50357Y30163D01*
G01X50348Y30114D01*
G01X50333Y30067D01*
G01X50312Y30022D01*
G01X50285Y29980D01*
G01X50254Y29942D01*
G01X50218Y29909D01*
G01X50178Y29879D01*
G01X50134Y29856D01*
G01X50088Y29837D01*
G01X50041Y29825D01*
G01X49991Y29819D01*
G01X49942Y29819D01*
G01X49893Y29825D01*
G01X49845Y29837D01*
G01X49799Y29856D01*
G01X49756Y29879D01*
G01X49716Y29909D01*
G01X49680Y29942D01*
G01X49648Y29980D01*
G01X49622Y30022D01*
G01X49601Y30067D01*
G01X49585Y30114D01*
G01X49576Y30163D01*
G01X49573Y30212D01*
G01X49573Y30409D01*
G01X49576Y30458D01*
G01X49585Y30507D01*
G01X49601Y30554D01*
G01X49622Y30598D01*
G01X49648Y30640D01*
G01X49680Y30678D01*
G01X49716Y30712D01*
G01X49756Y30741D01*
G01X49799Y30765D01*
G01X49845Y30783D01*
G01X49893Y30795D01*
G01X49942Y30802D01*
G01X49991Y30802D01*
G01X50041Y30795D01*
G01X50088Y30783D01*
G01X50134Y30765D01*
G01X50178Y30741D01*
G01X50218Y30712D01*
G01X50254Y30678D01*
G01X50285Y30640D01*
G01X50312Y30598D01*
G01X50333Y30554D01*
G01X50348Y30507D01*
G01X50357Y30458D01*
G01X50360Y30409D01*
G01X50360Y30212D01*
G37*
G36*
G01X50360Y28653D02*
G01X50357Y28603D01*
G01X50348Y28555D01*
G01X50333Y28508D01*
G01X50312Y28463D01*
G01X50285Y28421D01*
G01X50254Y28383D01*
G01X50218Y28349D01*
G01X50178Y28320D01*
G01X50134Y28297D01*
G01X50088Y28278D01*
G01X50041Y28266D01*
G01X49991Y28260D01*
G01X49942Y28260D01*
G01X49893Y28266D01*
G01X49845Y28278D01*
G01X49799Y28297D01*
G01X49756Y28320D01*
G01X49716Y28349D01*
G01X49680Y28383D01*
G01X49648Y28421D01*
G01X49622Y28463D01*
G01X49601Y28508D01*
G01X49585Y28555D01*
G01X49576Y28603D01*
G01X49573Y28653D01*
G01X49573Y28850D01*
G01X49576Y28899D01*
G01X49585Y28948D01*
G01X49601Y28995D01*
G01X49622Y29039D01*
G01X49648Y29081D01*
G01X49680Y29119D01*
G01X49716Y29153D01*
G01X49756Y29182D01*
G01X49799Y29206D01*
G01X49845Y29224D01*
G01X49893Y29236D01*
G01X49942Y29243D01*
G01X49991Y29243D01*
G01X50041Y29236D01*
G01X50088Y29224D01*
G01X50134Y29206D01*
G01X50178Y29182D01*
G01X50218Y29153D01*
G01X50254Y29119D01*
G01X50285Y29081D01*
G01X50312Y29039D01*
G01X50333Y28995D01*
G01X50348Y28948D01*
G01X50357Y28899D01*
G01X50360Y28850D01*
G01X50360Y28653D01*
G37*
G36*
G01X51919Y30212D02*
G01X51916Y30163D01*
G01X51907Y30114D01*
G01X51892Y30067D01*
G01X51871Y30022D01*
G01X51844Y29980D01*
G01X51813Y29942D01*
G01X51777Y29909D01*
G01X51737Y29879D01*
G01X51693Y29856D01*
G01X51647Y29837D01*
G01X51600Y29825D01*
G01X51551Y29819D01*
G01X51501Y29819D01*
G01X51452Y29825D01*
G01X51404Y29837D01*
G01X51358Y29856D01*
G01X51315Y29879D01*
G01X51275Y29909D01*
G01X51239Y29942D01*
G01X51207Y29980D01*
G01X51181Y30022D01*
G01X51160Y30067D01*
G01X51144Y30114D01*
G01X51135Y30163D01*
G01X51132Y30212D01*
G01X51132Y30409D01*
G01X51135Y30458D01*
G01X51144Y30507D01*
G01X51160Y30554D01*
G01X51181Y30598D01*
G01X51207Y30640D01*
G01X51239Y30678D01*
G01X51275Y30712D01*
G01X51315Y30741D01*
G01X51358Y30765D01*
G01X51404Y30783D01*
G01X51452Y30795D01*
G01X51501Y30802D01*
G01X51551Y30802D01*
G01X51600Y30795D01*
G01X51647Y30783D01*
G01X51693Y30765D01*
G01X51737Y30741D01*
G01X51777Y30712D01*
G01X51813Y30678D01*
G01X51844Y30640D01*
G01X51871Y30598D01*
G01X51892Y30554D01*
G01X51907Y30507D01*
G01X51916Y30458D01*
G01X51919Y30409D01*
G01X51919Y30212D01*
G37*
G36*
G01X51919Y28653D02*
G01X51916Y28603D01*
G01X51907Y28555D01*
G01X51892Y28508D01*
G01X51871Y28463D01*
G01X51844Y28421D01*
G01X51813Y28383D01*
G01X51777Y28349D01*
G01X51737Y28320D01*
G01X51693Y28297D01*
G01X51647Y28278D01*
G01X51600Y28266D01*
G01X51551Y28260D01*
G01X51501Y28260D01*
G01X51452Y28266D01*
G01X51404Y28278D01*
G01X51358Y28297D01*
G01X51315Y28320D01*
G01X51275Y28349D01*
G01X51239Y28383D01*
G01X51207Y28421D01*
G01X51181Y28463D01*
G01X51160Y28508D01*
G01X51144Y28555D01*
G01X51135Y28603D01*
G01X51132Y28653D01*
G01X51132Y28850D01*
G01X51135Y28899D01*
G01X51144Y28948D01*
G01X51160Y28995D01*
G01X51181Y29039D01*
G01X51207Y29081D01*
G01X51239Y29119D01*
G01X51275Y29153D01*
G01X51315Y29182D01*
G01X51358Y29206D01*
G01X51404Y29224D01*
G01X51452Y29236D01*
G01X51501Y29243D01*
G01X51551Y29243D01*
G01X51600Y29236D01*
G01X51647Y29224D01*
G01X51693Y29206D01*
G01X51737Y29182D01*
G01X51777Y29153D01*
G01X51813Y29119D01*
G01X51844Y29081D01*
G01X51871Y29039D01*
G01X51892Y28995D01*
G01X51907Y28948D01*
G01X51916Y28899D01*
G01X51919Y28850D01*
G01X51919Y28653D01*
G37*
G36*
G01X53479Y30212D02*
G01X53475Y30163D01*
G01X53466Y30114D01*
G01X53451Y30067D01*
G01X53430Y30022D01*
G01X53403Y29980D01*
G01X53372Y29942D01*
G01X53336Y29909D01*
G01X53296Y29879D01*
G01X53253Y29856D01*
G01X53206Y29837D01*
G01X53159Y29825D01*
G01X53110Y29819D01*
G01X53060Y29819D01*
G01X53011Y29825D01*
G01X52963Y29837D01*
G01X52917Y29856D01*
G01X52874Y29879D01*
G01X52834Y29909D01*
G01X52798Y29942D01*
G01X52766Y29980D01*
G01X52740Y30022D01*
G01X52719Y30067D01*
G01X52704Y30114D01*
G01X52694Y30163D01*
G01X52691Y30212D01*
G01X52691Y30409D01*
G01X52694Y30458D01*
G01X52704Y30507D01*
G01X52719Y30554D01*
G01X52740Y30598D01*
G01X52766Y30640D01*
G01X52798Y30678D01*
G01X52834Y30712D01*
G01X52874Y30741D01*
G01X52917Y30765D01*
G01X52963Y30783D01*
G01X53011Y30795D01*
G01X53060Y30802D01*
G01X53110Y30802D01*
G01X53159Y30795D01*
G01X53206Y30783D01*
G01X53253Y30765D01*
G01X53296Y30741D01*
G01X53336Y30712D01*
G01X53372Y30678D01*
G01X53403Y30640D01*
G01X53430Y30598D01*
G01X53451Y30554D01*
G01X53466Y30507D01*
G01X53475Y30458D01*
G01X53479Y30409D01*
G01X53479Y30212D01*
G37*
G36*
G01X53479Y28653D02*
G01X53475Y28603D01*
G01X53466Y28555D01*
G01X53451Y28508D01*
G01X53430Y28463D01*
G01X53403Y28421D01*
G01X53372Y28383D01*
G01X53336Y28349D01*
G01X53296Y28320D01*
G01X53253Y28297D01*
G01X53206Y28278D01*
G01X53159Y28266D01*
G01X53110Y28260D01*
G01X53060Y28260D01*
G01X53011Y28266D01*
G01X52963Y28278D01*
G01X52917Y28297D01*
G01X52874Y28320D01*
G01X52834Y28349D01*
G01X52798Y28383D01*
G01X52766Y28421D01*
G01X52740Y28463D01*
G01X52719Y28508D01*
G01X52704Y28555D01*
G01X52694Y28603D01*
G01X52691Y28653D01*
G01X52691Y28850D01*
G01X52694Y28899D01*
G01X52704Y28948D01*
G01X52719Y28995D01*
G01X52740Y29039D01*
G01X52766Y29081D01*
G01X52798Y29119D01*
G01X52834Y29153D01*
G01X52874Y29182D01*
G01X52917Y29206D01*
G01X52963Y29224D01*
G01X53011Y29236D01*
G01X53060Y29243D01*
G01X53110Y29243D01*
G01X53159Y29236D01*
G01X53206Y29224D01*
G01X53253Y29206D01*
G01X53296Y29182D01*
G01X53336Y29153D01*
G01X53372Y29119D01*
G01X53403Y29081D01*
G01X53430Y29039D01*
G01X53451Y28995D01*
G01X53466Y28948D01*
G01X53475Y28899D01*
G01X53479Y28850D01*
G01X53479Y28653D01*
G37*
G36*
G01X55038Y30212D02*
G01X55035Y30163D01*
G01X55025Y30114D01*
G01X55010Y30067D01*
G01X54989Y30022D01*
G01X54962Y29980D01*
G01X54931Y29942D01*
G01X54895Y29909D01*
G01X54855Y29879D01*
G01X54812Y29856D01*
G01X54766Y29837D01*
G01X54718Y29825D01*
G01X54669Y29819D01*
G01X54619Y29819D01*
G01X54570Y29825D01*
G01X54522Y29837D01*
G01X54476Y29856D01*
G01X54433Y29879D01*
G01X54393Y29909D01*
G01X54357Y29942D01*
G01X54325Y29980D01*
G01X54299Y30022D01*
G01X54278Y30067D01*
G01X54263Y30114D01*
G01X54253Y30163D01*
G01X54250Y30212D01*
G01X54250Y30409D01*
G01X54253Y30458D01*
G01X54263Y30507D01*
G01X54278Y30554D01*
G01X54299Y30598D01*
G01X54325Y30640D01*
G01X54357Y30678D01*
G01X54393Y30712D01*
G01X54433Y30741D01*
G01X54476Y30765D01*
G01X54522Y30783D01*
G01X54570Y30795D01*
G01X54619Y30802D01*
G01X54669Y30802D01*
G01X54718Y30795D01*
G01X54766Y30783D01*
G01X54812Y30765D01*
G01X54855Y30741D01*
G01X54895Y30712D01*
G01X54931Y30678D01*
G01X54962Y30640D01*
G01X54989Y30598D01*
G01X55010Y30554D01*
G01X55025Y30507D01*
G01X55035Y30458D01*
G01X55038Y30409D01*
G01X55038Y30212D01*
G37*
G36*
G01X55038Y28653D02*
G01X55035Y28603D01*
G01X55025Y28555D01*
G01X55010Y28508D01*
G01X54989Y28463D01*
G01X54962Y28421D01*
G01X54931Y28383D01*
G01X54895Y28349D01*
G01X54855Y28320D01*
G01X54812Y28297D01*
G01X54766Y28278D01*
G01X54718Y28266D01*
G01X54669Y28260D01*
G01X54619Y28260D01*
G01X54570Y28266D01*
G01X54522Y28278D01*
G01X54476Y28297D01*
G01X54433Y28320D01*
G01X54393Y28349D01*
G01X54357Y28383D01*
G01X54325Y28421D01*
G01X54299Y28463D01*
G01X54278Y28508D01*
G01X54263Y28555D01*
G01X54253Y28603D01*
G01X54250Y28653D01*
G01X54250Y28850D01*
G01X54253Y28899D01*
G01X54263Y28948D01*
G01X54278Y28995D01*
G01X54299Y29039D01*
G01X54325Y29081D01*
G01X54357Y29119D01*
G01X54393Y29153D01*
G01X54433Y29182D01*
G01X54476Y29206D01*
G01X54522Y29224D01*
G01X54570Y29236D01*
G01X54619Y29243D01*
G01X54669Y29243D01*
G01X54718Y29236D01*
G01X54766Y29224D01*
G01X54812Y29206D01*
G01X54855Y29182D01*
G01X54895Y29153D01*
G01X54931Y29119D01*
G01X54962Y29081D01*
G01X54989Y29039D01*
G01X55010Y28995D01*
G01X55025Y28948D01*
G01X55035Y28899D01*
G01X55038Y28850D01*
G01X55038Y28653D01*
G37*
G36*
G01X56597Y30212D02*
G01X56593Y30163D01*
G01X56584Y30114D01*
G01X56569Y30067D01*
G01X56548Y30022D01*
G01X56521Y29980D01*
G01X56490Y29942D01*
G01X56454Y29909D01*
G01X56414Y29879D01*
G01X56371Y29856D01*
G01X56325Y29837D01*
G01X56277Y29825D01*
G01X56228Y29819D01*
G01X56178Y29819D01*
G01X56129Y29825D01*
G01X56081Y29837D01*
G01X56035Y29856D01*
G01X55992Y29879D01*
G01X55952Y29909D01*
G01X55916Y29942D01*
G01X55884Y29980D01*
G01X55858Y30022D01*
G01X55837Y30067D01*
G01X55822Y30114D01*
G01X55812Y30163D01*
G01X55809Y30212D01*
G01X55809Y30409D01*
G01X55812Y30458D01*
G01X55822Y30507D01*
G01X55837Y30554D01*
G01X55858Y30598D01*
G01X55884Y30640D01*
G01X55916Y30678D01*
G01X55952Y30712D01*
G01X55992Y30741D01*
G01X56035Y30765D01*
G01X56081Y30783D01*
G01X56129Y30795D01*
G01X56178Y30802D01*
G01X56228Y30802D01*
G01X56277Y30795D01*
G01X56325Y30783D01*
G01X56371Y30765D01*
G01X56414Y30741D01*
G01X56454Y30712D01*
G01X56490Y30678D01*
G01X56521Y30640D01*
G01X56548Y30598D01*
G01X56569Y30554D01*
G01X56584Y30507D01*
G01X56593Y30458D01*
G01X56597Y30409D01*
G01X56597Y30212D01*
G37*
G36*
G01X56597Y28653D02*
G01X56593Y28603D01*
G01X56584Y28555D01*
G01X56569Y28508D01*
G01X56548Y28463D01*
G01X56521Y28421D01*
G01X56490Y28383D01*
G01X56454Y28349D01*
G01X56414Y28320D01*
G01X56371Y28297D01*
G01X56325Y28278D01*
G01X56277Y28266D01*
G01X56228Y28260D01*
G01X56178Y28260D01*
G01X56129Y28266D01*
G01X56081Y28278D01*
G01X56035Y28297D01*
G01X55992Y28320D01*
G01X55952Y28349D01*
G01X55916Y28383D01*
G01X55884Y28421D01*
G01X55858Y28463D01*
G01X55837Y28508D01*
G01X55822Y28555D01*
G01X55812Y28603D01*
G01X55809Y28653D01*
G01X55809Y28850D01*
G01X55812Y28899D01*
G01X55822Y28948D01*
G01X55837Y28995D01*
G01X55858Y29039D01*
G01X55884Y29081D01*
G01X55916Y29119D01*
G01X55952Y29153D01*
G01X55992Y29182D01*
G01X56035Y29206D01*
G01X56081Y29224D01*
G01X56129Y29236D01*
G01X56178Y29243D01*
G01X56228Y29243D01*
G01X56277Y29236D01*
G01X56325Y29224D01*
G01X56371Y29206D01*
G01X56414Y29182D01*
G01X56454Y29153D01*
G01X56490Y29119D01*
G01X56521Y29081D01*
G01X56548Y29039D01*
G01X56569Y28995D01*
G01X56584Y28948D01*
G01X56593Y28899D01*
G01X56597Y28850D01*
G01X56597Y28653D01*
G37*
G36*
G01X58156Y30212D02*
G01X58153Y30163D01*
G01X58143Y30114D01*
G01X58128Y30067D01*
G01X58107Y30022D01*
G01X58080Y29980D01*
G01X58049Y29942D01*
G01X58013Y29909D01*
G01X57973Y29879D01*
G01X57930Y29856D01*
G01X57884Y29837D01*
G01X57836Y29825D01*
G01X57787Y29819D01*
G01X57737Y29819D01*
G01X57688Y29825D01*
G01X57640Y29837D01*
G01X57594Y29856D01*
G01X57551Y29879D01*
G01X57511Y29909D01*
G01X57475Y29942D01*
G01X57443Y29980D01*
G01X57417Y30022D01*
G01X57396Y30067D01*
G01X57381Y30114D01*
G01X57371Y30163D01*
G01X57368Y30212D01*
G01X57368Y30409D01*
G01X57371Y30458D01*
G01X57381Y30507D01*
G01X57396Y30554D01*
G01X57417Y30598D01*
G01X57443Y30640D01*
G01X57475Y30678D01*
G01X57511Y30712D01*
G01X57551Y30741D01*
G01X57594Y30765D01*
G01X57640Y30783D01*
G01X57688Y30795D01*
G01X57737Y30802D01*
G01X57787Y30802D01*
G01X57836Y30795D01*
G01X57884Y30783D01*
G01X57930Y30765D01*
G01X57973Y30741D01*
G01X58013Y30712D01*
G01X58049Y30678D01*
G01X58080Y30640D01*
G01X58107Y30598D01*
G01X58128Y30554D01*
G01X58143Y30507D01*
G01X58153Y30458D01*
G01X58156Y30409D01*
G01X58156Y30212D01*
G37*
G36*
G01X58156Y28653D02*
G01X58153Y28603D01*
G01X58143Y28555D01*
G01X58128Y28508D01*
G01X58107Y28463D01*
G01X58080Y28421D01*
G01X58049Y28383D01*
G01X58013Y28349D01*
G01X57973Y28320D01*
G01X57930Y28297D01*
G01X57884Y28278D01*
G01X57836Y28266D01*
G01X57787Y28260D01*
G01X57737Y28260D01*
G01X57688Y28266D01*
G01X57640Y28278D01*
G01X57594Y28297D01*
G01X57551Y28320D01*
G01X57511Y28349D01*
G01X57475Y28383D01*
G01X57443Y28421D01*
G01X57417Y28463D01*
G01X57396Y28508D01*
G01X57381Y28555D01*
G01X57371Y28603D01*
G01X57368Y28653D01*
G01X57368Y28850D01*
G01X57371Y28899D01*
G01X57381Y28948D01*
G01X57396Y28995D01*
G01X57417Y29039D01*
G01X57443Y29081D01*
G01X57475Y29119D01*
G01X57511Y29153D01*
G01X57551Y29182D01*
G01X57594Y29206D01*
G01X57640Y29224D01*
G01X57688Y29236D01*
G01X57737Y29243D01*
G01X57787Y29243D01*
G01X57836Y29236D01*
G01X57884Y29224D01*
G01X57930Y29206D01*
G01X57973Y29182D01*
G01X58013Y29153D01*
G01X58049Y29119D01*
G01X58080Y29081D01*
G01X58107Y29039D01*
G01X58128Y28995D01*
G01X58143Y28948D01*
G01X58153Y28899D01*
G01X58156Y28850D01*
G01X58156Y28653D01*
G37*
G54D15*
G01X18281Y41015D03*
G54D16*
G01X19281Y41015D03*
G01X20281Y41015D03*
G01X21281Y41015D03*
G01X22281Y41015D03*
G01X23281Y41015D03*
G01X24281Y41015D03*
G01X25281Y41015D03*
G01X26281Y41015D03*
G01X27281Y41015D03*
G01X28281Y41015D03*
G01X29281Y41015D03*
G01X30281Y41015D03*
G01X31281Y41015D03*
G01X32281Y41015D03*
G01X33281Y41015D03*
G01X34281Y41015D03*
G01X35281Y41015D03*
G01X36281Y41015D03*
G01X37281Y41015D03*
G01X38281Y41015D03*
G01X39281Y41015D03*
G01X40281Y41015D03*
G01X41281Y41015D03*
G01X42281Y41015D03*
G01X43281Y41015D03*
G01X44281Y41015D03*
G01X45281Y41015D03*
G01X46281Y41015D03*
G01X47281Y41015D03*
G36*
G01X58360Y20639D02*
G01X58356Y20577D01*
G01X58345Y20516D01*
G01X58326Y20458D01*
G01X58300Y20402D01*
G01X58266Y20349D01*
G01X58227Y20302D01*
G01X58182Y20260D01*
G01X58132Y20223D01*
G01X58078Y20193D01*
G01X58020Y20171D01*
G01X57961Y20155D01*
G01X57899Y20148D01*
G01X57837Y20148D01*
G01X57776Y20155D01*
G01X57716Y20171D01*
G01X57659Y20193D01*
G01X57605Y20223D01*
G01X57555Y20260D01*
G01X57510Y20302D01*
G01X57470Y20349D01*
G01X57437Y20402D01*
G01X57411Y20458D01*
G01X57392Y20516D01*
G01X57380Y20577D01*
G01X57376Y20639D01*
G01X57376Y22017D01*
G01X57380Y22078D01*
G01X57392Y22139D01*
G01X57411Y22198D01*
G01X57437Y22254D01*
G01X57470Y22306D01*
G01X57510Y22354D01*
G01X57555Y22396D01*
G01X57605Y22432D01*
G01X57659Y22462D01*
G01X57716Y22485D01*
G01X57776Y22500D01*
G01X57837Y22508D01*
G01X57899Y22508D01*
G01X57961Y22500D01*
G01X58020Y22485D01*
G01X58078Y22462D01*
G01X58132Y22432D01*
G01X58182Y22396D01*
G01X58227Y22354D01*
G01X58266Y22306D01*
G01X58300Y22254D01*
G01X58326Y22198D01*
G01X58345Y22139D01*
G01X58356Y22078D01*
G01X58360Y22017D01*
G01X58360Y20639D01*
G37*
G36*
G01X56801Y20639D02*
G01X56798Y20577D01*
G01X56786Y20516D01*
G01X56767Y20458D01*
G01X56741Y20402D01*
G01X56707Y20349D01*
G01X56668Y20302D01*
G01X56623Y20260D01*
G01X56573Y20223D01*
G01X56519Y20193D01*
G01X56461Y20171D01*
G01X56401Y20155D01*
G01X56340Y20148D01*
G01X56278Y20148D01*
G01X56217Y20155D01*
G01X56157Y20171D01*
G01X56100Y20193D01*
G01X56046Y20223D01*
G01X55996Y20260D01*
G01X55951Y20302D01*
G01X55911Y20349D01*
G01X55878Y20402D01*
G01X55852Y20458D01*
G01X55833Y20516D01*
G01X55821Y20577D01*
G01X55817Y20639D01*
G01X55817Y22017D01*
G01X55821Y22078D01*
G01X55833Y22139D01*
G01X55852Y22198D01*
G01X55878Y22254D01*
G01X55911Y22306D01*
G01X55951Y22354D01*
G01X55996Y22396D01*
G01X56046Y22432D01*
G01X56100Y22462D01*
G01X56157Y22485D01*
G01X56217Y22500D01*
G01X56278Y22508D01*
G01X56340Y22508D01*
G01X56401Y22500D01*
G01X56461Y22485D01*
G01X56519Y22462D01*
G01X56573Y22432D01*
G01X56623Y22396D01*
G01X56668Y22354D01*
G01X56707Y22306D01*
G01X56741Y22254D01*
G01X56767Y22198D01*
G01X56786Y22139D01*
G01X56798Y22078D01*
G01X56801Y22017D01*
G01X56801Y20639D01*
G37*
G36*
G01X55242Y20639D02*
G01X55238Y20577D01*
G01X55227Y20516D01*
G01X55208Y20458D01*
G01X55181Y20402D01*
G01X55148Y20349D01*
G01X55109Y20302D01*
G01X55064Y20260D01*
G01X55014Y20223D01*
G01X54960Y20193D01*
G01X54902Y20171D01*
G01X54842Y20155D01*
G01X54781Y20148D01*
G01X54719Y20148D01*
G01X54658Y20155D01*
G01X54598Y20171D01*
G01X54541Y20193D01*
G01X54487Y20223D01*
G01X54437Y20260D01*
G01X54391Y20302D01*
G01X54352Y20349D01*
G01X54319Y20402D01*
G01X54293Y20458D01*
G01X54274Y20516D01*
G01X54262Y20577D01*
G01X54258Y20639D01*
G01X54258Y22017D01*
G01X54262Y22078D01*
G01X54274Y22139D01*
G01X54293Y22198D01*
G01X54319Y22254D01*
G01X54352Y22306D01*
G01X54391Y22354D01*
G01X54437Y22396D01*
G01X54487Y22432D01*
G01X54541Y22462D01*
G01X54598Y22485D01*
G01X54658Y22500D01*
G01X54719Y22508D01*
G01X54781Y22508D01*
G01X54842Y22500D01*
G01X54902Y22485D01*
G01X54960Y22462D01*
G01X55014Y22432D01*
G01X55064Y22396D01*
G01X55109Y22354D01*
G01X55148Y22306D01*
G01X55181Y22254D01*
G01X55208Y22198D01*
G01X55227Y22139D01*
G01X55238Y22078D01*
G01X55242Y22017D01*
G01X55242Y20639D01*
G37*
G36*
G01X53683Y20639D02*
G01X53679Y20577D01*
G01X53668Y20516D01*
G01X53649Y20458D01*
G01X53622Y20402D01*
G01X53589Y20349D01*
G01X53550Y20302D01*
G01X53505Y20260D01*
G01X53455Y20223D01*
G01X53401Y20193D01*
G01X53343Y20171D01*
G01X53283Y20155D01*
G01X53222Y20148D01*
G01X53160Y20148D01*
G01X53099Y20155D01*
G01X53039Y20171D01*
G01X52982Y20193D01*
G01X52927Y20223D01*
G01X52877Y20260D01*
G01X52832Y20302D01*
G01X52793Y20349D01*
G01X52760Y20402D01*
G01X52734Y20458D01*
G01X52714Y20516D01*
G01X52703Y20577D01*
G01X52699Y20639D01*
G01X52699Y22017D01*
G01X52703Y22078D01*
G01X52714Y22139D01*
G01X52734Y22198D01*
G01X52760Y22254D01*
G01X52793Y22306D01*
G01X52832Y22354D01*
G01X52877Y22396D01*
G01X52927Y22432D01*
G01X52982Y22462D01*
G01X53039Y22485D01*
G01X53099Y22500D01*
G01X53160Y22508D01*
G01X53222Y22508D01*
G01X53283Y22500D01*
G01X53343Y22485D01*
G01X53401Y22462D01*
G01X53455Y22432D01*
G01X53505Y22396D01*
G01X53550Y22354D01*
G01X53589Y22306D01*
G01X53622Y22254D01*
G01X53649Y22198D01*
G01X53668Y22139D01*
G01X53679Y22078D01*
G01X53683Y22017D01*
G01X53683Y20639D01*
G37*
G36*
G01X52124Y20639D02*
G01X52120Y20577D01*
G01X52109Y20516D01*
G01X52090Y20458D01*
G01X52063Y20402D01*
G01X52030Y20349D01*
G01X51991Y20302D01*
G01X51946Y20260D01*
G01X51896Y20223D01*
G01X51842Y20193D01*
G01X51784Y20171D01*
G01X51724Y20155D01*
G01X51663Y20148D01*
G01X51601Y20148D01*
G01X51540Y20155D01*
G01X51480Y20171D01*
G01X51423Y20193D01*
G01X51368Y20223D01*
G01X51318Y20260D01*
G01X51273Y20302D01*
G01X51234Y20349D01*
G01X51201Y20402D01*
G01X51175Y20458D01*
G01X51155Y20516D01*
G01X51144Y20577D01*
G01X51140Y20639D01*
G01X51140Y22017D01*
G01X51144Y22078D01*
G01X51155Y22139D01*
G01X51175Y22198D01*
G01X51201Y22254D01*
G01X51234Y22306D01*
G01X51273Y22354D01*
G01X51318Y22396D01*
G01X51368Y22432D01*
G01X51423Y22462D01*
G01X51480Y22485D01*
G01X51540Y22500D01*
G01X51601Y22508D01*
G01X51663Y22508D01*
G01X51724Y22500D01*
G01X51784Y22485D01*
G01X51842Y22462D01*
G01X51896Y22432D01*
G01X51946Y22396D01*
G01X51991Y22354D01*
G01X52030Y22306D01*
G01X52063Y22254D01*
G01X52090Y22198D01*
G01X52109Y22139D01*
G01X52120Y22078D01*
G01X52124Y22017D01*
G01X52124Y20639D01*
G37*
G36*
G01X50565Y20639D02*
G01X50561Y20577D01*
G01X50550Y20516D01*
G01X50531Y20458D01*
G01X50504Y20402D01*
G01X50471Y20349D01*
G01X50432Y20302D01*
G01X50387Y20260D01*
G01X50337Y20223D01*
G01X50283Y20193D01*
G01X50225Y20171D01*
G01X50165Y20155D01*
G01X50104Y20148D01*
G01X50042Y20148D01*
G01X49981Y20155D01*
G01X49921Y20171D01*
G01X49864Y20193D01*
G01X49809Y20223D01*
G01X49759Y20260D01*
G01X49714Y20302D01*
G01X49675Y20349D01*
G01X49642Y20402D01*
G01X49615Y20458D01*
G01X49596Y20516D01*
G01X49585Y20577D01*
G01X49581Y20639D01*
G01X49581Y22017D01*
G01X49585Y22078D01*
G01X49596Y22139D01*
G01X49615Y22198D01*
G01X49642Y22254D01*
G01X49675Y22306D01*
G01X49714Y22354D01*
G01X49759Y22396D01*
G01X49809Y22432D01*
G01X49864Y22462D01*
G01X49921Y22485D01*
G01X49981Y22500D01*
G01X50042Y22508D01*
G01X50104Y22508D01*
G01X50165Y22500D01*
G01X50225Y22485D01*
G01X50283Y22462D01*
G01X50337Y22432D01*
G01X50387Y22396D01*
G01X50432Y22354D01*
G01X50471Y22306D01*
G01X50504Y22254D01*
G01X50531Y22198D01*
G01X50550Y22139D01*
G01X50561Y22078D01*
G01X50565Y22017D01*
G01X50565Y20639D01*
G37*
G36*
G01X49006Y20639D02*
G01X49002Y20577D01*
G01X48991Y20516D01*
G01X48972Y20458D01*
G01X48945Y20402D01*
G01X48912Y20349D01*
G01X48873Y20302D01*
G01X48828Y20260D01*
G01X48778Y20223D01*
G01X48724Y20193D01*
G01X48666Y20171D01*
G01X48606Y20155D01*
G01X48545Y20148D01*
G01X48483Y20148D01*
G01X48422Y20155D01*
G01X48362Y20171D01*
G01X48304Y20193D01*
G01X48250Y20223D01*
G01X48200Y20260D01*
G01X48155Y20302D01*
G01X48116Y20349D01*
G01X48083Y20402D01*
G01X48056Y20458D01*
G01X48037Y20516D01*
G01X48026Y20577D01*
G01X48022Y20639D01*
G01X48022Y22017D01*
G01X48026Y22078D01*
G01X48037Y22139D01*
G01X48056Y22198D01*
G01X48083Y22254D01*
G01X48116Y22306D01*
G01X48155Y22354D01*
G01X48200Y22396D01*
G01X48250Y22432D01*
G01X48304Y22462D01*
G01X48362Y22485D01*
G01X48422Y22500D01*
G01X48483Y22508D01*
G01X48545Y22508D01*
G01X48606Y22500D01*
G01X48666Y22485D01*
G01X48724Y22462D01*
G01X48778Y22432D01*
G01X48828Y22396D01*
G01X48873Y22354D01*
G01X48912Y22306D01*
G01X48945Y22254D01*
G01X48972Y22198D01*
G01X48991Y22139D01*
G01X49002Y22078D01*
G01X49006Y22017D01*
G01X49006Y20639D01*
G37*
G36*
G01X47447Y20639D02*
G01X47443Y20577D01*
G01X47432Y20516D01*
G01X47413Y20458D01*
G01X47386Y20402D01*
G01X47353Y20349D01*
G01X47314Y20302D01*
G01X47269Y20260D01*
G01X47219Y20223D01*
G01X47164Y20193D01*
G01X47107Y20171D01*
G01X47047Y20155D01*
G01X46986Y20148D01*
G01X46924Y20148D01*
G01X46863Y20155D01*
G01X46803Y20171D01*
G01X46745Y20193D01*
G01X46691Y20223D01*
G01X46641Y20260D01*
G01X46596Y20302D01*
G01X46557Y20349D01*
G01X46524Y20402D01*
G01X46497Y20458D01*
G01X46478Y20516D01*
G01X46467Y20577D01*
G01X46463Y20639D01*
G01X46463Y22017D01*
G01X46467Y22078D01*
G01X46478Y22139D01*
G01X46497Y22198D01*
G01X46524Y22254D01*
G01X46557Y22306D01*
G01X46596Y22354D01*
G01X46641Y22396D01*
G01X46691Y22432D01*
G01X46745Y22462D01*
G01X46803Y22485D01*
G01X46863Y22500D01*
G01X46924Y22508D01*
G01X46986Y22508D01*
G01X47047Y22500D01*
G01X47107Y22485D01*
G01X47164Y22462D01*
G01X47219Y22432D01*
G01X47269Y22396D01*
G01X47314Y22354D01*
G01X47353Y22306D01*
G01X47386Y22254D01*
G01X47413Y22198D01*
G01X47432Y22139D01*
G01X47443Y22078D01*
G01X47447Y22017D01*
G01X47447Y20639D01*
G37*
G36*
G01X45888Y20639D02*
G01X45884Y20577D01*
G01X45873Y20516D01*
G01X45853Y20458D01*
G01X45827Y20402D01*
G01X45794Y20349D01*
G01X45755Y20302D01*
G01X45710Y20260D01*
G01X45660Y20223D01*
G01X45605Y20193D01*
G01X45548Y20171D01*
G01X45488Y20155D01*
G01X45427Y20148D01*
G01X45365Y20148D01*
G01X45304Y20155D01*
G01X45244Y20171D01*
G01X45186Y20193D01*
G01X45132Y20223D01*
G01X45082Y20260D01*
G01X45037Y20302D01*
G01X44998Y20349D01*
G01X44965Y20402D01*
G01X44938Y20458D01*
G01X44919Y20516D01*
G01X44908Y20577D01*
G01X44904Y20639D01*
G01X44904Y22017D01*
G01X44908Y22078D01*
G01X44919Y22139D01*
G01X44938Y22198D01*
G01X44965Y22254D01*
G01X44998Y22306D01*
G01X45037Y22354D01*
G01X45082Y22396D01*
G01X45132Y22432D01*
G01X45186Y22462D01*
G01X45244Y22485D01*
G01X45304Y22500D01*
G01X45365Y22508D01*
G01X45427Y22508D01*
G01X45488Y22500D01*
G01X45548Y22485D01*
G01X45605Y22462D01*
G01X45660Y22432D01*
G01X45710Y22396D01*
G01X45755Y22354D01*
G01X45794Y22306D01*
G01X45827Y22254D01*
G01X45853Y22198D01*
G01X45873Y22139D01*
G01X45884Y22078D01*
G01X45888Y22017D01*
G01X45888Y20639D01*
G37*
G36*
G01X44329Y20639D02*
G01X44325Y20577D01*
G01X44314Y20516D01*
G01X44294Y20458D01*
G01X44268Y20402D01*
G01X44235Y20349D01*
G01X44196Y20302D01*
G01X44151Y20260D01*
G01X44101Y20223D01*
G01X44046Y20193D01*
G01X43989Y20171D01*
G01X43929Y20155D01*
G01X43868Y20148D01*
G01X43806Y20148D01*
G01X43745Y20155D01*
G01X43685Y20171D01*
G01X43627Y20193D01*
G01X43573Y20223D01*
G01X43523Y20260D01*
G01X43478Y20302D01*
G01X43439Y20349D01*
G01X43405Y20402D01*
G01X43379Y20458D01*
G01X43360Y20516D01*
G01X43349Y20577D01*
G01X43345Y20639D01*
G01X43345Y22017D01*
G01X43349Y22078D01*
G01X43360Y22139D01*
G01X43379Y22198D01*
G01X43405Y22254D01*
G01X43439Y22306D01*
G01X43478Y22354D01*
G01X43523Y22396D01*
G01X43573Y22432D01*
G01X43627Y22462D01*
G01X43685Y22485D01*
G01X43745Y22500D01*
G01X43806Y22508D01*
G01X43868Y22508D01*
G01X43929Y22500D01*
G01X43989Y22485D01*
G01X44046Y22462D01*
G01X44101Y22432D01*
G01X44151Y22396D01*
G01X44196Y22354D01*
G01X44235Y22306D01*
G01X44268Y22254D01*
G01X44294Y22198D01*
G01X44314Y22139D01*
G01X44325Y22078D01*
G01X44329Y22017D01*
G01X44329Y20639D01*
G37*
G36*
G01X42770Y20639D02*
G01X42766Y20577D01*
G01X42754Y20516D01*
G01X42735Y20458D01*
G01X42709Y20402D01*
G01X42676Y20349D01*
G01X42637Y20302D01*
G01X42591Y20260D01*
G01X42541Y20223D01*
G01X42487Y20193D01*
G01X42430Y20171D01*
G01X42370Y20155D01*
G01X42309Y20148D01*
G01X42247Y20148D01*
G01X42186Y20155D01*
G01X42126Y20171D01*
G01X42068Y20193D01*
G01X42014Y20223D01*
G01X41964Y20260D01*
G01X41919Y20302D01*
G01X41880Y20349D01*
G01X41847Y20402D01*
G01X41820Y20458D01*
G01X41801Y20516D01*
G01X41790Y20577D01*
G01X41786Y20639D01*
G01X41786Y22017D01*
G01X41790Y22078D01*
G01X41801Y22139D01*
G01X41820Y22198D01*
G01X41847Y22254D01*
G01X41880Y22306D01*
G01X41919Y22354D01*
G01X41964Y22396D01*
G01X42014Y22432D01*
G01X42068Y22462D01*
G01X42126Y22485D01*
G01X42186Y22500D01*
G01X42247Y22508D01*
G01X42309Y22508D01*
G01X42370Y22500D01*
G01X42430Y22485D01*
G01X42487Y22462D01*
G01X42541Y22432D01*
G01X42591Y22396D01*
G01X42637Y22354D01*
G01X42676Y22306D01*
G01X42709Y22254D01*
G01X42735Y22198D01*
G01X42754Y22139D01*
G01X42766Y22078D01*
G01X42770Y22017D01*
G01X42770Y20639D01*
G37*
G36*
G01X41211Y20639D02*
G01X41207Y20577D01*
G01X41195Y20516D01*
G01X41176Y20458D01*
G01X41150Y20402D01*
G01X41117Y20349D01*
G01X41077Y20302D01*
G01X41032Y20260D01*
G01X40982Y20223D01*
G01X40928Y20193D01*
G01X40871Y20171D01*
G01X40811Y20155D01*
G01X40750Y20148D01*
G01X40688Y20148D01*
G01X40627Y20155D01*
G01X40567Y20171D01*
G01X40509Y20193D01*
G01X40455Y20223D01*
G01X40405Y20260D01*
G01X40360Y20302D01*
G01X40321Y20349D01*
G01X40287Y20402D01*
G01X40261Y20458D01*
G01X40242Y20516D01*
G01X40230Y20577D01*
G01X40227Y20639D01*
G01X40227Y22017D01*
G01X40230Y22078D01*
G01X40242Y22139D01*
G01X40261Y22198D01*
G01X40287Y22254D01*
G01X40321Y22306D01*
G01X40360Y22354D01*
G01X40405Y22396D01*
G01X40455Y22432D01*
G01X40509Y22462D01*
G01X40567Y22485D01*
G01X40627Y22500D01*
G01X40688Y22508D01*
G01X40750Y22508D01*
G01X40811Y22500D01*
G01X40871Y22485D01*
G01X40928Y22462D01*
G01X40982Y22432D01*
G01X41032Y22396D01*
G01X41077Y22354D01*
G01X41117Y22306D01*
G01X41150Y22254D01*
G01X41176Y22198D01*
G01X41195Y22139D01*
G01X41207Y22078D01*
G01X41211Y22017D01*
G01X41211Y20639D01*
G37*
G36*
G01X39652Y20639D02*
G01X39648Y20577D01*
G01X39636Y20516D01*
G01X39617Y20458D01*
G01X39591Y20402D01*
G01X39558Y20349D01*
G01X39518Y20302D01*
G01X39473Y20260D01*
G01X39423Y20223D01*
G01X39369Y20193D01*
G01X39312Y20171D01*
G01X39252Y20155D01*
G01X39191Y20148D01*
G01X39129Y20148D01*
G01X39067Y20155D01*
G01X39008Y20171D01*
G01X38950Y20193D01*
G01X38896Y20223D01*
G01X38846Y20260D01*
G01X38801Y20302D01*
G01X38762Y20349D01*
G01X38728Y20402D01*
G01X38702Y20458D01*
G01X38683Y20516D01*
G01X38671Y20577D01*
G01X38667Y20639D01*
G01X38667Y22017D01*
G01X38671Y22078D01*
G01X38683Y22139D01*
G01X38702Y22198D01*
G01X38728Y22254D01*
G01X38762Y22306D01*
G01X38801Y22354D01*
G01X38846Y22396D01*
G01X38896Y22432D01*
G01X38950Y22462D01*
G01X39008Y22485D01*
G01X39067Y22500D01*
G01X39129Y22508D01*
G01X39191Y22508D01*
G01X39252Y22500D01*
G01X39312Y22485D01*
G01X39369Y22462D01*
G01X39423Y22432D01*
G01X39473Y22396D01*
G01X39518Y22354D01*
G01X39558Y22306D01*
G01X39591Y22254D01*
G01X39617Y22198D01*
G01X39636Y22139D01*
G01X39648Y22078D01*
G01X39652Y22017D01*
G01X39652Y20639D01*
G37*
G36*
G01X38093Y20639D02*
G01X38089Y20577D01*
G01X38077Y20516D01*
G01X38058Y20458D01*
G01X38032Y20402D01*
G01X37999Y20349D01*
G01X37959Y20302D01*
G01X37914Y20260D01*
G01X37864Y20223D01*
G01X37810Y20193D01*
G01X37753Y20171D01*
G01X37693Y20155D01*
G01X37631Y20148D01*
G01X37570Y20148D01*
G01X37508Y20155D01*
G01X37449Y20171D01*
G01X37391Y20193D01*
G01X37337Y20223D01*
G01X37287Y20260D01*
G01X37242Y20302D01*
G01X37203Y20349D01*
G01X37169Y20402D01*
G01X37143Y20458D01*
G01X37124Y20516D01*
G01X37112Y20577D01*
G01X37109Y20639D01*
G01X37109Y22017D01*
G01X37112Y22078D01*
G01X37124Y22139D01*
G01X37143Y22198D01*
G01X37169Y22254D01*
G01X37203Y22306D01*
G01X37242Y22354D01*
G01X37287Y22396D01*
G01X37337Y22432D01*
G01X37391Y22462D01*
G01X37449Y22485D01*
G01X37508Y22500D01*
G01X37570Y22508D01*
G01X37631Y22508D01*
G01X37693Y22500D01*
G01X37753Y22485D01*
G01X37810Y22462D01*
G01X37864Y22432D01*
G01X37914Y22396D01*
G01X37959Y22354D01*
G01X37999Y22306D01*
G01X38032Y22254D01*
G01X38058Y22198D01*
G01X38077Y22139D01*
G01X38089Y22078D01*
G01X38093Y22017D01*
G01X38093Y20639D01*
G37*
G36*
G01X36534Y20639D02*
G01X36530Y20577D01*
G01X36518Y20516D01*
G01X36499Y20458D01*
G01X36473Y20402D01*
G01X36440Y20349D01*
G01X36400Y20302D01*
G01X36355Y20260D01*
G01X36305Y20223D01*
G01X36251Y20193D01*
G01X36194Y20171D01*
G01X36134Y20155D01*
G01X36072Y20148D01*
G01X36011Y20148D01*
G01X35949Y20155D01*
G01X35890Y20171D01*
G01X35832Y20193D01*
G01X35778Y20223D01*
G01X35728Y20260D01*
G01X35683Y20302D01*
G01X35643Y20349D01*
G01X35610Y20402D01*
G01X35584Y20458D01*
G01X35565Y20516D01*
G01X35553Y20577D01*
G01X35549Y20639D01*
G01X35549Y22017D01*
G01X35553Y22078D01*
G01X35565Y22139D01*
G01X35584Y22198D01*
G01X35610Y22254D01*
G01X35643Y22306D01*
G01X35683Y22354D01*
G01X35728Y22396D01*
G01X35778Y22432D01*
G01X35832Y22462D01*
G01X35890Y22485D01*
G01X35949Y22500D01*
G01X36011Y22508D01*
G01X36072Y22508D01*
G01X36134Y22500D01*
G01X36194Y22485D01*
G01X36251Y22462D01*
G01X36305Y22432D01*
G01X36355Y22396D01*
G01X36400Y22354D01*
G01X36440Y22306D01*
G01X36473Y22254D01*
G01X36499Y22198D01*
G01X36518Y22139D01*
G01X36530Y22078D01*
G01X36534Y22017D01*
G01X36534Y20639D01*
G37*
G36*
G01X34975Y20639D02*
G01X34971Y20577D01*
G01X34959Y20516D01*
G01X34940Y20458D01*
G01X34914Y20402D01*
G01X34881Y20349D01*
G01X34841Y20302D01*
G01X34796Y20260D01*
G01X34746Y20223D01*
G01X34692Y20193D01*
G01X34635Y20171D01*
G01X34575Y20155D01*
G01X34513Y20148D01*
G01X34452Y20148D01*
G01X34390Y20155D01*
G01X34330Y20171D01*
G01X34273Y20193D01*
G01X34219Y20223D01*
G01X34169Y20260D01*
G01X34124Y20302D01*
G01X34084Y20349D01*
G01X34051Y20402D01*
G01X34025Y20458D01*
G01X34006Y20516D01*
G01X33994Y20577D01*
G01X33990Y20639D01*
G01X33990Y22017D01*
G01X33994Y22078D01*
G01X34006Y22139D01*
G01X34025Y22198D01*
G01X34051Y22254D01*
G01X34084Y22306D01*
G01X34124Y22354D01*
G01X34169Y22396D01*
G01X34219Y22432D01*
G01X34273Y22462D01*
G01X34330Y22485D01*
G01X34390Y22500D01*
G01X34452Y22508D01*
G01X34513Y22508D01*
G01X34575Y22500D01*
G01X34635Y22485D01*
G01X34692Y22462D01*
G01X34746Y22432D01*
G01X34796Y22396D01*
G01X34841Y22354D01*
G01X34881Y22306D01*
G01X34914Y22254D01*
G01X34940Y22198D01*
G01X34959Y22139D01*
G01X34971Y22078D01*
G01X34975Y22017D01*
G01X34975Y20639D01*
G37*
G36*
G01X33416Y20639D02*
G01X33412Y20577D01*
G01X33400Y20516D01*
G01X33381Y20458D01*
G01X33355Y20402D01*
G01X33322Y20349D01*
G01X33282Y20302D01*
G01X33237Y20260D01*
G01X33187Y20223D01*
G01X33133Y20193D01*
G01X33076Y20171D01*
G01X33016Y20155D01*
G01X32954Y20148D01*
G01X32892Y20148D01*
G01X32831Y20155D01*
G01X32771Y20171D01*
G01X32714Y20193D01*
G01X32660Y20223D01*
G01X32610Y20260D01*
G01X32565Y20302D01*
G01X32525Y20349D01*
G01X32492Y20402D01*
G01X32466Y20458D01*
G01X32447Y20516D01*
G01X32435Y20577D01*
G01X32431Y20639D01*
G01X32431Y22017D01*
G01X32435Y22078D01*
G01X32447Y22139D01*
G01X32466Y22198D01*
G01X32492Y22254D01*
G01X32525Y22306D01*
G01X32565Y22354D01*
G01X32610Y22396D01*
G01X32660Y22432D01*
G01X32714Y22462D01*
G01X32771Y22485D01*
G01X32831Y22500D01*
G01X32892Y22508D01*
G01X32954Y22508D01*
G01X33016Y22500D01*
G01X33076Y22485D01*
G01X33133Y22462D01*
G01X33187Y22432D01*
G01X33237Y22396D01*
G01X33282Y22354D01*
G01X33322Y22306D01*
G01X33355Y22254D01*
G01X33381Y22198D01*
G01X33400Y22139D01*
G01X33412Y22078D01*
G01X33416Y22017D01*
G01X33416Y20639D01*
G37*
G36*
G01X31856Y20639D02*
G01X31853Y20577D01*
G01X31841Y20516D01*
G01X31822Y20458D01*
G01X31796Y20402D01*
G01X31763Y20349D01*
G01X31723Y20302D01*
G01X31678Y20260D01*
G01X31628Y20223D01*
G01X31574Y20193D01*
G01X31516Y20171D01*
G01X31457Y20155D01*
G01X31395Y20148D01*
G01X31334Y20148D01*
G01X31272Y20155D01*
G01X31212Y20171D01*
G01X31155Y20193D01*
G01X31101Y20223D01*
G01X31051Y20260D01*
G01X31006Y20302D01*
G01X30966Y20349D01*
G01X30933Y20402D01*
G01X30907Y20458D01*
G01X30888Y20516D01*
G01X30876Y20577D01*
G01X30872Y20639D01*
G01X30872Y22017D01*
G01X30876Y22078D01*
G01X30888Y22139D01*
G01X30907Y22198D01*
G01X30933Y22254D01*
G01X30966Y22306D01*
G01X31006Y22354D01*
G01X31051Y22396D01*
G01X31101Y22432D01*
G01X31155Y22462D01*
G01X31212Y22485D01*
G01X31272Y22500D01*
G01X31334Y22508D01*
G01X31395Y22508D01*
G01X31457Y22500D01*
G01X31516Y22485D01*
G01X31574Y22462D01*
G01X31628Y22432D01*
G01X31678Y22396D01*
G01X31723Y22354D01*
G01X31763Y22306D01*
G01X31796Y22254D01*
G01X31822Y22198D01*
G01X31841Y22139D01*
G01X31853Y22078D01*
G01X31856Y22017D01*
G01X31856Y20639D01*
G37*
G36*
G01X30298Y20639D02*
G01X30294Y20577D01*
G01X30282Y20516D01*
G01X30263Y20458D01*
G01X30237Y20402D01*
G01X30203Y20349D01*
G01X30164Y20302D01*
G01X30119Y20260D01*
G01X30069Y20223D01*
G01X30015Y20193D01*
G01X29957Y20171D01*
G01X29897Y20155D01*
G01X29836Y20148D01*
G01X29774Y20148D01*
G01X29713Y20155D01*
G01X29653Y20171D01*
G01X29596Y20193D01*
G01X29542Y20223D01*
G01X29492Y20260D01*
G01X29447Y20302D01*
G01X29407Y20349D01*
G01X29374Y20402D01*
G01X29348Y20458D01*
G01X29329Y20516D01*
G01X29317Y20577D01*
G01X29313Y20639D01*
G01X29313Y22017D01*
G01X29317Y22078D01*
G01X29329Y22139D01*
G01X29348Y22198D01*
G01X29374Y22254D01*
G01X29407Y22306D01*
G01X29447Y22354D01*
G01X29492Y22396D01*
G01X29542Y22432D01*
G01X29596Y22462D01*
G01X29653Y22485D01*
G01X29713Y22500D01*
G01X29774Y22508D01*
G01X29836Y22508D01*
G01X29897Y22500D01*
G01X29957Y22485D01*
G01X30015Y22462D01*
G01X30069Y22432D01*
G01X30119Y22396D01*
G01X30164Y22354D01*
G01X30203Y22306D01*
G01X30237Y22254D01*
G01X30263Y22198D01*
G01X30282Y22139D01*
G01X30294Y22078D01*
G01X30298Y22017D01*
G01X30298Y20639D01*
G37*
G36*
G01X28738Y20639D02*
G01X28734Y20577D01*
G01X28723Y20516D01*
G01X28704Y20458D01*
G01X28677Y20402D01*
G01X28644Y20349D01*
G01X28605Y20302D01*
G01X28560Y20260D01*
G01X28510Y20223D01*
G01X28456Y20193D01*
G01X28398Y20171D01*
G01X28339Y20155D01*
G01X28277Y20148D01*
G01X28215Y20148D01*
G01X28154Y20155D01*
G01X28094Y20171D01*
G01X28037Y20193D01*
G01X27983Y20223D01*
G01X27933Y20260D01*
G01X27888Y20302D01*
G01X27848Y20349D01*
G01X27815Y20402D01*
G01X27789Y20458D01*
G01X27770Y20516D01*
G01X27758Y20577D01*
G01X27754Y20639D01*
G01X27754Y22017D01*
G01X27758Y22078D01*
G01X27770Y22139D01*
G01X27789Y22198D01*
G01X27815Y22254D01*
G01X27848Y22306D01*
G01X27888Y22354D01*
G01X27933Y22396D01*
G01X27983Y22432D01*
G01X28037Y22462D01*
G01X28094Y22485D01*
G01X28154Y22500D01*
G01X28215Y22508D01*
G01X28277Y22508D01*
G01X28339Y22500D01*
G01X28398Y22485D01*
G01X28456Y22462D01*
G01X28510Y22432D01*
G01X28560Y22396D01*
G01X28605Y22354D01*
G01X28644Y22306D01*
G01X28677Y22254D01*
G01X28704Y22198D01*
G01X28723Y22139D01*
G01X28734Y22078D01*
G01X28738Y22017D01*
G01X28738Y20639D01*
G37*
G36*
G01X27179Y20639D02*
G01X27176Y20577D01*
G01X27164Y20516D01*
G01X27145Y20458D01*
G01X27119Y20402D01*
G01X27085Y20349D01*
G01X27046Y20302D01*
G01X27001Y20260D01*
G01X26951Y20223D01*
G01X26897Y20193D01*
G01X26839Y20171D01*
G01X26779Y20155D01*
G01X26718Y20148D01*
G01X26656Y20148D01*
G01X26595Y20155D01*
G01X26535Y20171D01*
G01X26478Y20193D01*
G01X26424Y20223D01*
G01X26374Y20260D01*
G01X26328Y20302D01*
G01X26289Y20349D01*
G01X26256Y20402D01*
G01X26230Y20458D01*
G01X26211Y20516D01*
G01X26199Y20577D01*
G01X26195Y20639D01*
G01X26195Y22017D01*
G01X26199Y22078D01*
G01X26211Y22139D01*
G01X26230Y22198D01*
G01X26256Y22254D01*
G01X26289Y22306D01*
G01X26328Y22354D01*
G01X26374Y22396D01*
G01X26424Y22432D01*
G01X26478Y22462D01*
G01X26535Y22485D01*
G01X26595Y22500D01*
G01X26656Y22508D01*
G01X26718Y22508D01*
G01X26779Y22500D01*
G01X26839Y22485D01*
G01X26897Y22462D01*
G01X26951Y22432D01*
G01X27001Y22396D01*
G01X27046Y22354D01*
G01X27085Y22306D01*
G01X27119Y22254D01*
G01X27145Y22198D01*
G01X27164Y22139D01*
G01X27176Y22078D01*
G01X27179Y22017D01*
G01X27179Y20639D01*
G37*
G36*
G01X25620Y20639D02*
G01X25616Y20577D01*
G01X25605Y20516D01*
G01X25586Y20458D01*
G01X25559Y20402D01*
G01X25526Y20349D01*
G01X25487Y20302D01*
G01X25442Y20260D01*
G01X25392Y20223D01*
G01X25338Y20193D01*
G01X25280Y20171D01*
G01X25220Y20155D01*
G01X25159Y20148D01*
G01X25097Y20148D01*
G01X25036Y20155D01*
G01X24976Y20171D01*
G01X24919Y20193D01*
G01X24864Y20223D01*
G01X24814Y20260D01*
G01X24769Y20302D01*
G01X24730Y20349D01*
G01X24697Y20402D01*
G01X24671Y20458D01*
G01X24652Y20516D01*
G01X24640Y20577D01*
G01X24636Y20639D01*
G01X24636Y22017D01*
G01X24640Y22078D01*
G01X24652Y22139D01*
G01X24671Y22198D01*
G01X24697Y22254D01*
G01X24730Y22306D01*
G01X24769Y22354D01*
G01X24814Y22396D01*
G01X24864Y22432D01*
G01X24919Y22462D01*
G01X24976Y22485D01*
G01X25036Y22500D01*
G01X25097Y22508D01*
G01X25159Y22508D01*
G01X25220Y22500D01*
G01X25280Y22485D01*
G01X25338Y22462D01*
G01X25392Y22432D01*
G01X25442Y22396D01*
G01X25487Y22354D01*
G01X25526Y22306D01*
G01X25559Y22254D01*
G01X25586Y22198D01*
G01X25605Y22139D01*
G01X25616Y22078D01*
G01X25620Y22017D01*
G01X25620Y20639D01*
G37*
G36*
G01X24061Y20639D02*
G01X24057Y20577D01*
G01X24046Y20516D01*
G01X24027Y20458D01*
G01X24000Y20402D01*
G01X23967Y20349D01*
G01X23928Y20302D01*
G01X23883Y20260D01*
G01X23833Y20223D01*
G01X23779Y20193D01*
G01X23721Y20171D01*
G01X23661Y20155D01*
G01X23600Y20148D01*
G01X23538Y20148D01*
G01X23477Y20155D01*
G01X23417Y20171D01*
G01X23360Y20193D01*
G01X23305Y20223D01*
G01X23255Y20260D01*
G01X23210Y20302D01*
G01X23171Y20349D01*
G01X23138Y20402D01*
G01X23112Y20458D01*
G01X23093Y20516D01*
G01X23081Y20577D01*
G01X23077Y20639D01*
G01X23077Y22017D01*
G01X23081Y22078D01*
G01X23093Y22139D01*
G01X23112Y22198D01*
G01X23138Y22254D01*
G01X23171Y22306D01*
G01X23210Y22354D01*
G01X23255Y22396D01*
G01X23305Y22432D01*
G01X23360Y22462D01*
G01X23417Y22485D01*
G01X23477Y22500D01*
G01X23538Y22508D01*
G01X23600Y22508D01*
G01X23661Y22500D01*
G01X23721Y22485D01*
G01X23779Y22462D01*
G01X23833Y22432D01*
G01X23883Y22396D01*
G01X23928Y22354D01*
G01X23967Y22306D01*
G01X24000Y22254D01*
G01X24027Y22198D01*
G01X24046Y22139D01*
G01X24057Y22078D01*
G01X24061Y22017D01*
G01X24061Y20639D01*
G37*
G36*
G01X22502Y20639D02*
G01X22498Y20577D01*
G01X22487Y20516D01*
G01X22468Y20458D01*
G01X22441Y20402D01*
G01X22408Y20349D01*
G01X22369Y20302D01*
G01X22324Y20260D01*
G01X22274Y20223D01*
G01X22220Y20193D01*
G01X22162Y20171D01*
G01X22102Y20155D01*
G01X22041Y20148D01*
G01X21979Y20148D01*
G01X21918Y20155D01*
G01X21858Y20171D01*
G01X21801Y20193D01*
G01X21746Y20223D01*
G01X21696Y20260D01*
G01X21651Y20302D01*
G01X21612Y20349D01*
G01X21579Y20402D01*
G01X21552Y20458D01*
G01X21533Y20516D01*
G01X21522Y20577D01*
G01X21518Y20639D01*
G01X21518Y22017D01*
G01X21522Y22078D01*
G01X21533Y22139D01*
G01X21552Y22198D01*
G01X21579Y22254D01*
G01X21612Y22306D01*
G01X21651Y22354D01*
G01X21696Y22396D01*
G01X21746Y22432D01*
G01X21801Y22462D01*
G01X21858Y22485D01*
G01X21918Y22500D01*
G01X21979Y22508D01*
G01X22041Y22508D01*
G01X22102Y22500D01*
G01X22162Y22485D01*
G01X22220Y22462D01*
G01X22274Y22432D01*
G01X22324Y22396D01*
G01X22369Y22354D01*
G01X22408Y22306D01*
G01X22441Y22254D01*
G01X22468Y22198D01*
G01X22487Y22139D01*
G01X22498Y22078D01*
G01X22502Y22017D01*
G01X22502Y20639D01*
G37*
G36*
G01X20943Y20639D02*
G01X20939Y20577D01*
G01X20928Y20516D01*
G01X20909Y20458D01*
G01X20882Y20402D01*
G01X20849Y20349D01*
G01X20810Y20302D01*
G01X20765Y20260D01*
G01X20715Y20223D01*
G01X20661Y20193D01*
G01X20603Y20171D01*
G01X20543Y20155D01*
G01X20482Y20148D01*
G01X20420Y20148D01*
G01X20359Y20155D01*
G01X20299Y20171D01*
G01X20242Y20193D01*
G01X20187Y20223D01*
G01X20137Y20260D01*
G01X20092Y20302D01*
G01X20053Y20349D01*
G01X20020Y20402D01*
G01X19994Y20458D01*
G01X19974Y20516D01*
G01X19963Y20577D01*
G01X19959Y20639D01*
G01X19959Y22017D01*
G01X19963Y22078D01*
G01X19974Y22139D01*
G01X19994Y22198D01*
G01X20020Y22254D01*
G01X20053Y22306D01*
G01X20092Y22354D01*
G01X20137Y22396D01*
G01X20187Y22432D01*
G01X20242Y22462D01*
G01X20299Y22485D01*
G01X20359Y22500D01*
G01X20420Y22508D01*
G01X20482Y22508D01*
G01X20543Y22500D01*
G01X20603Y22485D01*
G01X20661Y22462D01*
G01X20715Y22432D01*
G01X20765Y22396D01*
G01X20810Y22354D01*
G01X20849Y22306D01*
G01X20882Y22254D01*
G01X20909Y22198D01*
G01X20928Y22139D01*
G01X20939Y22078D01*
G01X20943Y22017D01*
G01X20943Y20639D01*
G37*
G36*
G01X19384Y20639D02*
G01X19380Y20577D01*
G01X19369Y20516D01*
G01X19350Y20458D01*
G01X19323Y20402D01*
G01X19290Y20349D01*
G01X19251Y20302D01*
G01X19206Y20260D01*
G01X19156Y20223D01*
G01X19102Y20193D01*
G01X19044Y20171D01*
G01X18984Y20155D01*
G01X18923Y20148D01*
G01X18861Y20148D01*
G01X18800Y20155D01*
G01X18740Y20171D01*
G01X18682Y20193D01*
G01X18628Y20223D01*
G01X18578Y20260D01*
G01X18533Y20302D01*
G01X18494Y20349D01*
G01X18461Y20402D01*
G01X18434Y20458D01*
G01X18415Y20516D01*
G01X18404Y20577D01*
G01X18400Y20639D01*
G01X18400Y22017D01*
G01X18404Y22078D01*
G01X18415Y22139D01*
G01X18434Y22198D01*
G01X18461Y22254D01*
G01X18494Y22306D01*
G01X18533Y22354D01*
G01X18578Y22396D01*
G01X18628Y22432D01*
G01X18682Y22462D01*
G01X18740Y22485D01*
G01X18800Y22500D01*
G01X18861Y22508D01*
G01X18923Y22508D01*
G01X18984Y22500D01*
G01X19044Y22485D01*
G01X19102Y22462D01*
G01X19156Y22432D01*
G01X19206Y22396D01*
G01X19251Y22354D01*
G01X19290Y22306D01*
G01X19323Y22254D01*
G01X19350Y22198D01*
G01X19369Y22139D01*
G01X19380Y22078D01*
G01X19384Y22017D01*
G01X19384Y20639D01*
G37*
G36*
G01X17825Y20639D02*
G01X17821Y20577D01*
G01X17810Y20516D01*
G01X17790Y20458D01*
G01X17764Y20402D01*
G01X17731Y20349D01*
G01X17692Y20302D01*
G01X17647Y20260D01*
G01X17597Y20223D01*
G01X17543Y20193D01*
G01X17485Y20171D01*
G01X17425Y20155D01*
G01X17364Y20148D01*
G01X17302Y20148D01*
G01X17241Y20155D01*
G01X17181Y20171D01*
G01X17123Y20193D01*
G01X17069Y20223D01*
G01X17019Y20260D01*
G01X16974Y20302D01*
G01X16935Y20349D01*
G01X16902Y20402D01*
G01X16875Y20458D01*
G01X16856Y20516D01*
G01X16845Y20577D01*
G01X16841Y20639D01*
G01X16841Y22017D01*
G01X16845Y22078D01*
G01X16856Y22139D01*
G01X16875Y22198D01*
G01X16902Y22254D01*
G01X16935Y22306D01*
G01X16974Y22354D01*
G01X17019Y22396D01*
G01X17069Y22432D01*
G01X17123Y22462D01*
G01X17181Y22485D01*
G01X17241Y22500D01*
G01X17302Y22508D01*
G01X17364Y22508D01*
G01X17425Y22500D01*
G01X17485Y22485D01*
G01X17543Y22462D01*
G01X17597Y22432D01*
G01X17647Y22396D01*
G01X17692Y22354D01*
G01X17731Y22306D01*
G01X17764Y22254D01*
G01X17790Y22198D01*
G01X17810Y22139D01*
G01X17821Y22078D01*
G01X17825Y22017D01*
G01X17825Y20639D01*
G37*
G36*
G01X16266Y20639D02*
G01X16262Y20577D01*
G01X16251Y20516D01*
G01X16231Y20458D01*
G01X16205Y20402D01*
G01X16172Y20349D01*
G01X16133Y20302D01*
G01X16088Y20260D01*
G01X16038Y20223D01*
G01X15983Y20193D01*
G01X15926Y20171D01*
G01X15866Y20155D01*
G01X15805Y20148D01*
G01X15743Y20148D01*
G01X15682Y20155D01*
G01X15622Y20171D01*
G01X15564Y20193D01*
G01X15510Y20223D01*
G01X15460Y20260D01*
G01X15415Y20302D01*
G01X15376Y20349D01*
G01X15343Y20402D01*
G01X15316Y20458D01*
G01X15297Y20516D01*
G01X15286Y20577D01*
G01X15282Y20639D01*
G01X15282Y22017D01*
G01X15286Y22078D01*
G01X15297Y22139D01*
G01X15316Y22198D01*
G01X15343Y22254D01*
G01X15376Y22306D01*
G01X15415Y22354D01*
G01X15460Y22396D01*
G01X15510Y22432D01*
G01X15564Y22462D01*
G01X15622Y22485D01*
G01X15682Y22500D01*
G01X15743Y22508D01*
G01X15805Y22508D01*
G01X15866Y22500D01*
G01X15926Y22485D01*
G01X15983Y22462D01*
G01X16038Y22432D01*
G01X16088Y22396D01*
G01X16133Y22354D01*
G01X16172Y22306D01*
G01X16205Y22254D01*
G01X16231Y22198D01*
G01X16251Y22139D01*
G01X16262Y22078D01*
G01X16266Y22017D01*
G01X16266Y20639D01*
G37*
G36*
G01X14707Y20639D02*
G01X14703Y20577D01*
G01X14692Y20516D01*
G01X14672Y20458D01*
G01X14646Y20402D01*
G01X14613Y20349D01*
G01X14574Y20302D01*
G01X14528Y20260D01*
G01X14478Y20223D01*
G01X14424Y20193D01*
G01X14367Y20171D01*
G01X14307Y20155D01*
G01X14246Y20148D01*
G01X14184Y20148D01*
G01X14123Y20155D01*
G01X14063Y20171D01*
G01X14005Y20193D01*
G01X13951Y20223D01*
G01X13901Y20260D01*
G01X13856Y20302D01*
G01X13817Y20349D01*
G01X13784Y20402D01*
G01X13757Y20458D01*
G01X13738Y20516D01*
G01X13727Y20577D01*
G01X13723Y20639D01*
G01X13723Y22017D01*
G01X13727Y22078D01*
G01X13738Y22139D01*
G01X13757Y22198D01*
G01X13784Y22254D01*
G01X13817Y22306D01*
G01X13856Y22354D01*
G01X13901Y22396D01*
G01X13951Y22432D01*
G01X14005Y22462D01*
G01X14063Y22485D01*
G01X14123Y22500D01*
G01X14184Y22508D01*
G01X14246Y22508D01*
G01X14307Y22500D01*
G01X14367Y22485D01*
G01X14424Y22462D01*
G01X14478Y22432D01*
G01X14528Y22396D01*
G01X14574Y22354D01*
G01X14613Y22306D01*
G01X14646Y22254D01*
G01X14672Y22198D01*
G01X14692Y22139D01*
G01X14703Y22078D01*
G01X14707Y22017D01*
G01X14707Y20639D01*
G37*
G36*
G01X13148Y20639D02*
G01X13144Y20577D01*
G01X13132Y20516D01*
G01X13113Y20458D01*
G01X13087Y20402D01*
G01X13054Y20349D01*
G01X13014Y20302D01*
G01X12969Y20260D01*
G01X12919Y20223D01*
G01X12865Y20193D01*
G01X12808Y20171D01*
G01X12748Y20155D01*
G01X12687Y20148D01*
G01X12625Y20148D01*
G01X12563Y20155D01*
G01X12504Y20171D01*
G01X12446Y20193D01*
G01X12392Y20223D01*
G01X12342Y20260D01*
G01X12297Y20302D01*
G01X12258Y20349D01*
G01X12225Y20402D01*
G01X12198Y20458D01*
G01X12179Y20516D01*
G01X12168Y20577D01*
G01X12164Y20639D01*
G01X12164Y22017D01*
G01X12168Y22078D01*
G01X12179Y22139D01*
G01X12198Y22198D01*
G01X12225Y22254D01*
G01X12258Y22306D01*
G01X12297Y22354D01*
G01X12342Y22396D01*
G01X12392Y22432D01*
G01X12446Y22462D01*
G01X12504Y22485D01*
G01X12563Y22500D01*
G01X12625Y22508D01*
G01X12687Y22508D01*
G01X12748Y22500D01*
G01X12808Y22485D01*
G01X12865Y22462D01*
G01X12919Y22432D01*
G01X12969Y22396D01*
G01X13014Y22354D01*
G01X13054Y22306D01*
G01X13087Y22254D01*
G01X13113Y22198D01*
G01X13132Y22139D01*
G01X13144Y22078D01*
G01X13148Y22017D01*
G01X13148Y20639D01*
G37*
G54D13*
G01X61406Y4453D03*
G54D14*
G01X67406Y7453D03*
G01X62406Y4453D03*
G01X66406Y7453D03*
G01X63406Y4453D03*
G01X65406Y7453D03*
G01X64406Y4453D03*
G01X64406Y7453D03*
G01X65406Y4453D03*
G01X63406Y7453D03*
G01X66406Y4453D03*
G01X62406Y7453D03*
G01X67406Y4453D03*
G01X61406Y7453D03*
G54D17*
G01X51796Y1640D03*
G01X51796Y2388D03*
G01X67779Y2343D03*
G01X67031Y2343D03*
G54D14*
G01X58843Y1171D03*
G01X57843Y1171D03*
G01X56843Y1171D03*
G01X55843Y1171D03*
G54D13*
G01X54843Y1171D03*
G54D16*
G01X3281Y9843D03*
G01X3281Y8843D03*
G01X2281Y9843D03*
G01X2281Y8843D03*
G01X1281Y9843D03*
G54D15*
G01X1281Y8843D03*
G54D14*
G01X52968Y7453D03*
G01X58968Y4453D03*
G01X53968Y7453D03*
G01X57968Y4453D03*
G01X54968Y7453D03*
G01X56968Y4453D03*
G01X55968Y7453D03*
G01X55968Y4453D03*
G01X56968Y7453D03*
G01X54968Y4453D03*
G01X57968Y7453D03*
G01X53968Y4453D03*
G01X58968Y7453D03*
G54D13*
G01X52968Y4453D03*
G54D14*
G01X61390Y9140D03*
G01X62390Y9140D03*
G01X63390Y9140D03*
G01X64390Y9140D03*
G54D13*
G01X65390Y9140D03*
G54D14*
G01X44531Y4265D03*
G01X44531Y3281D03*
G01X44531Y5578D03*
G01X44531Y6562D03*
G54D17*
G01X51328Y5156D03*
G01X50580Y5156D03*
G01X51373Y6562D03*
G01X50625Y6562D03*
G01X51373Y3750D03*
G01X50625Y3750D03*
G54D13*
G01X46171Y3515D03*
G54D14*
G01X49171Y6515D03*
G01X47171Y3515D03*
G01X48171Y6515D03*
G01X48171Y3515D03*
G01X47171Y6515D03*
G01X49171Y3515D03*
G01X46171Y6515D03*
G01X34687Y6515D03*
G01X41687Y3515D03*
G01X35687Y6515D03*
G01X40687Y3515D03*
G01X36687Y6515D03*
G01X39687Y3515D03*
G01X37687Y6515D03*
G01X38687Y3515D03*
G01X38687Y6515D03*
G01X37687Y3515D03*
G01X39687Y6515D03*
G01X36687Y3515D03*
G01X40687Y6515D03*
G01X35687Y3515D03*
G01X41687Y6515D03*
G54D13*
G01X34687Y3515D03*
G01X24609Y3515D03*
G54D14*
G01X31609Y6515D03*
G01X25609Y3515D03*
G01X30609Y6515D03*
G01X26609Y3515D03*
G01X29609Y6515D03*
G01X27609Y3515D03*
G01X28609Y6515D03*
G01X28609Y3515D03*
G01X27609Y6515D03*
G01X29609Y3515D03*
G01X26609Y6515D03*
G01X30609Y3515D03*
G01X25609Y6515D03*
G01X31609Y3515D03*
G01X24609Y6515D03*
G01X59765Y9140D03*
G01X58781Y9140D03*
G01X22968Y5437D03*
G01X22968Y4453D03*
G01X32812Y5437D03*
G01X32812Y4453D03*
G01X42890Y4453D03*
G01X42890Y5437D03*
G01X68671Y6374D03*
G01X68671Y5390D03*
G01X60234Y5343D03*
G01X60234Y6328D03*
G54D17*
G01X68671Y2388D03*
G01X68671Y1640D03*
G01X53482Y2343D03*
G01X52734Y2343D03*
G54D13*
G01X65624Y1171D03*
G54D14*
G01X64625Y1171D03*
G01X63625Y1171D03*
G01X62625Y1171D03*
G01X61625Y1171D03*
G54D13*
G01X56968Y9140D03*
G54D14*
G01X55968Y9140D03*
G01X54968Y9140D03*
G01X53968Y9140D03*
G01X52968Y9140D03*
G01X14765Y6515D03*
G01X21765Y3515D03*
G01X15765Y6515D03*
G01X20765Y3515D03*
G01X16765Y6515D03*
G01X19765Y3515D03*
G01X17765Y6515D03*
G01X18765Y3515D03*
G01X18765Y6515D03*
G01X17765Y3515D03*
G01X19765Y6515D03*
G01X16765Y3515D03*
G01X20765Y6515D03*
G01X15765Y3515D03*
G01X21765Y6515D03*
G54D13*
G01X14765Y3515D03*
G54D18*
G01X68474Y9375D03*
G54D19*
G01X69124Y9375D03*
G01X68933Y8915D03*
G01X68474Y8725D03*
G01X68015Y8915D03*
G01X67824Y9375D03*
G01X68015Y9834D03*
G01X68474Y10024D03*
G01X68933Y9834D03*
G01X68933Y44288D03*
G01X68474Y44478D03*
G01X68015Y44288D03*
G01X67824Y43828D03*
G01X68015Y43369D03*
G01X68474Y43179D03*
G01X68933Y43369D03*
G01X69124Y43828D03*
G54D18*
G01X68474Y43828D03*
G01X68474Y20859D03*
G54D19*
G01X69124Y20859D03*
G01X68933Y20400D03*
G01X68474Y20210D03*
G01X68015Y20400D03*
G01X67824Y20859D03*
G01X68015Y21319D03*
G01X68474Y21509D03*
G01X68933Y21319D03*
G54D18*
G01X68474Y32344D03*
G54D19*
G01X69124Y32344D03*
G01X68933Y31884D03*
G01X68474Y31694D03*
G01X68015Y31884D03*
G01X67824Y32344D03*
G01X68015Y32803D03*
G01X68474Y32993D03*
G01X68933Y32803D03*
G54D15*
G01X65765Y14062D03*
G54D16*
G01X64765Y14062D03*
G01X63765Y14062D03*
G01X62765Y14062D03*
G01X61765Y14062D03*
G01X60765Y14062D03*
G01X59765Y14062D03*
G01X58765Y14062D03*
G01X57765Y14062D03*
G01X56765Y14062D03*
G01X55765Y14062D03*
G01X54765Y14062D03*
G01X54765Y25547D03*
G01X55765Y25547D03*
G01X56765Y25547D03*
G01X57765Y25547D03*
G01X58765Y25547D03*
G01X59765Y25547D03*
G01X60765Y25547D03*
G01X61765Y25547D03*
G01X62765Y25547D03*
G01X63765Y25547D03*
G01X64765Y25547D03*
G54D15*
G01X65765Y25547D03*
G54D16*
G01X54765Y37032D03*
G01X55765Y37032D03*
G01X56765Y37032D03*
G01X57765Y37032D03*
G01X58765Y37032D03*
G01X59765Y37032D03*
G01X60765Y37032D03*
G01X61765Y37032D03*
G01X62765Y37032D03*
G01X63765Y37032D03*
G01X64765Y37032D03*
G54D15*
G01X65765Y37032D03*
G54D16*
G01X40437Y24141D03*
G01X39437Y24141D03*
G01X38437Y24141D03*
G01X37437Y24141D03*
G01X36437Y24141D03*
G01X35437Y24141D03*
G01X34437Y24141D03*
G01X33437Y24141D03*
G01X32437Y24141D03*
G01X31437Y24141D03*
G01X30437Y24141D03*
G01X29437Y24141D03*
G01X28437Y24141D03*
G01X27437Y24141D03*
G01X26437Y24141D03*
G01X25437Y24141D03*
G01X24437Y24141D03*
G01X23437Y24141D03*
G01X22437Y24141D03*
G01X21437Y24141D03*
G01X20437Y24141D03*
G01X19437Y24141D03*
G01X18437Y24141D03*
G01X17437Y24141D03*
G01X16437Y24141D03*
G01X15437Y24141D03*
G54D15*
G01X14437Y24141D03*
G54D16*
G01X40437Y35625D03*
G01X39437Y35625D03*
G01X38437Y35625D03*
G01X37437Y35625D03*
G01X36437Y35625D03*
G01X35437Y35625D03*
G01X34437Y35625D03*
G01X33437Y35625D03*
G01X32437Y35625D03*
G01X31437Y35625D03*
G01X30437Y35625D03*
G01X29437Y35625D03*
G01X28437Y35625D03*
G01X27437Y35625D03*
G01X26437Y35625D03*
G01X25437Y35625D03*
G01X24437Y35625D03*
G01X23437Y35625D03*
G01X22437Y35625D03*
G01X21437Y35625D03*
G01X20437Y35625D03*
G01X19437Y35625D03*
G01X18437Y35625D03*
G01X17437Y35625D03*
G01X16437Y35625D03*
G01X15437Y35625D03*
G54D15*
G01X14437Y35625D03*
G54D16*
G01X40437Y12656D03*
G01X39437Y12656D03*
G01X38437Y12656D03*
G01X37437Y12656D03*
G01X36437Y12656D03*
G01X35437Y12656D03*
G01X34437Y12656D03*
G01X33437Y12656D03*
G01X32437Y12656D03*
G01X31437Y12656D03*
G01X30437Y12656D03*
G01X29437Y12656D03*
G01X28437Y12656D03*
G01X27437Y12656D03*
G01X26437Y12656D03*
G01X25437Y12656D03*
G01X24437Y12656D03*
G01X23437Y12656D03*
G01X22437Y12656D03*
G01X21437Y12656D03*
G01X20437Y12656D03*
G01X19437Y12656D03*
G01X18437Y12656D03*
G01X17437Y12656D03*
G01X16437Y12656D03*
G01X15437Y12656D03*
G54D15*
G01X14437Y12656D03*
G54D12*
G01X60234Y7734D03*
G01X60000Y7031D03*
G01X65390Y8203D03*
G01X64218Y8437D03*
G01X56267Y8420D03*
G01X52613Y8285D03*
G01X62812Y5390D03*
G01X51093Y7500D03*
G01X52031Y7031D03*
G01X53906Y6328D03*
G01X54753Y5080D03*
G01X54753Y5842D03*
G01X43828Y7265D03*
G01X64921Y10546D03*
G01X2578Y8203D03*
M00*
M02*
