G04 Layer: BottomSilkLayer*
G04 EasyEDA v6.3.43, 2020-05-25T11:21:51+02:00*
G04 b2f46ff1345c4209a88c0a1db2e3f32b,10*
G04 Gerber Generator version 0.2*
G04 Scale: 100 percent, Rotated: No, Reflected: No *
G04 Dimensions in inches *
G04 leading zeros omitted , absolute positions ,2 integer and 4 decimal *
%FSLAX24Y24*%
%MOIN*%
G90*
G70D02*

%ADD20C,0.005910*%
%ADD21C,0.004720*%

%LPD*%
G54D21*
G01X66289Y14062D02*
G01X66289Y14586D01*
G01X65765Y14586D01*
G01X66289Y25547D02*
G01X66289Y26071D01*
G01X65765Y26071D01*
G01X66289Y37032D02*
G01X66289Y37555D01*
G01X65765Y37555D01*
G01X13913Y24141D02*
G01X13913Y23617D01*
G01X14437Y23617D01*
G01X13913Y35625D02*
G01X13913Y35102D01*
G01X14437Y35102D01*
G01X13913Y12656D02*
G01X13913Y12132D01*
G01X14437Y12132D01*
G54D20*
G01X66458Y14198D02*
G01X66745Y14198D01*
G01X66798Y14216D01*
G01X66816Y14234D01*
G01X66834Y14270D01*
G01X66834Y14306D01*
G01X66816Y14341D01*
G01X66798Y14359D01*
G01X66745Y14377D01*
G01X66709Y14377D01*
G01X66458Y13991D02*
G01X66476Y14044D01*
G01X66512Y14062D01*
G01X66548Y14062D01*
G01X66584Y14044D01*
G01X66601Y14009D01*
G01X66619Y13937D01*
G01X66637Y13883D01*
G01X66673Y13847D01*
G01X66709Y13830D01*
G01X66763Y13830D01*
G01X66798Y13847D01*
G01X66816Y13865D01*
G01X66834Y13919D01*
G01X66834Y13991D01*
G01X66816Y14044D01*
G01X66798Y14062D01*
G01X66763Y14080D01*
G01X66709Y14080D01*
G01X66673Y14062D01*
G01X66637Y14026D01*
G01X66619Y13973D01*
G01X66601Y13901D01*
G01X66584Y13865D01*
G01X66548Y13847D01*
G01X66512Y13847D01*
G01X66476Y13865D01*
G01X66458Y13919D01*
G01X66458Y13991D01*
G01X64171Y13522D02*
G01X64171Y13146D01*
G01X64171Y13522D02*
G01X64010Y13522D01*
G01X63956Y13504D01*
G01X63938Y13486D01*
G01X63920Y13450D01*
G01X63920Y13414D01*
G01X63938Y13379D01*
G01X63956Y13361D01*
G01X64010Y13343D01*
G01X64171Y13343D02*
G01X64010Y13343D01*
G01X63956Y13325D01*
G01X63938Y13307D01*
G01X63920Y13271D01*
G01X63920Y13218D01*
G01X63938Y13182D01*
G01X63956Y13164D01*
G01X64010Y13146D01*
G01X64171Y13146D01*
G01X63802Y13522D02*
G01X63802Y13146D01*
G01X63802Y13522D02*
G01X63570Y13522D01*
G01X63802Y13343D02*
G01X63659Y13343D01*
G01X63802Y13146D02*
G01X63570Y13146D01*
G01X63308Y13522D02*
G01X63451Y13146D01*
G01X63308Y13522D02*
G01X63165Y13146D01*
G01X63398Y13271D02*
G01X63219Y13271D01*
G01X63047Y13522D02*
G01X63047Y13146D01*
G01X63047Y13522D02*
G01X62904Y13146D01*
G01X62761Y13522D02*
G01X62904Y13146D01*
G01X62761Y13522D02*
G01X62761Y13146D01*
G01X62392Y13468D02*
G01X62428Y13504D01*
G01X62481Y13522D01*
G01X62553Y13522D01*
G01X62607Y13504D01*
G01X62643Y13468D01*
G01X62643Y13432D01*
G01X62625Y13397D01*
G01X62607Y13379D01*
G01X62571Y13361D01*
G01X62464Y13325D01*
G01X62428Y13307D01*
G01X62410Y13289D01*
G01X62392Y13253D01*
G01X62392Y13200D01*
G01X62428Y13164D01*
G01X62481Y13146D01*
G01X62553Y13146D01*
G01X62607Y13164D01*
G01X62643Y13200D01*
G01X62274Y13522D02*
G01X62274Y13146D01*
G01X62274Y13522D02*
G01X62113Y13522D01*
G01X62059Y13504D01*
G01X62041Y13486D01*
G01X62023Y13450D01*
G01X62023Y13397D01*
G01X62041Y13361D01*
G01X62059Y13343D01*
G01X62113Y13325D01*
G01X62274Y13325D01*
G01X61905Y13522D02*
G01X61905Y13146D01*
G01X61905Y13522D02*
G01X61744Y13522D01*
G01X61690Y13504D01*
G01X61673Y13486D01*
G01X61655Y13450D01*
G01X61655Y13414D01*
G01X61673Y13379D01*
G01X61690Y13361D01*
G01X61744Y13343D01*
G01X61905Y13343D01*
G01X61780Y13343D02*
G01X61655Y13146D01*
G01X61537Y13522D02*
G01X61537Y13146D01*
G01X61418Y13522D02*
G01X61418Y13146D01*
G01X61418Y13522D02*
G01X61168Y13146D01*
G01X61168Y13522D02*
G01X61168Y13146D01*
G01X60781Y13432D02*
G01X60799Y13468D01*
G01X60835Y13504D01*
G01X60871Y13522D01*
G01X60942Y13522D01*
G01X60978Y13504D01*
G01X61014Y13468D01*
G01X61032Y13432D01*
G01X61050Y13379D01*
G01X61050Y13289D01*
G01X61032Y13235D01*
G01X61014Y13200D01*
G01X60978Y13164D01*
G01X60942Y13146D01*
G01X60871Y13146D01*
G01X60835Y13164D01*
G01X60799Y13200D01*
G01X60781Y13235D01*
G01X60781Y13289D01*
G01X60871Y13289D02*
G01X60781Y13289D01*
G01X60388Y13522D02*
G01X60388Y13146D01*
G01X60388Y13522D02*
G01X60227Y13522D01*
G01X60173Y13504D01*
G01X60155Y13486D01*
G01X60137Y13450D01*
G01X60137Y13397D01*
G01X60155Y13361D01*
G01X60173Y13343D01*
G01X60227Y13325D01*
G01X60388Y13325D01*
G01X60019Y13522D02*
G01X60019Y13146D01*
G01X60019Y13146D02*
G01X59804Y13146D01*
G01X59686Y13522D02*
G01X59686Y13253D01*
G01X59668Y13200D01*
G01X59633Y13164D01*
G01X59579Y13146D01*
G01X59543Y13146D01*
G01X59489Y13164D01*
G01X59454Y13200D01*
G01X59436Y13253D01*
G01X59436Y13522D01*
G01X59049Y13432D02*
G01X59067Y13468D01*
G01X59103Y13504D01*
G01X59139Y13522D01*
G01X59210Y13522D01*
G01X59246Y13504D01*
G01X59282Y13468D01*
G01X59300Y13432D01*
G01X59318Y13379D01*
G01X59318Y13289D01*
G01X59300Y13235D01*
G01X59282Y13200D01*
G01X59246Y13164D01*
G01X59210Y13146D01*
G01X59139Y13146D01*
G01X59103Y13164D01*
G01X59067Y13200D01*
G01X59049Y13235D01*
G01X59049Y13289D01*
G01X59139Y13289D02*
G01X59049Y13289D01*
G01X58931Y13522D02*
G01X58931Y13146D01*
G01X58931Y13522D02*
G01X58770Y13522D01*
G01X58716Y13504D01*
G01X58698Y13486D01*
G01X58680Y13450D01*
G01X58680Y13414D01*
G01X58698Y13379D01*
G01X58716Y13361D01*
G01X58770Y13343D01*
G01X58931Y13343D02*
G01X58770Y13343D01*
G01X58716Y13325D01*
G01X58698Y13307D01*
G01X58680Y13271D01*
G01X58680Y13218D01*
G01X58698Y13182D01*
G01X58716Y13164D01*
G01X58770Y13146D01*
G01X58931Y13146D01*
G01X58455Y13522D02*
G01X58491Y13504D01*
G01X58527Y13468D01*
G01X58544Y13432D01*
G01X58562Y13379D01*
G01X58562Y13289D01*
G01X58544Y13235D01*
G01X58527Y13200D01*
G01X58491Y13164D01*
G01X58455Y13146D01*
G01X58383Y13146D01*
G01X58348Y13164D01*
G01X58312Y13200D01*
G01X58294Y13235D01*
G01X58276Y13289D01*
G01X58276Y13379D01*
G01X58294Y13432D01*
G01X58312Y13468D01*
G01X58348Y13504D01*
G01X58383Y13522D01*
G01X58455Y13522D01*
G01X58015Y13522D02*
G01X58158Y13146D01*
G01X58015Y13522D02*
G01X57872Y13146D01*
G01X58104Y13271D02*
G01X57925Y13271D01*
G01X57753Y13522D02*
G01X57753Y13146D01*
G01X57753Y13522D02*
G01X57592Y13522D01*
G01X57539Y13504D01*
G01X57521Y13486D01*
G01X57503Y13450D01*
G01X57503Y13414D01*
G01X57521Y13379D01*
G01X57539Y13361D01*
G01X57592Y13343D01*
G01X57753Y13343D01*
G01X57628Y13343D02*
G01X57503Y13146D01*
G01X57385Y13522D02*
G01X57385Y13146D01*
G01X57385Y13522D02*
G01X57260Y13522D01*
G01X57206Y13504D01*
G01X57170Y13468D01*
G01X57152Y13432D01*
G01X57134Y13379D01*
G01X57134Y13289D01*
G01X57152Y13235D01*
G01X57170Y13200D01*
G01X57206Y13164D01*
G01X57260Y13146D01*
G01X57385Y13146D01*
G01X56741Y13522D02*
G01X56741Y13146D01*
G01X56741Y13522D02*
G01X56580Y13522D01*
G01X56526Y13504D01*
G01X56508Y13486D01*
G01X56490Y13450D01*
G01X56490Y13414D01*
G01X56508Y13379D01*
G01X56526Y13361D01*
G01X56580Y13343D01*
G01X56741Y13343D01*
G01X56615Y13343D02*
G01X56490Y13146D01*
G01X56265Y13522D02*
G01X56300Y13504D01*
G01X56336Y13468D01*
G01X56354Y13432D01*
G01X56372Y13379D01*
G01X56372Y13289D01*
G01X56354Y13235D01*
G01X56336Y13200D01*
G01X56300Y13164D01*
G01X56265Y13146D01*
G01X56193Y13146D01*
G01X56157Y13164D01*
G01X56121Y13200D01*
G01X56104Y13235D01*
G01X56086Y13289D01*
G01X56086Y13379D01*
G01X56104Y13432D01*
G01X56121Y13468D01*
G01X56157Y13504D01*
G01X56193Y13522D01*
G01X56265Y13522D01*
G01X55968Y13522D02*
G01X55878Y13146D01*
G01X55789Y13522D02*
G01X55878Y13146D01*
G01X55789Y13522D02*
G01X55699Y13146D01*
G01X55610Y13522D02*
G01X55699Y13146D01*
G01X55241Y13468D02*
G01X55277Y13504D01*
G01X55330Y13522D01*
G01X55402Y13522D01*
G01X55456Y13504D01*
G01X55491Y13468D01*
G01X55491Y13432D01*
G01X55474Y13397D01*
G01X55456Y13379D01*
G01X55420Y13361D01*
G01X55313Y13325D01*
G01X55277Y13307D01*
G01X55259Y13289D01*
G01X55241Y13253D01*
G01X55241Y13200D01*
G01X55277Y13164D01*
G01X55330Y13146D01*
G01X55402Y13146D01*
G01X55456Y13164D01*
G01X55491Y13200D01*
G01X66458Y25840D02*
G01X66745Y25840D01*
G01X66798Y25858D01*
G01X66816Y25876D01*
G01X66834Y25912D01*
G01X66834Y25948D01*
G01X66816Y25984D01*
G01X66798Y26001D01*
G01X66745Y26019D01*
G01X66709Y26019D01*
G01X66530Y25722D02*
G01X66512Y25686D01*
G01X66458Y25633D01*
G01X66834Y25633D01*
G01X66530Y25515D02*
G01X66512Y25479D01*
G01X66458Y25425D01*
G01X66834Y25425D01*
G01X64643Y25006D02*
G01X64643Y24630D01*
G01X64643Y25006D02*
G01X64518Y25006D01*
G01X64464Y24988D01*
G01X64429Y24952D01*
G01X64411Y24917D01*
G01X64393Y24863D01*
G01X64393Y24774D01*
G01X64411Y24720D01*
G01X64429Y24684D01*
G01X64464Y24648D01*
G01X64518Y24630D01*
G01X64643Y24630D01*
G01X64275Y25006D02*
G01X64275Y24630D01*
G01X63906Y24952D02*
G01X63942Y24988D01*
G01X63995Y25006D01*
G01X64067Y25006D01*
G01X64121Y24988D01*
G01X64157Y24952D01*
G01X64157Y24917D01*
G01X64139Y24881D01*
G01X64121Y24863D01*
G01X64085Y24845D01*
G01X63978Y24809D01*
G01X63942Y24791D01*
G01X63924Y24774D01*
G01X63906Y24738D01*
G01X63906Y24684D01*
G01X63942Y24648D01*
G01X63995Y24630D01*
G01X64067Y24630D01*
G01X64121Y24648D01*
G01X64157Y24684D01*
G01X63788Y25006D02*
G01X63788Y24630D01*
G01X63788Y25006D02*
G01X63627Y25006D01*
G01X63573Y24988D01*
G01X63555Y24970D01*
G01X63537Y24935D01*
G01X63537Y24881D01*
G01X63555Y24845D01*
G01X63573Y24827D01*
G01X63627Y24809D01*
G01X63788Y24809D01*
G01X63419Y25006D02*
G01X63419Y24630D01*
G01X63419Y24630D02*
G01X63205Y24630D01*
G01X62943Y25006D02*
G01X63086Y24630D01*
G01X62943Y25006D02*
G01X62800Y24630D01*
G01X63033Y24756D02*
G01X62854Y24756D01*
G01X62682Y25006D02*
G01X62539Y24827D01*
G01X62539Y24630D01*
G01X62396Y25006D02*
G01X62539Y24827D01*
G01X62278Y25006D02*
G01X62188Y24630D01*
G01X62099Y25006D02*
G01X62188Y24630D01*
G01X62099Y25006D02*
G01X62009Y24630D01*
G01X61920Y25006D02*
G01X62009Y24630D01*
G01X61802Y25006D02*
G01X61802Y24630D01*
G01X61802Y25006D02*
G01X61640Y25006D01*
G01X61587Y24988D01*
G01X61569Y24970D01*
G01X61551Y24935D01*
G01X61551Y24899D01*
G01X61569Y24863D01*
G01X61587Y24845D01*
G01X61640Y24827D01*
G01X61802Y24827D01*
G01X61676Y24827D02*
G01X61551Y24630D01*
G01X61433Y25006D02*
G01X61433Y24630D01*
G01X61189Y25006D02*
G01X61189Y24630D01*
G01X61315Y25006D02*
G01X61064Y25006D01*
G01X60946Y25006D02*
G01X60946Y24630D01*
G01X60946Y25006D02*
G01X60713Y25006D01*
G01X60946Y24827D02*
G01X60803Y24827D01*
G01X60946Y24630D02*
G01X60713Y24630D01*
G01X60595Y25006D02*
G01X60595Y24630D01*
G01X60595Y25006D02*
G01X60434Y25006D01*
G01X60381Y24988D01*
G01X60363Y24970D01*
G01X60345Y24935D01*
G01X60345Y24899D01*
G01X60363Y24863D01*
G01X60381Y24845D01*
G01X60434Y24827D01*
G01X60595Y24827D01*
G01X60470Y24827D02*
G01X60345Y24630D01*
G01X59951Y25006D02*
G01X59951Y24630D01*
G01X59951Y25006D02*
G01X59790Y25006D01*
G01X59736Y24988D01*
G01X59718Y24970D01*
G01X59701Y24935D01*
G01X59701Y24881D01*
G01X59718Y24845D01*
G01X59736Y24827D01*
G01X59790Y24809D01*
G01X59951Y24809D01*
G01X59582Y25006D02*
G01X59582Y24630D01*
G01X59582Y24630D02*
G01X59368Y24630D01*
G01X59250Y25006D02*
G01X59250Y24738D01*
G01X59232Y24684D01*
G01X59196Y24648D01*
G01X59142Y24630D01*
G01X59106Y24630D01*
G01X59053Y24648D01*
G01X59017Y24684D01*
G01X58999Y24738D01*
G01X58999Y25006D01*
G01X58613Y24917D02*
G01X58630Y24952D01*
G01X58666Y24988D01*
G01X58702Y25006D01*
G01X58774Y25006D01*
G01X58809Y24988D01*
G01X58845Y24952D01*
G01X58863Y24917D01*
G01X58881Y24863D01*
G01X58881Y24774D01*
G01X58863Y24720D01*
G01X58845Y24684D01*
G01X58809Y24648D01*
G01X58774Y24630D01*
G01X58702Y24630D01*
G01X58666Y24648D01*
G01X58630Y24684D01*
G01X58613Y24720D01*
G01X58613Y24774D01*
G01X58702Y24774D02*
G01X58613Y24774D01*
G01X58494Y25006D02*
G01X58494Y24630D01*
G01X58494Y25006D02*
G01X58333Y25006D01*
G01X58280Y24988D01*
G01X58262Y24970D01*
G01X58244Y24935D01*
G01X58244Y24899D01*
G01X58262Y24863D01*
G01X58280Y24845D01*
G01X58333Y24827D01*
G01X58494Y24827D02*
G01X58333Y24827D01*
G01X58280Y24809D01*
G01X58262Y24791D01*
G01X58244Y24756D01*
G01X58244Y24702D01*
G01X58262Y24666D01*
G01X58280Y24648D01*
G01X58333Y24630D01*
G01X58494Y24630D01*
G01X58018Y25006D02*
G01X58054Y24988D01*
G01X58090Y24952D01*
G01X58108Y24917D01*
G01X58126Y24863D01*
G01X58126Y24774D01*
G01X58108Y24720D01*
G01X58090Y24684D01*
G01X58054Y24648D01*
G01X58018Y24630D01*
G01X57947Y24630D01*
G01X57911Y24648D01*
G01X57875Y24684D01*
G01X57857Y24720D01*
G01X57839Y24774D01*
G01X57839Y24863D01*
G01X57857Y24917D01*
G01X57875Y24952D01*
G01X57911Y24988D01*
G01X57947Y25006D01*
G01X58018Y25006D01*
G01X57578Y25006D02*
G01X57721Y24630D01*
G01X57578Y25006D02*
G01X57435Y24630D01*
G01X57668Y24756D02*
G01X57489Y24756D01*
G01X57317Y25006D02*
G01X57317Y24630D01*
G01X57317Y25006D02*
G01X57156Y25006D01*
G01X57102Y24988D01*
G01X57084Y24970D01*
G01X57066Y24935D01*
G01X57066Y24899D01*
G01X57084Y24863D01*
G01X57102Y24845D01*
G01X57156Y24827D01*
G01X57317Y24827D01*
G01X57192Y24827D02*
G01X57066Y24630D01*
G01X56948Y25006D02*
G01X56948Y24630D01*
G01X56948Y25006D02*
G01X56823Y25006D01*
G01X56769Y24988D01*
G01X56734Y24952D01*
G01X56716Y24917D01*
G01X56698Y24863D01*
G01X56698Y24774D01*
G01X56716Y24720D01*
G01X56734Y24684D01*
G01X56769Y24648D01*
G01X56823Y24630D01*
G01X56948Y24630D01*
G01X56304Y25006D02*
G01X56304Y24630D01*
G01X56304Y25006D02*
G01X56143Y25006D01*
G01X56089Y24988D01*
G01X56071Y24970D01*
G01X56053Y24935D01*
G01X56053Y24899D01*
G01X56071Y24863D01*
G01X56089Y24845D01*
G01X56143Y24827D01*
G01X56304Y24827D01*
G01X56179Y24827D02*
G01X56053Y24630D01*
G01X55828Y25006D02*
G01X55864Y24988D01*
G01X55900Y24952D01*
G01X55917Y24917D01*
G01X55935Y24863D01*
G01X55935Y24774D01*
G01X55917Y24720D01*
G01X55900Y24684D01*
G01X55864Y24648D01*
G01X55828Y24630D01*
G01X55756Y24630D01*
G01X55721Y24648D01*
G01X55685Y24684D01*
G01X55667Y24720D01*
G01X55649Y24774D01*
G01X55649Y24863D01*
G01X55667Y24917D01*
G01X55685Y24952D01*
G01X55721Y24988D01*
G01X55756Y25006D01*
G01X55828Y25006D01*
G01X55531Y25006D02*
G01X55441Y24630D01*
G01X55352Y25006D02*
G01X55441Y24630D01*
G01X55352Y25006D02*
G01X55263Y24630D01*
G01X55173Y25006D02*
G01X55263Y24630D01*
G01X54804Y24952D02*
G01X54840Y24988D01*
G01X54894Y25006D01*
G01X54965Y25006D01*
G01X55019Y24988D01*
G01X55055Y24952D01*
G01X55055Y24917D01*
G01X55037Y24881D01*
G01X55019Y24863D01*
G01X54983Y24845D01*
G01X54876Y24809D01*
G01X54840Y24791D01*
G01X54822Y24774D01*
G01X54804Y24738D01*
G01X54804Y24684D01*
G01X54840Y24648D01*
G01X54894Y24630D01*
G01X54965Y24630D01*
G01X55019Y24648D01*
G01X55055Y24684D01*
G01X66458Y37168D02*
G01X66745Y37168D01*
G01X66798Y37185D01*
G01X66816Y37203D01*
G01X66834Y37239D01*
G01X66834Y37275D01*
G01X66816Y37311D01*
G01X66798Y37329D01*
G01X66745Y37347D01*
G01X66709Y37347D01*
G01X66458Y36835D02*
G01X66458Y37014D01*
G01X66619Y37032D01*
G01X66601Y37014D01*
G01X66584Y36960D01*
G01X66584Y36906D01*
G01X66601Y36853D01*
G01X66637Y36817D01*
G01X66691Y36799D01*
G01X66727Y36799D01*
G01X66780Y36817D01*
G01X66816Y36853D01*
G01X66834Y36906D01*
G01X66834Y36960D01*
G01X66816Y37014D01*
G01X66798Y37032D01*
G01X66763Y37049D01*
G01X63698Y36490D02*
G01X63698Y36115D01*
G01X63698Y36490D02*
G01X63555Y36115D01*
G01X63412Y36490D02*
G01X63555Y36115D01*
G01X63412Y36490D02*
G01X63412Y36115D01*
G01X63187Y36490D02*
G01X63222Y36473D01*
G01X63258Y36437D01*
G01X63276Y36401D01*
G01X63294Y36347D01*
G01X63294Y36258D01*
G01X63276Y36204D01*
G01X63258Y36168D01*
G01X63222Y36133D01*
G01X63187Y36115D01*
G01X63115Y36115D01*
G01X63079Y36133D01*
G01X63043Y36168D01*
G01X63026Y36204D01*
G01X63008Y36258D01*
G01X63008Y36347D01*
G01X63026Y36401D01*
G01X63043Y36437D01*
G01X63079Y36473D01*
G01X63115Y36490D01*
G01X63187Y36490D01*
G01X62890Y36490D02*
G01X62890Y36115D01*
G01X62890Y36490D02*
G01X62764Y36490D01*
G01X62711Y36473D01*
G01X62675Y36437D01*
G01X62657Y36401D01*
G01X62639Y36347D01*
G01X62639Y36258D01*
G01X62657Y36204D01*
G01X62675Y36168D01*
G01X62711Y36133D01*
G01X62764Y36115D01*
G01X62890Y36115D01*
G01X62521Y36490D02*
G01X62521Y36115D01*
G01X62521Y36490D02*
G01X62288Y36490D01*
G01X62521Y36312D02*
G01X62378Y36312D01*
G01X62521Y36115D02*
G01X62288Y36115D01*
G01X62170Y36490D02*
G01X62170Y36115D01*
G01X62170Y36115D02*
G01X61955Y36115D01*
G01X61562Y36490D02*
G01X61562Y36115D01*
G01X61562Y36490D02*
G01X61329Y36490D01*
G01X61562Y36312D02*
G01X61419Y36312D01*
G01X60935Y36490D02*
G01X60935Y36115D01*
G01X60935Y36490D02*
G01X60774Y36490D01*
G01X60721Y36473D01*
G01X60703Y36455D01*
G01X60685Y36419D01*
G01X60685Y36365D01*
G01X60703Y36329D01*
G01X60721Y36312D01*
G01X60774Y36294D01*
G01X60935Y36294D01*
G01X60567Y36490D02*
G01X60567Y36115D01*
G01X60567Y36115D02*
G01X60352Y36115D01*
G01X60234Y36490D02*
G01X60234Y36222D01*
G01X60216Y36168D01*
G01X60180Y36133D01*
G01X60126Y36115D01*
G01X60091Y36115D01*
G01X60037Y36133D01*
G01X60001Y36168D01*
G01X59983Y36222D01*
G01X59983Y36490D01*
G01X59597Y36401D02*
G01X59615Y36437D01*
G01X59650Y36473D01*
G01X59686Y36490D01*
G01X59758Y36490D01*
G01X59794Y36473D01*
G01X59829Y36437D01*
G01X59847Y36401D01*
G01X59865Y36347D01*
G01X59865Y36258D01*
G01X59847Y36204D01*
G01X59829Y36168D01*
G01X59794Y36133D01*
G01X59758Y36115D01*
G01X59686Y36115D01*
G01X59650Y36133D01*
G01X59615Y36168D01*
G01X59597Y36204D01*
G01X59597Y36258D01*
G01X59686Y36258D02*
G01X59597Y36258D01*
G01X59479Y36490D02*
G01X59479Y36115D01*
G01X59479Y36490D02*
G01X59318Y36490D01*
G01X59264Y36473D01*
G01X59246Y36455D01*
G01X59228Y36419D01*
G01X59228Y36383D01*
G01X59246Y36347D01*
G01X59264Y36329D01*
G01X59318Y36312D01*
G01X59479Y36312D02*
G01X59318Y36312D01*
G01X59264Y36294D01*
G01X59246Y36276D01*
G01X59228Y36240D01*
G01X59228Y36186D01*
G01X59246Y36150D01*
G01X59264Y36133D01*
G01X59318Y36115D01*
G01X59479Y36115D01*
G01X59003Y36490D02*
G01X59038Y36473D01*
G01X59074Y36437D01*
G01X59092Y36401D01*
G01X59110Y36347D01*
G01X59110Y36258D01*
G01X59092Y36204D01*
G01X59074Y36168D01*
G01X59038Y36133D01*
G01X59003Y36115D01*
G01X58931Y36115D01*
G01X58895Y36133D01*
G01X58859Y36168D01*
G01X58842Y36204D01*
G01X58824Y36258D01*
G01X58824Y36347D01*
G01X58842Y36401D01*
G01X58859Y36437D01*
G01X58895Y36473D01*
G01X58931Y36490D01*
G01X59003Y36490D01*
G01X58562Y36490D02*
G01X58706Y36115D01*
G01X58562Y36490D02*
G01X58419Y36115D01*
G01X58652Y36240D02*
G01X58473Y36240D01*
G01X58301Y36490D02*
G01X58301Y36115D01*
G01X58301Y36490D02*
G01X58140Y36490D01*
G01X58086Y36473D01*
G01X58068Y36455D01*
G01X58051Y36419D01*
G01X58051Y36383D01*
G01X58068Y36347D01*
G01X58086Y36329D01*
G01X58140Y36312D01*
G01X58301Y36312D01*
G01X58176Y36312D02*
G01X58051Y36115D01*
G01X57932Y36490D02*
G01X57932Y36115D01*
G01X57932Y36490D02*
G01X57807Y36490D01*
G01X57754Y36473D01*
G01X57718Y36437D01*
G01X57700Y36401D01*
G01X57682Y36347D01*
G01X57682Y36258D01*
G01X57700Y36204D01*
G01X57718Y36168D01*
G01X57754Y36133D01*
G01X57807Y36115D01*
G01X57932Y36115D01*
G01X57288Y36490D02*
G01X57288Y36115D01*
G01X57288Y36490D02*
G01X57127Y36490D01*
G01X57074Y36473D01*
G01X57056Y36455D01*
G01X57038Y36419D01*
G01X57038Y36383D01*
G01X57056Y36347D01*
G01X57074Y36329D01*
G01X57127Y36312D01*
G01X57288Y36312D01*
G01X57163Y36312D02*
G01X57038Y36115D01*
G01X56812Y36490D02*
G01X56848Y36473D01*
G01X56884Y36437D01*
G01X56902Y36401D01*
G01X56920Y36347D01*
G01X56920Y36258D01*
G01X56902Y36204D01*
G01X56884Y36168D01*
G01X56848Y36133D01*
G01X56812Y36115D01*
G01X56741Y36115D01*
G01X56705Y36133D01*
G01X56669Y36168D01*
G01X56651Y36204D01*
G01X56633Y36258D01*
G01X56633Y36347D01*
G01X56651Y36401D01*
G01X56669Y36437D01*
G01X56705Y36473D01*
G01X56741Y36490D01*
G01X56812Y36490D01*
G01X56515Y36490D02*
G01X56426Y36115D01*
G01X56336Y36490D02*
G01X56426Y36115D01*
G01X56336Y36490D02*
G01X56247Y36115D01*
G01X56157Y36490D02*
G01X56247Y36115D01*
G01X55789Y36437D02*
G01X55824Y36473D01*
G01X55878Y36490D01*
G01X55950Y36490D01*
G01X56003Y36473D01*
G01X56039Y36437D01*
G01X56039Y36401D01*
G01X56021Y36365D01*
G01X56003Y36347D01*
G01X55968Y36329D01*
G01X55860Y36294D01*
G01X55824Y36276D01*
G01X55806Y36258D01*
G01X55789Y36222D01*
G01X55789Y36168D01*
G01X55824Y36133D01*
G01X55878Y36115D01*
G01X55950Y36115D01*
G01X56003Y36133D01*
G01X56039Y36168D01*
G01X12949Y24277D02*
G01X13236Y24277D01*
G01X13289Y24295D01*
G01X13307Y24312D01*
G01X13325Y24348D01*
G01X13325Y24384D01*
G01X13307Y24420D01*
G01X13289Y24438D01*
G01X13236Y24456D01*
G01X13200Y24456D01*
G01X13074Y23926D02*
G01X13128Y23944D01*
G01X13164Y23980D01*
G01X13182Y24033D01*
G01X13182Y24051D01*
G01X13164Y24105D01*
G01X13128Y24141D01*
G01X13074Y24159D01*
G01X13057Y24159D01*
G01X13003Y24141D01*
G01X12967Y24105D01*
G01X12949Y24051D01*
G01X12949Y24033D01*
G01X12967Y23980D01*
G01X13003Y23944D01*
G01X13074Y23926D01*
G01X13164Y23926D01*
G01X13253Y23944D01*
G01X13307Y23980D01*
G01X13325Y24033D01*
G01X13325Y24069D01*
G01X13307Y24123D01*
G01X13271Y24141D01*
G01X32772Y23600D02*
G01X32772Y23224D01*
G01X32772Y23600D02*
G01X32647Y23600D01*
G01X32593Y23582D01*
G01X32557Y23546D01*
G01X32539Y23510D01*
G01X32521Y23457D01*
G01X32521Y23367D01*
G01X32539Y23314D01*
G01X32557Y23278D01*
G01X32593Y23242D01*
G01X32647Y23224D01*
G01X32772Y23224D01*
G01X32403Y23600D02*
G01X32403Y23224D01*
G01X32035Y23546D02*
G01X32071Y23582D01*
G01X32124Y23600D01*
G01X32196Y23600D01*
G01X32249Y23582D01*
G01X32285Y23546D01*
G01X32285Y23510D01*
G01X32267Y23475D01*
G01X32249Y23457D01*
G01X32214Y23439D01*
G01X32106Y23403D01*
G01X32071Y23385D01*
G01X32053Y23367D01*
G01X32035Y23331D01*
G01X32035Y23278D01*
G01X32071Y23242D01*
G01X32124Y23224D01*
G01X32196Y23224D01*
G01X32249Y23242D01*
G01X32285Y23278D01*
G01X31917Y23600D02*
G01X31917Y23224D01*
G01X31917Y23600D02*
G01X31756Y23600D01*
G01X31702Y23582D01*
G01X31684Y23564D01*
G01X31666Y23528D01*
G01X31666Y23475D01*
G01X31684Y23439D01*
G01X31702Y23421D01*
G01X31756Y23403D01*
G01X31917Y23403D01*
G01X31548Y23600D02*
G01X31548Y23224D01*
G01X31548Y23224D02*
G01X31333Y23224D01*
G01X31072Y23600D02*
G01X31215Y23224D01*
G01X31072Y23600D02*
G01X30929Y23224D01*
G01X31161Y23349D02*
G01X30982Y23349D01*
G01X30811Y23600D02*
G01X30667Y23421D01*
G01X30667Y23224D01*
G01X30524Y23600D02*
G01X30667Y23421D01*
G01X30406Y23600D02*
G01X30317Y23224D01*
G01X30227Y23600D02*
G01X30317Y23224D01*
G01X30227Y23600D02*
G01X30138Y23224D01*
G01X30048Y23600D02*
G01X30138Y23224D01*
G01X29930Y23600D02*
G01X29930Y23224D01*
G01X29930Y23600D02*
G01X29769Y23600D01*
G01X29715Y23582D01*
G01X29698Y23564D01*
G01X29680Y23528D01*
G01X29680Y23493D01*
G01X29698Y23457D01*
G01X29715Y23439D01*
G01X29769Y23421D01*
G01X29930Y23421D01*
G01X29805Y23421D02*
G01X29680Y23224D01*
G01X29562Y23600D02*
G01X29562Y23224D01*
G01X29318Y23600D02*
G01X29318Y23224D01*
G01X29443Y23600D02*
G01X29193Y23600D01*
G01X29075Y23600D02*
G01X29075Y23224D01*
G01X29075Y23600D02*
G01X28842Y23600D01*
G01X29075Y23421D02*
G01X28932Y23421D01*
G01X29075Y23224D02*
G01X28842Y23224D01*
G01X28724Y23600D02*
G01X28724Y23224D01*
G01X28724Y23600D02*
G01X28563Y23600D01*
G01X28509Y23582D01*
G01X28491Y23564D01*
G01X28474Y23528D01*
G01X28474Y23493D01*
G01X28491Y23457D01*
G01X28509Y23439D01*
G01X28563Y23421D01*
G01X28724Y23421D01*
G01X28599Y23421D02*
G01X28474Y23224D01*
G01X28080Y23600D02*
G01X28080Y23224D01*
G01X28080Y23600D02*
G01X27919Y23600D01*
G01X27865Y23582D01*
G01X27847Y23564D01*
G01X27829Y23528D01*
G01X27829Y23475D01*
G01X27847Y23439D01*
G01X27865Y23421D01*
G01X27919Y23403D01*
G01X28080Y23403D01*
G01X27711Y23600D02*
G01X27711Y23224D01*
G01X27711Y23224D02*
G01X27496Y23224D01*
G01X27378Y23600D02*
G01X27378Y23331D01*
G01X27360Y23278D01*
G01X27325Y23242D01*
G01X27271Y23224D01*
G01X27235Y23224D01*
G01X27181Y23242D01*
G01X27146Y23278D01*
G01X27128Y23331D01*
G01X27128Y23600D01*
G01X26741Y23510D02*
G01X26759Y23546D01*
G01X26795Y23582D01*
G01X26831Y23600D01*
G01X26902Y23600D01*
G01X26938Y23582D01*
G01X26974Y23546D01*
G01X26992Y23510D01*
G01X27010Y23457D01*
G01X27010Y23367D01*
G01X26992Y23314D01*
G01X26974Y23278D01*
G01X26938Y23242D01*
G01X26902Y23224D01*
G01X26831Y23224D01*
G01X26795Y23242D01*
G01X26759Y23278D01*
G01X26741Y23314D01*
G01X26741Y23367D01*
G01X26831Y23367D02*
G01X26741Y23367D01*
G01X26623Y23600D02*
G01X26623Y23224D01*
G01X26623Y23600D02*
G01X26462Y23600D01*
G01X26408Y23582D01*
G01X26390Y23564D01*
G01X26373Y23528D01*
G01X26373Y23493D01*
G01X26390Y23457D01*
G01X26408Y23439D01*
G01X26462Y23421D01*
G01X26623Y23421D02*
G01X26462Y23421D01*
G01X26408Y23403D01*
G01X26390Y23385D01*
G01X26373Y23349D01*
G01X26373Y23296D01*
G01X26390Y23260D01*
G01X26408Y23242D01*
G01X26462Y23224D01*
G01X26623Y23224D01*
G01X26147Y23600D02*
G01X26183Y23582D01*
G01X26219Y23546D01*
G01X26237Y23510D01*
G01X26254Y23457D01*
G01X26254Y23367D01*
G01X26237Y23314D01*
G01X26219Y23278D01*
G01X26183Y23242D01*
G01X26147Y23224D01*
G01X26076Y23224D01*
G01X26040Y23242D01*
G01X26004Y23278D01*
G01X25986Y23314D01*
G01X25968Y23367D01*
G01X25968Y23457D01*
G01X25986Y23510D01*
G01X26004Y23546D01*
G01X26040Y23582D01*
G01X26076Y23600D01*
G01X26147Y23600D01*
G01X25707Y23600D02*
G01X25850Y23224D01*
G01X25707Y23600D02*
G01X25564Y23224D01*
G01X25796Y23349D02*
G01X25617Y23349D01*
G01X25446Y23600D02*
G01X25446Y23224D01*
G01X25446Y23600D02*
G01X25285Y23600D01*
G01X25231Y23582D01*
G01X25213Y23564D01*
G01X25195Y23528D01*
G01X25195Y23493D01*
G01X25213Y23457D01*
G01X25231Y23439D01*
G01X25285Y23421D01*
G01X25446Y23421D01*
G01X25320Y23421D02*
G01X25195Y23224D01*
G01X25077Y23600D02*
G01X25077Y23224D01*
G01X25077Y23600D02*
G01X24952Y23600D01*
G01X24898Y23582D01*
G01X24862Y23546D01*
G01X24844Y23510D01*
G01X24826Y23457D01*
G01X24826Y23367D01*
G01X24844Y23314D01*
G01X24862Y23278D01*
G01X24898Y23242D01*
G01X24952Y23224D01*
G01X25077Y23224D01*
G01X24164Y23510D02*
G01X24182Y23546D01*
G01X24218Y23582D01*
G01X24254Y23600D01*
G01X24325Y23600D01*
G01X24361Y23582D01*
G01X24397Y23546D01*
G01X24415Y23510D01*
G01X24433Y23457D01*
G01X24433Y23367D01*
G01X24415Y23314D01*
G01X24397Y23278D01*
G01X24361Y23242D01*
G01X24325Y23224D01*
G01X24254Y23224D01*
G01X24218Y23242D01*
G01X24182Y23278D01*
G01X24164Y23314D01*
G01X23939Y23600D02*
G01X23975Y23582D01*
G01X24010Y23546D01*
G01X24028Y23510D01*
G01X24046Y23457D01*
G01X24046Y23367D01*
G01X24028Y23314D01*
G01X24010Y23278D01*
G01X23975Y23242D01*
G01X23939Y23224D01*
G01X23867Y23224D01*
G01X23831Y23242D01*
G01X23796Y23278D01*
G01X23778Y23314D01*
G01X23760Y23367D01*
G01X23760Y23457D01*
G01X23778Y23510D01*
G01X23796Y23546D01*
G01X23831Y23582D01*
G01X23867Y23600D01*
G01X23939Y23600D01*
G01X23642Y23600D02*
G01X23642Y23224D01*
G01X23642Y23224D02*
G01X23427Y23224D01*
G01X23309Y23600D02*
G01X23309Y23331D01*
G01X23291Y23278D01*
G01X23255Y23242D01*
G01X23202Y23224D01*
G01X23166Y23224D01*
G01X23112Y23242D01*
G01X23076Y23278D01*
G01X23058Y23331D01*
G01X23058Y23600D01*
G01X22940Y23600D02*
G01X22940Y23224D01*
G01X22940Y23600D02*
G01X22797Y23224D01*
G01X22654Y23600D02*
G01X22797Y23224D01*
G01X22654Y23600D02*
G01X22654Y23224D01*
G01X22536Y23600D02*
G01X22536Y23224D01*
G01X22536Y23600D02*
G01X22285Y23224D01*
G01X22285Y23600D02*
G01X22285Y23224D01*
G01X21917Y23546D02*
G01X21952Y23582D01*
G01X22006Y23600D01*
G01X22078Y23600D01*
G01X22131Y23582D01*
G01X22167Y23546D01*
G01X22167Y23510D01*
G01X22149Y23475D01*
G01X22131Y23457D01*
G01X22096Y23439D01*
G01X21988Y23403D01*
G01X21952Y23385D01*
G01X21935Y23367D01*
G01X21917Y23331D01*
G01X21917Y23278D01*
G01X21952Y23242D01*
G01X22006Y23224D01*
G01X22078Y23224D01*
G01X22131Y23242D01*
G01X22167Y23278D01*
G01X12949Y35761D02*
G01X13236Y35761D01*
G01X13289Y35779D01*
G01X13307Y35797D01*
G01X13325Y35833D01*
G01X13325Y35869D01*
G01X13307Y35904D01*
G01X13289Y35922D01*
G01X13236Y35940D01*
G01X13200Y35940D01*
G01X12949Y35607D02*
G01X12949Y35410D01*
G01X13092Y35518D01*
G01X13092Y35464D01*
G01X13110Y35428D01*
G01X13128Y35410D01*
G01X13182Y35393D01*
G01X13218Y35393D01*
G01X13271Y35410D01*
G01X13307Y35446D01*
G01X13325Y35500D01*
G01X13325Y35554D01*
G01X13307Y35607D01*
G01X13289Y35625D01*
G01X13253Y35643D01*
G01X31827Y35084D02*
G01X31827Y34708D01*
G01X31827Y35084D02*
G01X31684Y34708D01*
G01X31541Y35084D02*
G01X31684Y34708D01*
G01X31541Y35084D02*
G01X31541Y34708D01*
G01X31315Y35084D02*
G01X31351Y35066D01*
G01X31387Y35031D01*
G01X31405Y34995D01*
G01X31423Y34941D01*
G01X31423Y34852D01*
G01X31405Y34798D01*
G01X31387Y34762D01*
G01X31351Y34726D01*
G01X31315Y34708D01*
G01X31244Y34708D01*
G01X31208Y34726D01*
G01X31172Y34762D01*
G01X31154Y34798D01*
G01X31136Y34852D01*
G01X31136Y34941D01*
G01X31154Y34995D01*
G01X31172Y35031D01*
G01X31208Y35066D01*
G01X31244Y35084D01*
G01X31315Y35084D01*
G01X31018Y35084D02*
G01X31018Y34708D01*
G01X31018Y35084D02*
G01X30893Y35084D01*
G01X30839Y35066D01*
G01X30803Y35031D01*
G01X30786Y34995D01*
G01X30768Y34941D01*
G01X30768Y34852D01*
G01X30786Y34798D01*
G01X30803Y34762D01*
G01X30839Y34726D01*
G01X30893Y34708D01*
G01X31018Y34708D01*
G01X30650Y35084D02*
G01X30650Y34708D01*
G01X30650Y35084D02*
G01X30417Y35084D01*
G01X30650Y34905D02*
G01X30506Y34905D01*
G01X30650Y34708D02*
G01X30417Y34708D01*
G01X30299Y35084D02*
G01X30299Y34708D01*
G01X30299Y34708D02*
G01X30084Y34708D01*
G01X29690Y35084D02*
G01X29690Y34708D01*
G01X29690Y35084D02*
G01X29458Y35084D01*
G01X29690Y34905D02*
G01X29547Y34905D01*
G01X29064Y35084D02*
G01X29064Y34708D01*
G01X29064Y35084D02*
G01X28903Y35084D01*
G01X28849Y35066D01*
G01X28831Y35048D01*
G01X28814Y35013D01*
G01X28814Y34959D01*
G01X28831Y34923D01*
G01X28849Y34905D01*
G01X28903Y34887D01*
G01X29064Y34887D01*
G01X28695Y35084D02*
G01X28695Y34708D01*
G01X28695Y34708D02*
G01X28481Y34708D01*
G01X28363Y35084D02*
G01X28363Y34816D01*
G01X28345Y34762D01*
G01X28309Y34726D01*
G01X28255Y34708D01*
G01X28219Y34708D01*
G01X28166Y34726D01*
G01X28130Y34762D01*
G01X28112Y34816D01*
G01X28112Y35084D01*
G01X27725Y34995D02*
G01X27743Y35031D01*
G01X27779Y35066D01*
G01X27815Y35084D01*
G01X27887Y35084D01*
G01X27922Y35066D01*
G01X27958Y35031D01*
G01X27976Y34995D01*
G01X27994Y34941D01*
G01X27994Y34852D01*
G01X27976Y34798D01*
G01X27958Y34762D01*
G01X27922Y34726D01*
G01X27887Y34708D01*
G01X27815Y34708D01*
G01X27779Y34726D01*
G01X27743Y34762D01*
G01X27725Y34798D01*
G01X27725Y34852D01*
G01X27815Y34852D02*
G01X27725Y34852D01*
G01X27607Y35084D02*
G01X27607Y34708D01*
G01X27607Y35084D02*
G01X27446Y35084D01*
G01X27393Y35066D01*
G01X27375Y35048D01*
G01X27357Y35013D01*
G01X27357Y34977D01*
G01X27375Y34941D01*
G01X27393Y34923D01*
G01X27446Y34905D01*
G01X27607Y34905D02*
G01X27446Y34905D01*
G01X27393Y34887D01*
G01X27375Y34870D01*
G01X27357Y34834D01*
G01X27357Y34780D01*
G01X27375Y34744D01*
G01X27393Y34726D01*
G01X27446Y34708D01*
G01X27607Y34708D01*
G01X27131Y35084D02*
G01X27167Y35066D01*
G01X27203Y35031D01*
G01X27221Y34995D01*
G01X27239Y34941D01*
G01X27239Y34852D01*
G01X27221Y34798D01*
G01X27203Y34762D01*
G01X27167Y34726D01*
G01X27131Y34708D01*
G01X27060Y34708D01*
G01X27024Y34726D01*
G01X26988Y34762D01*
G01X26970Y34798D01*
G01X26952Y34852D01*
G01X26952Y34941D01*
G01X26970Y34995D01*
G01X26988Y35031D01*
G01X27024Y35066D01*
G01X27060Y35084D01*
G01X27131Y35084D01*
G01X26691Y35084D02*
G01X26834Y34708D01*
G01X26691Y35084D02*
G01X26548Y34708D01*
G01X26781Y34834D02*
G01X26602Y34834D01*
G01X26430Y35084D02*
G01X26430Y34708D01*
G01X26430Y35084D02*
G01X26269Y35084D01*
G01X26215Y35066D01*
G01X26197Y35048D01*
G01X26179Y35013D01*
G01X26179Y34977D01*
G01X26197Y34941D01*
G01X26215Y34923D01*
G01X26269Y34905D01*
G01X26430Y34905D01*
G01X26305Y34905D02*
G01X26179Y34708D01*
G01X26061Y35084D02*
G01X26061Y34708D01*
G01X26061Y35084D02*
G01X25936Y35084D01*
G01X25882Y35066D01*
G01X25846Y35031D01*
G01X25829Y34995D01*
G01X25811Y34941D01*
G01X25811Y34852D01*
G01X25829Y34798D01*
G01X25846Y34762D01*
G01X25882Y34726D01*
G01X25936Y34708D01*
G01X26061Y34708D01*
G01X25149Y34995D02*
G01X25166Y35031D01*
G01X25202Y35066D01*
G01X25238Y35084D01*
G01X25310Y35084D01*
G01X25345Y35066D01*
G01X25381Y35031D01*
G01X25399Y34995D01*
G01X25417Y34941D01*
G01X25417Y34852D01*
G01X25399Y34798D01*
G01X25381Y34762D01*
G01X25345Y34726D01*
G01X25310Y34708D01*
G01X25238Y34708D01*
G01X25202Y34726D01*
G01X25166Y34762D01*
G01X25149Y34798D01*
G01X24923Y35084D02*
G01X24959Y35066D01*
G01X24995Y35031D01*
G01X25013Y34995D01*
G01X25030Y34941D01*
G01X25030Y34852D01*
G01X25013Y34798D01*
G01X24995Y34762D01*
G01X24959Y34726D01*
G01X24923Y34708D01*
G01X24851Y34708D01*
G01X24816Y34726D01*
G01X24780Y34762D01*
G01X24762Y34798D01*
G01X24744Y34852D01*
G01X24744Y34941D01*
G01X24762Y34995D01*
G01X24780Y35031D01*
G01X24816Y35066D01*
G01X24851Y35084D01*
G01X24923Y35084D01*
G01X24626Y35084D02*
G01X24626Y34708D01*
G01X24626Y34708D02*
G01X24411Y34708D01*
G01X24293Y35084D02*
G01X24293Y34816D01*
G01X24275Y34762D01*
G01X24239Y34726D01*
G01X24186Y34708D01*
G01X24150Y34708D01*
G01X24096Y34726D01*
G01X24060Y34762D01*
G01X24043Y34816D01*
G01X24043Y35084D01*
G01X23924Y35084D02*
G01X23924Y34708D01*
G01X23924Y35084D02*
G01X23781Y34708D01*
G01X23638Y35084D02*
G01X23781Y34708D01*
G01X23638Y35084D02*
G01X23638Y34708D01*
G01X23520Y35084D02*
G01X23520Y34708D01*
G01X23520Y35084D02*
G01X23269Y34708D01*
G01X23269Y35084D02*
G01X23269Y34708D01*
G01X22901Y35031D02*
G01X22937Y35066D01*
G01X22990Y35084D01*
G01X23062Y35084D01*
G01X23116Y35066D01*
G01X23151Y35031D01*
G01X23151Y34995D01*
G01X23133Y34959D01*
G01X23116Y34941D01*
G01X23080Y34923D01*
G01X22972Y34887D01*
G01X22937Y34870D01*
G01X22919Y34852D01*
G01X22901Y34816D01*
G01X22901Y34762D01*
G01X22937Y34726D01*
G01X22990Y34708D01*
G01X23062Y34708D01*
G01X23116Y34726D01*
G01X23151Y34762D01*
G01X12949Y12792D02*
G01X13236Y12792D01*
G01X13289Y12810D01*
G01X13307Y12828D01*
G01X13325Y12864D01*
G01X13325Y12899D01*
G01X13307Y12935D01*
G01X13289Y12953D01*
G01X13236Y12971D01*
G01X13200Y12971D01*
G01X13003Y12459D02*
G01X12967Y12477D01*
G01X12949Y12531D01*
G01X12949Y12567D01*
G01X12967Y12620D01*
G01X13021Y12656D01*
G01X13110Y12674D01*
G01X13200Y12674D01*
G01X13271Y12656D01*
G01X13307Y12620D01*
G01X13325Y12567D01*
G01X13325Y12549D01*
G01X13307Y12495D01*
G01X13271Y12459D01*
G01X13218Y12441D01*
G01X13200Y12441D01*
G01X13146Y12459D01*
G01X13110Y12495D01*
G01X13092Y12549D01*
G01X13092Y12567D01*
G01X13110Y12620D01*
G01X13146Y12656D01*
G01X13200Y12674D01*
G01X32300Y12116D02*
G01X32300Y11740D01*
G01X32300Y12116D02*
G01X32139Y12116D01*
G01X32085Y12098D01*
G01X32067Y12080D01*
G01X32049Y12044D01*
G01X32049Y12008D01*
G01X32067Y11972D01*
G01X32085Y11955D01*
G01X32139Y11937D01*
G01X32300Y11937D02*
G01X32139Y11937D01*
G01X32085Y11919D01*
G01X32067Y11901D01*
G01X32049Y11865D01*
G01X32049Y11811D01*
G01X32067Y11776D01*
G01X32085Y11758D01*
G01X32139Y11740D01*
G01X32300Y11740D01*
G01X31931Y12116D02*
G01X31931Y11740D01*
G01X31931Y12116D02*
G01X31698Y12116D01*
G01X31931Y11937D02*
G01X31788Y11937D01*
G01X31931Y11740D02*
G01X31698Y11740D01*
G01X31437Y12116D02*
G01X31580Y11740D01*
G01X31437Y12116D02*
G01X31294Y11740D01*
G01X31527Y11865D02*
G01X31348Y11865D01*
G01X31176Y12116D02*
G01X31176Y11740D01*
G01X31176Y12116D02*
G01X31033Y11740D01*
G01X30889Y12116D02*
G01X31033Y11740D01*
G01X30889Y12116D02*
G01X30889Y11740D01*
G01X30521Y12062D02*
G01X30557Y12098D01*
G01X30610Y12116D01*
G01X30682Y12116D01*
G01X30736Y12098D01*
G01X30771Y12062D01*
G01X30771Y12026D01*
G01X30753Y11990D01*
G01X30736Y11972D01*
G01X30700Y11955D01*
G01X30592Y11919D01*
G01X30557Y11901D01*
G01X30539Y11883D01*
G01X30521Y11847D01*
G01X30521Y11793D01*
G01X30557Y11758D01*
G01X30610Y11740D01*
G01X30682Y11740D01*
G01X30736Y11758D01*
G01X30771Y11793D01*
G01X30403Y12116D02*
G01X30403Y11740D01*
G01X30403Y12116D02*
G01X30242Y12116D01*
G01X30188Y12098D01*
G01X30170Y12080D01*
G01X30152Y12044D01*
G01X30152Y11990D01*
G01X30170Y11955D01*
G01X30188Y11937D01*
G01X30242Y11919D01*
G01X30403Y11919D01*
G01X30034Y12116D02*
G01X30034Y11740D01*
G01X30034Y12116D02*
G01X29873Y12116D01*
G01X29819Y12098D01*
G01X29801Y12080D01*
G01X29783Y12044D01*
G01X29783Y12008D01*
G01X29801Y11972D01*
G01X29819Y11955D01*
G01X29873Y11937D01*
G01X30034Y11937D01*
G01X29909Y11937D02*
G01X29783Y11740D01*
G01X29665Y12116D02*
G01X29665Y11740D01*
G01X29547Y12116D02*
G01X29547Y11740D01*
G01X29547Y12116D02*
G01X29297Y11740D01*
G01X29297Y12116D02*
G01X29297Y11740D01*
G01X28910Y12026D02*
G01X28928Y12062D01*
G01X28964Y12098D01*
G01X29000Y12116D01*
G01X29071Y12116D01*
G01X29107Y12098D01*
G01X29143Y12062D01*
G01X29161Y12026D01*
G01X29179Y11972D01*
G01X29179Y11883D01*
G01X29161Y11829D01*
G01X29143Y11793D01*
G01X29107Y11758D01*
G01X29071Y11740D01*
G01X29000Y11740D01*
G01X28964Y11758D01*
G01X28928Y11793D01*
G01X28910Y11829D01*
G01X28910Y11883D01*
G01X29000Y11883D02*
G01X28910Y11883D01*
G01X28517Y12116D02*
G01X28517Y11740D01*
G01X28517Y12116D02*
G01X28355Y12116D01*
G01X28302Y12098D01*
G01X28284Y12080D01*
G01X28266Y12044D01*
G01X28266Y11990D01*
G01X28284Y11955D01*
G01X28302Y11937D01*
G01X28355Y11919D01*
G01X28517Y11919D01*
G01X28148Y12116D02*
G01X28148Y11740D01*
G01X28148Y11740D02*
G01X27933Y11740D01*
G01X27815Y12116D02*
G01X27815Y11847D01*
G01X27797Y11793D01*
G01X27761Y11758D01*
G01X27708Y11740D01*
G01X27672Y11740D01*
G01X27618Y11758D01*
G01X27582Y11793D01*
G01X27564Y11847D01*
G01X27564Y12116D01*
G01X27178Y12026D02*
G01X27196Y12062D01*
G01X27232Y12098D01*
G01X27267Y12116D01*
G01X27339Y12116D01*
G01X27375Y12098D01*
G01X27411Y12062D01*
G01X27428Y12026D01*
G01X27446Y11972D01*
G01X27446Y11883D01*
G01X27428Y11829D01*
G01X27411Y11793D01*
G01X27375Y11758D01*
G01X27339Y11740D01*
G01X27267Y11740D01*
G01X27232Y11758D01*
G01X27196Y11793D01*
G01X27178Y11829D01*
G01X27178Y11883D01*
G01X27267Y11883D02*
G01X27178Y11883D01*
G01X27060Y12116D02*
G01X27060Y11740D01*
G01X27060Y12116D02*
G01X26899Y12116D01*
G01X26845Y12098D01*
G01X26827Y12080D01*
G01X26809Y12044D01*
G01X26809Y12008D01*
G01X26827Y11972D01*
G01X26845Y11955D01*
G01X26899Y11937D01*
G01X27060Y11937D02*
G01X26899Y11937D01*
G01X26845Y11919D01*
G01X26827Y11901D01*
G01X26809Y11865D01*
G01X26809Y11811D01*
G01X26827Y11776D01*
G01X26845Y11758D01*
G01X26899Y11740D01*
G01X27060Y11740D01*
G01X26584Y12116D02*
G01X26620Y12098D01*
G01X26655Y12062D01*
G01X26673Y12026D01*
G01X26691Y11972D01*
G01X26691Y11883D01*
G01X26673Y11829D01*
G01X26655Y11793D01*
G01X26620Y11758D01*
G01X26584Y11740D01*
G01X26512Y11740D01*
G01X26476Y11758D01*
G01X26441Y11793D01*
G01X26423Y11829D01*
G01X26405Y11883D01*
G01X26405Y11972D01*
G01X26423Y12026D01*
G01X26441Y12062D01*
G01X26476Y12098D01*
G01X26512Y12116D01*
G01X26584Y12116D01*
G01X26144Y12116D02*
G01X26287Y11740D01*
G01X26144Y12116D02*
G01X26000Y11740D01*
G01X26233Y11865D02*
G01X26054Y11865D01*
G01X25882Y12116D02*
G01X25882Y11740D01*
G01X25882Y12116D02*
G01X25721Y12116D01*
G01X25668Y12098D01*
G01X25650Y12080D01*
G01X25632Y12044D01*
G01X25632Y12008D01*
G01X25650Y11972D01*
G01X25668Y11955D01*
G01X25721Y11937D01*
G01X25882Y11937D01*
G01X25757Y11937D02*
G01X25632Y11740D01*
G01X25514Y12116D02*
G01X25514Y11740D01*
G01X25514Y12116D02*
G01X25388Y12116D01*
G01X25335Y12098D01*
G01X25299Y12062D01*
G01X25281Y12026D01*
G01X25263Y11972D01*
G01X25263Y11883D01*
G01X25281Y11829D01*
G01X25299Y11793D01*
G01X25335Y11758D01*
G01X25388Y11740D01*
G01X25514Y11740D01*
G01X24601Y12026D02*
G01X24619Y12062D01*
G01X24655Y12098D01*
G01X24690Y12116D01*
G01X24762Y12116D01*
G01X24798Y12098D01*
G01X24834Y12062D01*
G01X24852Y12026D01*
G01X24869Y11972D01*
G01X24869Y11883D01*
G01X24852Y11829D01*
G01X24834Y11793D01*
G01X24798Y11758D01*
G01X24762Y11740D01*
G01X24690Y11740D01*
G01X24655Y11758D01*
G01X24619Y11793D01*
G01X24601Y11829D01*
G01X24375Y12116D02*
G01X24411Y12098D01*
G01X24447Y12062D01*
G01X24465Y12026D01*
G01X24483Y11972D01*
G01X24483Y11883D01*
G01X24465Y11829D01*
G01X24447Y11793D01*
G01X24411Y11758D01*
G01X24375Y11740D01*
G01X24304Y11740D01*
G01X24268Y11758D01*
G01X24232Y11793D01*
G01X24214Y11829D01*
G01X24197Y11883D01*
G01X24197Y11972D01*
G01X24214Y12026D01*
G01X24232Y12062D01*
G01X24268Y12098D01*
G01X24304Y12116D01*
G01X24375Y12116D01*
G01X24078Y12116D02*
G01X24078Y11740D01*
G01X24078Y11740D02*
G01X23864Y11740D01*
G01X23746Y12116D02*
G01X23746Y11847D01*
G01X23728Y11793D01*
G01X23692Y11758D01*
G01X23638Y11740D01*
G01X23602Y11740D01*
G01X23549Y11758D01*
G01X23513Y11793D01*
G01X23495Y11847D01*
G01X23495Y12116D01*
G01X23377Y12116D02*
G01X23377Y11740D01*
G01X23377Y12116D02*
G01X23234Y11740D01*
G01X23091Y12116D02*
G01X23234Y11740D01*
G01X23091Y12116D02*
G01X23091Y11740D01*
G01X22972Y12116D02*
G01X22972Y11740D01*
G01X22972Y12116D02*
G01X22722Y11740D01*
G01X22722Y12116D02*
G01X22722Y11740D01*
G01X22353Y12062D02*
G01X22389Y12098D01*
G01X22443Y12116D01*
G01X22514Y12116D01*
G01X22568Y12098D01*
G01X22604Y12062D01*
G01X22604Y12026D01*
G01X22586Y11990D01*
G01X22568Y11972D01*
G01X22532Y11955D01*
G01X22425Y11919D01*
G01X22389Y11901D01*
G01X22371Y11883D01*
G01X22353Y11847D01*
G01X22353Y11793D01*
G01X22389Y11758D01*
G01X22443Y11740D01*
G01X22514Y11740D01*
G01X22568Y11758D01*
G01X22604Y11793D01*
M00*
M02*
