G04 Layer: BoardOutline*
G04 EasyEDA v6.3.43, 2020-05-25T11:21:51+02:00*
G04 b2f46ff1345c4209a88c0a1db2e3f32b,10*
G04 Gerber Generator version 0.2*
G04 Scale: 100 percent, Rotated: No, Reflected: No *
G04 Dimensions in inches *
G04 leading zeros omitted , absolute positions ,2 integer and 4 decimal *
%FSLAX24Y24*%
%MOIN*%
G90*
G70D02*

%ADD10C,0.010000*%
G54D10*
G01X234Y42187D02*
G01X4921Y42187D01*
G01X5156Y45234D02*
G01X5156Y42421D01*
G01X5390Y34453D02*
G01X234Y34453D01*
G01X234Y30703D02*
G01X4921Y30703D01*
G01X5156Y33750D02*
G01X5156Y30937D01*
G01X5390Y22968D02*
G01X234Y22968D01*
G01X234Y19218D02*
G01X4921Y19218D01*
G01X5156Y22265D02*
G01X5156Y19453D01*
G01X69843Y45468D02*
G01X5390Y45468D01*
G01X7500Y34453D02*
G01X67734Y34453D01*
G01X70078Y34687D02*
G01X70078Y45234D01*
G01X0Y41953D02*
G01X0Y34687D01*
G01X67734Y33984D02*
G01X7500Y33984D01*
G01X7500Y22968D02*
G01X67734Y22968D01*
G01X70078Y23203D02*
G01X70078Y33750D01*
G01X0Y30468D02*
G01X0Y23203D01*
G01X67734Y22500D02*
G01X7500Y22500D01*
G01X2343Y11484D02*
G01X67734Y11484D01*
G01X70078Y11718D02*
G01X70078Y22265D01*
G01X0Y18984D02*
G01X0Y11718D01*
G01X0Y10781D02*
G01X0Y234D01*
G01X70078Y234D02*
G01X70078Y10781D01*
G01X234Y0D02*
G01X69843Y0D01*
G01X67734Y11015D02*
G01X2343Y11015D01*
G75*
G01X234Y42188D02*
G03X0Y41953I0J-235D01*
G01*
G75*
G01X5391Y45469D02*
G03X5156Y45234I0J-235D01*
G01*
G75*
G01X4922Y42188D02*
G03X5156Y42422I0J234D01*
G01*
G75*
G01X234Y30703D02*
G03X0Y30469I0J-234D01*
G01*
G75*
G01X5391Y33984D02*
G03X5156Y33750I0J-234D01*
G01*
G75*
G01X4922Y30703D02*
G03X5156Y30938I0J235D01*
G01*
G75*
G01X6797Y33984D02*
G03X6797Y34453I-5J235D01*
G01*
G75*
G01X7500Y34453D02*
G03X7500Y33984I5J-234D01*
G01*
G75*
G01X6797Y34453D02*
G03X6797Y33984I5J-234D01*
G01*
G75*
G01X6094Y34453D02*
G03X6094Y33984I5J-234D01*
G01*
G75*
G01X6094Y33984D02*
G03X6094Y34453I-5J235D01*
G01*
G75*
G01X5391Y33984D02*
G03X5391Y34453I-5J235D01*
G01*
G75*
G01X234Y19219D02*
G03X0Y18984I0J-235D01*
G01*
G75*
G01X4922Y19219D02*
G03X5156Y19453I0J234D01*
G01*
G75*
G01X5391Y22500D02*
G03X5156Y22266I0J-234D01*
G01*
G75*
G01X0Y34688D02*
G03X234Y34453I234J0D01*
G01*
G75*
G01X69844Y34453D02*
G03X70078Y34688I0J235D01*
G01*
G75*
G01X70078Y45234D02*
G03X69844Y45469I-234J0D01*
G01*
G75*
G01X69141Y34453D02*
G03X69141Y33984I4J-234D01*
G01*
G75*
G01X0Y23203D02*
G03X234Y22969I234J0D01*
G01*
G75*
G01X69844Y34453D02*
G03X69844Y33984I5J-234D01*
G01*
G75*
G01X67734Y33984D02*
G03X67734Y34453I-5J235D01*
G01*
G75*
G01X69844Y22969D02*
G03X70078Y23203I0J234D01*
G01*
G75*
G01X68437Y34453D02*
G03X68437Y33984I5J-234D01*
G01*
G75*
G01X70078Y33750D02*
G03X69844Y33984I-234J0D01*
G01*
G75*
G01X68437Y33984D02*
G03X68437Y34453I-4J235D01*
G01*
G75*
G01X69141Y33984D02*
G03X69141Y34453I-5J235D01*
G01*
G75*
G01X69141Y22969D02*
G03X69141Y22500I4J-235D01*
G01*
G75*
G01X0Y11719D02*
G03X234Y11484I234J0D01*
G01*
G75*
G01X6094Y22500D02*
G03X6094Y22969I-5J234D01*
G01*
G75*
G01X69844Y22969D02*
G03X69844Y22500I5J-235D01*
G01*
G75*
G01X6797Y22969D02*
G03X6797Y22500I5J-235D01*
G01*
G75*
G01X67734Y22500D02*
G03X67734Y22969I-5J234D01*
G01*
G75*
G01X69844Y11484D02*
G03X70078Y11719I0J235D01*
G01*
G75*
G01X68437Y22969D02*
G03X68437Y22500I5J-235D01*
G01*
G75*
G01X7500Y22969D02*
G03X7500Y22500I5J-235D01*
G01*
G75*
G01X6797Y22500D02*
G03X6797Y22969I-5J234D01*
G01*
G75*
G01X6094Y22969D02*
G03X6094Y22500I5J-235D01*
G01*
G75*
G01X70078Y22266D02*
G03X69844Y22500I-234J0D01*
G01*
G75*
G01X68437Y22500D02*
G03X68437Y22969I-4J234D01*
G01*
G75*
G01X69141Y22500D02*
G03X69141Y22969I-5J234D01*
G01*
G75*
G01X5391Y22500D02*
G03X5391Y22969I-5J234D01*
G01*
G75*
G01X234Y11016D02*
G03X234Y11484I0J234D01*
G01*
G75*
G01X69141Y11016D02*
G03X69141Y11484I0J234D01*
G01*
G75*
G01X68437Y11016D02*
G03X68437Y11484I0J234D01*
G01*
G75*
G01X70078Y10781D02*
G03X69844Y11016I-234J0D01*
G01*
G75*
G01X938Y11484D02*
G03X938Y11016I0J-234D01*
G01*
G75*
G01X1641Y11016D02*
G03X1641Y11484I0J234D01*
G01*
G75*
G01X2344Y11484D02*
G03X2344Y11016I0J-234D01*
G01*
G75*
G01X68437Y11484D02*
G03X68437Y11016I0J-234D01*
G01*
G75*
G01X69844Y0D02*
G03X70078Y234I0J234D01*
G01*
G75*
G01X67734Y11016D02*
G03X67734Y11484I0J234D01*
G01*
G75*
G01X1641Y11484D02*
G03X1641Y11016I0J-234D01*
G01*
G75*
G01X234Y11016D02*
G03X0Y10781I0J-235D01*
G01*
G75*
G01X69844Y11484D02*
G03X69844Y11016I0J-234D01*
G01*
G75*
G01X938Y11016D02*
G03X938Y11484I-1J234D01*
G01*
G75*
G01X0Y234D02*
G03X234Y0I234J0D01*
G01*
G75*
G01X69141Y11484D02*
G03X69141Y11016I0J-234D01*
G01*

%LPD*%
M00*
M02*
