G04 Layer: TopSolderMaskLayer*
G04 EasyEDA v6.3.43, 2020-05-25T11:21:51+02:00*
G04 b2f46ff1345c4209a88c0a1db2e3f32b,10*
G04 Gerber Generator version 0.2*
G04 Scale: 100 percent, Rotated: No, Reflected: No *
G04 Dimensions in inches *
G04 leading zeros omitted , absolute positions ,2 integer and 4 decimal *
%FSLAX24Y24*%
%MOIN*%
G90*
G70D02*

%ADD23C,0.070990*%
%ADD25C,0.074930*%
%ADD26C,0.063120*%
%ADD27C,0.181230*%
%ADD28C,0.035560*%

%LPD*%
G36*
G01X1176Y863D02*
G01X1176Y1573D01*
G01X1886Y1573D01*
G01X1886Y863D01*
G01X1176Y863D01*
G37*
G54D23*
G01X2531Y1218D03*
G01X3531Y1218D03*
G01X4531Y1218D03*
G01X5531Y1218D03*
G01X6531Y1218D03*
G01X7531Y1218D03*
G01X8531Y1218D03*
G01X9531Y1218D03*
G01X10531Y1218D03*
G01X11531Y1218D03*
G01X12531Y1218D03*
G01X12531Y7218D03*
G01X11531Y7218D03*
G01X10531Y7218D03*
G01X9531Y7218D03*
G01X8531Y7218D03*
G01X7531Y7218D03*
G01X6531Y7218D03*
G01X5531Y7218D03*
G01X4531Y7218D03*
G01X3531Y7218D03*
G01X2531Y7218D03*
G01X1531Y7218D03*
G36*
G01X65391Y2203D02*
G01X65391Y2952D01*
G01X66140Y2952D01*
G01X66140Y2203D01*
G01X65391Y2203D01*
G37*
G54D25*
G01X64765Y2578D03*
G01X63765Y2578D03*
G01X62765Y2578D03*
G01X61765Y2578D03*
G01X60765Y2578D03*
G01X59765Y2578D03*
G01X58765Y2578D03*
G01X57765Y2578D03*
G01X56765Y2578D03*
G01X55765Y2578D03*
G01X54765Y2578D03*
G36*
G01X14063Y797D02*
G01X14063Y1546D01*
G01X14812Y1546D01*
G01X14812Y797D01*
G01X14063Y797D01*
G37*
G01X15437Y1171D03*
G01X16437Y1171D03*
G01X17437Y1171D03*
G01X18437Y1171D03*
G01X19437Y1171D03*
G01X20437Y1171D03*
G01X21437Y1171D03*
G01X22437Y1171D03*
G01X23437Y1171D03*
G01X24437Y1171D03*
G01X25437Y1171D03*
G01X26437Y1171D03*
G01X27437Y1171D03*
G01X28437Y1171D03*
G01X29437Y1171D03*
G01X30437Y1171D03*
G01X31437Y1171D03*
G01X32437Y1171D03*
G01X33437Y1171D03*
G01X34437Y1171D03*
G01X35437Y1171D03*
G01X36437Y1171D03*
G01X37437Y1171D03*
G01X38437Y1171D03*
G01X39437Y1171D03*
G01X40437Y1171D03*
G36*
G01X12522Y29779D02*
G01X12468Y29786D01*
G01X12416Y29799D01*
G01X12365Y29819D01*
G01X12317Y29845D01*
G01X12273Y29877D01*
G01X12233Y29915D01*
G01X12199Y29957D01*
G01X12170Y30003D01*
G01X12146Y30052D01*
G01X12129Y30104D01*
G01X12119Y30157D01*
G01X12116Y30210D01*
G01X12116Y30410D01*
G01X12119Y30463D01*
G01X12129Y30516D01*
G01X12146Y30568D01*
G01X12170Y30618D01*
G01X12199Y30663D01*
G01X12233Y30705D01*
G01X12273Y30743D01*
G01X12317Y30775D01*
G01X12365Y30801D01*
G01X12416Y30821D01*
G01X12468Y30835D01*
G01X12522Y30841D01*
G01X12577Y30841D01*
G01X12631Y30835D01*
G01X12684Y30821D01*
G01X12734Y30801D01*
G01X12782Y30775D01*
G01X12826Y30743D01*
G01X12866Y30705D01*
G01X12901Y30663D01*
G01X12930Y30617D01*
G01X12953Y30568D01*
G01X12970Y30516D01*
G01X12980Y30463D01*
G01X12983Y30410D01*
G01X12983Y30210D01*
G01X12980Y30157D01*
G01X12970Y30104D01*
G01X12953Y30052D01*
G01X12930Y30003D01*
G01X12901Y29957D01*
G01X12866Y29915D01*
G01X12826Y29877D01*
G01X12782Y29845D01*
G01X12734Y29819D01*
G01X12684Y29799D01*
G01X12631Y29786D01*
G01X12577Y29779D01*
G01X12522Y29779D01*
G37*
G36*
G01X12522Y28220D02*
G01X12468Y28227D01*
G01X12416Y28240D01*
G01X12365Y28260D01*
G01X12317Y28286D01*
G01X12273Y28318D01*
G01X12233Y28356D01*
G01X12199Y28398D01*
G01X12170Y28444D01*
G01X12146Y28493D01*
G01X12129Y28545D01*
G01X12119Y28598D01*
G01X12116Y28651D01*
G01X12116Y28851D01*
G01X12119Y28904D01*
G01X12129Y28957D01*
G01X12146Y29009D01*
G01X12170Y29058D01*
G01X12199Y29104D01*
G01X12233Y29146D01*
G01X12273Y29184D01*
G01X12317Y29216D01*
G01X12365Y29242D01*
G01X12416Y29262D01*
G01X12468Y29276D01*
G01X12522Y29282D01*
G01X12577Y29282D01*
G01X12631Y29276D01*
G01X12684Y29262D01*
G01X12734Y29242D01*
G01X12782Y29216D01*
G01X12826Y29184D01*
G01X12866Y29146D01*
G01X12901Y29104D01*
G01X12930Y29058D01*
G01X12953Y29009D01*
G01X12970Y28957D01*
G01X12980Y28904D01*
G01X12983Y28851D01*
G01X12983Y28651D01*
G01X12980Y28598D01*
G01X12970Y28545D01*
G01X12953Y28493D01*
G01X12930Y28444D01*
G01X12901Y28398D01*
G01X12866Y28356D01*
G01X12826Y28318D01*
G01X12782Y28286D01*
G01X12734Y28260D01*
G01X12684Y28240D01*
G01X12631Y28227D01*
G01X12577Y28220D01*
G01X12522Y28220D01*
G37*
G36*
G01X14081Y29779D02*
G01X14027Y29786D01*
G01X13975Y29799D01*
G01X13924Y29819D01*
G01X13876Y29845D01*
G01X13832Y29877D01*
G01X13792Y29915D01*
G01X13758Y29957D01*
G01X13729Y30003D01*
G01X13705Y30052D01*
G01X13689Y30104D01*
G01X13678Y30157D01*
G01X13675Y30210D01*
G01X13675Y30410D01*
G01X13678Y30463D01*
G01X13689Y30516D01*
G01X13705Y30568D01*
G01X13729Y30617D01*
G01X13758Y30663D01*
G01X13792Y30705D01*
G01X13832Y30743D01*
G01X13876Y30775D01*
G01X13924Y30801D01*
G01X13975Y30821D01*
G01X14027Y30835D01*
G01X14081Y30841D01*
G01X14136Y30841D01*
G01X14190Y30835D01*
G01X14243Y30821D01*
G01X14293Y30801D01*
G01X14341Y30775D01*
G01X14385Y30743D01*
G01X14425Y30705D01*
G01X14460Y30663D01*
G01X14489Y30618D01*
G01X14512Y30568D01*
G01X14529Y30516D01*
G01X14539Y30463D01*
G01X14542Y30410D01*
G01X14542Y30210D01*
G01X14539Y30157D01*
G01X14529Y30104D01*
G01X14512Y30052D01*
G01X14489Y30003D01*
G01X14460Y29957D01*
G01X14425Y29915D01*
G01X14385Y29877D01*
G01X14341Y29845D01*
G01X14293Y29819D01*
G01X14243Y29799D01*
G01X14190Y29786D01*
G01X14136Y29779D01*
G01X14081Y29779D01*
G37*
G36*
G01X14081Y28220D02*
G01X14027Y28227D01*
G01X13975Y28240D01*
G01X13924Y28260D01*
G01X13876Y28286D01*
G01X13832Y28318D01*
G01X13792Y28356D01*
G01X13758Y28398D01*
G01X13729Y28444D01*
G01X13705Y28493D01*
G01X13689Y28545D01*
G01X13678Y28598D01*
G01X13675Y28651D01*
G01X13675Y28851D01*
G01X13678Y28904D01*
G01X13689Y28957D01*
G01X13705Y29009D01*
G01X13729Y29058D01*
G01X13758Y29104D01*
G01X13792Y29146D01*
G01X13832Y29184D01*
G01X13876Y29216D01*
G01X13924Y29242D01*
G01X13975Y29262D01*
G01X14027Y29276D01*
G01X14081Y29282D01*
G01X14136Y29282D01*
G01X14190Y29276D01*
G01X14243Y29262D01*
G01X14293Y29242D01*
G01X14341Y29216D01*
G01X14385Y29184D01*
G01X14425Y29146D01*
G01X14460Y29104D01*
G01X14489Y29058D01*
G01X14512Y29009D01*
G01X14529Y28957D01*
G01X14539Y28904D01*
G01X14542Y28851D01*
G01X14542Y28651D01*
G01X14539Y28598D01*
G01X14529Y28545D01*
G01X14512Y28493D01*
G01X14489Y28444D01*
G01X14460Y28398D01*
G01X14425Y28356D01*
G01X14385Y28318D01*
G01X14341Y28286D01*
G01X14293Y28260D01*
G01X14243Y28240D01*
G01X14190Y28227D01*
G01X14136Y28220D01*
G01X14081Y28220D01*
G37*
G36*
G01X15641Y29779D02*
G01X15586Y29786D01*
G01X15534Y29799D01*
G01X15483Y29819D01*
G01X15435Y29845D01*
G01X15391Y29877D01*
G01X15352Y29915D01*
G01X15317Y29957D01*
G01X15288Y30003D01*
G01X15264Y30052D01*
G01X15248Y30104D01*
G01X15237Y30157D01*
G01X15234Y30210D01*
G01X15234Y30410D01*
G01X15237Y30463D01*
G01X15248Y30516D01*
G01X15264Y30568D01*
G01X15288Y30618D01*
G01X15317Y30663D01*
G01X15352Y30705D01*
G01X15391Y30743D01*
G01X15435Y30775D01*
G01X15483Y30801D01*
G01X15534Y30821D01*
G01X15586Y30835D01*
G01X15641Y30841D01*
G01X15695Y30841D01*
G01X15749Y30835D01*
G01X15802Y30821D01*
G01X15852Y30801D01*
G01X15900Y30775D01*
G01X15944Y30743D01*
G01X15984Y30705D01*
G01X16019Y30663D01*
G01X16048Y30617D01*
G01X16071Y30568D01*
G01X16088Y30516D01*
G01X16098Y30463D01*
G01X16102Y30410D01*
G01X16102Y30210D01*
G01X16098Y30157D01*
G01X16088Y30104D01*
G01X16071Y30052D01*
G01X16048Y30003D01*
G01X16019Y29957D01*
G01X15984Y29915D01*
G01X15944Y29877D01*
G01X15900Y29845D01*
G01X15852Y29819D01*
G01X15802Y29799D01*
G01X15749Y29786D01*
G01X15695Y29779D01*
G01X15641Y29779D01*
G37*
G36*
G01X15641Y28220D02*
G01X15586Y28227D01*
G01X15534Y28240D01*
G01X15483Y28260D01*
G01X15435Y28286D01*
G01X15391Y28318D01*
G01X15352Y28356D01*
G01X15317Y28398D01*
G01X15288Y28444D01*
G01X15264Y28493D01*
G01X15248Y28545D01*
G01X15237Y28598D01*
G01X15234Y28651D01*
G01X15234Y28851D01*
G01X15237Y28904D01*
G01X15248Y28957D01*
G01X15264Y29009D01*
G01X15288Y29058D01*
G01X15317Y29104D01*
G01X15352Y29146D01*
G01X15391Y29184D01*
G01X15435Y29216D01*
G01X15483Y29242D01*
G01X15534Y29262D01*
G01X15586Y29276D01*
G01X15641Y29282D01*
G01X15695Y29282D01*
G01X15749Y29276D01*
G01X15802Y29262D01*
G01X15852Y29242D01*
G01X15900Y29216D01*
G01X15944Y29184D01*
G01X15984Y29146D01*
G01X16019Y29104D01*
G01X16048Y29058D01*
G01X16071Y29009D01*
G01X16088Y28957D01*
G01X16098Y28904D01*
G01X16102Y28851D01*
G01X16102Y28651D01*
G01X16098Y28598D01*
G01X16088Y28545D01*
G01X16071Y28493D01*
G01X16048Y28444D01*
G01X16019Y28398D01*
G01X15984Y28356D01*
G01X15944Y28318D01*
G01X15900Y28286D01*
G01X15852Y28260D01*
G01X15802Y28240D01*
G01X15749Y28227D01*
G01X15695Y28220D01*
G01X15641Y28220D01*
G37*
G36*
G01X17200Y29779D02*
G01X17146Y29786D01*
G01X17093Y29799D01*
G01X17042Y29819D01*
G01X16994Y29845D01*
G01X16950Y29877D01*
G01X16911Y29915D01*
G01X16876Y29957D01*
G01X16847Y30003D01*
G01X16824Y30052D01*
G01X16807Y30104D01*
G01X16796Y30157D01*
G01X16793Y30210D01*
G01X16793Y30410D01*
G01X16796Y30463D01*
G01X16807Y30516D01*
G01X16824Y30568D01*
G01X16847Y30617D01*
G01X16876Y30663D01*
G01X16911Y30705D01*
G01X16950Y30743D01*
G01X16994Y30775D01*
G01X17042Y30801D01*
G01X17093Y30821D01*
G01X17146Y30835D01*
G01X17200Y30841D01*
G01X17254Y30841D01*
G01X17308Y30835D01*
G01X17361Y30821D01*
G01X17412Y30801D01*
G01X17459Y30775D01*
G01X17503Y30743D01*
G01X17543Y30705D01*
G01X17578Y30663D01*
G01X17607Y30618D01*
G01X17630Y30568D01*
G01X17647Y30516D01*
G01X17657Y30463D01*
G01X17661Y30410D01*
G01X17661Y30210D01*
G01X17657Y30157D01*
G01X17647Y30104D01*
G01X17630Y30052D01*
G01X17607Y30003D01*
G01X17578Y29957D01*
G01X17543Y29915D01*
G01X17503Y29877D01*
G01X17459Y29845D01*
G01X17412Y29819D01*
G01X17361Y29799D01*
G01X17308Y29786D01*
G01X17254Y29779D01*
G01X17200Y29779D01*
G37*
G36*
G01X17200Y28220D02*
G01X17146Y28227D01*
G01X17093Y28240D01*
G01X17042Y28260D01*
G01X16994Y28286D01*
G01X16950Y28318D01*
G01X16911Y28356D01*
G01X16876Y28398D01*
G01X16847Y28444D01*
G01X16824Y28493D01*
G01X16807Y28545D01*
G01X16796Y28598D01*
G01X16793Y28651D01*
G01X16793Y28851D01*
G01X16796Y28904D01*
G01X16807Y28957D01*
G01X16824Y29009D01*
G01X16847Y29058D01*
G01X16876Y29104D01*
G01X16911Y29146D01*
G01X16950Y29184D01*
G01X16994Y29216D01*
G01X17042Y29242D01*
G01X17093Y29262D01*
G01X17146Y29276D01*
G01X17200Y29282D01*
G01X17254Y29282D01*
G01X17308Y29276D01*
G01X17361Y29262D01*
G01X17412Y29242D01*
G01X17459Y29216D01*
G01X17503Y29184D01*
G01X17543Y29146D01*
G01X17578Y29104D01*
G01X17607Y29058D01*
G01X17630Y29009D01*
G01X17647Y28957D01*
G01X17657Y28904D01*
G01X17661Y28851D01*
G01X17661Y28651D01*
G01X17657Y28598D01*
G01X17647Y28545D01*
G01X17630Y28493D01*
G01X17607Y28444D01*
G01X17578Y28398D01*
G01X17543Y28356D01*
G01X17503Y28318D01*
G01X17459Y28286D01*
G01X17412Y28260D01*
G01X17361Y28240D01*
G01X17308Y28227D01*
G01X17254Y28220D01*
G01X17200Y28220D01*
G37*
G36*
G01X18759Y29779D02*
G01X18705Y29786D01*
G01X18652Y29799D01*
G01X18601Y29819D01*
G01X18553Y29845D01*
G01X18509Y29877D01*
G01X18470Y29915D01*
G01X18435Y29957D01*
G01X18406Y30003D01*
G01X18383Y30052D01*
G01X18366Y30104D01*
G01X18356Y30157D01*
G01X18352Y30210D01*
G01X18352Y30410D01*
G01X18356Y30463D01*
G01X18366Y30516D01*
G01X18383Y30568D01*
G01X18406Y30618D01*
G01X18435Y30663D01*
G01X18470Y30705D01*
G01X18509Y30743D01*
G01X18553Y30775D01*
G01X18601Y30801D01*
G01X18652Y30821D01*
G01X18705Y30835D01*
G01X18759Y30841D01*
G01X18813Y30841D01*
G01X18867Y30835D01*
G01X18920Y30821D01*
G01X18971Y30801D01*
G01X19018Y30775D01*
G01X19062Y30743D01*
G01X19102Y30705D01*
G01X19137Y30663D01*
G01X19166Y30617D01*
G01X19189Y30568D01*
G01X19206Y30516D01*
G01X19216Y30463D01*
G01X19220Y30410D01*
G01X19220Y30210D01*
G01X19216Y30157D01*
G01X19206Y30104D01*
G01X19189Y30052D01*
G01X19166Y30003D01*
G01X19137Y29957D01*
G01X19102Y29915D01*
G01X19062Y29877D01*
G01X19018Y29845D01*
G01X18971Y29819D01*
G01X18920Y29799D01*
G01X18867Y29786D01*
G01X18813Y29779D01*
G01X18759Y29779D01*
G37*
G36*
G01X18759Y28220D02*
G01X18705Y28227D01*
G01X18652Y28240D01*
G01X18601Y28260D01*
G01X18553Y28286D01*
G01X18509Y28318D01*
G01X18470Y28356D01*
G01X18435Y28398D01*
G01X18406Y28444D01*
G01X18383Y28493D01*
G01X18366Y28545D01*
G01X18356Y28598D01*
G01X18352Y28651D01*
G01X18352Y28851D01*
G01X18356Y28904D01*
G01X18366Y28957D01*
G01X18383Y29009D01*
G01X18406Y29058D01*
G01X18435Y29104D01*
G01X18470Y29146D01*
G01X18509Y29184D01*
G01X18553Y29216D01*
G01X18601Y29242D01*
G01X18652Y29262D01*
G01X18705Y29276D01*
G01X18759Y29282D01*
G01X18813Y29282D01*
G01X18867Y29276D01*
G01X18920Y29262D01*
G01X18971Y29242D01*
G01X19018Y29216D01*
G01X19062Y29184D01*
G01X19102Y29146D01*
G01X19137Y29104D01*
G01X19166Y29058D01*
G01X19189Y29009D01*
G01X19206Y28957D01*
G01X19216Y28904D01*
G01X19220Y28851D01*
G01X19220Y28651D01*
G01X19216Y28598D01*
G01X19206Y28545D01*
G01X19189Y28493D01*
G01X19166Y28444D01*
G01X19137Y28398D01*
G01X19102Y28356D01*
G01X19062Y28318D01*
G01X19018Y28286D01*
G01X18971Y28260D01*
G01X18920Y28240D01*
G01X18867Y28227D01*
G01X18813Y28220D01*
G01X18759Y28220D01*
G37*
G36*
G01X20318Y29779D02*
G01X20264Y29786D01*
G01X20211Y29799D01*
G01X20160Y29819D01*
G01X20113Y29845D01*
G01X20068Y29877D01*
G01X20029Y29915D01*
G01X19994Y29957D01*
G01X19965Y30003D01*
G01X19942Y30052D01*
G01X19925Y30104D01*
G01X19915Y30157D01*
G01X19911Y30210D01*
G01X19911Y30410D01*
G01X19915Y30463D01*
G01X19925Y30516D01*
G01X19942Y30568D01*
G01X19965Y30617D01*
G01X19994Y30663D01*
G01X20029Y30705D01*
G01X20068Y30743D01*
G01X20113Y30775D01*
G01X20160Y30801D01*
G01X20211Y30821D01*
G01X20264Y30835D01*
G01X20318Y30841D01*
G01X20372Y30841D01*
G01X20426Y30835D01*
G01X20479Y30821D01*
G01X20530Y30801D01*
G01X20577Y30775D01*
G01X20621Y30743D01*
G01X20661Y30705D01*
G01X20696Y30663D01*
G01X20725Y30617D01*
G01X20748Y30568D01*
G01X20765Y30516D01*
G01X20775Y30463D01*
G01X20779Y30410D01*
G01X20779Y30210D01*
G01X20775Y30157D01*
G01X20765Y30104D01*
G01X20748Y30052D01*
G01X20725Y30003D01*
G01X20696Y29957D01*
G01X20661Y29915D01*
G01X20621Y29877D01*
G01X20577Y29845D01*
G01X20530Y29819D01*
G01X20479Y29799D01*
G01X20426Y29786D01*
G01X20372Y29779D01*
G01X20318Y29779D01*
G37*
G36*
G01X20318Y28220D02*
G01X20264Y28227D01*
G01X20211Y28240D01*
G01X20160Y28260D01*
G01X20113Y28286D01*
G01X20068Y28318D01*
G01X20029Y28356D01*
G01X19994Y28398D01*
G01X19965Y28444D01*
G01X19942Y28493D01*
G01X19925Y28545D01*
G01X19915Y28598D01*
G01X19911Y28651D01*
G01X19911Y28851D01*
G01X19915Y28904D01*
G01X19925Y28957D01*
G01X19942Y29009D01*
G01X19965Y29058D01*
G01X19994Y29104D01*
G01X20029Y29146D01*
G01X20068Y29184D01*
G01X20113Y29216D01*
G01X20160Y29242D01*
G01X20211Y29262D01*
G01X20264Y29276D01*
G01X20318Y29282D01*
G01X20372Y29282D01*
G01X20426Y29276D01*
G01X20479Y29262D01*
G01X20530Y29242D01*
G01X20577Y29216D01*
G01X20621Y29184D01*
G01X20661Y29146D01*
G01X20696Y29104D01*
G01X20725Y29058D01*
G01X20748Y29009D01*
G01X20765Y28957D01*
G01X20775Y28904D01*
G01X20779Y28851D01*
G01X20779Y28651D01*
G01X20775Y28598D01*
G01X20765Y28545D01*
G01X20748Y28493D01*
G01X20725Y28444D01*
G01X20696Y28398D01*
G01X20661Y28356D01*
G01X20621Y28318D01*
G01X20577Y28286D01*
G01X20530Y28260D01*
G01X20479Y28240D01*
G01X20426Y28227D01*
G01X20372Y28220D01*
G01X20318Y28220D01*
G37*
G36*
G01X21877Y29779D02*
G01X21823Y29786D01*
G01X21770Y29799D01*
G01X21719Y29819D01*
G01X21672Y29845D01*
G01X21627Y29877D01*
G01X21588Y29915D01*
G01X21553Y29957D01*
G01X21524Y30003D01*
G01X21501Y30052D01*
G01X21484Y30104D01*
G01X21474Y30157D01*
G01X21470Y30210D01*
G01X21470Y30410D01*
G01X21474Y30463D01*
G01X21484Y30516D01*
G01X21501Y30568D01*
G01X21524Y30618D01*
G01X21553Y30663D01*
G01X21588Y30705D01*
G01X21627Y30743D01*
G01X21672Y30775D01*
G01X21719Y30801D01*
G01X21770Y30821D01*
G01X21823Y30835D01*
G01X21877Y30841D01*
G01X21931Y30841D01*
G01X21985Y30835D01*
G01X22038Y30821D01*
G01X22089Y30801D01*
G01X22136Y30775D01*
G01X22180Y30743D01*
G01X22220Y30705D01*
G01X22255Y30663D01*
G01X22284Y30617D01*
G01X22307Y30568D01*
G01X22324Y30516D01*
G01X22334Y30463D01*
G01X22338Y30410D01*
G01X22338Y30210D01*
G01X22334Y30157D01*
G01X22324Y30104D01*
G01X22307Y30052D01*
G01X22284Y30003D01*
G01X22255Y29957D01*
G01X22220Y29915D01*
G01X22180Y29877D01*
G01X22136Y29845D01*
G01X22089Y29819D01*
G01X22038Y29799D01*
G01X21985Y29786D01*
G01X21931Y29779D01*
G01X21877Y29779D01*
G37*
G36*
G01X21877Y28220D02*
G01X21823Y28227D01*
G01X21770Y28240D01*
G01X21719Y28260D01*
G01X21672Y28286D01*
G01X21627Y28318D01*
G01X21588Y28356D01*
G01X21553Y28398D01*
G01X21524Y28444D01*
G01X21501Y28493D01*
G01X21484Y28545D01*
G01X21474Y28598D01*
G01X21470Y28651D01*
G01X21470Y28851D01*
G01X21474Y28904D01*
G01X21484Y28957D01*
G01X21501Y29009D01*
G01X21524Y29058D01*
G01X21553Y29104D01*
G01X21588Y29146D01*
G01X21627Y29184D01*
G01X21672Y29216D01*
G01X21719Y29242D01*
G01X21770Y29262D01*
G01X21823Y29276D01*
G01X21877Y29282D01*
G01X21931Y29282D01*
G01X21985Y29276D01*
G01X22038Y29262D01*
G01X22089Y29242D01*
G01X22136Y29216D01*
G01X22180Y29184D01*
G01X22220Y29146D01*
G01X22255Y29104D01*
G01X22284Y29058D01*
G01X22307Y29009D01*
G01X22324Y28957D01*
G01X22334Y28904D01*
G01X22338Y28851D01*
G01X22338Y28651D01*
G01X22334Y28598D01*
G01X22324Y28545D01*
G01X22307Y28493D01*
G01X22284Y28444D01*
G01X22255Y28398D01*
G01X22220Y28356D01*
G01X22180Y28318D01*
G01X22136Y28286D01*
G01X22089Y28260D01*
G01X22038Y28240D01*
G01X21985Y28227D01*
G01X21931Y28220D01*
G01X21877Y28220D01*
G37*
G36*
G01X23436Y29779D02*
G01X23382Y29786D01*
G01X23329Y29799D01*
G01X23278Y29819D01*
G01X23231Y29845D01*
G01X23187Y29877D01*
G01X23147Y29915D01*
G01X23112Y29957D01*
G01X23083Y30003D01*
G01X23060Y30052D01*
G01X23043Y30104D01*
G01X23033Y30157D01*
G01X23029Y30210D01*
G01X23029Y30410D01*
G01X23033Y30463D01*
G01X23043Y30516D01*
G01X23060Y30568D01*
G01X23083Y30617D01*
G01X23112Y30663D01*
G01X23147Y30705D01*
G01X23187Y30743D01*
G01X23231Y30775D01*
G01X23278Y30801D01*
G01X23329Y30821D01*
G01X23382Y30835D01*
G01X23436Y30841D01*
G01X23490Y30841D01*
G01X23544Y30835D01*
G01X23597Y30821D01*
G01X23648Y30801D01*
G01X23695Y30775D01*
G01X23740Y30743D01*
G01X23779Y30705D01*
G01X23814Y30663D01*
G01X23843Y30617D01*
G01X23866Y30568D01*
G01X23883Y30516D01*
G01X23893Y30463D01*
G01X23897Y30410D01*
G01X23897Y30210D01*
G01X23893Y30157D01*
G01X23883Y30104D01*
G01X23866Y30052D01*
G01X23843Y30003D01*
G01X23814Y29957D01*
G01X23779Y29915D01*
G01X23740Y29877D01*
G01X23695Y29845D01*
G01X23648Y29819D01*
G01X23597Y29799D01*
G01X23544Y29786D01*
G01X23490Y29779D01*
G01X23436Y29779D01*
G37*
G36*
G01X23436Y28220D02*
G01X23382Y28227D01*
G01X23329Y28240D01*
G01X23278Y28260D01*
G01X23231Y28286D01*
G01X23187Y28318D01*
G01X23147Y28356D01*
G01X23112Y28398D01*
G01X23083Y28444D01*
G01X23060Y28493D01*
G01X23043Y28545D01*
G01X23033Y28598D01*
G01X23029Y28651D01*
G01X23029Y28851D01*
G01X23033Y28904D01*
G01X23043Y28957D01*
G01X23060Y29009D01*
G01X23083Y29058D01*
G01X23112Y29104D01*
G01X23147Y29146D01*
G01X23187Y29184D01*
G01X23231Y29216D01*
G01X23278Y29242D01*
G01X23329Y29262D01*
G01X23382Y29276D01*
G01X23436Y29282D01*
G01X23490Y29282D01*
G01X23544Y29276D01*
G01X23597Y29262D01*
G01X23648Y29242D01*
G01X23695Y29216D01*
G01X23740Y29184D01*
G01X23779Y29146D01*
G01X23814Y29104D01*
G01X23843Y29058D01*
G01X23866Y29009D01*
G01X23883Y28957D01*
G01X23893Y28904D01*
G01X23897Y28851D01*
G01X23897Y28651D01*
G01X23893Y28598D01*
G01X23883Y28545D01*
G01X23866Y28493D01*
G01X23843Y28444D01*
G01X23814Y28398D01*
G01X23779Y28356D01*
G01X23740Y28318D01*
G01X23695Y28286D01*
G01X23648Y28260D01*
G01X23597Y28240D01*
G01X23544Y28227D01*
G01X23490Y28220D01*
G01X23436Y28220D01*
G37*
G36*
G01X24995Y29779D02*
G01X24941Y29786D01*
G01X24888Y29799D01*
G01X24837Y29819D01*
G01X24790Y29845D01*
G01X24746Y29877D01*
G01X24706Y29915D01*
G01X24671Y29957D01*
G01X24642Y30003D01*
G01X24619Y30052D01*
G01X24602Y30104D01*
G01X24592Y30157D01*
G01X24588Y30210D01*
G01X24588Y30410D01*
G01X24592Y30463D01*
G01X24602Y30516D01*
G01X24619Y30568D01*
G01X24642Y30618D01*
G01X24671Y30663D01*
G01X24706Y30705D01*
G01X24746Y30743D01*
G01X24790Y30775D01*
G01X24837Y30801D01*
G01X24888Y30821D01*
G01X24941Y30835D01*
G01X24995Y30841D01*
G01X25049Y30841D01*
G01X25103Y30835D01*
G01X25156Y30821D01*
G01X25207Y30801D01*
G01X25255Y30775D01*
G01X25299Y30743D01*
G01X25338Y30705D01*
G01X25373Y30663D01*
G01X25402Y30617D01*
G01X25425Y30568D01*
G01X25442Y30516D01*
G01X25452Y30463D01*
G01X25456Y30410D01*
G01X25456Y30210D01*
G01X25452Y30157D01*
G01X25442Y30104D01*
G01X25425Y30052D01*
G01X25402Y30003D01*
G01X25373Y29957D01*
G01X25338Y29915D01*
G01X25299Y29877D01*
G01X25255Y29845D01*
G01X25207Y29819D01*
G01X25156Y29799D01*
G01X25103Y29786D01*
G01X25049Y29779D01*
G01X24995Y29779D01*
G37*
G36*
G01X24995Y28220D02*
G01X24941Y28227D01*
G01X24888Y28240D01*
G01X24837Y28260D01*
G01X24790Y28286D01*
G01X24746Y28318D01*
G01X24706Y28356D01*
G01X24671Y28398D01*
G01X24642Y28444D01*
G01X24619Y28493D01*
G01X24602Y28545D01*
G01X24592Y28598D01*
G01X24588Y28651D01*
G01X24588Y28851D01*
G01X24592Y28904D01*
G01X24602Y28957D01*
G01X24619Y29009D01*
G01X24642Y29058D01*
G01X24671Y29104D01*
G01X24706Y29146D01*
G01X24746Y29184D01*
G01X24790Y29216D01*
G01X24837Y29242D01*
G01X24888Y29262D01*
G01X24941Y29276D01*
G01X24995Y29282D01*
G01X25049Y29282D01*
G01X25103Y29276D01*
G01X25156Y29262D01*
G01X25207Y29242D01*
G01X25255Y29216D01*
G01X25299Y29184D01*
G01X25338Y29146D01*
G01X25373Y29104D01*
G01X25402Y29058D01*
G01X25425Y29009D01*
G01X25442Y28957D01*
G01X25452Y28904D01*
G01X25456Y28851D01*
G01X25456Y28651D01*
G01X25452Y28598D01*
G01X25442Y28545D01*
G01X25425Y28493D01*
G01X25402Y28444D01*
G01X25373Y28398D01*
G01X25338Y28356D01*
G01X25299Y28318D01*
G01X25255Y28286D01*
G01X25207Y28260D01*
G01X25156Y28240D01*
G01X25103Y28227D01*
G01X25049Y28220D01*
G01X24995Y28220D01*
G37*
G36*
G01X26554Y29779D02*
G01X26500Y29786D01*
G01X26447Y29799D01*
G01X26396Y29819D01*
G01X26349Y29845D01*
G01X26305Y29877D01*
G01X26265Y29915D01*
G01X26230Y29957D01*
G01X26201Y30003D01*
G01X26178Y30052D01*
G01X26161Y30104D01*
G01X26151Y30157D01*
G01X26147Y30210D01*
G01X26147Y30410D01*
G01X26151Y30463D01*
G01X26161Y30516D01*
G01X26178Y30568D01*
G01X26201Y30617D01*
G01X26230Y30663D01*
G01X26265Y30705D01*
G01X26305Y30743D01*
G01X26349Y30775D01*
G01X26396Y30801D01*
G01X26447Y30821D01*
G01X26500Y30835D01*
G01X26554Y30841D01*
G01X26608Y30841D01*
G01X26662Y30835D01*
G01X26715Y30821D01*
G01X26766Y30801D01*
G01X26814Y30775D01*
G01X26858Y30743D01*
G01X26897Y30705D01*
G01X26932Y30663D01*
G01X26961Y30617D01*
G01X26984Y30568D01*
G01X27001Y30516D01*
G01X27011Y30463D01*
G01X27015Y30410D01*
G01X27015Y30210D01*
G01X27011Y30157D01*
G01X27001Y30104D01*
G01X26984Y30052D01*
G01X26961Y30003D01*
G01X26932Y29957D01*
G01X26897Y29915D01*
G01X26858Y29877D01*
G01X26814Y29845D01*
G01X26766Y29819D01*
G01X26715Y29799D01*
G01X26662Y29786D01*
G01X26608Y29779D01*
G01X26554Y29779D01*
G37*
G36*
G01X26554Y28220D02*
G01X26500Y28227D01*
G01X26447Y28240D01*
G01X26396Y28260D01*
G01X26349Y28286D01*
G01X26305Y28318D01*
G01X26265Y28356D01*
G01X26230Y28398D01*
G01X26201Y28444D01*
G01X26178Y28493D01*
G01X26161Y28545D01*
G01X26151Y28598D01*
G01X26147Y28651D01*
G01X26147Y28851D01*
G01X26151Y28904D01*
G01X26161Y28957D01*
G01X26178Y29009D01*
G01X26201Y29058D01*
G01X26230Y29104D01*
G01X26265Y29146D01*
G01X26305Y29184D01*
G01X26349Y29216D01*
G01X26396Y29242D01*
G01X26447Y29262D01*
G01X26500Y29276D01*
G01X26554Y29282D01*
G01X26608Y29282D01*
G01X26662Y29276D01*
G01X26715Y29262D01*
G01X26766Y29242D01*
G01X26814Y29216D01*
G01X26858Y29184D01*
G01X26897Y29146D01*
G01X26932Y29104D01*
G01X26961Y29058D01*
G01X26984Y29009D01*
G01X27001Y28957D01*
G01X27011Y28904D01*
G01X27015Y28851D01*
G01X27015Y28651D01*
G01X27011Y28598D01*
G01X27001Y28545D01*
G01X26984Y28493D01*
G01X26961Y28444D01*
G01X26932Y28398D01*
G01X26897Y28356D01*
G01X26858Y28318D01*
G01X26814Y28286D01*
G01X26766Y28260D01*
G01X26715Y28240D01*
G01X26662Y28227D01*
G01X26608Y28220D01*
G01X26554Y28220D01*
G37*
G36*
G01X28113Y29779D02*
G01X28059Y29786D01*
G01X28006Y29799D01*
G01X27956Y29819D01*
G01X27908Y29845D01*
G01X27864Y29877D01*
G01X27824Y29915D01*
G01X27789Y29957D01*
G01X27760Y30003D01*
G01X27737Y30052D01*
G01X27720Y30104D01*
G01X27710Y30157D01*
G01X27707Y30210D01*
G01X27707Y30410D01*
G01X27710Y30463D01*
G01X27720Y30516D01*
G01X27737Y30568D01*
G01X27760Y30618D01*
G01X27789Y30663D01*
G01X27824Y30705D01*
G01X27864Y30743D01*
G01X27908Y30775D01*
G01X27956Y30801D01*
G01X28006Y30821D01*
G01X28059Y30835D01*
G01X28113Y30841D01*
G01X28167Y30841D01*
G01X28222Y30835D01*
G01X28274Y30821D01*
G01X28325Y30801D01*
G01X28373Y30775D01*
G01X28417Y30743D01*
G01X28456Y30705D01*
G01X28491Y30663D01*
G01X28520Y30618D01*
G01X28544Y30568D01*
G01X28560Y30516D01*
G01X28571Y30463D01*
G01X28574Y30410D01*
G01X28574Y30210D01*
G01X28571Y30157D01*
G01X28560Y30104D01*
G01X28544Y30052D01*
G01X28520Y30003D01*
G01X28491Y29957D01*
G01X28456Y29915D01*
G01X28417Y29877D01*
G01X28373Y29845D01*
G01X28325Y29819D01*
G01X28274Y29799D01*
G01X28222Y29786D01*
G01X28167Y29779D01*
G01X28113Y29779D01*
G37*
G36*
G01X28113Y28220D02*
G01X28059Y28227D01*
G01X28006Y28240D01*
G01X27956Y28260D01*
G01X27908Y28286D01*
G01X27864Y28318D01*
G01X27824Y28356D01*
G01X27789Y28398D01*
G01X27760Y28444D01*
G01X27737Y28493D01*
G01X27720Y28545D01*
G01X27710Y28598D01*
G01X27707Y28651D01*
G01X27707Y28851D01*
G01X27710Y28904D01*
G01X27720Y28957D01*
G01X27737Y29009D01*
G01X27760Y29058D01*
G01X27789Y29104D01*
G01X27824Y29146D01*
G01X27864Y29184D01*
G01X27908Y29216D01*
G01X27956Y29242D01*
G01X28006Y29262D01*
G01X28059Y29276D01*
G01X28113Y29282D01*
G01X28167Y29282D01*
G01X28222Y29276D01*
G01X28274Y29262D01*
G01X28325Y29242D01*
G01X28373Y29216D01*
G01X28417Y29184D01*
G01X28456Y29146D01*
G01X28491Y29104D01*
G01X28520Y29058D01*
G01X28544Y29009D01*
G01X28560Y28957D01*
G01X28571Y28904D01*
G01X28574Y28851D01*
G01X28574Y28651D01*
G01X28571Y28598D01*
G01X28560Y28545D01*
G01X28544Y28493D01*
G01X28520Y28444D01*
G01X28491Y28398D01*
G01X28456Y28356D01*
G01X28417Y28318D01*
G01X28373Y28286D01*
G01X28325Y28260D01*
G01X28274Y28240D01*
G01X28222Y28227D01*
G01X28167Y28220D01*
G01X28113Y28220D01*
G37*
G36*
G01X29672Y29779D02*
G01X29618Y29786D01*
G01X29565Y29799D01*
G01X29515Y29819D01*
G01X29467Y29845D01*
G01X29423Y29877D01*
G01X29383Y29915D01*
G01X29348Y29957D01*
G01X29319Y30003D01*
G01X29296Y30052D01*
G01X29279Y30104D01*
G01X29269Y30157D01*
G01X29266Y30210D01*
G01X29266Y30410D01*
G01X29269Y30463D01*
G01X29279Y30516D01*
G01X29296Y30568D01*
G01X29319Y30617D01*
G01X29348Y30663D01*
G01X29383Y30705D01*
G01X29423Y30743D01*
G01X29467Y30775D01*
G01X29515Y30801D01*
G01X29565Y30821D01*
G01X29618Y30835D01*
G01X29672Y30841D01*
G01X29727Y30841D01*
G01X29781Y30835D01*
G01X29833Y30821D01*
G01X29884Y30801D01*
G01X29932Y30775D01*
G01X29976Y30743D01*
G01X30015Y30705D01*
G01X30050Y30663D01*
G01X30079Y30617D01*
G01X30103Y30568D01*
G01X30119Y30516D01*
G01X30130Y30463D01*
G01X30133Y30410D01*
G01X30133Y30210D01*
G01X30130Y30157D01*
G01X30119Y30104D01*
G01X30103Y30052D01*
G01X30079Y30003D01*
G01X30050Y29957D01*
G01X30015Y29915D01*
G01X29976Y29877D01*
G01X29932Y29845D01*
G01X29884Y29819D01*
G01X29833Y29799D01*
G01X29781Y29786D01*
G01X29727Y29779D01*
G01X29672Y29779D01*
G37*
G36*
G01X29672Y28220D02*
G01X29618Y28227D01*
G01X29565Y28240D01*
G01X29515Y28260D01*
G01X29467Y28286D01*
G01X29423Y28318D01*
G01X29383Y28356D01*
G01X29348Y28398D01*
G01X29319Y28444D01*
G01X29296Y28493D01*
G01X29279Y28545D01*
G01X29269Y28598D01*
G01X29266Y28651D01*
G01X29266Y28851D01*
G01X29269Y28904D01*
G01X29279Y28957D01*
G01X29296Y29009D01*
G01X29319Y29058D01*
G01X29348Y29104D01*
G01X29383Y29146D01*
G01X29423Y29184D01*
G01X29467Y29216D01*
G01X29515Y29242D01*
G01X29565Y29262D01*
G01X29618Y29276D01*
G01X29672Y29282D01*
G01X29727Y29282D01*
G01X29781Y29276D01*
G01X29833Y29262D01*
G01X29884Y29242D01*
G01X29932Y29216D01*
G01X29976Y29184D01*
G01X30015Y29146D01*
G01X30050Y29104D01*
G01X30079Y29058D01*
G01X30103Y29009D01*
G01X30119Y28957D01*
G01X30130Y28904D01*
G01X30133Y28851D01*
G01X30133Y28651D01*
G01X30130Y28598D01*
G01X30119Y28545D01*
G01X30103Y28493D01*
G01X30079Y28444D01*
G01X30050Y28398D01*
G01X30015Y28356D01*
G01X29976Y28318D01*
G01X29932Y28286D01*
G01X29884Y28260D01*
G01X29833Y28240D01*
G01X29781Y28227D01*
G01X29727Y28220D01*
G01X29672Y28220D01*
G37*
G36*
G01X31231Y29779D02*
G01X31177Y29786D01*
G01X31124Y29799D01*
G01X31074Y29819D01*
G01X31026Y29845D01*
G01X30982Y29877D01*
G01X30942Y29915D01*
G01X30907Y29957D01*
G01X30878Y30003D01*
G01X30855Y30052D01*
G01X30838Y30104D01*
G01X30828Y30157D01*
G01X30825Y30210D01*
G01X30825Y30410D01*
G01X30828Y30463D01*
G01X30838Y30516D01*
G01X30855Y30568D01*
G01X30878Y30617D01*
G01X30907Y30663D01*
G01X30942Y30705D01*
G01X30982Y30743D01*
G01X31026Y30775D01*
G01X31074Y30801D01*
G01X31124Y30821D01*
G01X31177Y30835D01*
G01X31231Y30841D01*
G01X31286Y30841D01*
G01X31340Y30835D01*
G01X31392Y30821D01*
G01X31443Y30801D01*
G01X31491Y30775D01*
G01X31535Y30743D01*
G01X31575Y30705D01*
G01X31609Y30663D01*
G01X31638Y30618D01*
G01X31662Y30568D01*
G01X31678Y30516D01*
G01X31689Y30463D01*
G01X31692Y30410D01*
G01X31692Y30210D01*
G01X31689Y30157D01*
G01X31678Y30104D01*
G01X31662Y30052D01*
G01X31638Y30003D01*
G01X31609Y29957D01*
G01X31575Y29915D01*
G01X31535Y29877D01*
G01X31491Y29845D01*
G01X31443Y29819D01*
G01X31392Y29799D01*
G01X31340Y29786D01*
G01X31286Y29779D01*
G01X31231Y29779D01*
G37*
G36*
G01X31231Y28220D02*
G01X31177Y28227D01*
G01X31124Y28240D01*
G01X31074Y28260D01*
G01X31026Y28286D01*
G01X30982Y28318D01*
G01X30942Y28356D01*
G01X30907Y28398D01*
G01X30878Y28444D01*
G01X30855Y28493D01*
G01X30838Y28545D01*
G01X30828Y28598D01*
G01X30825Y28651D01*
G01X30825Y28851D01*
G01X30828Y28904D01*
G01X30838Y28957D01*
G01X30855Y29009D01*
G01X30878Y29058D01*
G01X30907Y29104D01*
G01X30942Y29146D01*
G01X30982Y29184D01*
G01X31026Y29216D01*
G01X31074Y29242D01*
G01X31124Y29262D01*
G01X31177Y29276D01*
G01X31231Y29282D01*
G01X31286Y29282D01*
G01X31340Y29276D01*
G01X31392Y29262D01*
G01X31443Y29242D01*
G01X31491Y29216D01*
G01X31535Y29184D01*
G01X31575Y29146D01*
G01X31609Y29104D01*
G01X31638Y29058D01*
G01X31662Y29009D01*
G01X31678Y28957D01*
G01X31689Y28904D01*
G01X31692Y28851D01*
G01X31692Y28651D01*
G01X31689Y28598D01*
G01X31678Y28545D01*
G01X31662Y28493D01*
G01X31638Y28444D01*
G01X31609Y28398D01*
G01X31575Y28356D01*
G01X31535Y28318D01*
G01X31491Y28286D01*
G01X31443Y28260D01*
G01X31392Y28240D01*
G01X31340Y28227D01*
G01X31286Y28220D01*
G01X31231Y28220D01*
G37*
G36*
G01X32790Y29779D02*
G01X32736Y29786D01*
G01X32683Y29799D01*
G01X32633Y29819D01*
G01X32585Y29845D01*
G01X32541Y29877D01*
G01X32501Y29915D01*
G01X32466Y29957D01*
G01X32437Y30003D01*
G01X32414Y30052D01*
G01X32397Y30104D01*
G01X32387Y30157D01*
G01X32384Y30210D01*
G01X32384Y30410D01*
G01X32387Y30463D01*
G01X32397Y30516D01*
G01X32414Y30568D01*
G01X32437Y30617D01*
G01X32466Y30663D01*
G01X32501Y30705D01*
G01X32541Y30743D01*
G01X32585Y30775D01*
G01X32633Y30801D01*
G01X32683Y30821D01*
G01X32736Y30835D01*
G01X32790Y30841D01*
G01X32845Y30841D01*
G01X32899Y30835D01*
G01X32951Y30821D01*
G01X33002Y30801D01*
G01X33050Y30775D01*
G01X33094Y30743D01*
G01X33134Y30705D01*
G01X33168Y30663D01*
G01X33198Y30617D01*
G01X33221Y30568D01*
G01X33238Y30516D01*
G01X33248Y30463D01*
G01X33251Y30410D01*
G01X33251Y30210D01*
G01X33248Y30157D01*
G01X33238Y30104D01*
G01X33221Y30052D01*
G01X33198Y30003D01*
G01X33168Y29957D01*
G01X33134Y29915D01*
G01X33094Y29877D01*
G01X33050Y29845D01*
G01X33002Y29819D01*
G01X32951Y29799D01*
G01X32899Y29786D01*
G01X32845Y29779D01*
G01X32790Y29779D01*
G37*
G36*
G01X32790Y28220D02*
G01X32736Y28227D01*
G01X32683Y28240D01*
G01X32633Y28260D01*
G01X32585Y28286D01*
G01X32541Y28318D01*
G01X32501Y28356D01*
G01X32466Y28398D01*
G01X32437Y28444D01*
G01X32414Y28493D01*
G01X32397Y28545D01*
G01X32387Y28598D01*
G01X32384Y28651D01*
G01X32384Y28851D01*
G01X32387Y28904D01*
G01X32397Y28957D01*
G01X32414Y29009D01*
G01X32437Y29058D01*
G01X32466Y29104D01*
G01X32501Y29146D01*
G01X32541Y29184D01*
G01X32585Y29216D01*
G01X32633Y29242D01*
G01X32683Y29262D01*
G01X32736Y29276D01*
G01X32790Y29282D01*
G01X32845Y29282D01*
G01X32899Y29276D01*
G01X32951Y29262D01*
G01X33002Y29242D01*
G01X33050Y29216D01*
G01X33094Y29184D01*
G01X33134Y29146D01*
G01X33168Y29104D01*
G01X33198Y29058D01*
G01X33221Y29009D01*
G01X33238Y28957D01*
G01X33248Y28904D01*
G01X33251Y28851D01*
G01X33251Y28651D01*
G01X33248Y28598D01*
G01X33238Y28545D01*
G01X33221Y28493D01*
G01X33198Y28444D01*
G01X33168Y28398D01*
G01X33134Y28356D01*
G01X33094Y28318D01*
G01X33050Y28286D01*
G01X33002Y28260D01*
G01X32951Y28240D01*
G01X32899Y28227D01*
G01X32845Y28220D01*
G01X32790Y28220D01*
G37*
G36*
G01X34349Y29779D02*
G01X34295Y29786D01*
G01X34242Y29799D01*
G01X34192Y29819D01*
G01X34144Y29845D01*
G01X34100Y29877D01*
G01X34060Y29915D01*
G01X34025Y29957D01*
G01X33996Y30003D01*
G01X33973Y30052D01*
G01X33956Y30104D01*
G01X33946Y30157D01*
G01X33943Y30210D01*
G01X33943Y30410D01*
G01X33946Y30463D01*
G01X33956Y30516D01*
G01X33973Y30568D01*
G01X33996Y30617D01*
G01X34025Y30663D01*
G01X34060Y30705D01*
G01X34100Y30743D01*
G01X34144Y30775D01*
G01X34192Y30801D01*
G01X34242Y30821D01*
G01X34295Y30835D01*
G01X34349Y30841D01*
G01X34404Y30841D01*
G01X34458Y30835D01*
G01X34510Y30821D01*
G01X34561Y30801D01*
G01X34609Y30775D01*
G01X34653Y30743D01*
G01X34693Y30705D01*
G01X34727Y30663D01*
G01X34757Y30618D01*
G01X34780Y30568D01*
G01X34797Y30516D01*
G01X34807Y30463D01*
G01X34810Y30410D01*
G01X34810Y30210D01*
G01X34807Y30157D01*
G01X34797Y30104D01*
G01X34780Y30052D01*
G01X34757Y30003D01*
G01X34727Y29957D01*
G01X34693Y29915D01*
G01X34653Y29877D01*
G01X34609Y29845D01*
G01X34561Y29819D01*
G01X34510Y29799D01*
G01X34458Y29786D01*
G01X34404Y29779D01*
G01X34349Y29779D01*
G37*
G36*
G01X34349Y28220D02*
G01X34295Y28227D01*
G01X34242Y28240D01*
G01X34192Y28260D01*
G01X34144Y28286D01*
G01X34100Y28318D01*
G01X34060Y28356D01*
G01X34025Y28398D01*
G01X33996Y28444D01*
G01X33973Y28493D01*
G01X33956Y28545D01*
G01X33946Y28598D01*
G01X33943Y28651D01*
G01X33943Y28851D01*
G01X33946Y28904D01*
G01X33956Y28957D01*
G01X33973Y29009D01*
G01X33996Y29058D01*
G01X34025Y29104D01*
G01X34060Y29146D01*
G01X34100Y29184D01*
G01X34144Y29216D01*
G01X34192Y29242D01*
G01X34242Y29262D01*
G01X34295Y29276D01*
G01X34349Y29282D01*
G01X34404Y29282D01*
G01X34458Y29276D01*
G01X34510Y29262D01*
G01X34561Y29242D01*
G01X34609Y29216D01*
G01X34653Y29184D01*
G01X34693Y29146D01*
G01X34727Y29104D01*
G01X34757Y29058D01*
G01X34780Y29009D01*
G01X34797Y28957D01*
G01X34807Y28904D01*
G01X34810Y28851D01*
G01X34810Y28651D01*
G01X34807Y28598D01*
G01X34797Y28545D01*
G01X34780Y28493D01*
G01X34757Y28444D01*
G01X34727Y28398D01*
G01X34693Y28356D01*
G01X34653Y28318D01*
G01X34609Y28286D01*
G01X34561Y28260D01*
G01X34510Y28240D01*
G01X34458Y28227D01*
G01X34404Y28220D01*
G01X34349Y28220D01*
G37*
G36*
G01X35908Y29779D02*
G01X35854Y29786D01*
G01X35801Y29799D01*
G01X35751Y29819D01*
G01X35703Y29845D01*
G01X35659Y29877D01*
G01X35619Y29915D01*
G01X35585Y29957D01*
G01X35555Y30003D01*
G01X35532Y30052D01*
G01X35515Y30104D01*
G01X35505Y30157D01*
G01X35502Y30210D01*
G01X35502Y30410D01*
G01X35505Y30463D01*
G01X35515Y30516D01*
G01X35532Y30568D01*
G01X35555Y30618D01*
G01X35585Y30663D01*
G01X35619Y30705D01*
G01X35659Y30743D01*
G01X35703Y30775D01*
G01X35751Y30801D01*
G01X35801Y30821D01*
G01X35854Y30835D01*
G01X35908Y30841D01*
G01X35963Y30841D01*
G01X36017Y30835D01*
G01X36069Y30821D01*
G01X36120Y30801D01*
G01X36168Y30775D01*
G01X36212Y30743D01*
G01X36252Y30705D01*
G01X36286Y30663D01*
G01X36316Y30617D01*
G01X36339Y30568D01*
G01X36356Y30516D01*
G01X36366Y30463D01*
G01X36369Y30410D01*
G01X36369Y30210D01*
G01X36366Y30157D01*
G01X36356Y30104D01*
G01X36339Y30052D01*
G01X36316Y30003D01*
G01X36286Y29957D01*
G01X36252Y29915D01*
G01X36212Y29877D01*
G01X36168Y29845D01*
G01X36120Y29819D01*
G01X36069Y29799D01*
G01X36017Y29786D01*
G01X35963Y29779D01*
G01X35908Y29779D01*
G37*
G36*
G01X35908Y28220D02*
G01X35854Y28227D01*
G01X35801Y28240D01*
G01X35751Y28260D01*
G01X35703Y28286D01*
G01X35659Y28318D01*
G01X35619Y28356D01*
G01X35585Y28398D01*
G01X35555Y28444D01*
G01X35532Y28493D01*
G01X35515Y28545D01*
G01X35505Y28598D01*
G01X35502Y28651D01*
G01X35502Y28851D01*
G01X35505Y28904D01*
G01X35515Y28957D01*
G01X35532Y29009D01*
G01X35555Y29058D01*
G01X35585Y29104D01*
G01X35619Y29146D01*
G01X35659Y29184D01*
G01X35703Y29216D01*
G01X35751Y29242D01*
G01X35801Y29262D01*
G01X35854Y29276D01*
G01X35908Y29282D01*
G01X35963Y29282D01*
G01X36017Y29276D01*
G01X36069Y29262D01*
G01X36120Y29242D01*
G01X36168Y29216D01*
G01X36212Y29184D01*
G01X36252Y29146D01*
G01X36286Y29104D01*
G01X36316Y29058D01*
G01X36339Y29009D01*
G01X36356Y28957D01*
G01X36366Y28904D01*
G01X36369Y28851D01*
G01X36369Y28651D01*
G01X36366Y28598D01*
G01X36356Y28545D01*
G01X36339Y28493D01*
G01X36316Y28444D01*
G01X36286Y28398D01*
G01X36252Y28356D01*
G01X36212Y28318D01*
G01X36168Y28286D01*
G01X36120Y28260D01*
G01X36069Y28240D01*
G01X36017Y28227D01*
G01X35963Y28220D01*
G01X35908Y28220D01*
G37*
G36*
G01X37467Y29779D02*
G01X37413Y29786D01*
G01X37361Y29799D01*
G01X37310Y29819D01*
G01X37262Y29845D01*
G01X37218Y29877D01*
G01X37178Y29915D01*
G01X37144Y29957D01*
G01X37114Y30003D01*
G01X37091Y30052D01*
G01X37074Y30104D01*
G01X37064Y30157D01*
G01X37061Y30210D01*
G01X37061Y30410D01*
G01X37064Y30463D01*
G01X37074Y30516D01*
G01X37091Y30568D01*
G01X37114Y30617D01*
G01X37144Y30663D01*
G01X37178Y30705D01*
G01X37218Y30743D01*
G01X37262Y30775D01*
G01X37310Y30801D01*
G01X37361Y30821D01*
G01X37413Y30835D01*
G01X37467Y30841D01*
G01X37522Y30841D01*
G01X37576Y30835D01*
G01X37629Y30821D01*
G01X37679Y30801D01*
G01X37727Y30775D01*
G01X37771Y30743D01*
G01X37811Y30705D01*
G01X37845Y30663D01*
G01X37875Y30618D01*
G01X37898Y30568D01*
G01X37915Y30516D01*
G01X37925Y30463D01*
G01X37928Y30410D01*
G01X37928Y30210D01*
G01X37925Y30157D01*
G01X37915Y30104D01*
G01X37898Y30052D01*
G01X37875Y30003D01*
G01X37845Y29957D01*
G01X37811Y29915D01*
G01X37771Y29877D01*
G01X37727Y29845D01*
G01X37679Y29819D01*
G01X37629Y29799D01*
G01X37576Y29786D01*
G01X37522Y29779D01*
G01X37467Y29779D01*
G37*
G36*
G01X37467Y28220D02*
G01X37413Y28227D01*
G01X37361Y28240D01*
G01X37310Y28260D01*
G01X37262Y28286D01*
G01X37218Y28318D01*
G01X37178Y28356D01*
G01X37144Y28398D01*
G01X37114Y28444D01*
G01X37091Y28493D01*
G01X37074Y28545D01*
G01X37064Y28598D01*
G01X37061Y28651D01*
G01X37061Y28851D01*
G01X37064Y28904D01*
G01X37074Y28957D01*
G01X37091Y29009D01*
G01X37114Y29058D01*
G01X37144Y29104D01*
G01X37178Y29146D01*
G01X37218Y29184D01*
G01X37262Y29216D01*
G01X37310Y29242D01*
G01X37361Y29262D01*
G01X37413Y29276D01*
G01X37467Y29282D01*
G01X37522Y29282D01*
G01X37576Y29276D01*
G01X37629Y29262D01*
G01X37679Y29242D01*
G01X37727Y29216D01*
G01X37771Y29184D01*
G01X37811Y29146D01*
G01X37845Y29104D01*
G01X37875Y29058D01*
G01X37898Y29009D01*
G01X37915Y28957D01*
G01X37925Y28904D01*
G01X37928Y28851D01*
G01X37928Y28651D01*
G01X37925Y28598D01*
G01X37915Y28545D01*
G01X37898Y28493D01*
G01X37875Y28444D01*
G01X37845Y28398D01*
G01X37811Y28356D01*
G01X37771Y28318D01*
G01X37727Y28286D01*
G01X37679Y28260D01*
G01X37629Y28240D01*
G01X37576Y28227D01*
G01X37522Y28220D01*
G01X37467Y28220D01*
G37*
G36*
G01X39026Y29779D02*
G01X38972Y29786D01*
G01X38920Y29799D01*
G01X38869Y29819D01*
G01X38821Y29845D01*
G01X38777Y29877D01*
G01X38737Y29915D01*
G01X38703Y29957D01*
G01X38673Y30003D01*
G01X38650Y30052D01*
G01X38633Y30104D01*
G01X38623Y30157D01*
G01X38620Y30210D01*
G01X38620Y30410D01*
G01X38623Y30463D01*
G01X38633Y30516D01*
G01X38650Y30568D01*
G01X38673Y30618D01*
G01X38703Y30663D01*
G01X38737Y30705D01*
G01X38777Y30743D01*
G01X38821Y30775D01*
G01X38869Y30801D01*
G01X38920Y30821D01*
G01X38972Y30835D01*
G01X39026Y30841D01*
G01X39081Y30841D01*
G01X39135Y30835D01*
G01X39188Y30821D01*
G01X39238Y30801D01*
G01X39286Y30775D01*
G01X39330Y30743D01*
G01X39370Y30705D01*
G01X39405Y30663D01*
G01X39434Y30617D01*
G01X39457Y30568D01*
G01X39474Y30516D01*
G01X39484Y30463D01*
G01X39487Y30410D01*
G01X39487Y30210D01*
G01X39484Y30157D01*
G01X39474Y30104D01*
G01X39457Y30052D01*
G01X39434Y30003D01*
G01X39405Y29957D01*
G01X39370Y29915D01*
G01X39330Y29877D01*
G01X39286Y29845D01*
G01X39238Y29819D01*
G01X39188Y29799D01*
G01X39135Y29786D01*
G01X39081Y29779D01*
G01X39026Y29779D01*
G37*
G36*
G01X39026Y28220D02*
G01X38972Y28227D01*
G01X38920Y28240D01*
G01X38869Y28260D01*
G01X38821Y28286D01*
G01X38777Y28318D01*
G01X38737Y28356D01*
G01X38703Y28398D01*
G01X38673Y28444D01*
G01X38650Y28493D01*
G01X38633Y28545D01*
G01X38623Y28598D01*
G01X38620Y28651D01*
G01X38620Y28851D01*
G01X38623Y28904D01*
G01X38633Y28957D01*
G01X38650Y29009D01*
G01X38673Y29058D01*
G01X38703Y29104D01*
G01X38737Y29146D01*
G01X38777Y29184D01*
G01X38821Y29216D01*
G01X38869Y29242D01*
G01X38920Y29262D01*
G01X38972Y29276D01*
G01X39026Y29282D01*
G01X39081Y29282D01*
G01X39135Y29276D01*
G01X39188Y29262D01*
G01X39238Y29242D01*
G01X39286Y29216D01*
G01X39330Y29184D01*
G01X39370Y29146D01*
G01X39405Y29104D01*
G01X39434Y29058D01*
G01X39457Y29009D01*
G01X39474Y28957D01*
G01X39484Y28904D01*
G01X39487Y28851D01*
G01X39487Y28651D01*
G01X39484Y28598D01*
G01X39474Y28545D01*
G01X39457Y28493D01*
G01X39434Y28444D01*
G01X39405Y28398D01*
G01X39370Y28356D01*
G01X39330Y28318D01*
G01X39286Y28286D01*
G01X39238Y28260D01*
G01X39188Y28240D01*
G01X39135Y28227D01*
G01X39081Y28220D01*
G01X39026Y28220D01*
G37*
G36*
G01X40585Y29779D02*
G01X40531Y29786D01*
G01X40479Y29799D01*
G01X40428Y29819D01*
G01X40380Y29845D01*
G01X40336Y29877D01*
G01X40296Y29915D01*
G01X40262Y29957D01*
G01X40232Y30003D01*
G01X40209Y30052D01*
G01X40192Y30104D01*
G01X40182Y30157D01*
G01X40179Y30210D01*
G01X40179Y30410D01*
G01X40182Y30463D01*
G01X40192Y30516D01*
G01X40209Y30568D01*
G01X40232Y30617D01*
G01X40262Y30663D01*
G01X40296Y30705D01*
G01X40336Y30743D01*
G01X40380Y30775D01*
G01X40428Y30801D01*
G01X40479Y30821D01*
G01X40531Y30835D01*
G01X40585Y30841D01*
G01X40640Y30841D01*
G01X40694Y30835D01*
G01X40747Y30821D01*
G01X40797Y30801D01*
G01X40845Y30775D01*
G01X40889Y30743D01*
G01X40929Y30705D01*
G01X40964Y30663D01*
G01X40993Y30618D01*
G01X41016Y30568D01*
G01X41033Y30516D01*
G01X41043Y30463D01*
G01X41046Y30410D01*
G01X41046Y30210D01*
G01X41043Y30157D01*
G01X41033Y30104D01*
G01X41016Y30052D01*
G01X40993Y30003D01*
G01X40964Y29957D01*
G01X40929Y29915D01*
G01X40889Y29877D01*
G01X40845Y29845D01*
G01X40797Y29819D01*
G01X40747Y29799D01*
G01X40694Y29786D01*
G01X40640Y29779D01*
G01X40585Y29779D01*
G37*
G36*
G01X40585Y28220D02*
G01X40531Y28227D01*
G01X40479Y28240D01*
G01X40428Y28260D01*
G01X40380Y28286D01*
G01X40336Y28318D01*
G01X40296Y28356D01*
G01X40262Y28398D01*
G01X40232Y28444D01*
G01X40209Y28493D01*
G01X40192Y28545D01*
G01X40182Y28598D01*
G01X40179Y28651D01*
G01X40179Y28851D01*
G01X40182Y28904D01*
G01X40192Y28957D01*
G01X40209Y29009D01*
G01X40232Y29058D01*
G01X40262Y29104D01*
G01X40296Y29146D01*
G01X40336Y29184D01*
G01X40380Y29216D01*
G01X40428Y29242D01*
G01X40479Y29262D01*
G01X40531Y29276D01*
G01X40585Y29282D01*
G01X40640Y29282D01*
G01X40694Y29276D01*
G01X40747Y29262D01*
G01X40797Y29242D01*
G01X40845Y29216D01*
G01X40889Y29184D01*
G01X40929Y29146D01*
G01X40964Y29104D01*
G01X40993Y29058D01*
G01X41016Y29009D01*
G01X41033Y28957D01*
G01X41043Y28904D01*
G01X41046Y28851D01*
G01X41046Y28651D01*
G01X41043Y28598D01*
G01X41033Y28545D01*
G01X41016Y28493D01*
G01X40993Y28444D01*
G01X40964Y28398D01*
G01X40929Y28356D01*
G01X40889Y28318D01*
G01X40845Y28286D01*
G01X40797Y28260D01*
G01X40747Y28240D01*
G01X40694Y28227D01*
G01X40640Y28220D01*
G01X40585Y28220D01*
G37*
G36*
G01X42144Y29779D02*
G01X42090Y29786D01*
G01X42038Y29799D01*
G01X41987Y29819D01*
G01X41939Y29845D01*
G01X41895Y29877D01*
G01X41855Y29915D01*
G01X41821Y29957D01*
G01X41792Y30003D01*
G01X41768Y30052D01*
G01X41751Y30104D01*
G01X41741Y30157D01*
G01X41738Y30210D01*
G01X41738Y30410D01*
G01X41741Y30463D01*
G01X41751Y30516D01*
G01X41768Y30568D01*
G01X41792Y30618D01*
G01X41821Y30663D01*
G01X41855Y30705D01*
G01X41895Y30743D01*
G01X41939Y30775D01*
G01X41987Y30801D01*
G01X42038Y30821D01*
G01X42090Y30835D01*
G01X42144Y30841D01*
G01X42199Y30841D01*
G01X42253Y30835D01*
G01X42306Y30821D01*
G01X42356Y30801D01*
G01X42404Y30775D01*
G01X42448Y30743D01*
G01X42488Y30705D01*
G01X42523Y30663D01*
G01X42552Y30617D01*
G01X42575Y30568D01*
G01X42592Y30516D01*
G01X42602Y30463D01*
G01X42605Y30410D01*
G01X42605Y30210D01*
G01X42602Y30157D01*
G01X42592Y30104D01*
G01X42575Y30052D01*
G01X42552Y30003D01*
G01X42523Y29957D01*
G01X42488Y29915D01*
G01X42448Y29877D01*
G01X42404Y29845D01*
G01X42356Y29819D01*
G01X42306Y29799D01*
G01X42253Y29786D01*
G01X42199Y29779D01*
G01X42144Y29779D01*
G37*
G36*
G01X42144Y28220D02*
G01X42090Y28227D01*
G01X42038Y28240D01*
G01X41987Y28260D01*
G01X41939Y28286D01*
G01X41895Y28318D01*
G01X41855Y28356D01*
G01X41821Y28398D01*
G01X41792Y28444D01*
G01X41768Y28493D01*
G01X41751Y28545D01*
G01X41741Y28598D01*
G01X41738Y28651D01*
G01X41738Y28851D01*
G01X41741Y28904D01*
G01X41751Y28957D01*
G01X41768Y29009D01*
G01X41792Y29058D01*
G01X41821Y29104D01*
G01X41855Y29146D01*
G01X41895Y29184D01*
G01X41939Y29216D01*
G01X41987Y29242D01*
G01X42038Y29262D01*
G01X42090Y29276D01*
G01X42144Y29282D01*
G01X42199Y29282D01*
G01X42253Y29276D01*
G01X42306Y29262D01*
G01X42356Y29242D01*
G01X42404Y29216D01*
G01X42448Y29184D01*
G01X42488Y29146D01*
G01X42523Y29104D01*
G01X42552Y29058D01*
G01X42575Y29009D01*
G01X42592Y28957D01*
G01X42602Y28904D01*
G01X42605Y28851D01*
G01X42605Y28651D01*
G01X42602Y28598D01*
G01X42592Y28545D01*
G01X42575Y28493D01*
G01X42552Y28444D01*
G01X42523Y28398D01*
G01X42488Y28356D01*
G01X42448Y28318D01*
G01X42404Y28286D01*
G01X42356Y28260D01*
G01X42306Y28240D01*
G01X42253Y28227D01*
G01X42199Y28220D01*
G01X42144Y28220D01*
G37*
G36*
G01X43703Y29779D02*
G01X43649Y29786D01*
G01X43597Y29799D01*
G01X43546Y29819D01*
G01X43498Y29845D01*
G01X43454Y29877D01*
G01X43414Y29915D01*
G01X43380Y29957D01*
G01X43351Y30003D01*
G01X43327Y30052D01*
G01X43311Y30104D01*
G01X43300Y30157D01*
G01X43297Y30210D01*
G01X43297Y30410D01*
G01X43300Y30463D01*
G01X43311Y30516D01*
G01X43327Y30568D01*
G01X43351Y30617D01*
G01X43380Y30663D01*
G01X43414Y30705D01*
G01X43454Y30743D01*
G01X43498Y30775D01*
G01X43546Y30801D01*
G01X43597Y30821D01*
G01X43649Y30835D01*
G01X43703Y30841D01*
G01X43758Y30841D01*
G01X43812Y30835D01*
G01X43865Y30821D01*
G01X43915Y30801D01*
G01X43963Y30775D01*
G01X44007Y30743D01*
G01X44047Y30705D01*
G01X44082Y30663D01*
G01X44111Y30618D01*
G01X44134Y30568D01*
G01X44151Y30516D01*
G01X44161Y30463D01*
G01X44164Y30410D01*
G01X44164Y30210D01*
G01X44161Y30157D01*
G01X44151Y30104D01*
G01X44134Y30052D01*
G01X44111Y30003D01*
G01X44082Y29957D01*
G01X44047Y29915D01*
G01X44007Y29877D01*
G01X43963Y29845D01*
G01X43915Y29819D01*
G01X43865Y29799D01*
G01X43812Y29786D01*
G01X43758Y29779D01*
G01X43703Y29779D01*
G37*
G36*
G01X43703Y28220D02*
G01X43649Y28227D01*
G01X43597Y28240D01*
G01X43546Y28260D01*
G01X43498Y28286D01*
G01X43454Y28318D01*
G01X43414Y28356D01*
G01X43380Y28398D01*
G01X43351Y28444D01*
G01X43327Y28493D01*
G01X43311Y28545D01*
G01X43300Y28598D01*
G01X43297Y28651D01*
G01X43297Y28851D01*
G01X43300Y28904D01*
G01X43311Y28957D01*
G01X43327Y29009D01*
G01X43351Y29058D01*
G01X43380Y29104D01*
G01X43414Y29146D01*
G01X43454Y29184D01*
G01X43498Y29216D01*
G01X43546Y29242D01*
G01X43597Y29262D01*
G01X43649Y29276D01*
G01X43703Y29282D01*
G01X43758Y29282D01*
G01X43812Y29276D01*
G01X43865Y29262D01*
G01X43915Y29242D01*
G01X43963Y29216D01*
G01X44007Y29184D01*
G01X44047Y29146D01*
G01X44082Y29104D01*
G01X44111Y29058D01*
G01X44134Y29009D01*
G01X44151Y28957D01*
G01X44161Y28904D01*
G01X44164Y28851D01*
G01X44164Y28651D01*
G01X44161Y28598D01*
G01X44151Y28545D01*
G01X44134Y28493D01*
G01X44111Y28444D01*
G01X44082Y28398D01*
G01X44047Y28356D01*
G01X44007Y28318D01*
G01X43963Y28286D01*
G01X43915Y28260D01*
G01X43865Y28240D01*
G01X43812Y28227D01*
G01X43758Y28220D01*
G01X43703Y28220D01*
G37*
G36*
G01X45263Y29779D02*
G01X45208Y29786D01*
G01X45156Y29799D01*
G01X45105Y29819D01*
G01X45057Y29845D01*
G01X45013Y29877D01*
G01X44974Y29915D01*
G01X44939Y29957D01*
G01X44910Y30003D01*
G01X44886Y30052D01*
G01X44870Y30104D01*
G01X44859Y30157D01*
G01X44856Y30210D01*
G01X44856Y30410D01*
G01X44859Y30463D01*
G01X44870Y30516D01*
G01X44886Y30568D01*
G01X44910Y30618D01*
G01X44939Y30663D01*
G01X44974Y30705D01*
G01X45013Y30743D01*
G01X45057Y30775D01*
G01X45105Y30801D01*
G01X45156Y30821D01*
G01X45208Y30835D01*
G01X45263Y30841D01*
G01X45317Y30841D01*
G01X45371Y30835D01*
G01X45424Y30821D01*
G01X45474Y30801D01*
G01X45522Y30775D01*
G01X45566Y30743D01*
G01X45606Y30705D01*
G01X45641Y30663D01*
G01X45670Y30617D01*
G01X45693Y30568D01*
G01X45710Y30516D01*
G01X45720Y30463D01*
G01X45724Y30410D01*
G01X45724Y30210D01*
G01X45720Y30157D01*
G01X45710Y30104D01*
G01X45693Y30052D01*
G01X45670Y30003D01*
G01X45641Y29957D01*
G01X45606Y29915D01*
G01X45566Y29877D01*
G01X45522Y29845D01*
G01X45474Y29819D01*
G01X45424Y29799D01*
G01X45371Y29786D01*
G01X45317Y29779D01*
G01X45263Y29779D01*
G37*
G36*
G01X45263Y28220D02*
G01X45208Y28227D01*
G01X45156Y28240D01*
G01X45105Y28260D01*
G01X45057Y28286D01*
G01X45013Y28318D01*
G01X44974Y28356D01*
G01X44939Y28398D01*
G01X44910Y28444D01*
G01X44886Y28493D01*
G01X44870Y28545D01*
G01X44859Y28598D01*
G01X44856Y28651D01*
G01X44856Y28851D01*
G01X44859Y28904D01*
G01X44870Y28957D01*
G01X44886Y29009D01*
G01X44910Y29058D01*
G01X44939Y29104D01*
G01X44974Y29146D01*
G01X45013Y29184D01*
G01X45057Y29216D01*
G01X45105Y29242D01*
G01X45156Y29262D01*
G01X45208Y29276D01*
G01X45263Y29282D01*
G01X45317Y29282D01*
G01X45371Y29276D01*
G01X45424Y29262D01*
G01X45474Y29242D01*
G01X45522Y29216D01*
G01X45566Y29184D01*
G01X45606Y29146D01*
G01X45641Y29104D01*
G01X45670Y29058D01*
G01X45693Y29009D01*
G01X45710Y28957D01*
G01X45720Y28904D01*
G01X45724Y28851D01*
G01X45724Y28651D01*
G01X45720Y28598D01*
G01X45710Y28545D01*
G01X45693Y28493D01*
G01X45670Y28444D01*
G01X45641Y28398D01*
G01X45606Y28356D01*
G01X45566Y28318D01*
G01X45522Y28286D01*
G01X45474Y28260D01*
G01X45424Y28240D01*
G01X45371Y28227D01*
G01X45317Y28220D01*
G01X45263Y28220D01*
G37*
G36*
G01X46822Y29779D02*
G01X46768Y29786D01*
G01X46715Y29799D01*
G01X46664Y29819D01*
G01X46616Y29845D01*
G01X46572Y29877D01*
G01X46533Y29915D01*
G01X46498Y29957D01*
G01X46469Y30003D01*
G01X46446Y30052D01*
G01X46429Y30104D01*
G01X46418Y30157D01*
G01X46415Y30210D01*
G01X46415Y30410D01*
G01X46418Y30463D01*
G01X46429Y30516D01*
G01X46446Y30568D01*
G01X46469Y30617D01*
G01X46498Y30663D01*
G01X46533Y30705D01*
G01X46572Y30743D01*
G01X46616Y30775D01*
G01X46664Y30801D01*
G01X46715Y30821D01*
G01X46768Y30835D01*
G01X46822Y30841D01*
G01X46876Y30841D01*
G01X46930Y30835D01*
G01X46983Y30821D01*
G01X47034Y30801D01*
G01X47081Y30775D01*
G01X47125Y30743D01*
G01X47165Y30705D01*
G01X47200Y30663D01*
G01X47229Y30618D01*
G01X47252Y30568D01*
G01X47269Y30516D01*
G01X47279Y30463D01*
G01X47283Y30410D01*
G01X47283Y30210D01*
G01X47279Y30157D01*
G01X47269Y30104D01*
G01X47252Y30052D01*
G01X47229Y30003D01*
G01X47200Y29957D01*
G01X47165Y29915D01*
G01X47125Y29877D01*
G01X47081Y29845D01*
G01X47034Y29819D01*
G01X46983Y29799D01*
G01X46930Y29786D01*
G01X46876Y29779D01*
G01X46822Y29779D01*
G37*
G36*
G01X46822Y28220D02*
G01X46768Y28227D01*
G01X46715Y28240D01*
G01X46664Y28260D01*
G01X46616Y28286D01*
G01X46572Y28318D01*
G01X46533Y28356D01*
G01X46498Y28398D01*
G01X46469Y28444D01*
G01X46446Y28493D01*
G01X46429Y28545D01*
G01X46418Y28598D01*
G01X46415Y28651D01*
G01X46415Y28851D01*
G01X46418Y28904D01*
G01X46429Y28957D01*
G01X46446Y29009D01*
G01X46469Y29058D01*
G01X46498Y29104D01*
G01X46533Y29146D01*
G01X46572Y29184D01*
G01X46616Y29216D01*
G01X46664Y29242D01*
G01X46715Y29262D01*
G01X46768Y29276D01*
G01X46822Y29282D01*
G01X46876Y29282D01*
G01X46930Y29276D01*
G01X46983Y29262D01*
G01X47034Y29242D01*
G01X47081Y29216D01*
G01X47125Y29184D01*
G01X47165Y29146D01*
G01X47200Y29104D01*
G01X47229Y29058D01*
G01X47252Y29009D01*
G01X47269Y28957D01*
G01X47279Y28904D01*
G01X47283Y28851D01*
G01X47283Y28651D01*
G01X47279Y28598D01*
G01X47269Y28545D01*
G01X47252Y28493D01*
G01X47229Y28444D01*
G01X47200Y28398D01*
G01X47165Y28356D01*
G01X47125Y28318D01*
G01X47081Y28286D01*
G01X47034Y28260D01*
G01X46983Y28240D01*
G01X46930Y28227D01*
G01X46876Y28220D01*
G01X46822Y28220D01*
G37*
G36*
G01X48381Y29779D02*
G01X48327Y29786D01*
G01X48274Y29799D01*
G01X48223Y29819D01*
G01X48175Y29845D01*
G01X48131Y29877D01*
G01X48092Y29915D01*
G01X48057Y29957D01*
G01X48028Y30003D01*
G01X48005Y30052D01*
G01X47988Y30104D01*
G01X47978Y30157D01*
G01X47974Y30210D01*
G01X47974Y30410D01*
G01X47978Y30463D01*
G01X47988Y30516D01*
G01X48005Y30568D01*
G01X48028Y30618D01*
G01X48057Y30663D01*
G01X48092Y30705D01*
G01X48131Y30743D01*
G01X48175Y30775D01*
G01X48223Y30801D01*
G01X48274Y30821D01*
G01X48327Y30835D01*
G01X48381Y30841D01*
G01X48435Y30841D01*
G01X48489Y30835D01*
G01X48542Y30821D01*
G01X48593Y30801D01*
G01X48640Y30775D01*
G01X48684Y30743D01*
G01X48724Y30705D01*
G01X48759Y30663D01*
G01X48788Y30617D01*
G01X48811Y30568D01*
G01X48828Y30516D01*
G01X48838Y30463D01*
G01X48842Y30410D01*
G01X48842Y30210D01*
G01X48838Y30157D01*
G01X48828Y30104D01*
G01X48811Y30052D01*
G01X48788Y30003D01*
G01X48759Y29957D01*
G01X48724Y29915D01*
G01X48684Y29877D01*
G01X48640Y29845D01*
G01X48593Y29819D01*
G01X48542Y29799D01*
G01X48489Y29786D01*
G01X48435Y29779D01*
G01X48381Y29779D01*
G37*
G36*
G01X48381Y28220D02*
G01X48327Y28227D01*
G01X48274Y28240D01*
G01X48223Y28260D01*
G01X48175Y28286D01*
G01X48131Y28318D01*
G01X48092Y28356D01*
G01X48057Y28398D01*
G01X48028Y28444D01*
G01X48005Y28493D01*
G01X47988Y28545D01*
G01X47978Y28598D01*
G01X47974Y28651D01*
G01X47974Y28851D01*
G01X47978Y28904D01*
G01X47988Y28957D01*
G01X48005Y29009D01*
G01X48028Y29058D01*
G01X48057Y29104D01*
G01X48092Y29146D01*
G01X48131Y29184D01*
G01X48175Y29216D01*
G01X48223Y29242D01*
G01X48274Y29262D01*
G01X48327Y29276D01*
G01X48381Y29282D01*
G01X48435Y29282D01*
G01X48489Y29276D01*
G01X48542Y29262D01*
G01X48593Y29242D01*
G01X48640Y29216D01*
G01X48684Y29184D01*
G01X48724Y29146D01*
G01X48759Y29104D01*
G01X48788Y29058D01*
G01X48811Y29009D01*
G01X48828Y28957D01*
G01X48838Y28904D01*
G01X48842Y28851D01*
G01X48842Y28651D01*
G01X48838Y28598D01*
G01X48828Y28545D01*
G01X48811Y28493D01*
G01X48788Y28444D01*
G01X48759Y28398D01*
G01X48724Y28356D01*
G01X48684Y28318D01*
G01X48640Y28286D01*
G01X48593Y28260D01*
G01X48542Y28240D01*
G01X48489Y28227D01*
G01X48435Y28220D01*
G01X48381Y28220D01*
G37*
G36*
G01X49940Y29779D02*
G01X49886Y29786D01*
G01X49833Y29799D01*
G01X49782Y29819D01*
G01X49735Y29845D01*
G01X49690Y29877D01*
G01X49651Y29915D01*
G01X49616Y29957D01*
G01X49587Y30003D01*
G01X49564Y30052D01*
G01X49547Y30104D01*
G01X49537Y30157D01*
G01X49533Y30210D01*
G01X49533Y30410D01*
G01X49537Y30463D01*
G01X49547Y30516D01*
G01X49564Y30568D01*
G01X49587Y30617D01*
G01X49616Y30663D01*
G01X49651Y30705D01*
G01X49690Y30743D01*
G01X49735Y30775D01*
G01X49782Y30801D01*
G01X49833Y30821D01*
G01X49886Y30835D01*
G01X49940Y30841D01*
G01X49994Y30841D01*
G01X50048Y30835D01*
G01X50101Y30821D01*
G01X50152Y30801D01*
G01X50199Y30775D01*
G01X50243Y30743D01*
G01X50283Y30705D01*
G01X50318Y30663D01*
G01X50347Y30618D01*
G01X50370Y30568D01*
G01X50387Y30516D01*
G01X50397Y30463D01*
G01X50401Y30410D01*
G01X50401Y30210D01*
G01X50397Y30157D01*
G01X50387Y30104D01*
G01X50370Y30052D01*
G01X50347Y30003D01*
G01X50318Y29957D01*
G01X50283Y29915D01*
G01X50243Y29877D01*
G01X50199Y29845D01*
G01X50152Y29819D01*
G01X50101Y29799D01*
G01X50048Y29786D01*
G01X49994Y29779D01*
G01X49940Y29779D01*
G37*
G36*
G01X49940Y28220D02*
G01X49886Y28227D01*
G01X49833Y28240D01*
G01X49782Y28260D01*
G01X49735Y28286D01*
G01X49690Y28318D01*
G01X49651Y28356D01*
G01X49616Y28398D01*
G01X49587Y28444D01*
G01X49564Y28493D01*
G01X49547Y28545D01*
G01X49537Y28598D01*
G01X49533Y28651D01*
G01X49533Y28851D01*
G01X49537Y28904D01*
G01X49547Y28957D01*
G01X49564Y29009D01*
G01X49587Y29058D01*
G01X49616Y29104D01*
G01X49651Y29146D01*
G01X49690Y29184D01*
G01X49735Y29216D01*
G01X49782Y29242D01*
G01X49833Y29262D01*
G01X49886Y29276D01*
G01X49940Y29282D01*
G01X49994Y29282D01*
G01X50048Y29276D01*
G01X50101Y29262D01*
G01X50152Y29242D01*
G01X50199Y29216D01*
G01X50243Y29184D01*
G01X50283Y29146D01*
G01X50318Y29104D01*
G01X50347Y29058D01*
G01X50370Y29009D01*
G01X50387Y28957D01*
G01X50397Y28904D01*
G01X50401Y28851D01*
G01X50401Y28651D01*
G01X50397Y28598D01*
G01X50387Y28545D01*
G01X50370Y28493D01*
G01X50347Y28444D01*
G01X50318Y28398D01*
G01X50283Y28356D01*
G01X50243Y28318D01*
G01X50199Y28286D01*
G01X50152Y28260D01*
G01X50101Y28240D01*
G01X50048Y28227D01*
G01X49994Y28220D01*
G01X49940Y28220D01*
G37*
G36*
G01X51499Y29779D02*
G01X51445Y29786D01*
G01X51392Y29799D01*
G01X51341Y29819D01*
G01X51294Y29845D01*
G01X51249Y29877D01*
G01X51210Y29915D01*
G01X51175Y29957D01*
G01X51146Y30003D01*
G01X51123Y30052D01*
G01X51106Y30104D01*
G01X51096Y30157D01*
G01X51092Y30210D01*
G01X51092Y30410D01*
G01X51096Y30463D01*
G01X51106Y30516D01*
G01X51123Y30568D01*
G01X51146Y30618D01*
G01X51175Y30663D01*
G01X51210Y30705D01*
G01X51249Y30743D01*
G01X51294Y30775D01*
G01X51341Y30801D01*
G01X51392Y30821D01*
G01X51445Y30835D01*
G01X51499Y30841D01*
G01X51553Y30841D01*
G01X51607Y30835D01*
G01X51660Y30821D01*
G01X51711Y30801D01*
G01X51758Y30775D01*
G01X51802Y30743D01*
G01X51842Y30705D01*
G01X51877Y30663D01*
G01X51906Y30617D01*
G01X51929Y30568D01*
G01X51946Y30516D01*
G01X51956Y30463D01*
G01X51960Y30410D01*
G01X51960Y30210D01*
G01X51956Y30157D01*
G01X51946Y30104D01*
G01X51929Y30052D01*
G01X51906Y30003D01*
G01X51877Y29957D01*
G01X51842Y29915D01*
G01X51802Y29877D01*
G01X51758Y29845D01*
G01X51711Y29819D01*
G01X51660Y29799D01*
G01X51607Y29786D01*
G01X51553Y29779D01*
G01X51499Y29779D01*
G37*
G36*
G01X51499Y28220D02*
G01X51445Y28227D01*
G01X51392Y28240D01*
G01X51341Y28260D01*
G01X51294Y28286D01*
G01X51249Y28318D01*
G01X51210Y28356D01*
G01X51175Y28398D01*
G01X51146Y28444D01*
G01X51123Y28493D01*
G01X51106Y28545D01*
G01X51096Y28598D01*
G01X51092Y28651D01*
G01X51092Y28851D01*
G01X51096Y28904D01*
G01X51106Y28957D01*
G01X51123Y29009D01*
G01X51146Y29058D01*
G01X51175Y29104D01*
G01X51210Y29146D01*
G01X51249Y29184D01*
G01X51294Y29216D01*
G01X51341Y29242D01*
G01X51392Y29262D01*
G01X51445Y29276D01*
G01X51499Y29282D01*
G01X51553Y29282D01*
G01X51607Y29276D01*
G01X51660Y29262D01*
G01X51711Y29242D01*
G01X51758Y29216D01*
G01X51802Y29184D01*
G01X51842Y29146D01*
G01X51877Y29104D01*
G01X51906Y29058D01*
G01X51929Y29009D01*
G01X51946Y28957D01*
G01X51956Y28904D01*
G01X51960Y28851D01*
G01X51960Y28651D01*
G01X51956Y28598D01*
G01X51946Y28545D01*
G01X51929Y28493D01*
G01X51906Y28444D01*
G01X51877Y28398D01*
G01X51842Y28356D01*
G01X51802Y28318D01*
G01X51758Y28286D01*
G01X51711Y28260D01*
G01X51660Y28240D01*
G01X51607Y28227D01*
G01X51553Y28220D01*
G01X51499Y28220D01*
G37*
G36*
G01X53058Y29779D02*
G01X53004Y29786D01*
G01X52951Y29799D01*
G01X52900Y29819D01*
G01X52853Y29845D01*
G01X52809Y29877D01*
G01X52769Y29915D01*
G01X52734Y29957D01*
G01X52705Y30003D01*
G01X52682Y30052D01*
G01X52665Y30104D01*
G01X52655Y30157D01*
G01X52651Y30210D01*
G01X52651Y30410D01*
G01X52655Y30463D01*
G01X52665Y30516D01*
G01X52682Y30568D01*
G01X52705Y30617D01*
G01X52734Y30663D01*
G01X52769Y30705D01*
G01X52809Y30743D01*
G01X52853Y30775D01*
G01X52900Y30801D01*
G01X52951Y30821D01*
G01X53004Y30835D01*
G01X53058Y30841D01*
G01X53112Y30841D01*
G01X53166Y30835D01*
G01X53219Y30821D01*
G01X53270Y30801D01*
G01X53317Y30775D01*
G01X53362Y30743D01*
G01X53401Y30705D01*
G01X53436Y30663D01*
G01X53465Y30618D01*
G01X53488Y30568D01*
G01X53505Y30516D01*
G01X53515Y30463D01*
G01X53519Y30410D01*
G01X53519Y30210D01*
G01X53515Y30157D01*
G01X53505Y30104D01*
G01X53488Y30052D01*
G01X53465Y30003D01*
G01X53436Y29957D01*
G01X53401Y29915D01*
G01X53362Y29877D01*
G01X53317Y29845D01*
G01X53270Y29819D01*
G01X53219Y29799D01*
G01X53166Y29786D01*
G01X53112Y29779D01*
G01X53058Y29779D01*
G37*
G36*
G01X53058Y28220D02*
G01X53004Y28227D01*
G01X52951Y28240D01*
G01X52900Y28260D01*
G01X52853Y28286D01*
G01X52809Y28318D01*
G01X52769Y28356D01*
G01X52734Y28398D01*
G01X52705Y28444D01*
G01X52682Y28493D01*
G01X52665Y28545D01*
G01X52655Y28598D01*
G01X52651Y28651D01*
G01X52651Y28851D01*
G01X52655Y28904D01*
G01X52665Y28957D01*
G01X52682Y29009D01*
G01X52705Y29058D01*
G01X52734Y29104D01*
G01X52769Y29146D01*
G01X52809Y29184D01*
G01X52853Y29216D01*
G01X52900Y29242D01*
G01X52951Y29262D01*
G01X53004Y29276D01*
G01X53058Y29282D01*
G01X53112Y29282D01*
G01X53166Y29276D01*
G01X53219Y29262D01*
G01X53270Y29242D01*
G01X53317Y29216D01*
G01X53362Y29184D01*
G01X53401Y29146D01*
G01X53436Y29104D01*
G01X53465Y29058D01*
G01X53488Y29009D01*
G01X53505Y28957D01*
G01X53515Y28904D01*
G01X53519Y28851D01*
G01X53519Y28651D01*
G01X53515Y28598D01*
G01X53505Y28545D01*
G01X53488Y28493D01*
G01X53465Y28444D01*
G01X53436Y28398D01*
G01X53401Y28356D01*
G01X53362Y28318D01*
G01X53317Y28286D01*
G01X53270Y28260D01*
G01X53219Y28240D01*
G01X53166Y28227D01*
G01X53112Y28220D01*
G01X53058Y28220D01*
G37*
G36*
G01X54617Y29779D02*
G01X54563Y29786D01*
G01X54510Y29799D01*
G01X54459Y29819D01*
G01X54412Y29845D01*
G01X54368Y29877D01*
G01X54328Y29915D01*
G01X54293Y29957D01*
G01X54264Y30003D01*
G01X54241Y30052D01*
G01X54224Y30104D01*
G01X54214Y30157D01*
G01X54210Y30210D01*
G01X54210Y30410D01*
G01X54214Y30463D01*
G01X54224Y30516D01*
G01X54241Y30568D01*
G01X54264Y30618D01*
G01X54293Y30663D01*
G01X54328Y30705D01*
G01X54368Y30743D01*
G01X54412Y30775D01*
G01X54459Y30801D01*
G01X54510Y30821D01*
G01X54563Y30835D01*
G01X54617Y30841D01*
G01X54671Y30841D01*
G01X54725Y30835D01*
G01X54778Y30821D01*
G01X54829Y30801D01*
G01X54876Y30775D01*
G01X54921Y30743D01*
G01X54960Y30705D01*
G01X54995Y30663D01*
G01X55024Y30617D01*
G01X55047Y30568D01*
G01X55064Y30516D01*
G01X55074Y30463D01*
G01X55078Y30410D01*
G01X55078Y30210D01*
G01X55074Y30157D01*
G01X55064Y30104D01*
G01X55047Y30052D01*
G01X55024Y30003D01*
G01X54995Y29957D01*
G01X54960Y29915D01*
G01X54921Y29877D01*
G01X54876Y29845D01*
G01X54829Y29819D01*
G01X54778Y29799D01*
G01X54725Y29786D01*
G01X54671Y29779D01*
G01X54617Y29779D01*
G37*
G36*
G01X54617Y28220D02*
G01X54563Y28227D01*
G01X54510Y28240D01*
G01X54459Y28260D01*
G01X54412Y28286D01*
G01X54368Y28318D01*
G01X54328Y28356D01*
G01X54293Y28398D01*
G01X54264Y28444D01*
G01X54241Y28493D01*
G01X54224Y28545D01*
G01X54214Y28598D01*
G01X54210Y28651D01*
G01X54210Y28851D01*
G01X54214Y28904D01*
G01X54224Y28957D01*
G01X54241Y29009D01*
G01X54264Y29058D01*
G01X54293Y29104D01*
G01X54328Y29146D01*
G01X54368Y29184D01*
G01X54412Y29216D01*
G01X54459Y29242D01*
G01X54510Y29262D01*
G01X54563Y29276D01*
G01X54617Y29282D01*
G01X54671Y29282D01*
G01X54725Y29276D01*
G01X54778Y29262D01*
G01X54829Y29242D01*
G01X54876Y29216D01*
G01X54921Y29184D01*
G01X54960Y29146D01*
G01X54995Y29104D01*
G01X55024Y29058D01*
G01X55047Y29009D01*
G01X55064Y28957D01*
G01X55074Y28904D01*
G01X55078Y28851D01*
G01X55078Y28651D01*
G01X55074Y28598D01*
G01X55064Y28545D01*
G01X55047Y28493D01*
G01X55024Y28444D01*
G01X54995Y28398D01*
G01X54960Y28356D01*
G01X54921Y28318D01*
G01X54876Y28286D01*
G01X54829Y28260D01*
G01X54778Y28240D01*
G01X54725Y28227D01*
G01X54671Y28220D01*
G01X54617Y28220D01*
G37*
G36*
G01X56176Y29779D02*
G01X56122Y29786D01*
G01X56069Y29799D01*
G01X56018Y29819D01*
G01X55971Y29845D01*
G01X55927Y29877D01*
G01X55887Y29915D01*
G01X55852Y29957D01*
G01X55823Y30003D01*
G01X55800Y30052D01*
G01X55783Y30104D01*
G01X55773Y30157D01*
G01X55769Y30210D01*
G01X55769Y30410D01*
G01X55773Y30463D01*
G01X55783Y30516D01*
G01X55800Y30568D01*
G01X55823Y30617D01*
G01X55852Y30663D01*
G01X55887Y30705D01*
G01X55927Y30743D01*
G01X55971Y30775D01*
G01X56018Y30801D01*
G01X56069Y30821D01*
G01X56122Y30835D01*
G01X56176Y30841D01*
G01X56230Y30841D01*
G01X56284Y30835D01*
G01X56337Y30821D01*
G01X56388Y30801D01*
G01X56436Y30775D01*
G01X56480Y30743D01*
G01X56519Y30705D01*
G01X56554Y30663D01*
G01X56583Y30618D01*
G01X56606Y30568D01*
G01X56623Y30516D01*
G01X56633Y30463D01*
G01X56637Y30410D01*
G01X56637Y30210D01*
G01X56633Y30157D01*
G01X56623Y30104D01*
G01X56606Y30052D01*
G01X56583Y30003D01*
G01X56554Y29957D01*
G01X56519Y29915D01*
G01X56480Y29877D01*
G01X56436Y29845D01*
G01X56388Y29819D01*
G01X56337Y29799D01*
G01X56284Y29786D01*
G01X56230Y29779D01*
G01X56176Y29779D01*
G37*
G36*
G01X56176Y28220D02*
G01X56122Y28227D01*
G01X56069Y28240D01*
G01X56018Y28260D01*
G01X55971Y28286D01*
G01X55927Y28318D01*
G01X55887Y28356D01*
G01X55852Y28398D01*
G01X55823Y28444D01*
G01X55800Y28493D01*
G01X55783Y28545D01*
G01X55773Y28598D01*
G01X55769Y28651D01*
G01X55769Y28851D01*
G01X55773Y28904D01*
G01X55783Y28957D01*
G01X55800Y29009D01*
G01X55823Y29058D01*
G01X55852Y29104D01*
G01X55887Y29146D01*
G01X55927Y29184D01*
G01X55971Y29216D01*
G01X56018Y29242D01*
G01X56069Y29262D01*
G01X56122Y29276D01*
G01X56176Y29282D01*
G01X56230Y29282D01*
G01X56284Y29276D01*
G01X56337Y29262D01*
G01X56388Y29242D01*
G01X56436Y29216D01*
G01X56480Y29184D01*
G01X56519Y29146D01*
G01X56554Y29104D01*
G01X56583Y29058D01*
G01X56606Y29009D01*
G01X56623Y28957D01*
G01X56633Y28904D01*
G01X56637Y28851D01*
G01X56637Y28651D01*
G01X56633Y28598D01*
G01X56623Y28545D01*
G01X56606Y28493D01*
G01X56583Y28444D01*
G01X56554Y28398D01*
G01X56519Y28356D01*
G01X56480Y28318D01*
G01X56436Y28286D01*
G01X56388Y28260D01*
G01X56337Y28240D01*
G01X56284Y28227D01*
G01X56230Y28220D01*
G01X56176Y28220D01*
G37*
G36*
G01X57735Y29779D02*
G01X57681Y29786D01*
G01X57628Y29799D01*
G01X57578Y29819D01*
G01X57530Y29845D01*
G01X57486Y29877D01*
G01X57446Y29915D01*
G01X57411Y29957D01*
G01X57382Y30003D01*
G01X57359Y30052D01*
G01X57342Y30104D01*
G01X57332Y30157D01*
G01X57329Y30210D01*
G01X57329Y30410D01*
G01X57332Y30463D01*
G01X57342Y30516D01*
G01X57359Y30568D01*
G01X57382Y30618D01*
G01X57411Y30663D01*
G01X57446Y30705D01*
G01X57486Y30743D01*
G01X57530Y30775D01*
G01X57578Y30801D01*
G01X57628Y30821D01*
G01X57681Y30835D01*
G01X57735Y30841D01*
G01X57789Y30841D01*
G01X57844Y30835D01*
G01X57896Y30821D01*
G01X57947Y30801D01*
G01X57995Y30775D01*
G01X58039Y30743D01*
G01X58078Y30705D01*
G01X58113Y30663D01*
G01X58142Y30617D01*
G01X58165Y30568D01*
G01X58182Y30516D01*
G01X58193Y30463D01*
G01X58196Y30410D01*
G01X58196Y30210D01*
G01X58193Y30157D01*
G01X58182Y30104D01*
G01X58165Y30052D01*
G01X58142Y30003D01*
G01X58113Y29957D01*
G01X58078Y29915D01*
G01X58039Y29877D01*
G01X57995Y29845D01*
G01X57947Y29819D01*
G01X57896Y29799D01*
G01X57844Y29786D01*
G01X57789Y29779D01*
G01X57735Y29779D01*
G37*
G36*
G01X57735Y28220D02*
G01X57681Y28227D01*
G01X57628Y28240D01*
G01X57578Y28260D01*
G01X57530Y28286D01*
G01X57486Y28318D01*
G01X57446Y28356D01*
G01X57411Y28398D01*
G01X57382Y28444D01*
G01X57359Y28493D01*
G01X57342Y28545D01*
G01X57332Y28598D01*
G01X57329Y28651D01*
G01X57329Y28851D01*
G01X57332Y28904D01*
G01X57342Y28957D01*
G01X57359Y29009D01*
G01X57382Y29058D01*
G01X57411Y29104D01*
G01X57446Y29146D01*
G01X57486Y29184D01*
G01X57530Y29216D01*
G01X57578Y29242D01*
G01X57628Y29262D01*
G01X57681Y29276D01*
G01X57735Y29282D01*
G01X57789Y29282D01*
G01X57844Y29276D01*
G01X57896Y29262D01*
G01X57947Y29242D01*
G01X57995Y29216D01*
G01X58039Y29184D01*
G01X58078Y29146D01*
G01X58113Y29104D01*
G01X58142Y29058D01*
G01X58165Y29009D01*
G01X58182Y28957D01*
G01X58193Y28904D01*
G01X58196Y28851D01*
G01X58196Y28651D01*
G01X58193Y28598D01*
G01X58182Y28545D01*
G01X58165Y28493D01*
G01X58142Y28444D01*
G01X58113Y28398D01*
G01X58078Y28356D01*
G01X58039Y28318D01*
G01X57995Y28286D01*
G01X57947Y28260D01*
G01X57896Y28240D01*
G01X57844Y28227D01*
G01X57789Y28220D01*
G01X57735Y28220D01*
G37*
G36*
G01X17906Y40640D02*
G01X17906Y41390D01*
G01X18656Y41390D01*
G01X18656Y40640D01*
G01X17906Y40640D01*
G37*
G01X19281Y41015D03*
G01X20281Y41015D03*
G01X21281Y41015D03*
G01X22281Y41015D03*
G01X23281Y41015D03*
G01X24281Y41015D03*
G01X25281Y41015D03*
G01X26281Y41015D03*
G01X27281Y41015D03*
G01X28281Y41015D03*
G01X29281Y41015D03*
G01X30281Y41015D03*
G01X31281Y41015D03*
G01X32281Y41015D03*
G01X33281Y41015D03*
G01X34281Y41015D03*
G01X35281Y41015D03*
G01X36281Y41015D03*
G01X37281Y41015D03*
G01X38281Y41015D03*
G01X39281Y41015D03*
G01X40281Y41015D03*
G01X41281Y41015D03*
G01X42281Y41015D03*
G01X43281Y41015D03*
G01X44281Y41015D03*
G01X45281Y41015D03*
G01X46281Y41015D03*
G01X47281Y41015D03*
G36*
G01X57835Y20107D02*
G01X57769Y20116D01*
G01X57704Y20132D01*
G01X57642Y20157D01*
G01X57583Y20189D01*
G01X57529Y20228D01*
G01X57480Y20274D01*
G01X57438Y20326D01*
G01X57402Y20382D01*
G01X57374Y20443D01*
G01X57353Y20506D01*
G01X57340Y20572D01*
G01X57336Y20637D01*
G01X57336Y22018D01*
G01X57340Y22083D01*
G01X57353Y22149D01*
G01X57374Y22212D01*
G01X57402Y22273D01*
G01X57438Y22329D01*
G01X57480Y22381D01*
G01X57529Y22426D01*
G01X57583Y22466D01*
G01X57642Y22498D01*
G01X57704Y22523D01*
G01X57769Y22539D01*
G01X57835Y22547D01*
G01X57902Y22547D01*
G01X57968Y22539D01*
G01X58033Y22523D01*
G01X58095Y22498D01*
G01X58154Y22466D01*
G01X58208Y22426D01*
G01X58256Y22381D01*
G01X58299Y22329D01*
G01X58335Y22273D01*
G01X58363Y22212D01*
G01X58384Y22149D01*
G01X58396Y22083D01*
G01X58401Y22018D01*
G01X58401Y20637D01*
G01X58396Y20572D01*
G01X58384Y20506D01*
G01X58363Y20443D01*
G01X58335Y20382D01*
G01X58299Y20326D01*
G01X58256Y20274D01*
G01X58208Y20228D01*
G01X58154Y20189D01*
G01X58095Y20157D01*
G01X58033Y20132D01*
G01X57968Y20116D01*
G01X57902Y20107D01*
G01X57835Y20107D01*
G37*
G36*
G01X56276Y20107D02*
G01X56210Y20116D01*
G01X56145Y20132D01*
G01X56083Y20157D01*
G01X56024Y20189D01*
G01X55970Y20228D01*
G01X55921Y20274D01*
G01X55879Y20326D01*
G01X55843Y20382D01*
G01X55815Y20443D01*
G01X55794Y20506D01*
G01X55781Y20572D01*
G01X55777Y20637D01*
G01X55777Y22018D01*
G01X55781Y22083D01*
G01X55794Y22149D01*
G01X55815Y22212D01*
G01X55843Y22273D01*
G01X55879Y22329D01*
G01X55921Y22381D01*
G01X55970Y22426D01*
G01X56024Y22466D01*
G01X56083Y22498D01*
G01X56145Y22523D01*
G01X56210Y22539D01*
G01X56276Y22547D01*
G01X56343Y22547D01*
G01X56409Y22539D01*
G01X56474Y22523D01*
G01X56536Y22498D01*
G01X56595Y22466D01*
G01X56649Y22426D01*
G01X56697Y22381D01*
G01X56740Y22329D01*
G01X56776Y22273D01*
G01X56804Y22212D01*
G01X56825Y22149D01*
G01X56837Y22083D01*
G01X56842Y22018D01*
G01X56842Y20637D01*
G01X56837Y20572D01*
G01X56825Y20506D01*
G01X56804Y20443D01*
G01X56776Y20382D01*
G01X56740Y20326D01*
G01X56697Y20274D01*
G01X56649Y20228D01*
G01X56595Y20189D01*
G01X56536Y20157D01*
G01X56474Y20132D01*
G01X56409Y20116D01*
G01X56343Y20107D01*
G01X56276Y20107D01*
G37*
G36*
G01X54717Y20107D02*
G01X54651Y20116D01*
G01X54586Y20132D01*
G01X54524Y20157D01*
G01X54465Y20189D01*
G01X54411Y20228D01*
G01X54362Y20274D01*
G01X54320Y20326D01*
G01X54284Y20382D01*
G01X54256Y20443D01*
G01X54235Y20506D01*
G01X54222Y20572D01*
G01X54218Y20637D01*
G01X54218Y22018D01*
G01X54222Y22083D01*
G01X54235Y22149D01*
G01X54256Y22212D01*
G01X54284Y22273D01*
G01X54320Y22329D01*
G01X54362Y22381D01*
G01X54411Y22426D01*
G01X54465Y22466D01*
G01X54524Y22498D01*
G01X54586Y22523D01*
G01X54651Y22539D01*
G01X54717Y22547D01*
G01X54784Y22547D01*
G01X54850Y22539D01*
G01X54915Y22523D01*
G01X54977Y22498D01*
G01X55036Y22466D01*
G01X55090Y22426D01*
G01X55138Y22381D01*
G01X55181Y22329D01*
G01X55217Y22273D01*
G01X55245Y22212D01*
G01X55266Y22149D01*
G01X55278Y22083D01*
G01X55283Y22018D01*
G01X55283Y20637D01*
G01X55278Y20572D01*
G01X55266Y20506D01*
G01X55245Y20443D01*
G01X55217Y20382D01*
G01X55181Y20326D01*
G01X55138Y20274D01*
G01X55090Y20228D01*
G01X55036Y20189D01*
G01X54977Y20157D01*
G01X54915Y20132D01*
G01X54850Y20116D01*
G01X54784Y20107D01*
G01X54717Y20107D01*
G37*
G36*
G01X53158Y20107D02*
G01X53092Y20116D01*
G01X53027Y20132D01*
G01X52965Y20157D01*
G01X52906Y20189D01*
G01X52852Y20228D01*
G01X52803Y20274D01*
G01X52761Y20326D01*
G01X52725Y20382D01*
G01X52696Y20443D01*
G01X52676Y20506D01*
G01X52663Y20572D01*
G01X52659Y20637D01*
G01X52659Y22018D01*
G01X52663Y22083D01*
G01X52676Y22149D01*
G01X52696Y22212D01*
G01X52725Y22273D01*
G01X52761Y22329D01*
G01X52803Y22381D01*
G01X52852Y22426D01*
G01X52906Y22466D01*
G01X52965Y22498D01*
G01X53027Y22523D01*
G01X53092Y22539D01*
G01X53158Y22547D01*
G01X53225Y22547D01*
G01X53291Y22539D01*
G01X53356Y22523D01*
G01X53418Y22498D01*
G01X53476Y22466D01*
G01X53531Y22426D01*
G01X53579Y22381D01*
G01X53622Y22329D01*
G01X53658Y22273D01*
G01X53686Y22212D01*
G01X53707Y22149D01*
G01X53719Y22083D01*
G01X53723Y22018D01*
G01X53723Y20637D01*
G01X53719Y20572D01*
G01X53707Y20506D01*
G01X53686Y20443D01*
G01X53658Y20382D01*
G01X53622Y20326D01*
G01X53579Y20274D01*
G01X53531Y20228D01*
G01X53476Y20189D01*
G01X53418Y20157D01*
G01X53356Y20132D01*
G01X53291Y20116D01*
G01X53225Y20107D01*
G01X53158Y20107D01*
G37*
G36*
G01X51599Y20107D02*
G01X51532Y20116D01*
G01X51468Y20132D01*
G01X51406Y20157D01*
G01X51347Y20189D01*
G01X51293Y20228D01*
G01X51244Y20274D01*
G01X51202Y20326D01*
G01X51166Y20382D01*
G01X51137Y20443D01*
G01X51117Y20506D01*
G01X51104Y20572D01*
G01X51100Y20637D01*
G01X51100Y22018D01*
G01X51104Y22083D01*
G01X51117Y22149D01*
G01X51137Y22212D01*
G01X51166Y22273D01*
G01X51202Y22329D01*
G01X51244Y22381D01*
G01X51293Y22426D01*
G01X51347Y22466D01*
G01X51406Y22498D01*
G01X51468Y22523D01*
G01X51532Y22539D01*
G01X51599Y22547D01*
G01X51666Y22547D01*
G01X51732Y22539D01*
G01X51797Y22523D01*
G01X51859Y22498D01*
G01X51917Y22466D01*
G01X51972Y22426D01*
G01X52020Y22381D01*
G01X52063Y22329D01*
G01X52099Y22273D01*
G01X52127Y22212D01*
G01X52148Y22149D01*
G01X52160Y22083D01*
G01X52164Y22018D01*
G01X52164Y20637D01*
G01X52160Y20572D01*
G01X52148Y20506D01*
G01X52127Y20443D01*
G01X52099Y20382D01*
G01X52063Y20326D01*
G01X52020Y20274D01*
G01X51972Y20228D01*
G01X51917Y20189D01*
G01X51859Y20157D01*
G01X51797Y20132D01*
G01X51732Y20116D01*
G01X51666Y20107D01*
G01X51599Y20107D01*
G37*
G36*
G01X50040Y20107D02*
G01X49973Y20116D01*
G01X49909Y20132D01*
G01X49847Y20157D01*
G01X49788Y20189D01*
G01X49734Y20228D01*
G01X49685Y20274D01*
G01X49643Y20326D01*
G01X49607Y20382D01*
G01X49578Y20443D01*
G01X49558Y20506D01*
G01X49545Y20572D01*
G01X49541Y20637D01*
G01X49541Y22018D01*
G01X49545Y22083D01*
G01X49558Y22149D01*
G01X49578Y22212D01*
G01X49607Y22273D01*
G01X49643Y22329D01*
G01X49685Y22381D01*
G01X49734Y22426D01*
G01X49788Y22466D01*
G01X49847Y22498D01*
G01X49909Y22523D01*
G01X49973Y22539D01*
G01X50040Y22547D01*
G01X50107Y22547D01*
G01X50173Y22539D01*
G01X50238Y22523D01*
G01X50300Y22498D01*
G01X50358Y22466D01*
G01X50412Y22426D01*
G01X50461Y22381D01*
G01X50504Y22329D01*
G01X50540Y22273D01*
G01X50568Y22212D01*
G01X50589Y22149D01*
G01X50601Y22083D01*
G01X50605Y22018D01*
G01X50605Y20637D01*
G01X50601Y20572D01*
G01X50589Y20506D01*
G01X50568Y20443D01*
G01X50540Y20382D01*
G01X50504Y20326D01*
G01X50461Y20274D01*
G01X50412Y20228D01*
G01X50358Y20189D01*
G01X50300Y20157D01*
G01X50238Y20132D01*
G01X50173Y20116D01*
G01X50107Y20107D01*
G01X50040Y20107D01*
G37*
G36*
G01X48481Y20107D02*
G01X48414Y20116D01*
G01X48350Y20132D01*
G01X48288Y20157D01*
G01X48229Y20189D01*
G01X48175Y20228D01*
G01X48126Y20274D01*
G01X48084Y20326D01*
G01X48048Y20382D01*
G01X48019Y20443D01*
G01X47999Y20506D01*
G01X47986Y20572D01*
G01X47982Y20637D01*
G01X47982Y22018D01*
G01X47986Y22083D01*
G01X47999Y22149D01*
G01X48019Y22212D01*
G01X48048Y22273D01*
G01X48084Y22329D01*
G01X48126Y22381D01*
G01X48175Y22426D01*
G01X48229Y22466D01*
G01X48288Y22498D01*
G01X48350Y22523D01*
G01X48414Y22539D01*
G01X48481Y22547D01*
G01X48548Y22547D01*
G01X48614Y22539D01*
G01X48679Y22523D01*
G01X48741Y22498D01*
G01X48799Y22466D01*
G01X48853Y22426D01*
G01X48902Y22381D01*
G01X48945Y22329D01*
G01X48981Y22273D01*
G01X49009Y22212D01*
G01X49030Y22149D01*
G01X49042Y22083D01*
G01X49046Y22018D01*
G01X49046Y20637D01*
G01X49042Y20572D01*
G01X49030Y20506D01*
G01X49009Y20443D01*
G01X48981Y20382D01*
G01X48945Y20326D01*
G01X48902Y20274D01*
G01X48853Y20228D01*
G01X48799Y20189D01*
G01X48741Y20157D01*
G01X48679Y20132D01*
G01X48614Y20116D01*
G01X48548Y20107D01*
G01X48481Y20107D01*
G37*
G36*
G01X46922Y20107D02*
G01X46855Y20116D01*
G01X46791Y20132D01*
G01X46729Y20157D01*
G01X46670Y20189D01*
G01X46616Y20228D01*
G01X46567Y20274D01*
G01X46525Y20326D01*
G01X46489Y20382D01*
G01X46460Y20443D01*
G01X46440Y20506D01*
G01X46427Y20572D01*
G01X46423Y20637D01*
G01X46423Y22018D01*
G01X46427Y22083D01*
G01X46440Y22149D01*
G01X46460Y22212D01*
G01X46489Y22273D01*
G01X46525Y22329D01*
G01X46567Y22381D01*
G01X46616Y22426D01*
G01X46670Y22466D01*
G01X46729Y22498D01*
G01X46791Y22523D01*
G01X46855Y22539D01*
G01X46922Y22547D01*
G01X46989Y22547D01*
G01X47055Y22539D01*
G01X47120Y22523D01*
G01X47182Y22498D01*
G01X47240Y22466D01*
G01X47294Y22426D01*
G01X47343Y22381D01*
G01X47386Y22329D01*
G01X47422Y22273D01*
G01X47450Y22212D01*
G01X47471Y22149D01*
G01X47483Y22083D01*
G01X47487Y22018D01*
G01X47487Y20637D01*
G01X47483Y20572D01*
G01X47471Y20506D01*
G01X47450Y20443D01*
G01X47422Y20382D01*
G01X47386Y20326D01*
G01X47343Y20274D01*
G01X47294Y20228D01*
G01X47240Y20189D01*
G01X47182Y20157D01*
G01X47120Y20132D01*
G01X47055Y20116D01*
G01X46989Y20107D01*
G01X46922Y20107D01*
G37*
G36*
G01X45363Y20107D02*
G01X45296Y20116D01*
G01X45232Y20132D01*
G01X45169Y20157D01*
G01X45111Y20189D01*
G01X45057Y20228D01*
G01X45008Y20274D01*
G01X44965Y20326D01*
G01X44930Y20382D01*
G01X44901Y20443D01*
G01X44881Y20506D01*
G01X44868Y20572D01*
G01X44864Y20637D01*
G01X44864Y22018D01*
G01X44868Y22083D01*
G01X44881Y22149D01*
G01X44901Y22212D01*
G01X44930Y22273D01*
G01X44965Y22329D01*
G01X45008Y22381D01*
G01X45057Y22426D01*
G01X45111Y22466D01*
G01X45169Y22498D01*
G01X45232Y22523D01*
G01X45296Y22539D01*
G01X45363Y22547D01*
G01X45430Y22547D01*
G01X45496Y22539D01*
G01X45560Y22523D01*
G01X45623Y22498D01*
G01X45681Y22466D01*
G01X45735Y22426D01*
G01X45784Y22381D01*
G01X45827Y22329D01*
G01X45862Y22273D01*
G01X45891Y22212D01*
G01X45912Y22149D01*
G01X45924Y22083D01*
G01X45928Y22018D01*
G01X45928Y20637D01*
G01X45924Y20572D01*
G01X45912Y20506D01*
G01X45891Y20443D01*
G01X45862Y20382D01*
G01X45827Y20326D01*
G01X45784Y20274D01*
G01X45735Y20228D01*
G01X45681Y20189D01*
G01X45623Y20157D01*
G01X45561Y20132D01*
G01X45496Y20116D01*
G01X45430Y20107D01*
G01X45363Y20107D01*
G37*
G36*
G01X43804Y20107D02*
G01X43737Y20116D01*
G01X43672Y20132D01*
G01X43610Y20157D01*
G01X43552Y20189D01*
G01X43498Y20228D01*
G01X43449Y20274D01*
G01X43406Y20326D01*
G01X43371Y20382D01*
G01X43342Y20443D01*
G01X43321Y20506D01*
G01X43309Y20572D01*
G01X43305Y20637D01*
G01X43305Y22018D01*
G01X43309Y22083D01*
G01X43321Y22149D01*
G01X43342Y22212D01*
G01X43371Y22273D01*
G01X43406Y22329D01*
G01X43449Y22381D01*
G01X43498Y22426D01*
G01X43552Y22466D01*
G01X43610Y22498D01*
G01X43673Y22523D01*
G01X43737Y22539D01*
G01X43804Y22547D01*
G01X43870Y22547D01*
G01X43937Y22539D01*
G01X44001Y22523D01*
G01X44064Y22498D01*
G01X44122Y22466D01*
G01X44176Y22426D01*
G01X44225Y22381D01*
G01X44268Y22329D01*
G01X44303Y22273D01*
G01X44332Y22212D01*
G01X44353Y22149D01*
G01X44365Y22083D01*
G01X44369Y22018D01*
G01X44369Y20637D01*
G01X44365Y20572D01*
G01X44353Y20506D01*
G01X44332Y20443D01*
G01X44303Y20382D01*
G01X44268Y20326D01*
G01X44225Y20274D01*
G01X44176Y20228D01*
G01X44122Y20189D01*
G01X44064Y20157D01*
G01X44002Y20132D01*
G01X43937Y20116D01*
G01X43870Y20107D01*
G01X43804Y20107D01*
G37*
G36*
G01X42244Y20107D02*
G01X42178Y20116D01*
G01X42113Y20132D01*
G01X42051Y20157D01*
G01X41993Y20189D01*
G01X41939Y20228D01*
G01X41890Y20274D01*
G01X41847Y20326D01*
G01X41812Y20382D01*
G01X41783Y20443D01*
G01X41762Y20506D01*
G01X41750Y20572D01*
G01X41746Y20637D01*
G01X41746Y22018D01*
G01X41750Y22083D01*
G01X41762Y22149D01*
G01X41783Y22212D01*
G01X41812Y22273D01*
G01X41847Y22329D01*
G01X41890Y22381D01*
G01X41939Y22426D01*
G01X41993Y22466D01*
G01X42051Y22498D01*
G01X42114Y22523D01*
G01X42178Y22539D01*
G01X42244Y22547D01*
G01X42311Y22547D01*
G01X42378Y22539D01*
G01X42442Y22523D01*
G01X42505Y22498D01*
G01X42563Y22466D01*
G01X42617Y22426D01*
G01X42666Y22381D01*
G01X42709Y22329D01*
G01X42744Y22273D01*
G01X42773Y22212D01*
G01X42793Y22149D01*
G01X42806Y22083D01*
G01X42810Y22018D01*
G01X42810Y20637D01*
G01X42806Y20572D01*
G01X42793Y20506D01*
G01X42773Y20443D01*
G01X42744Y20382D01*
G01X42709Y20326D01*
G01X42666Y20274D01*
G01X42617Y20228D01*
G01X42563Y20189D01*
G01X42505Y20157D01*
G01X42442Y20132D01*
G01X42378Y20116D01*
G01X42311Y20107D01*
G01X42244Y20107D01*
G37*
G36*
G01X40685Y20107D02*
G01X40619Y20116D01*
G01X40554Y20132D01*
G01X40492Y20157D01*
G01X40434Y20189D01*
G01X40380Y20228D01*
G01X40331Y20274D01*
G01X40288Y20326D01*
G01X40252Y20382D01*
G01X40224Y20443D01*
G01X40203Y20506D01*
G01X40191Y20572D01*
G01X40187Y20637D01*
G01X40187Y22018D01*
G01X40191Y22083D01*
G01X40203Y22149D01*
G01X40224Y22212D01*
G01X40252Y22273D01*
G01X40288Y22329D01*
G01X40331Y22381D01*
G01X40380Y22426D01*
G01X40434Y22466D01*
G01X40492Y22498D01*
G01X40554Y22523D01*
G01X40619Y22539D01*
G01X40685Y22547D01*
G01X40752Y22547D01*
G01X40819Y22539D01*
G01X40883Y22523D01*
G01X40945Y22498D01*
G01X41004Y22466D01*
G01X41058Y22426D01*
G01X41107Y22381D01*
G01X41149Y22329D01*
G01X41185Y22273D01*
G01X41214Y22212D01*
G01X41234Y22149D01*
G01X41247Y22083D01*
G01X41251Y22018D01*
G01X41251Y20637D01*
G01X41247Y20572D01*
G01X41234Y20506D01*
G01X41214Y20443D01*
G01X41185Y20382D01*
G01X41149Y20326D01*
G01X41107Y20274D01*
G01X41058Y20228D01*
G01X41004Y20189D01*
G01X40945Y20157D01*
G01X40883Y20132D01*
G01X40819Y20116D01*
G01X40752Y20107D01*
G01X40685Y20107D01*
G37*
G36*
G01X39126Y20107D02*
G01X39060Y20116D01*
G01X38995Y20132D01*
G01X38933Y20157D01*
G01X38875Y20189D01*
G01X38821Y20228D01*
G01X38772Y20274D01*
G01X38729Y20326D01*
G01X38693Y20382D01*
G01X38665Y20443D01*
G01X38644Y20506D01*
G01X38632Y20572D01*
G01X38628Y20637D01*
G01X38628Y22018D01*
G01X38632Y22083D01*
G01X38644Y22149D01*
G01X38665Y22212D01*
G01X38693Y22273D01*
G01X38729Y22329D01*
G01X38772Y22381D01*
G01X38821Y22426D01*
G01X38875Y22466D01*
G01X38933Y22498D01*
G01X38995Y22523D01*
G01X39060Y22539D01*
G01X39126Y22547D01*
G01X39193Y22547D01*
G01X39260Y22539D01*
G01X39324Y22523D01*
G01X39386Y22498D01*
G01X39445Y22466D01*
G01X39499Y22426D01*
G01X39548Y22381D01*
G01X39590Y22329D01*
G01X39626Y22273D01*
G01X39655Y22212D01*
G01X39675Y22149D01*
G01X39688Y22083D01*
G01X39692Y22018D01*
G01X39692Y20637D01*
G01X39688Y20572D01*
G01X39675Y20506D01*
G01X39655Y20443D01*
G01X39626Y20382D01*
G01X39590Y20326D01*
G01X39548Y20274D01*
G01X39499Y20228D01*
G01X39445Y20189D01*
G01X39386Y20157D01*
G01X39324Y20132D01*
G01X39260Y20116D01*
G01X39193Y20107D01*
G01X39126Y20107D01*
G37*
G36*
G01X37567Y20107D02*
G01X37501Y20116D01*
G01X37436Y20132D01*
G01X37374Y20157D01*
G01X37316Y20189D01*
G01X37262Y20228D01*
G01X37213Y20274D01*
G01X37170Y20326D01*
G01X37134Y20382D01*
G01X37106Y20443D01*
G01X37085Y20506D01*
G01X37073Y20572D01*
G01X37069Y20637D01*
G01X37069Y22018D01*
G01X37073Y22083D01*
G01X37085Y22149D01*
G01X37106Y22212D01*
G01X37134Y22273D01*
G01X37170Y22329D01*
G01X37213Y22381D01*
G01X37262Y22426D01*
G01X37316Y22466D01*
G01X37374Y22498D01*
G01X37436Y22523D01*
G01X37501Y22539D01*
G01X37567Y22547D01*
G01X37634Y22547D01*
G01X37701Y22539D01*
G01X37765Y22523D01*
G01X37827Y22498D01*
G01X37886Y22466D01*
G01X37940Y22426D01*
G01X37989Y22381D01*
G01X38031Y22329D01*
G01X38067Y22273D01*
G01X38096Y22212D01*
G01X38116Y22149D01*
G01X38129Y22083D01*
G01X38133Y22018D01*
G01X38133Y20637D01*
G01X38129Y20572D01*
G01X38116Y20506D01*
G01X38096Y20443D01*
G01X38067Y20382D01*
G01X38031Y20326D01*
G01X37989Y20274D01*
G01X37940Y20228D01*
G01X37886Y20189D01*
G01X37827Y20157D01*
G01X37765Y20132D01*
G01X37701Y20116D01*
G01X37634Y20107D01*
G01X37567Y20107D01*
G37*
G36*
G01X36008Y20107D02*
G01X35942Y20116D01*
G01X35877Y20132D01*
G01X35815Y20157D01*
G01X35757Y20189D01*
G01X35702Y20228D01*
G01X35654Y20274D01*
G01X35611Y20326D01*
G01X35575Y20382D01*
G01X35547Y20443D01*
G01X35526Y20506D01*
G01X35514Y20572D01*
G01X35510Y20637D01*
G01X35510Y22018D01*
G01X35514Y22083D01*
G01X35526Y22149D01*
G01X35547Y22212D01*
G01X35575Y22273D01*
G01X35611Y22329D01*
G01X35654Y22381D01*
G01X35702Y22426D01*
G01X35757Y22466D01*
G01X35815Y22498D01*
G01X35877Y22523D01*
G01X35942Y22539D01*
G01X36008Y22547D01*
G01X36075Y22547D01*
G01X36142Y22539D01*
G01X36206Y22523D01*
G01X36268Y22498D01*
G01X36327Y22466D01*
G01X36381Y22426D01*
G01X36430Y22381D01*
G01X36472Y22329D01*
G01X36508Y22273D01*
G01X36537Y22212D01*
G01X36557Y22149D01*
G01X36570Y22083D01*
G01X36574Y22018D01*
G01X36574Y20637D01*
G01X36570Y20572D01*
G01X36557Y20506D01*
G01X36537Y20443D01*
G01X36508Y20382D01*
G01X36472Y20326D01*
G01X36430Y20274D01*
G01X36381Y20228D01*
G01X36327Y20189D01*
G01X36268Y20157D01*
G01X36206Y20132D01*
G01X36142Y20116D01*
G01X36075Y20107D01*
G01X36008Y20107D01*
G37*
G36*
G01X34449Y20107D02*
G01X34383Y20116D01*
G01X34318Y20132D01*
G01X34256Y20157D01*
G01X34198Y20189D01*
G01X34143Y20228D01*
G01X34095Y20274D01*
G01X34052Y20326D01*
G01X34016Y20382D01*
G01X33988Y20443D01*
G01X33967Y20506D01*
G01X33955Y20572D01*
G01X33951Y20637D01*
G01X33951Y22018D01*
G01X33955Y22083D01*
G01X33967Y22149D01*
G01X33988Y22212D01*
G01X34016Y22273D01*
G01X34052Y22329D01*
G01X34095Y22381D01*
G01X34143Y22426D01*
G01X34198Y22466D01*
G01X34256Y22498D01*
G01X34318Y22523D01*
G01X34383Y22539D01*
G01X34449Y22547D01*
G01X34516Y22547D01*
G01X34582Y22539D01*
G01X34647Y22523D01*
G01X34709Y22498D01*
G01X34768Y22466D01*
G01X34822Y22426D01*
G01X34871Y22381D01*
G01X34913Y22329D01*
G01X34949Y22273D01*
G01X34978Y22212D01*
G01X34998Y22149D01*
G01X35011Y22083D01*
G01X35015Y22018D01*
G01X35015Y20637D01*
G01X35011Y20572D01*
G01X34998Y20506D01*
G01X34978Y20443D01*
G01X34949Y20382D01*
G01X34913Y20326D01*
G01X34871Y20274D01*
G01X34822Y20228D01*
G01X34768Y20189D01*
G01X34709Y20157D01*
G01X34647Y20132D01*
G01X34582Y20116D01*
G01X34516Y20107D01*
G01X34449Y20107D01*
G37*
G36*
G01X32890Y20107D02*
G01X32824Y20116D01*
G01X32759Y20132D01*
G01X32697Y20157D01*
G01X32638Y20189D01*
G01X32584Y20228D01*
G01X32536Y20274D01*
G01X32493Y20326D01*
G01X32457Y20382D01*
G01X32429Y20443D01*
G01X32408Y20506D01*
G01X32396Y20572D01*
G01X32392Y20637D01*
G01X32392Y22018D01*
G01X32396Y22083D01*
G01X32408Y22149D01*
G01X32429Y22212D01*
G01X32457Y22273D01*
G01X32493Y22329D01*
G01X32536Y22381D01*
G01X32584Y22426D01*
G01X32638Y22466D01*
G01X32697Y22498D01*
G01X32759Y22523D01*
G01X32824Y22539D01*
G01X32890Y22547D01*
G01X32957Y22547D01*
G01X33023Y22539D01*
G01X33088Y22523D01*
G01X33150Y22498D01*
G01X33209Y22466D01*
G01X33263Y22426D01*
G01X33312Y22381D01*
G01X33354Y22329D01*
G01X33390Y22273D01*
G01X33418Y22212D01*
G01X33439Y22149D01*
G01X33452Y22083D01*
G01X33456Y22018D01*
G01X33456Y20637D01*
G01X33452Y20572D01*
G01X33439Y20506D01*
G01X33418Y20443D01*
G01X33390Y20382D01*
G01X33354Y20326D01*
G01X33312Y20274D01*
G01X33263Y20228D01*
G01X33209Y20189D01*
G01X33150Y20157D01*
G01X33088Y20132D01*
G01X33023Y20116D01*
G01X32957Y20107D01*
G01X32890Y20107D01*
G37*
G36*
G01X31331Y20107D02*
G01X31265Y20116D01*
G01X31200Y20132D01*
G01X31138Y20157D01*
G01X31079Y20189D01*
G01X31025Y20228D01*
G01X30977Y20274D01*
G01X30934Y20326D01*
G01X30898Y20382D01*
G01X30870Y20443D01*
G01X30849Y20506D01*
G01X30837Y20572D01*
G01X30833Y20637D01*
G01X30833Y22018D01*
G01X30837Y22083D01*
G01X30849Y22149D01*
G01X30870Y22212D01*
G01X30898Y22273D01*
G01X30934Y22329D01*
G01X30977Y22381D01*
G01X31025Y22426D01*
G01X31079Y22466D01*
G01X31138Y22498D01*
G01X31200Y22523D01*
G01X31265Y22539D01*
G01X31331Y22547D01*
G01X31398Y22547D01*
G01X31464Y22539D01*
G01X31529Y22523D01*
G01X31591Y22498D01*
G01X31650Y22466D01*
G01X31704Y22426D01*
G01X31753Y22381D01*
G01X31795Y22329D01*
G01X31831Y22273D01*
G01X31859Y22212D01*
G01X31880Y22149D01*
G01X31893Y22083D01*
G01X31897Y22018D01*
G01X31897Y20637D01*
G01X31893Y20572D01*
G01X31880Y20506D01*
G01X31859Y20443D01*
G01X31831Y20382D01*
G01X31795Y20326D01*
G01X31753Y20274D01*
G01X31704Y20228D01*
G01X31650Y20189D01*
G01X31591Y20157D01*
G01X31529Y20132D01*
G01X31464Y20116D01*
G01X31398Y20107D01*
G01X31331Y20107D01*
G37*
G36*
G01X29772Y20107D02*
G01X29706Y20116D01*
G01X29641Y20132D01*
G01X29579Y20157D01*
G01X29520Y20189D01*
G01X29466Y20228D01*
G01X29418Y20274D01*
G01X29375Y20326D01*
G01X29339Y20382D01*
G01X29311Y20443D01*
G01X29290Y20506D01*
G01X29278Y20572D01*
G01X29273Y20637D01*
G01X29273Y22018D01*
G01X29278Y22083D01*
G01X29290Y22149D01*
G01X29311Y22212D01*
G01X29339Y22273D01*
G01X29375Y22329D01*
G01X29418Y22381D01*
G01X29466Y22426D01*
G01X29520Y22466D01*
G01X29579Y22498D01*
G01X29641Y22523D01*
G01X29706Y22539D01*
G01X29772Y22547D01*
G01X29839Y22547D01*
G01X29905Y22539D01*
G01X29970Y22523D01*
G01X30032Y22498D01*
G01X30091Y22466D01*
G01X30145Y22426D01*
G01X30194Y22381D01*
G01X30236Y22329D01*
G01X30272Y22273D01*
G01X30300Y22212D01*
G01X30321Y22149D01*
G01X30334Y22083D01*
G01X30338Y22018D01*
G01X30338Y20637D01*
G01X30334Y20572D01*
G01X30321Y20506D01*
G01X30300Y20443D01*
G01X30272Y20382D01*
G01X30236Y20326D01*
G01X30194Y20274D01*
G01X30145Y20228D01*
G01X30091Y20189D01*
G01X30032Y20157D01*
G01X29970Y20132D01*
G01X29905Y20116D01*
G01X29839Y20107D01*
G01X29772Y20107D01*
G37*
G36*
G01X28213Y20107D02*
G01X28147Y20116D01*
G01X28082Y20132D01*
G01X28020Y20157D01*
G01X27961Y20189D01*
G01X27907Y20228D01*
G01X27858Y20274D01*
G01X27816Y20326D01*
G01X27780Y20382D01*
G01X27752Y20443D01*
G01X27731Y20506D01*
G01X27718Y20572D01*
G01X27714Y20637D01*
G01X27714Y22018D01*
G01X27718Y22083D01*
G01X27731Y22149D01*
G01X27752Y22212D01*
G01X27780Y22273D01*
G01X27816Y22329D01*
G01X27858Y22381D01*
G01X27907Y22426D01*
G01X27961Y22466D01*
G01X28020Y22498D01*
G01X28082Y22523D01*
G01X28147Y22539D01*
G01X28213Y22547D01*
G01X28280Y22547D01*
G01X28346Y22539D01*
G01X28411Y22523D01*
G01X28473Y22498D01*
G01X28532Y22466D01*
G01X28586Y22426D01*
G01X28634Y22381D01*
G01X28677Y22329D01*
G01X28713Y22273D01*
G01X28741Y22212D01*
G01X28762Y22149D01*
G01X28774Y22083D01*
G01X28779Y22018D01*
G01X28779Y20637D01*
G01X28774Y20572D01*
G01X28762Y20506D01*
G01X28741Y20443D01*
G01X28713Y20382D01*
G01X28677Y20326D01*
G01X28634Y20274D01*
G01X28586Y20228D01*
G01X28532Y20189D01*
G01X28473Y20157D01*
G01X28411Y20132D01*
G01X28346Y20116D01*
G01X28280Y20107D01*
G01X28213Y20107D01*
G37*
G36*
G01X26654Y20107D02*
G01X26588Y20116D01*
G01X26523Y20132D01*
G01X26461Y20157D01*
G01X26402Y20189D01*
G01X26348Y20228D01*
G01X26299Y20274D01*
G01X26257Y20326D01*
G01X26221Y20382D01*
G01X26193Y20443D01*
G01X26172Y20506D01*
G01X26159Y20572D01*
G01X26155Y20637D01*
G01X26155Y22018D01*
G01X26159Y22083D01*
G01X26172Y22149D01*
G01X26193Y22212D01*
G01X26221Y22273D01*
G01X26257Y22329D01*
G01X26299Y22381D01*
G01X26348Y22426D01*
G01X26402Y22466D01*
G01X26461Y22498D01*
G01X26523Y22523D01*
G01X26588Y22539D01*
G01X26654Y22547D01*
G01X26721Y22547D01*
G01X26787Y22539D01*
G01X26852Y22523D01*
G01X26914Y22498D01*
G01X26973Y22466D01*
G01X27027Y22426D01*
G01X27075Y22381D01*
G01X27118Y22329D01*
G01X27154Y22273D01*
G01X27182Y22212D01*
G01X27203Y22149D01*
G01X27215Y22083D01*
G01X27220Y22018D01*
G01X27220Y20637D01*
G01X27215Y20572D01*
G01X27203Y20506D01*
G01X27182Y20443D01*
G01X27154Y20382D01*
G01X27118Y20326D01*
G01X27075Y20274D01*
G01X27027Y20228D01*
G01X26973Y20189D01*
G01X26914Y20157D01*
G01X26852Y20132D01*
G01X26787Y20116D01*
G01X26721Y20107D01*
G01X26654Y20107D01*
G37*
G36*
G01X25095Y20107D02*
G01X25029Y20116D01*
G01X24964Y20132D01*
G01X24902Y20157D01*
G01X24843Y20189D01*
G01X24789Y20228D01*
G01X24740Y20274D01*
G01X24698Y20326D01*
G01X24662Y20382D01*
G01X24634Y20443D01*
G01X24613Y20506D01*
G01X24600Y20572D01*
G01X24596Y20637D01*
G01X24596Y22018D01*
G01X24600Y22083D01*
G01X24613Y22149D01*
G01X24634Y22212D01*
G01X24662Y22273D01*
G01X24698Y22329D01*
G01X24740Y22381D01*
G01X24789Y22426D01*
G01X24843Y22466D01*
G01X24902Y22498D01*
G01X24964Y22523D01*
G01X25029Y22539D01*
G01X25095Y22547D01*
G01X25162Y22547D01*
G01X25228Y22539D01*
G01X25293Y22523D01*
G01X25355Y22498D01*
G01X25414Y22466D01*
G01X25468Y22426D01*
G01X25516Y22381D01*
G01X25559Y22329D01*
G01X25595Y22273D01*
G01X25623Y22212D01*
G01X25644Y22149D01*
G01X25656Y22083D01*
G01X25661Y22018D01*
G01X25661Y20637D01*
G01X25656Y20572D01*
G01X25644Y20506D01*
G01X25623Y20443D01*
G01X25595Y20382D01*
G01X25559Y20326D01*
G01X25516Y20274D01*
G01X25468Y20228D01*
G01X25414Y20189D01*
G01X25355Y20157D01*
G01X25293Y20132D01*
G01X25228Y20116D01*
G01X25162Y20107D01*
G01X25095Y20107D01*
G37*
G36*
G01X23536Y20107D02*
G01X23470Y20116D01*
G01X23405Y20132D01*
G01X23343Y20157D01*
G01X23284Y20189D01*
G01X23230Y20228D01*
G01X23181Y20274D01*
G01X23139Y20326D01*
G01X23103Y20382D01*
G01X23075Y20443D01*
G01X23054Y20506D01*
G01X23041Y20572D01*
G01X23037Y20637D01*
G01X23037Y22018D01*
G01X23041Y22083D01*
G01X23054Y22149D01*
G01X23075Y22212D01*
G01X23103Y22273D01*
G01X23139Y22329D01*
G01X23181Y22381D01*
G01X23230Y22426D01*
G01X23284Y22466D01*
G01X23343Y22498D01*
G01X23405Y22523D01*
G01X23470Y22539D01*
G01X23536Y22547D01*
G01X23603Y22547D01*
G01X23669Y22539D01*
G01X23734Y22523D01*
G01X23796Y22498D01*
G01X23854Y22466D01*
G01X23909Y22426D01*
G01X23957Y22381D01*
G01X24000Y22329D01*
G01X24036Y22273D01*
G01X24064Y22212D01*
G01X24085Y22149D01*
G01X24097Y22083D01*
G01X24101Y22018D01*
G01X24101Y20637D01*
G01X24097Y20572D01*
G01X24085Y20506D01*
G01X24064Y20443D01*
G01X24036Y20382D01*
G01X24000Y20326D01*
G01X23957Y20274D01*
G01X23909Y20228D01*
G01X23854Y20189D01*
G01X23796Y20157D01*
G01X23734Y20132D01*
G01X23669Y20116D01*
G01X23603Y20107D01*
G01X23536Y20107D01*
G37*
G36*
G01X21977Y20107D02*
G01X21911Y20116D01*
G01X21846Y20132D01*
G01X21784Y20157D01*
G01X21725Y20189D01*
G01X21671Y20228D01*
G01X21622Y20274D01*
G01X21580Y20326D01*
G01X21544Y20382D01*
G01X21515Y20443D01*
G01X21495Y20506D01*
G01X21482Y20572D01*
G01X21478Y20637D01*
G01X21478Y22018D01*
G01X21482Y22083D01*
G01X21495Y22149D01*
G01X21515Y22212D01*
G01X21544Y22273D01*
G01X21580Y22329D01*
G01X21622Y22381D01*
G01X21671Y22426D01*
G01X21725Y22466D01*
G01X21784Y22498D01*
G01X21846Y22523D01*
G01X21911Y22539D01*
G01X21977Y22547D01*
G01X22044Y22547D01*
G01X22110Y22539D01*
G01X22175Y22523D01*
G01X22237Y22498D01*
G01X22295Y22466D01*
G01X22350Y22426D01*
G01X22398Y22381D01*
G01X22441Y22329D01*
G01X22477Y22273D01*
G01X22505Y22212D01*
G01X22526Y22149D01*
G01X22538Y22083D01*
G01X22542Y22018D01*
G01X22542Y20637D01*
G01X22538Y20572D01*
G01X22526Y20506D01*
G01X22505Y20443D01*
G01X22477Y20382D01*
G01X22441Y20326D01*
G01X22398Y20274D01*
G01X22350Y20228D01*
G01X22295Y20189D01*
G01X22237Y20157D01*
G01X22175Y20132D01*
G01X22110Y20116D01*
G01X22044Y20107D01*
G01X21977Y20107D01*
G37*
G36*
G01X20418Y20107D02*
G01X20351Y20116D01*
G01X20287Y20132D01*
G01X20225Y20157D01*
G01X20166Y20189D01*
G01X20112Y20228D01*
G01X20063Y20274D01*
G01X20021Y20326D01*
G01X19985Y20382D01*
G01X19956Y20443D01*
G01X19936Y20506D01*
G01X19923Y20572D01*
G01X19919Y20637D01*
G01X19919Y22018D01*
G01X19923Y22083D01*
G01X19936Y22149D01*
G01X19956Y22212D01*
G01X19985Y22273D01*
G01X20021Y22329D01*
G01X20063Y22381D01*
G01X20112Y22426D01*
G01X20166Y22466D01*
G01X20225Y22498D01*
G01X20287Y22523D01*
G01X20351Y22539D01*
G01X20418Y22547D01*
G01X20485Y22547D01*
G01X20551Y22539D01*
G01X20616Y22523D01*
G01X20678Y22498D01*
G01X20736Y22466D01*
G01X20790Y22426D01*
G01X20839Y22381D01*
G01X20882Y22329D01*
G01X20918Y22273D01*
G01X20946Y22212D01*
G01X20967Y22149D01*
G01X20979Y22083D01*
G01X20983Y22018D01*
G01X20983Y20637D01*
G01X20979Y20572D01*
G01X20967Y20506D01*
G01X20946Y20443D01*
G01X20918Y20382D01*
G01X20882Y20326D01*
G01X20839Y20274D01*
G01X20790Y20228D01*
G01X20736Y20189D01*
G01X20678Y20157D01*
G01X20616Y20132D01*
G01X20551Y20116D01*
G01X20485Y20107D01*
G01X20418Y20107D01*
G37*
G36*
G01X18859Y20107D02*
G01X18792Y20116D01*
G01X18728Y20132D01*
G01X18666Y20157D01*
G01X18607Y20189D01*
G01X18553Y20228D01*
G01X18504Y20274D01*
G01X18462Y20326D01*
G01X18426Y20382D01*
G01X18397Y20443D01*
G01X18377Y20506D01*
G01X18364Y20572D01*
G01X18360Y20637D01*
G01X18360Y22018D01*
G01X18364Y22083D01*
G01X18377Y22149D01*
G01X18397Y22212D01*
G01X18426Y22273D01*
G01X18462Y22329D01*
G01X18504Y22381D01*
G01X18553Y22426D01*
G01X18607Y22466D01*
G01X18666Y22498D01*
G01X18728Y22523D01*
G01X18792Y22539D01*
G01X18859Y22547D01*
G01X18926Y22547D01*
G01X18992Y22539D01*
G01X19057Y22523D01*
G01X19119Y22498D01*
G01X19177Y22466D01*
G01X19231Y22426D01*
G01X19280Y22381D01*
G01X19323Y22329D01*
G01X19359Y22273D01*
G01X19387Y22212D01*
G01X19408Y22149D01*
G01X19420Y22083D01*
G01X19424Y22018D01*
G01X19424Y20637D01*
G01X19420Y20572D01*
G01X19408Y20506D01*
G01X19387Y20443D01*
G01X19359Y20382D01*
G01X19323Y20326D01*
G01X19280Y20274D01*
G01X19231Y20228D01*
G01X19177Y20189D01*
G01X19119Y20157D01*
G01X19057Y20132D01*
G01X18992Y20116D01*
G01X18926Y20107D01*
G01X18859Y20107D01*
G37*
G36*
G01X17300Y20107D02*
G01X17233Y20116D01*
G01X17169Y20132D01*
G01X17107Y20157D01*
G01X17048Y20189D01*
G01X16994Y20228D01*
G01X16945Y20274D01*
G01X16903Y20326D01*
G01X16867Y20382D01*
G01X16838Y20443D01*
G01X16818Y20506D01*
G01X16805Y20572D01*
G01X16801Y20637D01*
G01X16801Y22018D01*
G01X16805Y22083D01*
G01X16818Y22149D01*
G01X16838Y22212D01*
G01X16867Y22273D01*
G01X16903Y22329D01*
G01X16945Y22381D01*
G01X16994Y22426D01*
G01X17048Y22466D01*
G01X17107Y22498D01*
G01X17169Y22523D01*
G01X17233Y22539D01*
G01X17300Y22547D01*
G01X17367Y22547D01*
G01X17433Y22539D01*
G01X17498Y22523D01*
G01X17560Y22498D01*
G01X17618Y22466D01*
G01X17672Y22426D01*
G01X17721Y22381D01*
G01X17764Y22329D01*
G01X17800Y22273D01*
G01X17828Y22212D01*
G01X17849Y22149D01*
G01X17861Y22083D01*
G01X17865Y22018D01*
G01X17865Y20637D01*
G01X17861Y20572D01*
G01X17849Y20506D01*
G01X17828Y20443D01*
G01X17800Y20382D01*
G01X17764Y20326D01*
G01X17721Y20274D01*
G01X17672Y20228D01*
G01X17618Y20189D01*
G01X17560Y20157D01*
G01X17498Y20132D01*
G01X17433Y20116D01*
G01X17367Y20107D01*
G01X17300Y20107D01*
G37*
G36*
G01X15741Y20107D02*
G01X15674Y20116D01*
G01X15610Y20132D01*
G01X15547Y20157D01*
G01X15489Y20189D01*
G01X15435Y20228D01*
G01X15386Y20274D01*
G01X15343Y20326D01*
G01X15308Y20382D01*
G01X15279Y20443D01*
G01X15259Y20506D01*
G01X15246Y20572D01*
G01X15242Y20637D01*
G01X15242Y22018D01*
G01X15246Y22083D01*
G01X15259Y22149D01*
G01X15279Y22212D01*
G01X15308Y22273D01*
G01X15343Y22329D01*
G01X15386Y22381D01*
G01X15435Y22426D01*
G01X15489Y22466D01*
G01X15547Y22498D01*
G01X15610Y22523D01*
G01X15674Y22539D01*
G01X15741Y22547D01*
G01X15808Y22547D01*
G01X15874Y22539D01*
G01X15938Y22523D01*
G01X16001Y22498D01*
G01X16059Y22466D01*
G01X16113Y22426D01*
G01X16162Y22381D01*
G01X16205Y22329D01*
G01X16240Y22273D01*
G01X16269Y22212D01*
G01X16290Y22149D01*
G01X16302Y22083D01*
G01X16306Y22018D01*
G01X16306Y20637D01*
G01X16302Y20572D01*
G01X16290Y20506D01*
G01X16269Y20443D01*
G01X16240Y20382D01*
G01X16205Y20326D01*
G01X16162Y20274D01*
G01X16113Y20228D01*
G01X16059Y20189D01*
G01X16001Y20157D01*
G01X15939Y20132D01*
G01X15874Y20116D01*
G01X15808Y20107D01*
G01X15741Y20107D01*
G37*
G36*
G01X14182Y20107D02*
G01X14115Y20116D01*
G01X14050Y20132D01*
G01X13988Y20157D01*
G01X13930Y20189D01*
G01X13876Y20228D01*
G01X13827Y20274D01*
G01X13784Y20326D01*
G01X13749Y20382D01*
G01X13720Y20443D01*
G01X13699Y20506D01*
G01X13687Y20572D01*
G01X13683Y20637D01*
G01X13683Y22018D01*
G01X13687Y22083D01*
G01X13699Y22149D01*
G01X13720Y22212D01*
G01X13749Y22273D01*
G01X13784Y22329D01*
G01X13827Y22381D01*
G01X13876Y22426D01*
G01X13930Y22466D01*
G01X13988Y22498D01*
G01X14051Y22523D01*
G01X14115Y22539D01*
G01X14182Y22547D01*
G01X14248Y22547D01*
G01X14315Y22539D01*
G01X14379Y22523D01*
G01X14442Y22498D01*
G01X14500Y22466D01*
G01X14554Y22426D01*
G01X14603Y22381D01*
G01X14646Y22329D01*
G01X14681Y22273D01*
G01X14710Y22212D01*
G01X14731Y22149D01*
G01X14743Y22083D01*
G01X14747Y22018D01*
G01X14747Y20637D01*
G01X14743Y20572D01*
G01X14731Y20506D01*
G01X14710Y20443D01*
G01X14681Y20382D01*
G01X14646Y20326D01*
G01X14603Y20274D01*
G01X14554Y20228D01*
G01X14500Y20189D01*
G01X14442Y20157D01*
G01X14380Y20132D01*
G01X14315Y20116D01*
G01X14248Y20107D01*
G01X14182Y20107D01*
G37*
G36*
G01X12623Y20107D02*
G01X12556Y20116D01*
G01X12491Y20132D01*
G01X12429Y20157D01*
G01X12371Y20189D01*
G01X12317Y20228D01*
G01X12268Y20274D01*
G01X12225Y20326D01*
G01X12190Y20382D01*
G01X12161Y20443D01*
G01X12140Y20506D01*
G01X12128Y20572D01*
G01X12124Y20637D01*
G01X12124Y22018D01*
G01X12128Y22083D01*
G01X12140Y22149D01*
G01X12161Y22212D01*
G01X12190Y22273D01*
G01X12225Y22329D01*
G01X12268Y22381D01*
G01X12317Y22426D01*
G01X12371Y22466D01*
G01X12429Y22498D01*
G01X12492Y22523D01*
G01X12556Y22539D01*
G01X12623Y22547D01*
G01X12689Y22547D01*
G01X12756Y22539D01*
G01X12820Y22523D01*
G01X12883Y22498D01*
G01X12941Y22466D01*
G01X12995Y22426D01*
G01X13044Y22381D01*
G01X13087Y22329D01*
G01X13122Y22273D01*
G01X13151Y22212D01*
G01X13171Y22149D01*
G01X13184Y22083D01*
G01X13188Y22018D01*
G01X13188Y20637D01*
G01X13184Y20572D01*
G01X13171Y20506D01*
G01X13151Y20443D01*
G01X13122Y20382D01*
G01X13087Y20326D01*
G01X13044Y20274D01*
G01X12995Y20228D01*
G01X12941Y20189D01*
G01X12883Y20157D01*
G01X12820Y20132D01*
G01X12756Y20116D01*
G01X12689Y20107D01*
G01X12623Y20107D01*
G37*
G36*
G01X61051Y4097D02*
G01X61051Y4807D01*
G01X61761Y4807D01*
G01X61761Y4097D01*
G01X61051Y4097D01*
G37*
G54D23*
G01X67406Y7453D03*
G01X62406Y4453D03*
G01X66406Y7453D03*
G01X63406Y4453D03*
G01X65406Y7453D03*
G01X64406Y4453D03*
G01X64406Y7453D03*
G01X65406Y4453D03*
G01X63406Y7453D03*
G01X66406Y4453D03*
G01X62406Y7453D03*
G01X67406Y4453D03*
G01X61406Y7453D03*
G54D26*
G01X51796Y1640D03*
G01X51796Y2388D03*
G01X67779Y2343D03*
G01X67031Y2343D03*
G54D23*
G01X58843Y1171D03*
G01X57843Y1171D03*
G01X56843Y1171D03*
G01X55843Y1171D03*
G36*
G01X54488Y816D02*
G01X54488Y1526D01*
G01X55198Y1526D01*
G01X55198Y816D01*
G01X54488Y816D01*
G37*
G54D25*
G01X3281Y9843D03*
G01X3281Y8843D03*
G01X2281Y9843D03*
G01X2281Y8843D03*
G01X1281Y9843D03*
G36*
G01X906Y8468D02*
G01X906Y9218D01*
G01X1656Y9218D01*
G01X1656Y8468D01*
G01X906Y8468D01*
G37*
G54D23*
G01X52968Y7453D03*
G01X58968Y4453D03*
G01X53968Y7453D03*
G01X57968Y4453D03*
G01X54968Y7453D03*
G01X56968Y4453D03*
G01X55968Y7453D03*
G01X55968Y4453D03*
G01X56968Y7453D03*
G01X54968Y4453D03*
G01X57968Y7453D03*
G01X53968Y4453D03*
G01X58968Y7453D03*
G36*
G01X52613Y4097D02*
G01X52613Y4807D01*
G01X53323Y4807D01*
G01X53323Y4097D01*
G01X52613Y4097D01*
G37*
G01X61390Y9140D03*
G01X62390Y9140D03*
G01X63390Y9140D03*
G01X64390Y9140D03*
G36*
G01X65035Y8785D02*
G01X65035Y9495D01*
G01X65745Y9495D01*
G01X65745Y8785D01*
G01X65035Y8785D01*
G37*
G01X44531Y4265D03*
G01X44531Y3281D03*
G01X44531Y5578D03*
G01X44531Y6562D03*
G54D26*
G01X51328Y5156D03*
G01X50580Y5156D03*
G01X51373Y6562D03*
G01X50625Y6562D03*
G01X51373Y3750D03*
G01X50625Y3750D03*
G36*
G01X45817Y3160D02*
G01X45817Y3870D01*
G01X46526Y3870D01*
G01X46526Y3160D01*
G01X45817Y3160D01*
G37*
G54D23*
G01X49171Y6515D03*
G01X47171Y3515D03*
G01X48171Y6515D03*
G01X48171Y3515D03*
G01X47171Y6515D03*
G01X49171Y3515D03*
G01X46171Y6515D03*
G01X34687Y6515D03*
G01X41687Y3515D03*
G01X35687Y6515D03*
G01X40687Y3515D03*
G01X36687Y6515D03*
G01X39687Y3515D03*
G01X37687Y6515D03*
G01X38687Y3515D03*
G01X38687Y6515D03*
G01X37687Y3515D03*
G01X39687Y6515D03*
G01X36687Y3515D03*
G01X40687Y6515D03*
G01X35687Y3515D03*
G01X41687Y6515D03*
G36*
G01X34332Y3160D02*
G01X34332Y3870D01*
G01X35042Y3870D01*
G01X35042Y3160D01*
G01X34332Y3160D01*
G37*
G36*
G01X24254Y3160D02*
G01X24254Y3870D01*
G01X24964Y3870D01*
G01X24964Y3160D01*
G01X24254Y3160D01*
G37*
G01X31609Y6515D03*
G01X25609Y3515D03*
G01X30609Y6515D03*
G01X26609Y3515D03*
G01X29609Y6515D03*
G01X27609Y3515D03*
G01X28609Y6515D03*
G01X28609Y3515D03*
G01X27609Y6515D03*
G01X29609Y3515D03*
G01X26609Y6515D03*
G01X30609Y3515D03*
G01X25609Y6515D03*
G01X31609Y3515D03*
G01X24609Y6515D03*
G01X59765Y9140D03*
G01X58781Y9140D03*
G01X22968Y5437D03*
G01X22968Y4453D03*
G01X32812Y5437D03*
G01X32812Y4453D03*
G01X42890Y4453D03*
G01X42890Y5437D03*
G01X68671Y6374D03*
G01X68671Y5390D03*
G01X60234Y5343D03*
G01X60234Y6328D03*
G54D26*
G01X68671Y2388D03*
G01X68671Y1640D03*
G01X53482Y2343D03*
G01X52734Y2343D03*
G36*
G01X65270Y816D02*
G01X65270Y1526D01*
G01X65980Y1526D01*
G01X65980Y816D01*
G01X65270Y816D01*
G37*
G54D23*
G01X64625Y1171D03*
G01X63625Y1171D03*
G01X62625Y1171D03*
G01X61625Y1171D03*
G36*
G01X56613Y8785D02*
G01X56613Y9495D01*
G01X57323Y9495D01*
G01X57323Y8785D01*
G01X56613Y8785D01*
G37*
G01X55968Y9140D03*
G01X54968Y9140D03*
G01X53968Y9140D03*
G01X52968Y9140D03*
G01X14765Y6515D03*
G01X21765Y3515D03*
G01X15765Y6515D03*
G01X20765Y3515D03*
G01X16765Y6515D03*
G01X19765Y3515D03*
G01X17765Y6515D03*
G01X18765Y3515D03*
G01X18765Y6515D03*
G01X17765Y3515D03*
G01X19765Y6515D03*
G01X16765Y3515D03*
G01X20765Y6515D03*
G01X15765Y3515D03*
G01X21765Y6515D03*
G36*
G01X14410Y3160D02*
G01X14410Y3870D01*
G01X15120Y3870D01*
G01X15120Y3160D01*
G01X14410Y3160D01*
G37*
G54D27*
G01X68474Y9375D03*
G54D28*
G01X69124Y9375D03*
G01X68933Y8915D03*
G01X68474Y8725D03*
G01X68015Y8915D03*
G01X67824Y9375D03*
G01X68015Y9834D03*
G01X68474Y10024D03*
G01X68933Y9834D03*
G01X68933Y44288D03*
G01X68474Y44478D03*
G01X68015Y44288D03*
G01X67824Y43828D03*
G01X68015Y43369D03*
G01X68474Y43179D03*
G01X68933Y43369D03*
G01X69124Y43828D03*
G54D27*
G01X68474Y43828D03*
G01X68474Y20859D03*
G54D28*
G01X69124Y20859D03*
G01X68933Y20400D03*
G01X68474Y20210D03*
G01X68015Y20400D03*
G01X67824Y20859D03*
G01X68015Y21319D03*
G01X68474Y21509D03*
G01X68933Y21319D03*
G54D27*
G01X68474Y32344D03*
G54D28*
G01X69124Y32344D03*
G01X68933Y31884D03*
G01X68474Y31694D03*
G01X68015Y31884D03*
G01X67824Y32344D03*
G01X68015Y32803D03*
G01X68474Y32993D03*
G01X68933Y32803D03*
G36*
G01X65391Y13687D02*
G01X65391Y14437D01*
G01X66140Y14437D01*
G01X66140Y13687D01*
G01X65391Y13687D01*
G37*
G54D25*
G01X64765Y14062D03*
G01X63765Y14062D03*
G01X62765Y14062D03*
G01X61765Y14062D03*
G01X60765Y14062D03*
G01X59765Y14062D03*
G01X58765Y14062D03*
G01X57765Y14062D03*
G01X56765Y14062D03*
G01X55765Y14062D03*
G01X54765Y14062D03*
G01X54765Y25547D03*
G01X55765Y25547D03*
G01X56765Y25547D03*
G01X57765Y25547D03*
G01X58765Y25547D03*
G01X59765Y25547D03*
G01X60765Y25547D03*
G01X61765Y25547D03*
G01X62765Y25547D03*
G01X63765Y25547D03*
G01X64765Y25547D03*
G36*
G01X65391Y25172D02*
G01X65391Y25921D01*
G01X66140Y25921D01*
G01X66140Y25172D01*
G01X65391Y25172D01*
G37*
G01X54765Y37032D03*
G01X55765Y37032D03*
G01X56765Y37032D03*
G01X57765Y37032D03*
G01X58765Y37032D03*
G01X59765Y37032D03*
G01X60765Y37032D03*
G01X61765Y37032D03*
G01X62765Y37032D03*
G01X63765Y37032D03*
G01X64765Y37032D03*
G36*
G01X65391Y36657D02*
G01X65391Y37406D01*
G01X66140Y37406D01*
G01X66140Y36657D01*
G01X65391Y36657D01*
G37*
G01X40437Y24141D03*
G01X39437Y24141D03*
G01X38437Y24141D03*
G01X37437Y24141D03*
G01X36437Y24141D03*
G01X35437Y24141D03*
G01X34437Y24141D03*
G01X33437Y24141D03*
G01X32437Y24141D03*
G01X31437Y24141D03*
G01X30437Y24141D03*
G01X29437Y24141D03*
G01X28437Y24141D03*
G01X27437Y24141D03*
G01X26437Y24141D03*
G01X25437Y24141D03*
G01X24437Y24141D03*
G01X23437Y24141D03*
G01X22437Y24141D03*
G01X21437Y24141D03*
G01X20437Y24141D03*
G01X19437Y24141D03*
G01X18437Y24141D03*
G01X17437Y24141D03*
G01X16437Y24141D03*
G01X15437Y24141D03*
G36*
G01X14063Y23766D02*
G01X14063Y24515D01*
G01X14812Y24515D01*
G01X14812Y23766D01*
G01X14063Y23766D01*
G37*
G01X40437Y35625D03*
G01X39437Y35625D03*
G01X38437Y35625D03*
G01X37437Y35625D03*
G01X36437Y35625D03*
G01X35437Y35625D03*
G01X34437Y35625D03*
G01X33437Y35625D03*
G01X32437Y35625D03*
G01X31437Y35625D03*
G01X30437Y35625D03*
G01X29437Y35625D03*
G01X28437Y35625D03*
G01X27437Y35625D03*
G01X26437Y35625D03*
G01X25437Y35625D03*
G01X24437Y35625D03*
G01X23437Y35625D03*
G01X22437Y35625D03*
G01X21437Y35625D03*
G01X20437Y35625D03*
G01X19437Y35625D03*
G01X18437Y35625D03*
G01X17437Y35625D03*
G01X16437Y35625D03*
G01X15437Y35625D03*
G36*
G01X14063Y35250D02*
G01X14063Y36000D01*
G01X14812Y36000D01*
G01X14812Y35250D01*
G01X14063Y35250D01*
G37*
G01X40437Y12656D03*
G01X39437Y12656D03*
G01X38437Y12656D03*
G01X37437Y12656D03*
G01X36437Y12656D03*
G01X35437Y12656D03*
G01X34437Y12656D03*
G01X33437Y12656D03*
G01X32437Y12656D03*
G01X31437Y12656D03*
G01X30437Y12656D03*
G01X29437Y12656D03*
G01X28437Y12656D03*
G01X27437Y12656D03*
G01X26437Y12656D03*
G01X25437Y12656D03*
G01X24437Y12656D03*
G01X23437Y12656D03*
G01X22437Y12656D03*
G01X21437Y12656D03*
G01X20437Y12656D03*
G01X19437Y12656D03*
G01X18437Y12656D03*
G01X17437Y12656D03*
G01X16437Y12656D03*
G01X15437Y12656D03*
G36*
G01X14063Y12281D02*
G01X14063Y13030D01*
G01X14812Y13030D01*
G01X14812Y12281D01*
G01X14063Y12281D01*
G37*
M00*
M02*
