M48
; DRILL file {KiCad (5.1.6)-1} date 08/12/20 00:52:38
; FORMAT={-:-/ absolute / inch / decimal}
; #@! TF.CreationDate,2020-08-12T00:52:38-04:00
; #@! TF.GenerationSoftware,Kicad,Pcbnew,(5.1.6)-1
FMAT,2
INCH
T1C0.0100
T2C0.0236
T3C0.0315
T4C0.0394
T5C0.0433
T6C0.0630
T7C0.0638
T8C0.1772
%
G90
G05
T1
X1.535Y-5.34
X1.57Y-5.28
X1.57Y-5.415
X1.62Y-5.485
X1.67Y-5.485
X1.72Y-5.44
X1.72Y-5.485
X1.81Y-5.39
X1.82Y-5.22
X1.83Y-5.31
X1.92Y-5.34
X1.92Y-5.485
X1.965Y-3.54
X1.985Y-2.53
X1.99Y-3.075
X1.99Y-4.575
X1.995Y-5.57
X2.005Y-5.41
X2.01Y-3.54
X2.01Y-5.25
X2.025Y-5.995
X2.045Y-3.13
X2.045Y-3.225
X2.045Y-3.325
X2.045Y-3.405
X2.045Y-3.49
X2.085Y-5.21
X2.085Y-5.285
X2.085Y-5.375
X2.085Y-5.475
X2.09Y-3.13
X2.09Y-3.225
X2.09Y-3.325
X2.09Y-3.405
X2.09Y-3.49
X2.125Y-3.54
X2.145Y-2.53
X2.145Y-3.075
X2.145Y-4.575
X2.16Y-5.87
X2.17Y-3.54
X2.185Y-5.995
X2.19Y-5.405
X2.19Y-5.49
X2.2Y-3.13
X2.2Y-3.225
X2.2Y-3.325
X2.2Y-3.405
X2.2Y-3.49
X2.24Y-5.285
X2.24Y-5.405
X2.24Y-5.485
X2.245Y-3.13
X2.245Y-3.225
X2.245Y-3.325
X2.245Y-3.405
X2.245Y-3.49
X2.265Y-5.87
X2.275Y-3.54
X2.29Y-5.285
X2.29Y-5.445
X2.3Y-2.53
X2.3Y-3.075
X2.3Y-4.575
X2.325Y-3.54
X2.335Y-5.995
X2.34Y-5.415
X2.34Y-5.475
X2.34Y-5.87
X2.355Y-3.13
X2.355Y-3.225
X2.355Y-3.325
X2.355Y-3.405
X2.355Y-3.49
X2.39Y-5.415
X2.405Y-3.13
X2.405Y-3.225
X2.405Y-3.325
X2.405Y-3.405
X2.405Y-3.49
X2.42Y-5.87
X2.43Y-3.54
X2.44Y-5.415
X2.44Y-5.475
X2.455Y-3.075
X2.455Y-4.575
X2.46Y-2.53
X2.48Y-3.54
X2.49Y-5.475
X2.495Y-5.74
X2.495Y-5.79
X2.495Y-5.995
X2.51Y-3.13
X2.51Y-3.225
X2.51Y-3.325
X2.51Y-3.405
X2.51Y-3.49
X2.52Y-5.665
X2.525Y-5.87
X2.555Y-3.13
X2.555Y-3.225
X2.555Y-3.325
X2.555Y-3.405
X2.555Y-3.49
X2.58Y-5.635
X2.61Y-2.53
X2.61Y-4.575
X2.615Y-3.075
X2.615Y-3.545
X2.635Y-5.69
X2.65Y-5.31
X2.65Y-5.445
X2.65Y-5.555
X2.65Y-5.91
X2.65Y-5.995
X2.665Y-3.13
X2.665Y-3.225
X2.665Y-3.325
X2.665Y-3.405
X2.665Y-3.49
X2.715Y-3.13
X2.715Y-3.225
X2.715Y-3.325
X2.715Y-3.405
X2.715Y-3.49
X2.7432Y-5.5118
X2.745Y-5.665
X2.77Y-2.53
X2.77Y-3.075
X2.77Y-3.545
X2.77Y-4.575
X2.8Y-5.87
X2.805Y-5.995
X2.815Y-5.405
X2.815Y-5.485
X2.815Y-5.74
X2.815Y-5.79
X2.825Y-3.13
X2.825Y-3.225
X2.825Y-3.325
X2.825Y-3.405
X2.825Y-3.49
X2.865Y-5.405
X2.865Y-5.485
X2.87Y-3.13
X2.87Y-3.225
X2.87Y-3.325
X2.87Y-3.405
X2.87Y-3.49
X2.89Y-5.87
X2.925Y-2.53
X2.925Y-3.075
X2.925Y-3.545
X2.925Y-4.575
X2.93Y-5.635
X2.96Y-5.995
X2.965Y-5.415
X2.965Y-5.475
X2.965Y-5.87
X2.98Y-3.13
X2.98Y-3.225
X2.98Y-3.325
X2.98Y-3.405
X2.98Y-3.49
X3.015Y-5.415
X3.025Y-3.13
X3.025Y-3.225
X3.025Y-3.325
X3.025Y-3.405
X3.025Y-3.49
X3.045Y-5.87
X3.065Y-5.415
X3.065Y-5.475
X3.08Y-2.53
X3.08Y-3.075
X3.08Y-3.545
X3.08Y-4.575
X3.08Y-5.635
X3.115Y-5.475
X3.115Y-5.995
X3.14Y-3.13
X3.14Y-3.225
X3.14Y-3.325
X3.14Y-3.405
X3.14Y-3.49
X3.18Y-3.13
X3.18Y-3.225
X3.18Y-3.325
X3.18Y-3.405
X3.18Y-3.49
X3.235Y-2.53
X3.235Y-3.075
X3.235Y-3.545
X3.235Y-4.575
X3.275Y-5.995
X3.295Y-3.13
X3.295Y-3.225
X3.295Y-3.325
X3.295Y-3.405
X3.295Y-3.49
X3.335Y-3.13
X3.335Y-3.225
X3.335Y-3.325
X3.335Y-3.405
X3.335Y-3.49
X3.39Y-3.075
X3.39Y-4.575
X3.395Y-1.795
X3.395Y-2.53
X3.395Y-3.545
X3.395Y-5.315
X3.45Y-3.13
X3.45Y-3.225
X3.45Y-3.325
X3.45Y-3.405
X3.45Y-3.49
X3.485Y-5.43
X3.49Y-3.13
X3.49Y-3.225
X3.49Y-3.325
X3.49Y-3.405
X3.49Y-3.49
X3.51Y-5.1
X3.545Y-3.075
X3.545Y-4.575
X3.55Y-1.795
X3.55Y-2.53
X3.55Y-3.545
X3.555Y-5.63
X3.585Y-5.14
X3.599Y-5.43
X3.605Y-3.13
X3.605Y-3.225
X3.605Y-3.325
X3.605Y-3.405
X3.605Y-3.49
X3.605Y-5.63
X3.65Y-3.13
X3.65Y-3.225
X3.65Y-3.325
X3.65Y-3.405
X3.65Y-3.49
X3.655Y-5.425
X3.655Y-5.63
X3.7Y-4.575
X3.7003Y-5.417
X3.705Y-1.795
X3.705Y-2.53
X3.705Y-3.075
X3.705Y-3.545
X3.705Y-5.63
X3.74Y-5.14
X3.755Y-5.315
X3.755Y-5.63
X3.76Y-3.13
X3.76Y-3.225
X3.76Y-3.325
X3.76Y-3.405
X3.76Y-3.49
X3.79Y-5.44
X3.805Y-3.13
X3.805Y-3.225
X3.805Y-3.325
X3.805Y-3.405
X3.805Y-3.49
X3.805Y-5.63
X3.86Y-1.795
X3.86Y-2.53
X3.86Y-3.075
X3.86Y-3.545
X3.86Y-4.575
X3.915Y-3.13
X3.915Y-3.225
X3.915Y-3.325
X3.915Y-3.405
X3.915Y-3.49
X3.945Y-5.125
X3.95Y-5.375
X3.96Y-3.13
X3.96Y-3.225
X3.96Y-3.325
X3.96Y-3.405
X3.96Y-3.49
X3.99Y-5.315
X4.015Y-1.795
X4.015Y-3.075
X4.015Y-3.545
X4.015Y-4.575
X4.02Y-2.53
X4.05Y-5.135
X4.075Y-3.13
X4.075Y-3.225
X4.075Y-3.325
X4.075Y-3.405
X4.075Y-3.49
X4.115Y-3.13
X4.115Y-3.225
X4.115Y-3.325
X4.115Y-3.405
X4.115Y-3.49
X4.151Y-5.446
X4.17Y-2.53
X4.17Y-3.075
X4.17Y-3.545
X4.17Y-4.575
X4.175Y-1.795
X4.21Y-5.135
X4.2153Y-5.4925
X4.23Y-3.13
X4.23Y-3.225
X4.23Y-3.325
X4.23Y-3.405
X4.23Y-3.49
X4.2464Y-5.456
X4.27Y-3.13
X4.27Y-3.225
X4.27Y-3.325
X4.27Y-3.405
X4.27Y-3.49
X4.2879Y-5.4488
X4.325Y-3.075
X4.325Y-3.545
X4.325Y-4.575
X4.33Y-1.795
X4.33Y-2.53
X4.35Y-5.315
X4.36Y-5.135
X4.385Y-3.13
X4.385Y-3.225
X4.385Y-3.325
X4.385Y-3.405
X4.385Y-3.49
X4.425Y-3.13
X4.425Y-3.225
X4.425Y-3.325
X4.425Y-3.405
X4.425Y-3.49
X4.425Y-5.45
X4.48Y-1.795
X4.48Y-3.075
X4.485Y-2.53
X4.485Y-3.545
X4.485Y-4.575
X4.52Y-5.135
X4.54Y-3.13
X4.54Y-3.225
X4.54Y-3.325
X4.54Y-3.405
X4.54Y-3.49
X4.55Y-5.385
X4.585Y-3.13
X4.585Y-3.225
X4.585Y-3.325
X4.585Y-3.405
X4.585Y-3.49
X4.59Y-5.315
X4.59Y-5.45
X4.61Y-2.53
X4.64Y-1.795
X4.64Y-3.075
X4.64Y-3.545
X4.64Y-4.575
X4.675Y-5.135
X4.7Y-3.13
X4.7Y-3.225
X4.7Y-3.325
X4.7Y-3.405
X4.7Y-3.49
X4.735Y-3.13
X4.735Y-3.225
X4.735Y-3.325
X4.735Y-3.405
X4.735Y-3.49
X4.75Y-5.445
X4.79Y-2.53
X4.795Y-1.795
X4.795Y-3.075
X4.795Y-3.545
X4.795Y-4.575
X4.8237Y-5.461
X4.83Y-5.135
X4.85Y-3.13
X4.85Y-3.225
X4.85Y-3.325
X4.85Y-3.405
X4.85Y-3.49
X4.8635Y-5.449
X4.895Y-3.13
X4.895Y-3.225
X4.895Y-3.325
X4.895Y-3.405
X4.895Y-3.49
X4.902Y-5.435
X4.95Y-1.795
X4.95Y-2.53
X4.95Y-3.075
X4.95Y-3.545
X4.95Y-4.575
X4.95Y-5.315
X4.9776Y-5.1703
X4.9817Y-5.196
X5.005Y-3.13
X5.005Y-3.225
X5.005Y-3.325
X5.005Y-3.405
X5.005Y-3.49
X5.047Y-5.435
X5.0491Y-5.341
X5.05Y-3.13
X5.05Y-3.225
X5.05Y-3.325
X5.05Y-3.405
X5.05Y-3.49
X5.0802Y-5.1861
X5.0811Y-5.212
X5.1018Y-5.3099
X5.105Y-2.53
X5.105Y-3.075
X5.105Y-4.575
X5.1052Y-5.222
X5.1071Y-5.2479
X5.11Y-1.795
X5.11Y-3.545
X5.1435Y-5.2751
X5.165Y-3.13
X5.165Y-3.225
X5.165Y-3.325
X5.165Y-3.405
X5.165Y-3.49
X5.195Y-5.295
X5.205Y-3.13
X5.205Y-3.225
X5.205Y-3.325
X5.205Y-3.405
X5.205Y-3.49
X5.225Y-5.355
X5.2369Y-5.2981
X5.245Y-5.145
X5.26Y-2.53
X5.26Y-3.075
X5.265Y-3.545
X5.265Y-4.575
X5.32Y-3.13
X5.32Y-3.225
X5.32Y-3.325
X5.32Y-3.405
X5.32Y-3.49
X5.325Y-5.47
X5.345Y-5.145
X5.365Y-3.13
X5.365Y-3.225
X5.365Y-3.325
X5.365Y-3.405
X5.365Y-3.49
X5.395Y-5.225
X5.395Y-5.455
X5.41Y-5.555
X5.415Y-4.575
X5.42Y-2.53
X5.42Y-3.075
X5.42Y-3.545
X5.445Y-5.145
X5.475Y-3.13
X5.475Y-3.225
X5.475Y-3.325
X5.475Y-3.405
X5.475Y-3.49
X5.495Y-5.225
X5.515Y-5.565
X5.52Y-3.13
X5.52Y-3.225
X5.52Y-3.325
X5.52Y-3.405
X5.52Y-3.49
X5.52Y-5.41
X5.545Y-5.145
X5.55Y-5.695
X5.575Y-2.53
X5.575Y-3.075
X5.575Y-3.545
X5.575Y-5.36
X5.595Y-5.225
X5.6Y-4.575
X5.625Y-5.51
X5.625Y-5.655
X5.63Y-3.13
X5.63Y-3.225
X5.63Y-3.325
X5.63Y-3.405
X5.63Y-3.49
X5.645Y-5.145
X5.675Y-3.13
X5.675Y-3.225
X5.675Y-3.325
X5.675Y-3.405
X5.675Y-3.49
X5.675Y-5.53
X5.675Y-5.715
X5.695Y-5.225
X5.695Y-5.83
X5.705Y-5.485
X5.715Y-5.355
X5.73Y-2.53
X5.73Y-3.075
X5.73Y-3.545
X5.73Y-4.575
X5.785Y-3.13
X5.785Y-3.225
X5.785Y-3.325
X5.785Y-3.405
X5.785Y-3.49
X5.795Y-5.83
X5.83Y-3.13
X5.83Y-3.225
X5.83Y-3.325
X5.83Y-3.405
X5.83Y-3.49
X5.885Y-3.075
X5.885Y-3.545
X5.885Y-4.575
X5.89Y-2.53
X5.945Y-3.13
X5.945Y-3.225
X5.945Y-3.325
X5.945Y-3.405
X5.945Y-3.49
X5.985Y-3.13
X5.985Y-3.225
X5.985Y-3.325
X5.985Y-3.405
X5.985Y-3.49
X6.005Y-3.075
X6.04Y-1.025
X6.04Y-2.53
X6.04Y-3.545
X6.04Y-4.575
X6.07Y-3.075
X6.1Y-3.13
X6.1Y-3.225
X6.1Y-3.325
X6.1Y-3.405
X6.1Y-3.49
X6.135Y-3.145
X6.145Y-3.225
X6.145Y-3.325
X6.145Y-3.405
X6.145Y-3.49
X6.195Y-1.025
X6.2Y-2.53
X6.2Y-3.075
X6.2Y-3.545
X6.2Y-4.575
X6.255Y-3.13
X6.255Y-3.225
X6.255Y-3.325
X6.255Y-3.405
X6.255Y-3.49
X6.295Y-3.15
X6.3Y-3.225
X6.3Y-3.325
X6.3Y-3.405
X6.3Y-3.49
X6.355Y-1.025
X6.355Y-2.53
X6.355Y-3.075
X6.355Y-3.545
X6.355Y-4.575
X6.41Y-3.13
X6.41Y-3.225
X6.41Y-3.325
X6.41Y-3.405
X6.41Y-3.49
X6.45Y-3.145
X6.455Y-3.225
X6.455Y-3.325
X6.455Y-3.405
X6.455Y-3.49
X6.51Y-1.025
X6.51Y-2.53
X6.51Y-3.075
X6.51Y-3.545
X6.51Y-4.575
T2
X6.5674Y-5.865
X6.6063Y-5.771
X6.6063Y-5.959
X6.7003Y-5.7321
X6.7003Y-5.9979
X6.7942Y-5.771
X6.7942Y-5.959
X6.8331Y-5.865
X1.2721Y-5.865
X1.311Y-5.771
X1.311Y-5.959
X1.405Y-5.7321
X1.405Y-5.9979
X1.499Y-5.771
X1.499Y-5.959
X1.5379Y-5.865
T4
X1.9889Y-3.483
X2.1448Y-3.483
X2.3007Y-3.483
X2.4566Y-3.483
X2.6125Y-3.483
X2.7684Y-3.483
X2.9243Y-3.483
X3.0802Y-3.483
X3.2361Y-3.483
X3.392Y-3.483
X3.5479Y-3.483
X3.7038Y-3.483
X3.8597Y-3.483
X4.0156Y-3.483
X4.1715Y-3.483
X4.3274Y-3.483
X4.4833Y-3.483
X4.6393Y-3.483
X4.7952Y-3.483
X4.9511Y-3.483
X5.107Y-3.483
X5.2629Y-3.483
X5.4188Y-3.483
X5.5747Y-3.483
X5.7306Y-3.483
X5.8865Y-3.483
X6.0424Y-3.483
X6.1983Y-3.483
X6.3542Y-3.483
X6.5101Y-3.483
X1.9889Y-1.4356
X2.1448Y-1.4356
X2.3007Y-1.4356
X2.4566Y-1.4356
X2.6125Y-1.4356
X2.7684Y-1.4356
X2.9243Y-1.4356
X3.0802Y-1.4356
X3.2361Y-1.4356
X3.392Y-1.4356
X3.5479Y-1.4356
X3.7038Y-1.4356
X3.8597Y-1.4356
X4.0156Y-1.4356
X4.1715Y-1.4356
X4.3274Y-1.4356
X4.4833Y-1.4356
X4.6393Y-1.4356
X4.7952Y-1.4356
X4.9511Y-1.4356
X5.107Y-1.4356
X5.2629Y-1.4356
X5.4188Y-1.4356
X5.5747Y-1.4356
X5.7306Y-1.4356
X5.8865Y-1.4356
X6.0424Y-1.4356
X6.1983Y-1.4356
X6.3542Y-1.4356
X6.5101Y-1.4356
X6.765Y-5.17
X6.765Y-5.27
X6.765Y-5.37
X6.865Y-5.17
X6.865Y-5.27
X6.865Y-5.37
T5
X5.195Y-5.17
X5.195Y-5.77
X5.295Y-5.17
X5.295Y-5.77
X5.395Y-5.17
X5.395Y-5.77
X5.495Y-5.17
X5.495Y-5.77
X5.595Y-5.17
X5.595Y-5.77
X5.695Y-5.17
X5.695Y-5.77
X5.795Y-5.17
X5.795Y-5.77
X5.895Y-5.17
X5.895Y-5.77
X5.995Y-5.17
X5.995Y-5.77
X6.095Y-5.17
X6.095Y-5.77
X6.195Y-5.17
X6.195Y-5.77
X6.295Y-5.17
X6.295Y-5.77
T6
X1.9889Y-2.7153
X2.1448Y-2.7153
X2.3007Y-2.7153
X2.4566Y-2.7153
X2.6125Y-2.7153
X2.7684Y-2.7153
X2.9243Y-2.7153
X3.0802Y-2.7153
X3.2361Y-2.7153
X3.392Y-2.7153
X3.5479Y-2.7153
X3.7038Y-2.7153
X3.8597Y-2.7153
X4.0156Y-2.7153
X4.1715Y-2.7153
X4.3274Y-2.7153
X4.4833Y-2.7153
X4.6393Y-2.7153
X4.7952Y-2.7153
X4.9511Y-2.7153
X5.107Y-2.7153
X5.2629Y-2.7153
X5.4188Y-2.7153
X5.5747Y-2.7153
X5.7306Y-2.7153
X5.8865Y-2.7153
X6.0424Y-2.7153
X6.1983Y-2.7153
X6.3542Y-2.7153
X6.5101Y-2.7153
X3.1172Y-5.055
X3.2731Y-5.055
X3.429Y-5.055
X3.5849Y-5.055
X3.7408Y-5.055
X3.8967Y-5.055
X4.0526Y-5.055
X4.2085Y-5.055
X4.3644Y-5.055
X4.5204Y-5.055
X4.6763Y-5.055
X4.8322Y-5.055
X3.392Y-1.7084
X3.5479Y-1.7084
X3.7038Y-1.7084
X3.8597Y-1.7084
X4.0156Y-1.7084
X4.1715Y-1.7084
X4.3274Y-1.7084
X4.4833Y-1.7084
X4.6393Y-1.7084
X4.7952Y-1.7084
X4.9511Y-1.7084
X5.107Y-1.7084
X1.792Y-6.0619
X1.9479Y-6.0619
X2.1038Y-6.0619
X2.2597Y-6.0619
X2.4156Y-6.0619
X2.5715Y-6.0619
X2.7274Y-6.0619
X2.8833Y-6.0619
X3.0393Y-6.0619
X3.1952Y-6.0619
X3.3511Y-6.0619
X3.507Y-6.0619
X3.6629Y-6.0619
X3.8188Y-6.0619
X3.9747Y-6.0619
X4.1306Y-6.0619
X4.2865Y-6.0619
X4.4424Y-6.0619
X4.5983Y-6.0619
X4.7542Y-6.0619
X4.9101Y-6.0619
X5.066Y-6.0619
X5.2219Y-6.0619
X5.3778Y-6.0619
X5.5337Y-6.0619
X5.6896Y-6.0619
X5.8456Y-6.0619
X6.0015Y-6.0619
X6.1574Y-6.0619
X6.3133Y-6.0619
X3.392Y-3.7558
X3.5479Y-3.7558
X3.7038Y-3.7558
X3.8597Y-3.7558
X4.0156Y-3.7558
X4.1715Y-3.7558
X4.3274Y-3.7558
X4.4833Y-3.7558
X4.6393Y-3.7558
X4.7952Y-3.7558
X4.9511Y-3.7558
X5.107Y-3.7558
X1.9889Y-4.7626
X2.1448Y-4.7626
X2.3007Y-4.7626
X2.4566Y-4.7626
X2.6125Y-4.7626
X2.7684Y-4.7626
X2.9243Y-4.7626
X3.0802Y-4.7626
X3.2361Y-4.7626
X3.392Y-4.7626
X3.5479Y-4.7626
X3.7038Y-4.7626
X3.8597Y-4.7626
X4.0156Y-4.7626
X4.1715Y-4.7626
X4.3274Y-4.7626
X4.4833Y-4.7626
X4.6393Y-4.7626
X4.7952Y-4.7626
X4.9511Y-4.7626
X5.107Y-4.7626
X5.2629Y-4.7626
X5.4188Y-4.7626
X5.5747Y-4.7626
X5.7306Y-4.7626
X5.8865Y-4.7626
X6.0424Y-4.7626
X6.1983Y-4.7626
X6.3542Y-4.7626
X6.5101Y-4.7626
T7
X1.9889Y-4.6626
X2.1448Y-4.6626
X2.3007Y-4.6626
X2.4566Y-4.6626
X2.6125Y-4.6626
X2.7684Y-4.6626
X2.9243Y-4.6626
X3.0802Y-4.6626
X3.2361Y-4.6626
X3.392Y-4.6626
X3.5479Y-4.6626
X3.7038Y-4.6626
X3.8597Y-4.6626
X4.0156Y-4.6626
X4.1715Y-4.6626
X4.3274Y-4.6626
X4.4833Y-4.6626
X4.6393Y-4.6626
X4.7952Y-4.6626
X4.9511Y-4.6626
X5.107Y-4.6626
X5.2629Y-4.6626
X5.4188Y-4.6626
X5.5747Y-4.6626
X5.7306Y-4.6626
X5.8865Y-4.6626
X6.0424Y-4.6626
X6.1983Y-4.6626
X6.3542Y-4.6626
X6.5101Y-4.6626
X1.9889Y-2.6153
X2.1448Y-2.6153
X2.3007Y-2.6153
X2.4566Y-2.6153
X2.6125Y-2.6153
X2.7684Y-2.6153
X2.9243Y-2.6153
X3.0802Y-2.6153
X3.2361Y-2.6153
X3.392Y-2.6153
X3.5479Y-2.6153
X3.7038Y-2.6153
X3.8597Y-2.6153
X4.0156Y-2.6153
X4.1715Y-2.6153
X4.3274Y-2.6153
X4.4833Y-2.6153
X4.6393Y-2.6153
X4.7952Y-2.6153
X4.9511Y-2.6153
X5.107Y-2.6153
X5.2629Y-2.6153
X5.4188Y-2.6153
X5.5747Y-2.6153
X5.7306Y-2.6153
X5.8865Y-2.6153
X6.0424Y-2.6153
X6.1983Y-2.6153
X6.3542Y-2.6153
X6.5101Y-2.6153
X1.792Y-5.9619
X1.9479Y-5.9619
X2.1038Y-5.9619
X2.2597Y-5.9619
X2.4156Y-5.9619
X2.5715Y-5.9619
X2.7274Y-5.9619
X2.8833Y-5.9619
X3.0393Y-5.9619
X3.1952Y-5.9619
X3.3511Y-5.9619
X3.507Y-5.9619
X3.6629Y-5.9619
X3.8188Y-5.9619
X3.9747Y-5.9619
X4.1306Y-5.9619
X4.2865Y-5.9619
X4.4424Y-5.9619
X4.5983Y-5.9619
X4.7542Y-5.9619
X4.9101Y-5.9619
X5.066Y-5.9619
X5.2219Y-5.9619
X5.3778Y-5.9619
X5.5337Y-5.9619
X5.6896Y-5.9619
X5.8456Y-5.9619
X6.0015Y-5.9619
X6.1574Y-5.9619
X6.3133Y-5.9619
T8
X6.7003Y-5.865
X1.405Y-5.865
T3
G00X1.977Y-3.1711
M15
G01X2.0007Y-3.1711
M16
G05
G00X1.977Y-3.327
M15
G01X2.0007Y-3.327
M16
G05
G00X2.133Y-3.1711
M15
G01X2.1566Y-3.1711
M16
G05
G00X2.133Y-3.327
M15
G01X2.1566Y-3.327
M16
G05
G00X2.2889Y-3.1711
M15
G01X2.3125Y-3.1711
M16
G05
G00X2.2889Y-3.327
M15
G01X2.3125Y-3.327
M16
G05
G00X2.4448Y-3.1711
M15
G01X2.4684Y-3.1711
M16
G05
G00X2.4448Y-3.327
M15
G01X2.4684Y-3.327
M16
G05
G00X2.6007Y-3.1711
M15
G01X2.6243Y-3.1711
M16
G05
G00X2.6007Y-3.327
M15
G01X2.6243Y-3.327
M16
G05
G00X2.7566Y-3.1711
M15
G01X2.7802Y-3.1711
M16
G05
G00X2.7566Y-3.327
M15
G01X2.7802Y-3.327
M16
G05
G00X2.9125Y-3.1711
M15
G01X2.9361Y-3.1711
M16
G05
G00X2.9125Y-3.327
M15
G01X2.9361Y-3.327
M16
G05
G00X3.0684Y-3.1711
M15
G01X3.092Y-3.1711
M16
G05
G00X3.0684Y-3.327
M15
G01X3.092Y-3.327
M16
G05
G00X3.2243Y-3.1711
M15
G01X3.2479Y-3.1711
M16
G05
G00X3.2243Y-3.327
M15
G01X3.2479Y-3.327
M16
G05
G00X3.3802Y-3.1711
M15
G01X3.4038Y-3.1711
M16
G05
G00X3.3802Y-3.327
M15
G01X3.4038Y-3.327
M16
G05
G00X3.5361Y-3.1711
M15
G01X3.5597Y-3.1711
M16
G05
G00X3.5361Y-3.327
M15
G01X3.5597Y-3.327
M16
G05
G00X3.692Y-3.1711
M15
G01X3.7156Y-3.1711
M16
G05
G00X3.692Y-3.327
M15
G01X3.7156Y-3.327
M16
G05
G00X3.8479Y-3.1711
M15
G01X3.8715Y-3.1711
M16
G05
G00X3.8479Y-3.327
M15
G01X3.8715Y-3.327
M16
G05
G00X4.0038Y-3.1711
M15
G01X4.0274Y-3.1711
M16
G05
G00X4.0038Y-3.327
M15
G01X4.0274Y-3.327
M16
G05
G00X4.1597Y-3.1711
M15
G01X4.1833Y-3.1711
M16
G05
G00X4.1597Y-3.327
M15
G01X4.1833Y-3.327
M16
G05
G00X4.3156Y-3.1711
M15
G01X4.3393Y-3.1711
M16
G05
G00X4.3156Y-3.327
M15
G01X4.3393Y-3.327
M16
G05
G00X4.4715Y-3.1711
M15
G01X4.4952Y-3.1711
M16
G05
G00X4.4715Y-3.327
M15
G01X4.4952Y-3.327
M16
G05
G00X4.6274Y-3.1711
M15
G01X4.6511Y-3.1711
M16
G05
G00X4.6274Y-3.327
M15
G01X4.6511Y-3.327
M16
G05
G00X4.7833Y-3.1711
M15
G01X4.807Y-3.1711
M16
G05
G00X4.7833Y-3.327
M15
G01X4.807Y-3.327
M16
G05
G00X4.9393Y-3.1711
M15
G01X4.9629Y-3.1711
M16
G05
G00X4.9393Y-3.327
M15
G01X4.9629Y-3.327
M16
G05
G00X5.0952Y-3.1711
M15
G01X5.1188Y-3.1711
M16
G05
G00X5.0952Y-3.327
M15
G01X5.1188Y-3.327
M16
G05
G00X5.2511Y-3.1711
M15
G01X5.2747Y-3.1711
M16
G05
G00X5.2511Y-3.327
M15
G01X5.2747Y-3.327
M16
G05
G00X5.407Y-3.1711
M15
G01X5.4306Y-3.1711
M16
G05
G00X5.407Y-3.327
M15
G01X5.4306Y-3.327
M16
G05
G00X5.5629Y-3.1711
M15
G01X5.5865Y-3.1711
M16
G05
G00X5.5629Y-3.327
M15
G01X5.5865Y-3.327
M16
G05
G00X5.7188Y-3.1711
M15
G01X5.7424Y-3.1711
M16
G05
G00X5.7188Y-3.327
M15
G01X5.7424Y-3.327
M16
G05
G00X5.8747Y-3.1711
M15
G01X5.8983Y-3.1711
M16
G05
G00X5.8747Y-3.327
M15
G01X5.8983Y-3.327
M16
G05
G00X6.0306Y-3.1711
M15
G01X6.0542Y-3.1711
M16
G05
G00X6.0306Y-3.327
M15
G01X6.0542Y-3.327
M16
G05
G00X6.1865Y-3.1711
M15
G01X6.2101Y-3.1711
M16
G05
G00X6.1865Y-3.327
M15
G01X6.2101Y-3.327
M16
G05
G00X6.3424Y-3.1711
M15
G01X6.366Y-3.1711
M16
G05
G00X6.3424Y-3.327
M15
G01X6.366Y-3.327
M16
G05
G00X6.4983Y-3.1711
M15
G01X6.5219Y-3.1711
M16
G05
G00X6.4983Y-3.327
M15
G01X6.5219Y-3.327
M16
G05
G00X1.977Y-1.1238
M15
G01X2.0007Y-1.1238
M16
G05
G00X1.977Y-1.2797
M15
G01X2.0007Y-1.2797
M16
G05
G00X2.133Y-1.1238
M15
G01X2.1566Y-1.1238
M16
G05
G00X2.133Y-1.2797
M15
G01X2.1566Y-1.2797
M16
G05
G00X2.2889Y-1.1238
M15
G01X2.3125Y-1.1238
M16
G05
G00X2.2889Y-1.2797
M15
G01X2.3125Y-1.2797
M16
G05
G00X2.4448Y-1.1238
M15
G01X2.4684Y-1.1238
M16
G05
G00X2.4448Y-1.2797
M15
G01X2.4684Y-1.2797
M16
G05
G00X2.6007Y-1.1238
M15
G01X2.6243Y-1.1238
M16
G05
G00X2.6007Y-1.2797
M15
G01X2.6243Y-1.2797
M16
G05
G00X2.7566Y-1.1238
M15
G01X2.7802Y-1.1238
M16
G05
G00X2.7566Y-1.2797
M15
G01X2.7802Y-1.2797
M16
G05
G00X2.9125Y-1.1238
M15
G01X2.9361Y-1.1238
M16
G05
G00X2.9125Y-1.2797
M15
G01X2.9361Y-1.2797
M16
G05
G00X3.0684Y-1.1238
M15
G01X3.092Y-1.1238
M16
G05
G00X3.0684Y-1.2797
M15
G01X3.092Y-1.2797
M16
G05
G00X3.2243Y-1.1238
M15
G01X3.2479Y-1.1238
M16
G05
G00X3.2243Y-1.2797
M15
G01X3.2479Y-1.2797
M16
G05
G00X3.3802Y-1.1238
M15
G01X3.4038Y-1.1238
M16
G05
G00X3.3802Y-1.2797
M15
G01X3.4038Y-1.2797
M16
G05
G00X3.5361Y-1.1238
M15
G01X3.5597Y-1.1238
M16
G05
G00X3.5361Y-1.2797
M15
G01X3.5597Y-1.2797
M16
G05
G00X3.692Y-1.1238
M15
G01X3.7156Y-1.1238
M16
G05
G00X3.692Y-1.2797
M15
G01X3.7156Y-1.2797
M16
G05
G00X3.8479Y-1.1238
M15
G01X3.8715Y-1.1238
M16
G05
G00X3.8479Y-1.2797
M15
G01X3.8715Y-1.2797
M16
G05
G00X4.0038Y-1.1238
M15
G01X4.0274Y-1.1238
M16
G05
G00X4.0038Y-1.2797
M15
G01X4.0274Y-1.2797
M16
G05
G00X4.1597Y-1.1238
M15
G01X4.1833Y-1.1238
M16
G05
G00X4.1597Y-1.2797
M15
G01X4.1833Y-1.2797
M16
G05
G00X4.3156Y-1.1238
M15
G01X4.3393Y-1.1238
M16
G05
G00X4.3156Y-1.2797
M15
G01X4.3393Y-1.2797
M16
G05
G00X4.4715Y-1.1238
M15
G01X4.4952Y-1.1238
M16
G05
G00X4.4715Y-1.2797
M15
G01X4.4952Y-1.2797
M16
G05
G00X4.6274Y-1.1238
M15
G01X4.6511Y-1.1238
M16
G05
G00X4.6274Y-1.2797
M15
G01X4.6511Y-1.2797
M16
G05
G00X4.7833Y-1.1238
M15
G01X4.807Y-1.1238
M16
G05
G00X4.7833Y-1.2797
M15
G01X4.807Y-1.2797
M16
G05
G00X4.9393Y-1.1238
M15
G01X4.9629Y-1.1238
M16
G05
G00X4.9393Y-1.2797
M15
G01X4.9629Y-1.2797
M16
G05
G00X5.0952Y-1.1238
M15
G01X5.1188Y-1.1238
M16
G05
G00X5.0952Y-1.2797
M15
G01X5.1188Y-1.2797
M16
G05
G00X5.2511Y-1.1238
M15
G01X5.2747Y-1.1238
M16
G05
G00X5.2511Y-1.2797
M15
G01X5.2747Y-1.2797
M16
G05
G00X5.407Y-1.1238
M15
G01X5.4306Y-1.1238
M16
G05
G00X5.407Y-1.2797
M15
G01X5.4306Y-1.2797
M16
G05
G00X5.5629Y-1.1238
M15
G01X5.5865Y-1.1238
M16
G05
G00X5.5629Y-1.2797
M15
G01X5.5865Y-1.2797
M16
G05
G00X5.7188Y-1.1238
M15
G01X5.7424Y-1.1238
M16
G05
G00X5.7188Y-1.2797
M15
G01X5.7424Y-1.2797
M16
G05
G00X5.8747Y-1.1238
M15
G01X5.8983Y-1.1238
M16
G05
G00X5.8747Y-1.2797
M15
G01X5.8983Y-1.2797
M16
G05
G00X6.0306Y-1.1238
M15
G01X6.0542Y-1.1238
M16
G05
G00X6.0306Y-1.2797
M15
G01X6.0542Y-1.2797
M16
G05
G00X6.1865Y-1.1238
M15
G01X6.2101Y-1.1238
M16
G05
G00X6.1865Y-1.2797
M15
G01X6.2101Y-1.2797
M16
G05
G00X6.3424Y-1.1238
M15
G01X6.366Y-1.1238
M16
G05
G00X6.3424Y-1.2797
M15
G01X6.366Y-1.2797
M16
G05
G00X6.4983Y-1.1238
M15
G01X6.5219Y-1.1238
M16
G05
G00X6.4983Y-1.2797
M15
G01X6.5219Y-1.2797
M16
G05
T0
M30
