G04 #@! TF.GenerationSoftware,KiCad,Pcbnew,(5.1.6)-1*
G04 #@! TF.CreationDate,2020-08-12T00:52:36-04:00*
G04 #@! TF.ProjectId,TH-XWhatsIt,54482d58-5768-4617-9473-49742e6b6963,0.0.3*
G04 #@! TF.SameCoordinates,Original*
G04 #@! TF.FileFunction,Legend,Top*
G04 #@! TF.FilePolarity,Positive*
%FSLAX46Y46*%
G04 Gerber Fmt 4.6, Leading zero omitted, Abs format (unit mm)*
G04 Created by KiCad (PCBNEW (5.1.6)-1) date 2020-08-12 00:52:36*
%MOMM*%
%LPD*%
G01*
G04 APERTURE LIST*
%ADD10C,0.120000*%
%ADD11C,0.150000*%
G04 APERTURE END LIST*
D10*
X127737000Y-43394000D02*
X127737000Y-41894000D01*
X47497000Y-148511000D02*
X47497000Y-153971000D01*
X52497000Y-63508000D02*
X52497000Y-68968000D01*
X52497000Y-115511000D02*
X52497000Y-120971000D01*
X88137000Y-95397000D02*
X88137000Y-96897000D01*
X81157000Y-128397000D02*
X81157000Y-129897000D01*
D11*
X161163000Y-130048000D02*
X130683000Y-130048000D01*
X161163000Y-130048000D02*
X161163000Y-135128000D01*
X161163000Y-135128000D02*
X163703000Y-135128000D01*
X163703000Y-135128000D02*
X163703000Y-142748000D01*
X163703000Y-142748000D02*
X161163000Y-142748000D01*
X161163000Y-142748000D02*
X161163000Y-147828000D01*
X161163000Y-147828000D02*
X130683000Y-147828000D01*
X130683000Y-147828000D02*
X130683000Y-130048000D01*
D10*
X79746000Y-138303000D02*
X79746000Y-136353000D01*
X79746000Y-138303000D02*
X79746000Y-140253000D01*
X70876000Y-138303000D02*
X70876000Y-136353000D01*
X70876000Y-138303000D02*
X70876000Y-141753000D01*
X44343000Y-138176000D02*
X44343000Y-136226000D01*
X44343000Y-138176000D02*
X44343000Y-140126000D01*
X39223000Y-138176000D02*
X39223000Y-136226000D01*
X39223000Y-138176000D02*
X39223000Y-141626000D01*
X97262000Y-138938000D02*
X97262000Y-136988000D01*
X97262000Y-138938000D02*
X97262000Y-140888000D01*
X87142000Y-138938000D02*
X87142000Y-136988000D01*
X87142000Y-138938000D02*
X87142000Y-142388000D01*
X127615000Y-138938000D02*
X127615000Y-136988000D01*
X127615000Y-138938000D02*
X127615000Y-140888000D01*
X117495000Y-138938000D02*
X117495000Y-136988000D01*
X117495000Y-138938000D02*
X117495000Y-142388000D01*
X63871000Y-138303000D02*
X63871000Y-136353000D01*
X63871000Y-138303000D02*
X63871000Y-140253000D01*
X55001000Y-138303000D02*
X55001000Y-136353000D01*
X55001000Y-138303000D02*
X55001000Y-141753000D01*
X56766000Y-147354000D02*
X56766000Y-145254000D01*
X62106000Y-147354000D02*
X62106000Y-145254000D01*
X72641000Y-147481000D02*
X72641000Y-145381000D01*
X77981000Y-147481000D02*
X77981000Y-145381000D01*
X112375000Y-138938000D02*
X112375000Y-136988000D01*
X112375000Y-138938000D02*
X112375000Y-140888000D01*
X102255000Y-138938000D02*
X102255000Y-136988000D01*
X102255000Y-138938000D02*
X102255000Y-142388000D01*
D11*
X107603666Y-40346380D02*
X107603666Y-41060666D01*
X107556047Y-41203523D01*
X107460809Y-41298761D01*
X107317952Y-41346380D01*
X107222714Y-41346380D01*
X108508428Y-40346380D02*
X108317952Y-40346380D01*
X108222714Y-40394000D01*
X108175095Y-40441619D01*
X108079857Y-40584476D01*
X108032238Y-40774952D01*
X108032238Y-41155904D01*
X108079857Y-41251142D01*
X108127476Y-41298761D01*
X108222714Y-41346380D01*
X108413190Y-41346380D01*
X108508428Y-41298761D01*
X108556047Y-41251142D01*
X108603666Y-41155904D01*
X108603666Y-40917809D01*
X108556047Y-40822571D01*
X108508428Y-40774952D01*
X108413190Y-40727333D01*
X108222714Y-40727333D01*
X108127476Y-40774952D01*
X108079857Y-40822571D01*
X108032238Y-40917809D01*
X47869380Y-34817333D02*
X48583666Y-34817333D01*
X48726523Y-34864952D01*
X48821761Y-34960190D01*
X48869380Y-35103047D01*
X48869380Y-35198285D01*
X47869380Y-33864952D02*
X47869380Y-34341142D01*
X48345571Y-34388761D01*
X48297952Y-34341142D01*
X48250333Y-34245904D01*
X48250333Y-34007809D01*
X48297952Y-33912571D01*
X48345571Y-33864952D01*
X48440809Y-33817333D01*
X48678904Y-33817333D01*
X48774142Y-33864952D01*
X48821761Y-33912571D01*
X48869380Y-34007809D01*
X48869380Y-34245904D01*
X48821761Y-34341142D01*
X48774142Y-34388761D01*
X47869380Y-86820333D02*
X48583666Y-86820333D01*
X48726523Y-86867952D01*
X48821761Y-86963190D01*
X48869380Y-87106047D01*
X48869380Y-87201285D01*
X48297952Y-86201285D02*
X48250333Y-86296523D01*
X48202714Y-86344142D01*
X48107476Y-86391761D01*
X48059857Y-86391761D01*
X47964619Y-86344142D01*
X47917000Y-86296523D01*
X47869380Y-86201285D01*
X47869380Y-86010809D01*
X47917000Y-85915571D01*
X47964619Y-85867952D01*
X48059857Y-85820333D01*
X48107476Y-85820333D01*
X48202714Y-85867952D01*
X48250333Y-85915571D01*
X48297952Y-86010809D01*
X48297952Y-86201285D01*
X48345571Y-86296523D01*
X48393190Y-86344142D01*
X48488428Y-86391761D01*
X48678904Y-86391761D01*
X48774142Y-86344142D01*
X48821761Y-86296523D01*
X48869380Y-86201285D01*
X48869380Y-86010809D01*
X48821761Y-85915571D01*
X48774142Y-85867952D01*
X48678904Y-85820333D01*
X48488428Y-85820333D01*
X48393190Y-85867952D01*
X48345571Y-85915571D01*
X48297952Y-86010809D01*
X102536666Y-148169380D02*
X102536666Y-148883666D01*
X102489047Y-149026523D01*
X102393809Y-149121761D01*
X102250952Y-149169380D01*
X102155714Y-149169380D01*
X103536666Y-149169380D02*
X102965238Y-149169380D01*
X103250952Y-149169380D02*
X103250952Y-148169380D01*
X103155714Y-148312238D01*
X103060476Y-148407476D01*
X102965238Y-148455095D01*
X99846190Y-147645380D02*
X99846190Y-146645380D01*
X100179523Y-147359666D01*
X100512857Y-146645380D01*
X100512857Y-147645380D01*
X101179523Y-146645380D02*
X101370000Y-146645380D01*
X101465238Y-146693000D01*
X101560476Y-146788238D01*
X101608095Y-146978714D01*
X101608095Y-147312047D01*
X101560476Y-147502523D01*
X101465238Y-147597761D01*
X101370000Y-147645380D01*
X101179523Y-147645380D01*
X101084285Y-147597761D01*
X100989047Y-147502523D01*
X100941428Y-147312047D01*
X100941428Y-146978714D01*
X100989047Y-146788238D01*
X101084285Y-146693000D01*
X101179523Y-146645380D01*
X102036666Y-147645380D02*
X102036666Y-146645380D01*
X102274761Y-146645380D01*
X102417619Y-146693000D01*
X102512857Y-146788238D01*
X102560476Y-146883476D01*
X102608095Y-147073952D01*
X102608095Y-147216809D01*
X102560476Y-147407285D01*
X102512857Y-147502523D01*
X102417619Y-147597761D01*
X102274761Y-147645380D01*
X102036666Y-147645380D01*
X103036666Y-147121571D02*
X103370000Y-147121571D01*
X103512857Y-147645380D02*
X103036666Y-147645380D01*
X103036666Y-146645380D01*
X103512857Y-146645380D01*
X104417619Y-147645380D02*
X103941428Y-147645380D01*
X103941428Y-146645380D01*
X105846190Y-147121571D02*
X105512857Y-147121571D01*
X105512857Y-147645380D02*
X105512857Y-146645380D01*
X105989047Y-146645380D01*
X107603666Y-70920380D02*
X107603666Y-71634666D01*
X107556047Y-71777523D01*
X107460809Y-71872761D01*
X107317952Y-71920380D01*
X107222714Y-71920380D01*
X108508428Y-71253714D02*
X108508428Y-71920380D01*
X108270333Y-70872761D02*
X108032238Y-71587047D01*
X108651285Y-71587047D01*
X107616666Y-114895380D02*
X107616666Y-115609666D01*
X107569047Y-115752523D01*
X107473809Y-115847761D01*
X107330952Y-115895380D01*
X107235714Y-115895380D01*
X107997619Y-114895380D02*
X108664285Y-114895380D01*
X108235714Y-115895380D01*
X107603666Y-97349380D02*
X107603666Y-98063666D01*
X107556047Y-98206523D01*
X107460809Y-98301761D01*
X107317952Y-98349380D01*
X107222714Y-98349380D01*
X108127476Y-98349380D02*
X108317952Y-98349380D01*
X108413190Y-98301761D01*
X108460809Y-98254142D01*
X108556047Y-98111285D01*
X108603666Y-97920809D01*
X108603666Y-97539857D01*
X108556047Y-97444619D01*
X108508428Y-97397000D01*
X108413190Y-97349380D01*
X108222714Y-97349380D01*
X108127476Y-97397000D01*
X108079857Y-97444619D01*
X108032238Y-97539857D01*
X108032238Y-97777952D01*
X108079857Y-97873190D01*
X108127476Y-97920809D01*
X108222714Y-97968428D01*
X108413190Y-97968428D01*
X108508428Y-97920809D01*
X108556047Y-97873190D01*
X108603666Y-97777952D01*
X100623666Y-130349380D02*
X100623666Y-131063666D01*
X100576047Y-131206523D01*
X100480809Y-131301761D01*
X100337952Y-131349380D01*
X100242714Y-131349380D01*
X101052238Y-130444619D02*
X101099857Y-130397000D01*
X101195095Y-130349380D01*
X101433190Y-130349380D01*
X101528428Y-130397000D01*
X101576047Y-130444619D01*
X101623666Y-130539857D01*
X101623666Y-130635095D01*
X101576047Y-130777952D01*
X101004619Y-131349380D01*
X101623666Y-131349380D01*
X97052238Y-131373571D02*
X97385571Y-131373571D01*
X97528428Y-131897380D02*
X97052238Y-131897380D01*
X97052238Y-130897380D01*
X97528428Y-130897380D01*
X97861761Y-130897380D02*
X98528428Y-131897380D01*
X98528428Y-130897380D02*
X97861761Y-131897380D01*
X98909380Y-131897380D02*
X98909380Y-130897380D01*
X99290333Y-130897380D01*
X99385571Y-130945000D01*
X99433190Y-130992619D01*
X99480809Y-131087857D01*
X99480809Y-131230714D01*
X99433190Y-131325952D01*
X99385571Y-131373571D01*
X99290333Y-131421190D01*
X98909380Y-131421190D01*
X99861761Y-131611666D02*
X100337952Y-131611666D01*
X99766523Y-131897380D02*
X100099857Y-130897380D01*
X100433190Y-131897380D01*
X100766523Y-131897380D02*
X100766523Y-130897380D01*
X101337952Y-131897380D01*
X101337952Y-130897380D01*
X101766523Y-131849761D02*
X101909380Y-131897380D01*
X102147476Y-131897380D01*
X102242714Y-131849761D01*
X102290333Y-131802142D01*
X102337952Y-131706904D01*
X102337952Y-131611666D01*
X102290333Y-131516428D01*
X102242714Y-131468809D01*
X102147476Y-131421190D01*
X101957000Y-131373571D01*
X101861761Y-131325952D01*
X101814142Y-131278333D01*
X101766523Y-131183095D01*
X101766523Y-131087857D01*
X101814142Y-130992619D01*
X101861761Y-130945000D01*
X101957000Y-130897380D01*
X102195095Y-130897380D01*
X102337952Y-130945000D01*
X102766523Y-131897380D02*
X102766523Y-130897380D01*
X103433190Y-130897380D02*
X103623666Y-130897380D01*
X103718904Y-130945000D01*
X103814142Y-131040238D01*
X103861761Y-131230714D01*
X103861761Y-131564047D01*
X103814142Y-131754523D01*
X103718904Y-131849761D01*
X103623666Y-131897380D01*
X103433190Y-131897380D01*
X103337952Y-131849761D01*
X103242714Y-131754523D01*
X103195095Y-131564047D01*
X103195095Y-131230714D01*
X103242714Y-131040238D01*
X103337952Y-130945000D01*
X103433190Y-130897380D01*
X104290333Y-131897380D02*
X104290333Y-130897380D01*
X104861761Y-131897380D01*
X104861761Y-130897380D01*
X142899190Y-149169380D02*
X142899190Y-148169380D01*
X143280142Y-148169380D01*
X143375380Y-148217000D01*
X143423000Y-148264619D01*
X143470619Y-148359857D01*
X143470619Y-148502714D01*
X143423000Y-148597952D01*
X143375380Y-148645571D01*
X143280142Y-148693190D01*
X142899190Y-148693190D01*
X143899190Y-149169380D02*
X143899190Y-148502714D01*
X143899190Y-148693190D02*
X143946809Y-148597952D01*
X143994428Y-148550333D01*
X144089666Y-148502714D01*
X144184904Y-148502714D01*
X144661095Y-149169380D02*
X144565857Y-149121761D01*
X144518238Y-149074142D01*
X144470619Y-148978904D01*
X144470619Y-148693190D01*
X144518238Y-148597952D01*
X144565857Y-148550333D01*
X144661095Y-148502714D01*
X144803952Y-148502714D01*
X144899190Y-148550333D01*
X144946809Y-148597952D01*
X144994428Y-148693190D01*
X144994428Y-148978904D01*
X144946809Y-149074142D01*
X144899190Y-149121761D01*
X144803952Y-149169380D01*
X144661095Y-149169380D01*
X145423000Y-149169380D02*
X145423000Y-148169380D01*
X145756333Y-148883666D01*
X146089666Y-148169380D01*
X146089666Y-149169380D01*
X146565857Y-149169380D02*
X146565857Y-148502714D01*
X146565857Y-148169380D02*
X146518238Y-148217000D01*
X146565857Y-148264619D01*
X146613476Y-148217000D01*
X146565857Y-148169380D01*
X146565857Y-148264619D01*
X147470619Y-149121761D02*
X147375380Y-149169380D01*
X147184904Y-149169380D01*
X147089666Y-149121761D01*
X147042047Y-149074142D01*
X146994428Y-148978904D01*
X146994428Y-148693190D01*
X147042047Y-148597952D01*
X147089666Y-148550333D01*
X147184904Y-148502714D01*
X147375380Y-148502714D01*
X147470619Y-148550333D01*
X147899190Y-149169380D02*
X147899190Y-148502714D01*
X147899190Y-148693190D02*
X147946809Y-148597952D01*
X147994428Y-148550333D01*
X148089666Y-148502714D01*
X148184904Y-148502714D01*
X148661095Y-149169380D02*
X148565857Y-149121761D01*
X148518238Y-149074142D01*
X148470619Y-148978904D01*
X148470619Y-148693190D01*
X148518238Y-148597952D01*
X148565857Y-148550333D01*
X148661095Y-148502714D01*
X148803952Y-148502714D01*
X148899190Y-148550333D01*
X148946809Y-148597952D01*
X148994428Y-148693190D01*
X148994428Y-148978904D01*
X148946809Y-149074142D01*
X148899190Y-149121761D01*
X148803952Y-149169380D01*
X148661095Y-149169380D01*
X165203809Y-142883000D02*
X165108571Y-142835380D01*
X164965714Y-142835380D01*
X164822857Y-142883000D01*
X164727619Y-142978238D01*
X164680000Y-143073476D01*
X164632380Y-143263952D01*
X164632380Y-143406809D01*
X164680000Y-143597285D01*
X164727619Y-143692523D01*
X164822857Y-143787761D01*
X164965714Y-143835380D01*
X165060952Y-143835380D01*
X165203809Y-143787761D01*
X165251428Y-143740142D01*
X165251428Y-143406809D01*
X165060952Y-143406809D01*
X166251428Y-143835380D02*
X165918095Y-143359190D01*
X165680000Y-143835380D02*
X165680000Y-142835380D01*
X166060952Y-142835380D01*
X166156190Y-142883000D01*
X166203809Y-142930619D01*
X166251428Y-143025857D01*
X166251428Y-143168714D01*
X166203809Y-143263952D01*
X166156190Y-143311571D01*
X166060952Y-143359190D01*
X165680000Y-143359190D01*
X166870476Y-142835380D02*
X167060952Y-142835380D01*
X167156190Y-142883000D01*
X167251428Y-142978238D01*
X167299047Y-143168714D01*
X167299047Y-143502047D01*
X167251428Y-143692523D01*
X167156190Y-143787761D01*
X167060952Y-143835380D01*
X166870476Y-143835380D01*
X166775238Y-143787761D01*
X166680000Y-143692523D01*
X166632380Y-143502047D01*
X166632380Y-143168714D01*
X166680000Y-142978238D01*
X166775238Y-142883000D01*
X166870476Y-142835380D01*
X167727619Y-142835380D02*
X167727619Y-143644904D01*
X167775238Y-143740142D01*
X167822857Y-143787761D01*
X167918095Y-143835380D01*
X168108571Y-143835380D01*
X168203809Y-143787761D01*
X168251428Y-143740142D01*
X168299047Y-143644904D01*
X168299047Y-142835380D01*
X168775238Y-143835380D02*
X168775238Y-142835380D01*
X169346666Y-143835380D01*
X169346666Y-142835380D01*
X169822857Y-143835380D02*
X169822857Y-142835380D01*
X170060952Y-142835380D01*
X170203809Y-142883000D01*
X170299047Y-142978238D01*
X170346666Y-143073476D01*
X170394285Y-143263952D01*
X170394285Y-143406809D01*
X170346666Y-143597285D01*
X170299047Y-143692523D01*
X170203809Y-143787761D01*
X170060952Y-143835380D01*
X169822857Y-143835380D01*
X171537142Y-143787761D02*
X171680000Y-143835380D01*
X171918095Y-143835380D01*
X172013333Y-143787761D01*
X172060952Y-143740142D01*
X172108571Y-143644904D01*
X172108571Y-143549666D01*
X172060952Y-143454428D01*
X172013333Y-143406809D01*
X171918095Y-143359190D01*
X171727619Y-143311571D01*
X171632380Y-143263952D01*
X171584761Y-143216333D01*
X171537142Y-143121095D01*
X171537142Y-143025857D01*
X171584761Y-142930619D01*
X171632380Y-142883000D01*
X171727619Y-142835380D01*
X171965714Y-142835380D01*
X172108571Y-142883000D01*
X172394285Y-142835380D02*
X172965714Y-142835380D01*
X172680000Y-143835380D02*
X172680000Y-142835380D01*
X173870476Y-143835380D02*
X173537142Y-143359190D01*
X173299047Y-143835380D02*
X173299047Y-142835380D01*
X173680000Y-142835380D01*
X173775238Y-142883000D01*
X173822857Y-142930619D01*
X173870476Y-143025857D01*
X173870476Y-143168714D01*
X173822857Y-143263952D01*
X173775238Y-143311571D01*
X173680000Y-143359190D01*
X173299047Y-143359190D01*
X174251428Y-143549666D02*
X174727619Y-143549666D01*
X174156190Y-143835380D02*
X174489523Y-142835380D01*
X174822857Y-143835380D01*
X175156190Y-143835380D02*
X175156190Y-142835380D01*
X175537142Y-142835380D01*
X175632380Y-142883000D01*
X175680000Y-142930619D01*
X175727619Y-143025857D01*
X175727619Y-143168714D01*
X175680000Y-143263952D01*
X175632380Y-143311571D01*
X175537142Y-143359190D01*
X175156190Y-143359190D01*
X69483380Y-139064904D02*
X70292904Y-139064904D01*
X70388142Y-139017285D01*
X70435761Y-138969666D01*
X70483380Y-138874428D01*
X70483380Y-138683952D01*
X70435761Y-138588714D01*
X70388142Y-138541095D01*
X70292904Y-138493476D01*
X69483380Y-138493476D01*
X69483380Y-137588714D02*
X69483380Y-137779190D01*
X69531000Y-137874428D01*
X69578619Y-137922047D01*
X69721476Y-138017285D01*
X69911952Y-138064904D01*
X70292904Y-138064904D01*
X70388142Y-138017285D01*
X70435761Y-137969666D01*
X70483380Y-137874428D01*
X70483380Y-137683952D01*
X70435761Y-137588714D01*
X70388142Y-137541095D01*
X70292904Y-137493476D01*
X70054809Y-137493476D01*
X69959571Y-137541095D01*
X69911952Y-137588714D01*
X69864333Y-137683952D01*
X69864333Y-137874428D01*
X69911952Y-137969666D01*
X69959571Y-138017285D01*
X70054809Y-138064904D01*
X73747523Y-143200380D02*
X73271333Y-143200380D01*
X73271333Y-142200380D01*
X74080857Y-143200380D02*
X74080857Y-142200380D01*
X74414190Y-142914666D01*
X74747523Y-142200380D01*
X74747523Y-143200380D01*
X75128476Y-142200380D02*
X75747523Y-142200380D01*
X75414190Y-142581333D01*
X75557047Y-142581333D01*
X75652285Y-142628952D01*
X75699904Y-142676571D01*
X75747523Y-142771809D01*
X75747523Y-143009904D01*
X75699904Y-143105142D01*
X75652285Y-143152761D01*
X75557047Y-143200380D01*
X75271333Y-143200380D01*
X75176095Y-143152761D01*
X75128476Y-143105142D01*
X76080857Y-142200380D02*
X76699904Y-142200380D01*
X76366571Y-142581333D01*
X76509428Y-142581333D01*
X76604666Y-142628952D01*
X76652285Y-142676571D01*
X76699904Y-142771809D01*
X76699904Y-143009904D01*
X76652285Y-143105142D01*
X76604666Y-143152761D01*
X76509428Y-143200380D01*
X76223714Y-143200380D01*
X76128476Y-143152761D01*
X76080857Y-143105142D01*
X77176095Y-143200380D02*
X77366571Y-143200380D01*
X77461809Y-143152761D01*
X77509428Y-143105142D01*
X77604666Y-142962285D01*
X77652285Y-142771809D01*
X77652285Y-142390857D01*
X77604666Y-142295619D01*
X77557047Y-142248000D01*
X77461809Y-142200380D01*
X77271333Y-142200380D01*
X77176095Y-142248000D01*
X77128476Y-142295619D01*
X77080857Y-142390857D01*
X77080857Y-142628952D01*
X77128476Y-142724190D01*
X77176095Y-142771809D01*
X77271333Y-142819428D01*
X77461809Y-142819428D01*
X77557047Y-142771809D01*
X77604666Y-142724190D01*
X77652285Y-142628952D01*
X47585333Y-140787380D02*
X47252000Y-140311190D01*
X47013904Y-140787380D02*
X47013904Y-139787380D01*
X47394857Y-139787380D01*
X47490095Y-139835000D01*
X47537714Y-139882619D01*
X47585333Y-139977857D01*
X47585333Y-140120714D01*
X47537714Y-140215952D01*
X47490095Y-140263571D01*
X47394857Y-140311190D01*
X47013904Y-140311190D01*
X48490095Y-139787380D02*
X48013904Y-139787380D01*
X47966285Y-140263571D01*
X48013904Y-140215952D01*
X48109142Y-140168333D01*
X48347238Y-140168333D01*
X48442476Y-140215952D01*
X48490095Y-140263571D01*
X48537714Y-140358809D01*
X48537714Y-140596904D01*
X48490095Y-140692142D01*
X48442476Y-140739761D01*
X48347238Y-140787380D01*
X48109142Y-140787380D01*
X48013904Y-140739761D01*
X47966285Y-140692142D01*
X47474285Y-141290714D02*
X47474285Y-141957380D01*
X47236190Y-140909761D02*
X46998095Y-141624047D01*
X47617142Y-141624047D01*
X47998095Y-141957380D02*
X47998095Y-140957380D01*
X48569523Y-141957380D02*
X48140952Y-141385952D01*
X48569523Y-140957380D02*
X47998095Y-141528809D01*
X48902857Y-140957380D02*
X49569523Y-140957380D01*
X49140952Y-141957380D01*
X35312333Y-139676142D02*
X35264714Y-139723761D01*
X35121857Y-139771380D01*
X35026619Y-139771380D01*
X34883761Y-139723761D01*
X34788523Y-139628523D01*
X34740904Y-139533285D01*
X34693285Y-139342809D01*
X34693285Y-139199952D01*
X34740904Y-139009476D01*
X34788523Y-138914238D01*
X34883761Y-138819000D01*
X35026619Y-138771380D01*
X35121857Y-138771380D01*
X35264714Y-138819000D01*
X35312333Y-138866619D01*
X36264714Y-139771380D02*
X35693285Y-139771380D01*
X35979000Y-139771380D02*
X35979000Y-138771380D01*
X35883761Y-138914238D01*
X35788523Y-139009476D01*
X35693285Y-139057095D01*
X36567380Y-139941380D02*
X36662619Y-139941380D01*
X36757857Y-139989000D01*
X36805476Y-140036619D01*
X36853095Y-140131857D01*
X36900714Y-140322333D01*
X36900714Y-140560428D01*
X36853095Y-140750904D01*
X36805476Y-140846142D01*
X36757857Y-140893761D01*
X36662619Y-140941380D01*
X36567380Y-140941380D01*
X36472142Y-140893761D01*
X36424523Y-140846142D01*
X36376904Y-140750904D01*
X36329285Y-140560428D01*
X36329285Y-140322333D01*
X36376904Y-140131857D01*
X36424523Y-140036619D01*
X36472142Y-139989000D01*
X36567380Y-139941380D01*
X37329285Y-139941380D02*
X37329285Y-140750904D01*
X37376904Y-140846142D01*
X37424523Y-140893761D01*
X37519761Y-140941380D01*
X37710238Y-140941380D01*
X37805476Y-140893761D01*
X37853095Y-140846142D01*
X37900714Y-140750904D01*
X37900714Y-139941380D01*
X38900714Y-140941380D02*
X38329285Y-140941380D01*
X38615000Y-140941380D02*
X38615000Y-139941380D01*
X38519761Y-140084238D01*
X38424523Y-140179476D01*
X38329285Y-140227095D01*
X47585333Y-136215380D02*
X47252000Y-135739190D01*
X47013904Y-136215380D02*
X47013904Y-135215380D01*
X47394857Y-135215380D01*
X47490095Y-135263000D01*
X47537714Y-135310619D01*
X47585333Y-135405857D01*
X47585333Y-135548714D01*
X47537714Y-135643952D01*
X47490095Y-135691571D01*
X47394857Y-135739190D01*
X47013904Y-135739190D01*
X48442476Y-135548714D02*
X48442476Y-136215380D01*
X48204380Y-135167761D02*
X47966285Y-135882047D01*
X48585333Y-135882047D01*
X46998095Y-136453619D02*
X47045714Y-136406000D01*
X47140952Y-136358380D01*
X47379047Y-136358380D01*
X47474285Y-136406000D01*
X47521904Y-136453619D01*
X47569523Y-136548857D01*
X47569523Y-136644095D01*
X47521904Y-136786952D01*
X46950476Y-137358380D01*
X47569523Y-137358380D01*
X48188571Y-136358380D02*
X48283809Y-136358380D01*
X48379047Y-136406000D01*
X48426666Y-136453619D01*
X48474285Y-136548857D01*
X48521904Y-136739333D01*
X48521904Y-136977428D01*
X48474285Y-137167904D01*
X48426666Y-137263142D01*
X48379047Y-137310761D01*
X48283809Y-137358380D01*
X48188571Y-137358380D01*
X48093333Y-137310761D01*
X48045714Y-137263142D01*
X47998095Y-137167904D01*
X47950476Y-136977428D01*
X47950476Y-136739333D01*
X47998095Y-136548857D01*
X48045714Y-136453619D01*
X48093333Y-136406000D01*
X48188571Y-136358380D01*
X48950476Y-137358380D02*
X48950476Y-136358380D01*
X49521904Y-137358380D02*
X49093333Y-136786952D01*
X49521904Y-136358380D02*
X48950476Y-136929809D01*
X47585333Y-138628380D02*
X47252000Y-138152190D01*
X47013904Y-138628380D02*
X47013904Y-137628380D01*
X47394857Y-137628380D01*
X47490095Y-137676000D01*
X47537714Y-137723619D01*
X47585333Y-137818857D01*
X47585333Y-137961714D01*
X47537714Y-138056952D01*
X47490095Y-138104571D01*
X47394857Y-138152190D01*
X47013904Y-138152190D01*
X47918666Y-137628380D02*
X48537714Y-137628380D01*
X48204380Y-138009333D01*
X48347238Y-138009333D01*
X48442476Y-138056952D01*
X48490095Y-138104571D01*
X48537714Y-138199809D01*
X48537714Y-138437904D01*
X48490095Y-138533142D01*
X48442476Y-138580761D01*
X48347238Y-138628380D01*
X48061523Y-138628380D01*
X47966285Y-138580761D01*
X47918666Y-138533142D01*
X46998095Y-138766619D02*
X47045714Y-138719000D01*
X47140952Y-138671380D01*
X47379047Y-138671380D01*
X47474285Y-138719000D01*
X47521904Y-138766619D01*
X47569523Y-138861857D01*
X47569523Y-138957095D01*
X47521904Y-139099952D01*
X46950476Y-139671380D01*
X47569523Y-139671380D01*
X48188571Y-138671380D02*
X48283809Y-138671380D01*
X48379047Y-138719000D01*
X48426666Y-138766619D01*
X48474285Y-138861857D01*
X48521904Y-139052333D01*
X48521904Y-139290428D01*
X48474285Y-139480904D01*
X48426666Y-139576142D01*
X48379047Y-139623761D01*
X48283809Y-139671380D01*
X48188571Y-139671380D01*
X48093333Y-139623761D01*
X48045714Y-139576142D01*
X47998095Y-139480904D01*
X47950476Y-139290428D01*
X47950476Y-139052333D01*
X47998095Y-138861857D01*
X48045714Y-138766619D01*
X48093333Y-138719000D01*
X48188571Y-138671380D01*
X48950476Y-139671380D02*
X48950476Y-138671380D01*
X49521904Y-139671380D02*
X49093333Y-139099952D01*
X49521904Y-138671380D02*
X48950476Y-139242809D01*
X37933380Y-137286904D02*
X38742904Y-137286904D01*
X38838142Y-137239285D01*
X38885761Y-137191666D01*
X38933380Y-137096428D01*
X38933380Y-136905952D01*
X38885761Y-136810714D01*
X38838142Y-136763095D01*
X38742904Y-136715476D01*
X37933380Y-136715476D01*
X38933380Y-135715476D02*
X38933380Y-136286904D01*
X38933380Y-136001190D02*
X37933380Y-136001190D01*
X38076238Y-136096428D01*
X38171476Y-136191666D01*
X38219095Y-136286904D01*
X36973476Y-143200380D02*
X36973476Y-142200380D01*
X37306809Y-142914666D01*
X37640142Y-142200380D01*
X37640142Y-143200380D01*
X38687761Y-143105142D02*
X38640142Y-143152761D01*
X38497285Y-143200380D01*
X38402047Y-143200380D01*
X38259190Y-143152761D01*
X38163952Y-143057523D01*
X38116333Y-142962285D01*
X38068714Y-142771809D01*
X38068714Y-142628952D01*
X38116333Y-142438476D01*
X38163952Y-142343238D01*
X38259190Y-142248000D01*
X38402047Y-142200380D01*
X38497285Y-142200380D01*
X38640142Y-142248000D01*
X38687761Y-142295619D01*
X39116333Y-143200380D02*
X39116333Y-142200380D01*
X39497285Y-142200380D01*
X39592523Y-142248000D01*
X39640142Y-142295619D01*
X39687761Y-142390857D01*
X39687761Y-142533714D01*
X39640142Y-142628952D01*
X39592523Y-142676571D01*
X39497285Y-142724190D01*
X39116333Y-142724190D01*
X40544904Y-142533714D02*
X40544904Y-143200380D01*
X40306809Y-142152761D02*
X40068714Y-142867047D01*
X40687761Y-142867047D01*
X41116333Y-143200380D02*
X41306809Y-143200380D01*
X41402047Y-143152761D01*
X41449666Y-143105142D01*
X41544904Y-142962285D01*
X41592523Y-142771809D01*
X41592523Y-142390857D01*
X41544904Y-142295619D01*
X41497285Y-142248000D01*
X41402047Y-142200380D01*
X41211571Y-142200380D01*
X41116333Y-142248000D01*
X41068714Y-142295619D01*
X41021095Y-142390857D01*
X41021095Y-142628952D01*
X41068714Y-142724190D01*
X41116333Y-142771809D01*
X41211571Y-142819428D01*
X41402047Y-142819428D01*
X41497285Y-142771809D01*
X41544904Y-142724190D01*
X41592523Y-142628952D01*
X41973476Y-142295619D02*
X42021095Y-142248000D01*
X42116333Y-142200380D01*
X42354428Y-142200380D01*
X42449666Y-142248000D01*
X42497285Y-142295619D01*
X42544904Y-142390857D01*
X42544904Y-142486095D01*
X42497285Y-142628952D01*
X41925857Y-143200380D01*
X42544904Y-143200380D01*
X43497285Y-143200380D02*
X42925857Y-143200380D01*
X43211571Y-143200380D02*
X43211571Y-142200380D01*
X43116333Y-142343238D01*
X43021095Y-142438476D01*
X42925857Y-142486095D01*
X43925857Y-142819428D02*
X44687761Y-142819428D01*
X45163952Y-142676571D02*
X45497285Y-142676571D01*
X45640142Y-143200380D02*
X45163952Y-143200380D01*
X45163952Y-142200380D01*
X45640142Y-142200380D01*
X46068714Y-143200380D02*
X46068714Y-142200380D01*
X46449666Y-142200380D01*
X46544904Y-142248000D01*
X46592523Y-142295619D01*
X46640142Y-142390857D01*
X46640142Y-142533714D01*
X46592523Y-142628952D01*
X46544904Y-142676571D01*
X46449666Y-142724190D01*
X46068714Y-142724190D01*
X42124333Y-132310142D02*
X42076714Y-132357761D01*
X41933857Y-132405380D01*
X41838619Y-132405380D01*
X41695761Y-132357761D01*
X41600523Y-132262523D01*
X41552904Y-132167285D01*
X41505285Y-131976809D01*
X41505285Y-131833952D01*
X41552904Y-131643476D01*
X41600523Y-131548238D01*
X41695761Y-131453000D01*
X41838619Y-131405380D01*
X41933857Y-131405380D01*
X42076714Y-131453000D01*
X42124333Y-131500619D01*
X42457666Y-131405380D02*
X43076714Y-131405380D01*
X42743380Y-131786333D01*
X42886238Y-131786333D01*
X42981476Y-131833952D01*
X43029095Y-131881571D01*
X43076714Y-131976809D01*
X43076714Y-132214904D01*
X43029095Y-132310142D01*
X42981476Y-132357761D01*
X42886238Y-132405380D01*
X42600523Y-132405380D01*
X42505285Y-132357761D01*
X42457666Y-132310142D01*
X38703380Y-132548380D02*
X38798619Y-132548380D01*
X38893857Y-132596000D01*
X38941476Y-132643619D01*
X38989095Y-132738857D01*
X39036714Y-132929333D01*
X39036714Y-133167428D01*
X38989095Y-133357904D01*
X38941476Y-133453142D01*
X38893857Y-133500761D01*
X38798619Y-133548380D01*
X38703380Y-133548380D01*
X38608142Y-133500761D01*
X38560523Y-133453142D01*
X38512904Y-133357904D01*
X38465285Y-133167428D01*
X38465285Y-132929333D01*
X38512904Y-132738857D01*
X38560523Y-132643619D01*
X38608142Y-132596000D01*
X38703380Y-132548380D01*
X39465285Y-132548380D02*
X39465285Y-133357904D01*
X39512904Y-133453142D01*
X39560523Y-133500761D01*
X39655761Y-133548380D01*
X39846238Y-133548380D01*
X39941476Y-133500761D01*
X39989095Y-133453142D01*
X40036714Y-133357904D01*
X40036714Y-132548380D01*
X41036714Y-133548380D02*
X40465285Y-133548380D01*
X40751000Y-133548380D02*
X40751000Y-132548380D01*
X40655761Y-132691238D01*
X40560523Y-132786476D01*
X40465285Y-132834095D01*
X39600809Y-144534000D02*
X39505571Y-144486380D01*
X39362714Y-144486380D01*
X39219857Y-144534000D01*
X39124619Y-144629238D01*
X39077000Y-144724476D01*
X39029380Y-144914952D01*
X39029380Y-145057809D01*
X39077000Y-145248285D01*
X39124619Y-145343523D01*
X39219857Y-145438761D01*
X39362714Y-145486380D01*
X39457952Y-145486380D01*
X39600809Y-145438761D01*
X39648428Y-145391142D01*
X39648428Y-145057809D01*
X39457952Y-145057809D01*
X40648428Y-145486380D02*
X40315095Y-145010190D01*
X40077000Y-145486380D02*
X40077000Y-144486380D01*
X40457952Y-144486380D01*
X40553190Y-144534000D01*
X40600809Y-144581619D01*
X40648428Y-144676857D01*
X40648428Y-144819714D01*
X40600809Y-144914952D01*
X40553190Y-144962571D01*
X40457952Y-145010190D01*
X40077000Y-145010190D01*
X41267476Y-144486380D02*
X41457952Y-144486380D01*
X41553190Y-144534000D01*
X41648428Y-144629238D01*
X41696047Y-144819714D01*
X41696047Y-145153047D01*
X41648428Y-145343523D01*
X41553190Y-145438761D01*
X41457952Y-145486380D01*
X41267476Y-145486380D01*
X41172238Y-145438761D01*
X41077000Y-145343523D01*
X41029380Y-145153047D01*
X41029380Y-144819714D01*
X41077000Y-144629238D01*
X41172238Y-144534000D01*
X41267476Y-144486380D01*
X42124619Y-144486380D02*
X42124619Y-145295904D01*
X42172238Y-145391142D01*
X42219857Y-145438761D01*
X42315095Y-145486380D01*
X42505571Y-145486380D01*
X42600809Y-145438761D01*
X42648428Y-145391142D01*
X42696047Y-145295904D01*
X42696047Y-144486380D01*
X43172238Y-145486380D02*
X43172238Y-144486380D01*
X43743666Y-145486380D01*
X43743666Y-144486380D01*
X44219857Y-145486380D02*
X44219857Y-144486380D01*
X44457952Y-144486380D01*
X44600809Y-144534000D01*
X44696047Y-144629238D01*
X44743666Y-144724476D01*
X44791285Y-144914952D01*
X44791285Y-145057809D01*
X44743666Y-145248285D01*
X44696047Y-145343523D01*
X44600809Y-145438761D01*
X44457952Y-145486380D01*
X44219857Y-145486380D01*
X45934142Y-145438761D02*
X46077000Y-145486380D01*
X46315095Y-145486380D01*
X46410333Y-145438761D01*
X46457952Y-145391142D01*
X46505571Y-145295904D01*
X46505571Y-145200666D01*
X46457952Y-145105428D01*
X46410333Y-145057809D01*
X46315095Y-145010190D01*
X46124619Y-144962571D01*
X46029380Y-144914952D01*
X45981761Y-144867333D01*
X45934142Y-144772095D01*
X45934142Y-144676857D01*
X45981761Y-144581619D01*
X46029380Y-144534000D01*
X46124619Y-144486380D01*
X46362714Y-144486380D01*
X46505571Y-144534000D01*
X46791285Y-144486380D02*
X47362714Y-144486380D01*
X47077000Y-145486380D02*
X47077000Y-144486380D01*
X48267476Y-145486380D02*
X47934142Y-145010190D01*
X47696047Y-145486380D02*
X47696047Y-144486380D01*
X48077000Y-144486380D01*
X48172238Y-144534000D01*
X48219857Y-144581619D01*
X48267476Y-144676857D01*
X48267476Y-144819714D01*
X48219857Y-144914952D01*
X48172238Y-144962571D01*
X48077000Y-145010190D01*
X47696047Y-145010190D01*
X48648428Y-145200666D02*
X49124619Y-145200666D01*
X48553190Y-145486380D02*
X48886523Y-144486380D01*
X49219857Y-145486380D01*
X49553190Y-145486380D02*
X49553190Y-144486380D01*
X49934142Y-144486380D01*
X50029380Y-144534000D01*
X50077000Y-144581619D01*
X50124619Y-144676857D01*
X50124619Y-144819714D01*
X50077000Y-144914952D01*
X50029380Y-144962571D01*
X49934142Y-145010190D01*
X49553190Y-145010190D01*
X85812380Y-139699904D02*
X86621904Y-139699904D01*
X86717142Y-139652285D01*
X86764761Y-139604666D01*
X86812380Y-139509428D01*
X86812380Y-139318952D01*
X86764761Y-139223714D01*
X86717142Y-139176095D01*
X86621904Y-139128476D01*
X85812380Y-139128476D01*
X85812380Y-138747523D02*
X85812380Y-138080857D01*
X86812380Y-138509428D01*
X88559142Y-142962380D02*
X89225809Y-142962380D01*
X88797238Y-143962380D01*
X90035333Y-143295714D02*
X90035333Y-143962380D01*
X89797238Y-142914761D02*
X89559142Y-143629047D01*
X90178190Y-143629047D01*
X90559142Y-143962380D02*
X90559142Y-142962380D01*
X90559142Y-143438571D02*
X91130571Y-143438571D01*
X91130571Y-143962380D02*
X91130571Y-142962380D01*
X92178190Y-143867142D02*
X92130571Y-143914761D01*
X91987714Y-143962380D01*
X91892476Y-143962380D01*
X91749619Y-143914761D01*
X91654380Y-143819523D01*
X91606761Y-143724285D01*
X91559142Y-143533809D01*
X91559142Y-143390952D01*
X91606761Y-143200476D01*
X91654380Y-143105238D01*
X91749619Y-143010000D01*
X91892476Y-142962380D01*
X91987714Y-142962380D01*
X92130571Y-143010000D01*
X92178190Y-143057619D01*
X92463904Y-142962380D02*
X93035333Y-142962380D01*
X92749619Y-143962380D02*
X92749619Y-142962380D01*
X93844857Y-142962380D02*
X93368666Y-142962380D01*
X93321047Y-143438571D01*
X93368666Y-143390952D01*
X93463904Y-143343333D01*
X93702000Y-143343333D01*
X93797238Y-143390952D01*
X93844857Y-143438571D01*
X93892476Y-143533809D01*
X93892476Y-143771904D01*
X93844857Y-143867142D01*
X93797238Y-143914761D01*
X93702000Y-143962380D01*
X93463904Y-143962380D01*
X93368666Y-143914761D01*
X93321047Y-143867142D01*
X94368666Y-143962380D02*
X94559142Y-143962380D01*
X94654380Y-143914761D01*
X94702000Y-143867142D01*
X94797238Y-143724285D01*
X94844857Y-143533809D01*
X94844857Y-143152857D01*
X94797238Y-143057619D01*
X94749619Y-143010000D01*
X94654380Y-142962380D01*
X94463904Y-142962380D01*
X94368666Y-143010000D01*
X94321047Y-143057619D01*
X94273428Y-143152857D01*
X94273428Y-143390952D01*
X94321047Y-143486190D01*
X94368666Y-143533809D01*
X94463904Y-143581428D01*
X94654380Y-143581428D01*
X94749619Y-143533809D01*
X94797238Y-143486190D01*
X94844857Y-143390952D01*
X95749619Y-142962380D02*
X95273428Y-142962380D01*
X95225809Y-143438571D01*
X95273428Y-143390952D01*
X95368666Y-143343333D01*
X95606761Y-143343333D01*
X95702000Y-143390952D01*
X95749619Y-143438571D01*
X95797238Y-143533809D01*
X95797238Y-143771904D01*
X95749619Y-143867142D01*
X95702000Y-143914761D01*
X95606761Y-143962380D01*
X95368666Y-143962380D01*
X95273428Y-143914761D01*
X95225809Y-143867142D01*
X116107380Y-139699904D02*
X116916904Y-139699904D01*
X117012142Y-139652285D01*
X117059761Y-139604666D01*
X117107380Y-139509428D01*
X117107380Y-139318952D01*
X117059761Y-139223714D01*
X117012142Y-139176095D01*
X116916904Y-139128476D01*
X116107380Y-139128476D01*
X116440714Y-138223714D02*
X117107380Y-138223714D01*
X116059761Y-138461809D02*
X116774047Y-138699904D01*
X116774047Y-138080857D01*
X118912142Y-142962380D02*
X119578809Y-142962380D01*
X119150238Y-143962380D01*
X120388333Y-143295714D02*
X120388333Y-143962380D01*
X120150238Y-142914761D02*
X119912142Y-143629047D01*
X120531190Y-143629047D01*
X120912142Y-143962380D02*
X120912142Y-142962380D01*
X120912142Y-143438571D02*
X121483571Y-143438571D01*
X121483571Y-143962380D02*
X121483571Y-142962380D01*
X122531190Y-143867142D02*
X122483571Y-143914761D01*
X122340714Y-143962380D01*
X122245476Y-143962380D01*
X122102619Y-143914761D01*
X122007380Y-143819523D01*
X121959761Y-143724285D01*
X121912142Y-143533809D01*
X121912142Y-143390952D01*
X121959761Y-143200476D01*
X122007380Y-143105238D01*
X122102619Y-143010000D01*
X122245476Y-142962380D01*
X122340714Y-142962380D01*
X122483571Y-143010000D01*
X122531190Y-143057619D01*
X122816904Y-142962380D02*
X123388333Y-142962380D01*
X123102619Y-143962380D02*
X123102619Y-142962380D01*
X124197857Y-142962380D02*
X123721666Y-142962380D01*
X123674047Y-143438571D01*
X123721666Y-143390952D01*
X123816904Y-143343333D01*
X124055000Y-143343333D01*
X124150238Y-143390952D01*
X124197857Y-143438571D01*
X124245476Y-143533809D01*
X124245476Y-143771904D01*
X124197857Y-143867142D01*
X124150238Y-143914761D01*
X124055000Y-143962380D01*
X123816904Y-143962380D01*
X123721666Y-143914761D01*
X123674047Y-143867142D01*
X124721666Y-143962380D02*
X124912142Y-143962380D01*
X125007380Y-143914761D01*
X125055000Y-143867142D01*
X125150238Y-143724285D01*
X125197857Y-143533809D01*
X125197857Y-143152857D01*
X125150238Y-143057619D01*
X125102619Y-143010000D01*
X125007380Y-142962380D01*
X124816904Y-142962380D01*
X124721666Y-143010000D01*
X124674047Y-143057619D01*
X124626428Y-143152857D01*
X124626428Y-143390952D01*
X124674047Y-143486190D01*
X124721666Y-143533809D01*
X124816904Y-143581428D01*
X125007380Y-143581428D01*
X125102619Y-143533809D01*
X125150238Y-143486190D01*
X125197857Y-143390952D01*
X126102619Y-142962380D02*
X125626428Y-142962380D01*
X125578809Y-143438571D01*
X125626428Y-143390952D01*
X125721666Y-143343333D01*
X125959761Y-143343333D01*
X126055000Y-143390952D01*
X126102619Y-143438571D01*
X126150238Y-143533809D01*
X126150238Y-143771904D01*
X126102619Y-143867142D01*
X126055000Y-143914761D01*
X125959761Y-143962380D01*
X125721666Y-143962380D01*
X125626428Y-143914761D01*
X125578809Y-143867142D01*
X115888333Y-134950142D02*
X115840714Y-134997761D01*
X115697857Y-135045380D01*
X115602619Y-135045380D01*
X115459761Y-134997761D01*
X115364523Y-134902523D01*
X115316904Y-134807285D01*
X115269285Y-134616809D01*
X115269285Y-134473952D01*
X115316904Y-134283476D01*
X115364523Y-134188238D01*
X115459761Y-134093000D01*
X115602619Y-134045380D01*
X115697857Y-134045380D01*
X115840714Y-134093000D01*
X115888333Y-134140619D01*
X116745476Y-134378714D02*
X116745476Y-135045380D01*
X116507380Y-133997761D02*
X116269285Y-134712047D01*
X116888333Y-134712047D01*
X115007380Y-136385380D02*
X115102619Y-136385380D01*
X115197857Y-136433000D01*
X115245476Y-136480619D01*
X115293095Y-136575857D01*
X115340714Y-136766333D01*
X115340714Y-137004428D01*
X115293095Y-137194904D01*
X115245476Y-137290142D01*
X115197857Y-137337761D01*
X115102619Y-137385380D01*
X115007380Y-137385380D01*
X114912142Y-137337761D01*
X114864523Y-137290142D01*
X114816904Y-137194904D01*
X114769285Y-137004428D01*
X114769285Y-136766333D01*
X114816904Y-136575857D01*
X114864523Y-136480619D01*
X114912142Y-136433000D01*
X115007380Y-136385380D01*
X115769285Y-136385380D02*
X115769285Y-137194904D01*
X115816904Y-137290142D01*
X115864523Y-137337761D01*
X115959761Y-137385380D01*
X116150238Y-137385380D01*
X116245476Y-137337761D01*
X116293095Y-137290142D01*
X116340714Y-137194904D01*
X116340714Y-136385380D01*
X117340714Y-137385380D02*
X116769285Y-137385380D01*
X117055000Y-137385380D02*
X117055000Y-136385380D01*
X116959761Y-136528238D01*
X116864523Y-136623476D01*
X116769285Y-136671095D01*
X85535333Y-134950142D02*
X85487714Y-134997761D01*
X85344857Y-135045380D01*
X85249619Y-135045380D01*
X85106761Y-134997761D01*
X85011523Y-134902523D01*
X84963904Y-134807285D01*
X84916285Y-134616809D01*
X84916285Y-134473952D01*
X84963904Y-134283476D01*
X85011523Y-134188238D01*
X85106761Y-134093000D01*
X85249619Y-134045380D01*
X85344857Y-134045380D01*
X85487714Y-134093000D01*
X85535333Y-134140619D01*
X86440095Y-134045380D02*
X85963904Y-134045380D01*
X85916285Y-134521571D01*
X85963904Y-134473952D01*
X86059142Y-134426333D01*
X86297238Y-134426333D01*
X86392476Y-134473952D01*
X86440095Y-134521571D01*
X86487714Y-134616809D01*
X86487714Y-134854904D01*
X86440095Y-134950142D01*
X86392476Y-134997761D01*
X86297238Y-135045380D01*
X86059142Y-135045380D01*
X85963904Y-134997761D01*
X85916285Y-134950142D01*
X84654380Y-136385380D02*
X84749619Y-136385380D01*
X84844857Y-136433000D01*
X84892476Y-136480619D01*
X84940095Y-136575857D01*
X84987714Y-136766333D01*
X84987714Y-137004428D01*
X84940095Y-137194904D01*
X84892476Y-137290142D01*
X84844857Y-137337761D01*
X84749619Y-137385380D01*
X84654380Y-137385380D01*
X84559142Y-137337761D01*
X84511523Y-137290142D01*
X84463904Y-137194904D01*
X84416285Y-137004428D01*
X84416285Y-136766333D01*
X84463904Y-136575857D01*
X84511523Y-136480619D01*
X84559142Y-136433000D01*
X84654380Y-136385380D01*
X85416285Y-136385380D02*
X85416285Y-137194904D01*
X85463904Y-137290142D01*
X85511523Y-137337761D01*
X85606761Y-137385380D01*
X85797238Y-137385380D01*
X85892476Y-137337761D01*
X85940095Y-137290142D01*
X85987714Y-137194904D01*
X85987714Y-136385380D01*
X86987714Y-137385380D02*
X86416285Y-137385380D01*
X86702000Y-137385380D02*
X86702000Y-136385380D01*
X86606761Y-136528238D01*
X86511523Y-136623476D01*
X86416285Y-136671095D01*
X67270333Y-146856380D02*
X66937000Y-146380190D01*
X66698904Y-146856380D02*
X66698904Y-145856380D01*
X67079857Y-145856380D01*
X67175095Y-145904000D01*
X67222714Y-145951619D01*
X67270333Y-146046857D01*
X67270333Y-146189714D01*
X67222714Y-146284952D01*
X67175095Y-146332571D01*
X67079857Y-146380190D01*
X66698904Y-146380190D01*
X67651285Y-145951619D02*
X67698904Y-145904000D01*
X67794142Y-145856380D01*
X68032238Y-145856380D01*
X68127476Y-145904000D01*
X68175095Y-145951619D01*
X68222714Y-146046857D01*
X68222714Y-146142095D01*
X68175095Y-146284952D01*
X67603666Y-146856380D01*
X68222714Y-146856380D01*
X67222714Y-149196380D02*
X66651285Y-149196380D01*
X66937000Y-149196380D02*
X66937000Y-148196380D01*
X66841761Y-148339238D01*
X66746523Y-148434476D01*
X66651285Y-148482095D01*
X67651285Y-149196380D02*
X67651285Y-148196380D01*
X68222714Y-149196380D02*
X67794142Y-148624952D01*
X68222714Y-148196380D02*
X67651285Y-148767809D01*
X67293333Y-144570380D02*
X66960000Y-144094190D01*
X66721904Y-144570380D02*
X66721904Y-143570380D01*
X67102857Y-143570380D01*
X67198095Y-143618000D01*
X67245714Y-143665619D01*
X67293333Y-143760857D01*
X67293333Y-143903714D01*
X67245714Y-143998952D01*
X67198095Y-144046571D01*
X67102857Y-144094190D01*
X66721904Y-144094190D01*
X68245714Y-144570380D02*
X67674285Y-144570380D01*
X67960000Y-144570380D02*
X67960000Y-143570380D01*
X67864761Y-143713238D01*
X67769523Y-143808476D01*
X67674285Y-143856095D01*
X68937285Y-145073714D02*
X68937285Y-145740380D01*
X68699190Y-144692761D02*
X68461095Y-145407047D01*
X69080142Y-145407047D01*
X69461095Y-145740380D02*
X69461095Y-144740380D01*
X70032523Y-145740380D02*
X69603952Y-145168952D01*
X70032523Y-144740380D02*
X69461095Y-145311809D01*
X70365857Y-144740380D02*
X71032523Y-144740380D01*
X70603952Y-145740380D01*
X69025333Y-140030142D02*
X68977714Y-140077761D01*
X68834857Y-140125380D01*
X68739619Y-140125380D01*
X68596761Y-140077761D01*
X68501523Y-139982523D01*
X68453904Y-139887285D01*
X68406285Y-139696809D01*
X68406285Y-139553952D01*
X68453904Y-139363476D01*
X68501523Y-139268238D01*
X68596761Y-139173000D01*
X68739619Y-139125380D01*
X68834857Y-139125380D01*
X68977714Y-139173000D01*
X69025333Y-139220619D01*
X69358666Y-139125380D02*
X70025333Y-139125380D01*
X69596761Y-140125380D01*
X68144380Y-141465380D02*
X68239619Y-141465380D01*
X68334857Y-141513000D01*
X68382476Y-141560619D01*
X68430095Y-141655857D01*
X68477714Y-141846333D01*
X68477714Y-142084428D01*
X68430095Y-142274904D01*
X68382476Y-142370142D01*
X68334857Y-142417761D01*
X68239619Y-142465380D01*
X68144380Y-142465380D01*
X68049142Y-142417761D01*
X68001523Y-142370142D01*
X67953904Y-142274904D01*
X67906285Y-142084428D01*
X67906285Y-141846333D01*
X67953904Y-141655857D01*
X68001523Y-141560619D01*
X68049142Y-141513000D01*
X68144380Y-141465380D01*
X68906285Y-141465380D02*
X68906285Y-142274904D01*
X68953904Y-142370142D01*
X69001523Y-142417761D01*
X69096761Y-142465380D01*
X69287238Y-142465380D01*
X69382476Y-142417761D01*
X69430095Y-142370142D01*
X69477714Y-142274904D01*
X69477714Y-141465380D01*
X70477714Y-142465380D02*
X69906285Y-142465380D01*
X70192000Y-142465380D02*
X70192000Y-141465380D01*
X70096761Y-141608238D01*
X70001523Y-141703476D01*
X69906285Y-141751095D01*
X53608380Y-139064904D02*
X54417904Y-139064904D01*
X54513142Y-139017285D01*
X54560761Y-138969666D01*
X54608380Y-138874428D01*
X54608380Y-138683952D01*
X54560761Y-138588714D01*
X54513142Y-138541095D01*
X54417904Y-138493476D01*
X53608380Y-138493476D01*
X53703619Y-138064904D02*
X53656000Y-138017285D01*
X53608380Y-137922047D01*
X53608380Y-137683952D01*
X53656000Y-137588714D01*
X53703619Y-137541095D01*
X53798857Y-137493476D01*
X53894095Y-137493476D01*
X54036952Y-137541095D01*
X54608380Y-138112523D01*
X54608380Y-137493476D01*
X57745523Y-143200380D02*
X57269333Y-143200380D01*
X57269333Y-142200380D01*
X58078857Y-143200380D02*
X58078857Y-142200380D01*
X58412190Y-142914666D01*
X58745523Y-142200380D01*
X58745523Y-143200380D01*
X59126476Y-142200380D02*
X59745523Y-142200380D01*
X59412190Y-142581333D01*
X59555047Y-142581333D01*
X59650285Y-142628952D01*
X59697904Y-142676571D01*
X59745523Y-142771809D01*
X59745523Y-143009904D01*
X59697904Y-143105142D01*
X59650285Y-143152761D01*
X59555047Y-143200380D01*
X59269333Y-143200380D01*
X59174095Y-143152761D01*
X59126476Y-143105142D01*
X60078857Y-142200380D02*
X60697904Y-142200380D01*
X60364571Y-142581333D01*
X60507428Y-142581333D01*
X60602666Y-142628952D01*
X60650285Y-142676571D01*
X60697904Y-142771809D01*
X60697904Y-143009904D01*
X60650285Y-143105142D01*
X60602666Y-143152761D01*
X60507428Y-143200380D01*
X60221714Y-143200380D01*
X60126476Y-143152761D01*
X60078857Y-143105142D01*
X61174095Y-143200380D02*
X61364571Y-143200380D01*
X61459809Y-143152761D01*
X61507428Y-143105142D01*
X61602666Y-142962285D01*
X61650285Y-142771809D01*
X61650285Y-142390857D01*
X61602666Y-142295619D01*
X61555047Y-142248000D01*
X61459809Y-142200380D01*
X61269333Y-142200380D01*
X61174095Y-142248000D01*
X61126476Y-142295619D01*
X61078857Y-142390857D01*
X61078857Y-142628952D01*
X61126476Y-142724190D01*
X61174095Y-142771809D01*
X61269333Y-142819428D01*
X61459809Y-142819428D01*
X61555047Y-142771809D01*
X61602666Y-142724190D01*
X61650285Y-142628952D01*
X53196333Y-140030142D02*
X53148714Y-140077761D01*
X53005857Y-140125380D01*
X52910619Y-140125380D01*
X52767761Y-140077761D01*
X52672523Y-139982523D01*
X52624904Y-139887285D01*
X52577285Y-139696809D01*
X52577285Y-139553952D01*
X52624904Y-139363476D01*
X52672523Y-139268238D01*
X52767761Y-139173000D01*
X52910619Y-139125380D01*
X53005857Y-139125380D01*
X53148714Y-139173000D01*
X53196333Y-139220619D01*
X54053476Y-139125380D02*
X53863000Y-139125380D01*
X53767761Y-139173000D01*
X53720142Y-139220619D01*
X53624904Y-139363476D01*
X53577285Y-139553952D01*
X53577285Y-139934904D01*
X53624904Y-140030142D01*
X53672523Y-140077761D01*
X53767761Y-140125380D01*
X53958238Y-140125380D01*
X54053476Y-140077761D01*
X54101095Y-140030142D01*
X54148714Y-139934904D01*
X54148714Y-139696809D01*
X54101095Y-139601571D01*
X54053476Y-139553952D01*
X53958238Y-139506333D01*
X53767761Y-139506333D01*
X53672523Y-139553952D01*
X53624904Y-139601571D01*
X53577285Y-139696809D01*
X52315380Y-141465380D02*
X52410619Y-141465380D01*
X52505857Y-141513000D01*
X52553476Y-141560619D01*
X52601095Y-141655857D01*
X52648714Y-141846333D01*
X52648714Y-142084428D01*
X52601095Y-142274904D01*
X52553476Y-142370142D01*
X52505857Y-142417761D01*
X52410619Y-142465380D01*
X52315380Y-142465380D01*
X52220142Y-142417761D01*
X52172523Y-142370142D01*
X52124904Y-142274904D01*
X52077285Y-142084428D01*
X52077285Y-141846333D01*
X52124904Y-141655857D01*
X52172523Y-141560619D01*
X52220142Y-141513000D01*
X52315380Y-141465380D01*
X53077285Y-141465380D02*
X53077285Y-142274904D01*
X53124904Y-142370142D01*
X53172523Y-142417761D01*
X53267761Y-142465380D01*
X53458238Y-142465380D01*
X53553476Y-142417761D01*
X53601095Y-142370142D01*
X53648714Y-142274904D01*
X53648714Y-141465380D01*
X54648714Y-142465380D02*
X54077285Y-142465380D01*
X54363000Y-142465380D02*
X54363000Y-141465380D01*
X54267761Y-141608238D01*
X54172523Y-141703476D01*
X54077285Y-141751095D01*
X63388380Y-146994476D02*
X62912190Y-147327809D01*
X63388380Y-147565904D02*
X62388380Y-147565904D01*
X62388380Y-147184952D01*
X62436000Y-147089714D01*
X62483619Y-147042095D01*
X62578857Y-146994476D01*
X62721714Y-146994476D01*
X62816952Y-147042095D01*
X62864571Y-147089714D01*
X62912190Y-147184952D01*
X62912190Y-147565904D01*
X63388380Y-146565904D02*
X62388380Y-146565904D01*
X63388380Y-145994476D01*
X62388380Y-145994476D01*
X63388380Y-144994476D02*
X63388380Y-145565904D01*
X63388380Y-145280190D02*
X62388380Y-145280190D01*
X62531238Y-145375428D01*
X62626476Y-145470666D01*
X62674095Y-145565904D01*
X56388380Y-147470666D02*
X56388380Y-148042095D01*
X56388380Y-147756380D02*
X55388380Y-147756380D01*
X55531238Y-147851619D01*
X55626476Y-147946857D01*
X55674095Y-148042095D01*
X55388380Y-146851619D02*
X55388380Y-146756380D01*
X55436000Y-146661142D01*
X55483619Y-146613523D01*
X55578857Y-146565904D01*
X55769333Y-146518285D01*
X56007428Y-146518285D01*
X56197904Y-146565904D01*
X56293142Y-146613523D01*
X56340761Y-146661142D01*
X56388380Y-146756380D01*
X56388380Y-146851619D01*
X56340761Y-146946857D01*
X56293142Y-146994476D01*
X56197904Y-147042095D01*
X56007428Y-147089714D01*
X55769333Y-147089714D01*
X55578857Y-147042095D01*
X55483619Y-146994476D01*
X55436000Y-146946857D01*
X55388380Y-146851619D01*
X55388380Y-145899238D02*
X55388380Y-145804000D01*
X55436000Y-145708761D01*
X55483619Y-145661142D01*
X55578857Y-145613523D01*
X55769333Y-145565904D01*
X56007428Y-145565904D01*
X56197904Y-145613523D01*
X56293142Y-145661142D01*
X56340761Y-145708761D01*
X56388380Y-145804000D01*
X56388380Y-145899238D01*
X56340761Y-145994476D01*
X56293142Y-146042095D01*
X56197904Y-146089714D01*
X56007428Y-146137333D01*
X55769333Y-146137333D01*
X55578857Y-146089714D01*
X55483619Y-146042095D01*
X55436000Y-145994476D01*
X55388380Y-145899238D01*
X56388380Y-145137333D02*
X55388380Y-145137333D01*
X56388380Y-144565904D02*
X55816952Y-144994476D01*
X55388380Y-144565904D02*
X55959809Y-145137333D01*
X79263380Y-147121476D02*
X78787190Y-147454809D01*
X79263380Y-147692904D02*
X78263380Y-147692904D01*
X78263380Y-147311952D01*
X78311000Y-147216714D01*
X78358619Y-147169095D01*
X78453857Y-147121476D01*
X78596714Y-147121476D01*
X78691952Y-147169095D01*
X78739571Y-147216714D01*
X78787190Y-147311952D01*
X78787190Y-147692904D01*
X79263380Y-146692904D02*
X78263380Y-146692904D01*
X79263380Y-146121476D01*
X78263380Y-146121476D01*
X78263380Y-145740523D02*
X78263380Y-145121476D01*
X78644333Y-145454809D01*
X78644333Y-145311952D01*
X78691952Y-145216714D01*
X78739571Y-145169095D01*
X78834809Y-145121476D01*
X79072904Y-145121476D01*
X79168142Y-145169095D01*
X79215761Y-145216714D01*
X79263380Y-145311952D01*
X79263380Y-145597666D01*
X79215761Y-145692904D01*
X79168142Y-145740523D01*
X72263380Y-147597666D02*
X72263380Y-148169095D01*
X72263380Y-147883380D02*
X71263380Y-147883380D01*
X71406238Y-147978619D01*
X71501476Y-148073857D01*
X71549095Y-148169095D01*
X71263380Y-146978619D02*
X71263380Y-146883380D01*
X71311000Y-146788142D01*
X71358619Y-146740523D01*
X71453857Y-146692904D01*
X71644333Y-146645285D01*
X71882428Y-146645285D01*
X72072904Y-146692904D01*
X72168142Y-146740523D01*
X72215761Y-146788142D01*
X72263380Y-146883380D01*
X72263380Y-146978619D01*
X72215761Y-147073857D01*
X72168142Y-147121476D01*
X72072904Y-147169095D01*
X71882428Y-147216714D01*
X71644333Y-147216714D01*
X71453857Y-147169095D01*
X71358619Y-147121476D01*
X71311000Y-147073857D01*
X71263380Y-146978619D01*
X71263380Y-146026238D02*
X71263380Y-145931000D01*
X71311000Y-145835761D01*
X71358619Y-145788142D01*
X71453857Y-145740523D01*
X71644333Y-145692904D01*
X71882428Y-145692904D01*
X72072904Y-145740523D01*
X72168142Y-145788142D01*
X72215761Y-145835761D01*
X72263380Y-145931000D01*
X72263380Y-146026238D01*
X72215761Y-146121476D01*
X72168142Y-146169095D01*
X72072904Y-146216714D01*
X71882428Y-146264333D01*
X71644333Y-146264333D01*
X71453857Y-146216714D01*
X71358619Y-146169095D01*
X71311000Y-146121476D01*
X71263380Y-146026238D01*
X72263380Y-145264333D02*
X71263380Y-145264333D01*
X72263380Y-144692904D02*
X71691952Y-145121476D01*
X71263380Y-144692904D02*
X71834809Y-145264333D01*
X100867380Y-139699904D02*
X101676904Y-139699904D01*
X101772142Y-139652285D01*
X101819761Y-139604666D01*
X101867380Y-139509428D01*
X101867380Y-139318952D01*
X101819761Y-139223714D01*
X101772142Y-139176095D01*
X101676904Y-139128476D01*
X100867380Y-139128476D01*
X100867380Y-138747523D02*
X100867380Y-138128476D01*
X101248333Y-138461809D01*
X101248333Y-138318952D01*
X101295952Y-138223714D01*
X101343571Y-138176095D01*
X101438809Y-138128476D01*
X101676904Y-138128476D01*
X101772142Y-138176095D01*
X101819761Y-138223714D01*
X101867380Y-138318952D01*
X101867380Y-138604666D01*
X101819761Y-138699904D01*
X101772142Y-138747523D01*
X103672142Y-142962380D02*
X104338809Y-142962380D01*
X103910238Y-143962380D01*
X105148333Y-143295714D02*
X105148333Y-143962380D01*
X104910238Y-142914761D02*
X104672142Y-143629047D01*
X105291190Y-143629047D01*
X105672142Y-143962380D02*
X105672142Y-142962380D01*
X105672142Y-143438571D02*
X106243571Y-143438571D01*
X106243571Y-143962380D02*
X106243571Y-142962380D01*
X107291190Y-143867142D02*
X107243571Y-143914761D01*
X107100714Y-143962380D01*
X107005476Y-143962380D01*
X106862619Y-143914761D01*
X106767380Y-143819523D01*
X106719761Y-143724285D01*
X106672142Y-143533809D01*
X106672142Y-143390952D01*
X106719761Y-143200476D01*
X106767380Y-143105238D01*
X106862619Y-143010000D01*
X107005476Y-142962380D01*
X107100714Y-142962380D01*
X107243571Y-143010000D01*
X107291190Y-143057619D01*
X107576904Y-142962380D02*
X108148333Y-142962380D01*
X107862619Y-143962380D02*
X107862619Y-142962380D01*
X108957857Y-142962380D02*
X108481666Y-142962380D01*
X108434047Y-143438571D01*
X108481666Y-143390952D01*
X108576904Y-143343333D01*
X108815000Y-143343333D01*
X108910238Y-143390952D01*
X108957857Y-143438571D01*
X109005476Y-143533809D01*
X109005476Y-143771904D01*
X108957857Y-143867142D01*
X108910238Y-143914761D01*
X108815000Y-143962380D01*
X108576904Y-143962380D01*
X108481666Y-143914761D01*
X108434047Y-143867142D01*
X109481666Y-143962380D02*
X109672142Y-143962380D01*
X109767380Y-143914761D01*
X109815000Y-143867142D01*
X109910238Y-143724285D01*
X109957857Y-143533809D01*
X109957857Y-143152857D01*
X109910238Y-143057619D01*
X109862619Y-143010000D01*
X109767380Y-142962380D01*
X109576904Y-142962380D01*
X109481666Y-143010000D01*
X109434047Y-143057619D01*
X109386428Y-143152857D01*
X109386428Y-143390952D01*
X109434047Y-143486190D01*
X109481666Y-143533809D01*
X109576904Y-143581428D01*
X109767380Y-143581428D01*
X109862619Y-143533809D01*
X109910238Y-143486190D01*
X109957857Y-143390952D01*
X110862619Y-142962380D02*
X110386428Y-142962380D01*
X110338809Y-143438571D01*
X110386428Y-143390952D01*
X110481666Y-143343333D01*
X110719761Y-143343333D01*
X110815000Y-143390952D01*
X110862619Y-143438571D01*
X110910238Y-143533809D01*
X110910238Y-143771904D01*
X110862619Y-143867142D01*
X110815000Y-143914761D01*
X110719761Y-143962380D01*
X110481666Y-143962380D01*
X110386428Y-143914761D01*
X110338809Y-143867142D01*
X100671333Y-134950142D02*
X100623714Y-134997761D01*
X100480857Y-135045380D01*
X100385619Y-135045380D01*
X100242761Y-134997761D01*
X100147523Y-134902523D01*
X100099904Y-134807285D01*
X100052285Y-134616809D01*
X100052285Y-134473952D01*
X100099904Y-134283476D01*
X100147523Y-134188238D01*
X100242761Y-134093000D01*
X100385619Y-134045380D01*
X100480857Y-134045380D01*
X100623714Y-134093000D01*
X100671333Y-134140619D01*
X101052285Y-134140619D02*
X101099904Y-134093000D01*
X101195142Y-134045380D01*
X101433238Y-134045380D01*
X101528476Y-134093000D01*
X101576095Y-134140619D01*
X101623714Y-134235857D01*
X101623714Y-134331095D01*
X101576095Y-134473952D01*
X101004666Y-135045380D01*
X101623714Y-135045380D01*
X99790380Y-136385380D02*
X99885619Y-136385380D01*
X99980857Y-136433000D01*
X100028476Y-136480619D01*
X100076095Y-136575857D01*
X100123714Y-136766333D01*
X100123714Y-137004428D01*
X100076095Y-137194904D01*
X100028476Y-137290142D01*
X99980857Y-137337761D01*
X99885619Y-137385380D01*
X99790380Y-137385380D01*
X99695142Y-137337761D01*
X99647523Y-137290142D01*
X99599904Y-137194904D01*
X99552285Y-137004428D01*
X99552285Y-136766333D01*
X99599904Y-136575857D01*
X99647523Y-136480619D01*
X99695142Y-136433000D01*
X99790380Y-136385380D01*
X100552285Y-136385380D02*
X100552285Y-137194904D01*
X100599904Y-137290142D01*
X100647523Y-137337761D01*
X100742761Y-137385380D01*
X100933238Y-137385380D01*
X101028476Y-137337761D01*
X101076095Y-137290142D01*
X101123714Y-137194904D01*
X101123714Y-136385380D01*
X102123714Y-137385380D02*
X101552285Y-137385380D01*
X101838000Y-137385380D02*
X101838000Y-136385380D01*
X101742761Y-136528238D01*
X101647523Y-136623476D01*
X101552285Y-136671095D01*
M02*
