G04 #@! TF.GenerationSoftware,KiCad,Pcbnew,(5.1.6)-1*
G04 #@! TF.CreationDate,2020-08-12T00:52:36-04:00*
G04 #@! TF.ProjectId,TH-XWhatsIt,54482d58-5768-4617-9473-49742e6b6963,0.0.3*
G04 #@! TF.SameCoordinates,Original*
G04 #@! TF.FileFunction,Legend,Bot*
G04 #@! TF.FilePolarity,Positive*
%FSLAX46Y46*%
G04 Gerber Fmt 4.6, Leading zero omitted, Abs format (unit mm)*
G04 Created by KiCad (PCBNEW (5.1.6)-1) date 2020-08-12 00:52:36*
%MOMM*%
%LPD*%
G01*
G04 APERTURE LIST*
%ADD10C,0.120000*%
%ADD11C,0.150000*%
G04 APERTURE END LIST*
D10*
X47497000Y-148511000D02*
X47497000Y-153971000D01*
X52497000Y-63508000D02*
X52497000Y-68968000D01*
X52497000Y-115511000D02*
X52497000Y-120971000D01*
D11*
X130683000Y-147828000D02*
X130683000Y-130048000D01*
X130683000Y-130048000D02*
X161163000Y-130048000D01*
X161163000Y-130048000D02*
X161163000Y-135128000D01*
X161163000Y-135128000D02*
X163703000Y-135128000D01*
X163703000Y-135128000D02*
X163703000Y-142748000D01*
X163703000Y-142748000D02*
X161163000Y-142748000D01*
X161163000Y-142748000D02*
X161163000Y-147828000D01*
X161163000Y-147828000D02*
X130683000Y-147828000D01*
D10*
X175811000Y-137728000D02*
X175811000Y-129988000D01*
X175811000Y-129988000D02*
X178471000Y-129988000D01*
X178471000Y-129988000D02*
X178471000Y-137728000D01*
X178471000Y-137728000D02*
X175811000Y-137728000D01*
X178471000Y-136778000D02*
X184471000Y-136778000D01*
X184471000Y-136778000D02*
X184471000Y-136018000D01*
X184471000Y-136018000D02*
X178471000Y-136018000D01*
X178471000Y-136718000D02*
X184471000Y-136718000D01*
X178471000Y-136598000D02*
X184471000Y-136598000D01*
X178471000Y-136478000D02*
X184471000Y-136478000D01*
X178471000Y-136358000D02*
X184471000Y-136358000D01*
X178471000Y-136238000D02*
X184471000Y-136238000D01*
X178471000Y-136118000D02*
X184471000Y-136118000D01*
X175413929Y-136778000D02*
X175811000Y-136778000D01*
X175413929Y-136018000D02*
X175811000Y-136018000D01*
X172941000Y-136778000D02*
X173328071Y-136778000D01*
X172941000Y-136018000D02*
X173328071Y-136018000D01*
X175811000Y-135128000D02*
X178471000Y-135128000D01*
X178471000Y-134238000D02*
X184471000Y-134238000D01*
X184471000Y-134238000D02*
X184471000Y-133478000D01*
X184471000Y-133478000D02*
X178471000Y-133478000D01*
X175413929Y-134238000D02*
X175811000Y-134238000D01*
X175413929Y-133478000D02*
X175811000Y-133478000D01*
X172873929Y-134238000D02*
X173328071Y-134238000D01*
X172873929Y-133478000D02*
X173328071Y-133478000D01*
X175811000Y-132588000D02*
X178471000Y-132588000D01*
X178471000Y-131698000D02*
X184471000Y-131698000D01*
X184471000Y-131698000D02*
X184471000Y-130938000D01*
X184471000Y-130938000D02*
X178471000Y-130938000D01*
X175413929Y-131698000D02*
X175811000Y-131698000D01*
X175413929Y-130938000D02*
X175811000Y-130938000D01*
X172873929Y-131698000D02*
X173328071Y-131698000D01*
X172873929Y-130938000D02*
X173328071Y-130938000D01*
X170561000Y-136398000D02*
X170561000Y-137668000D01*
X170561000Y-137668000D02*
X171831000Y-137668000D01*
D11*
X177819333Y-138120380D02*
X177819333Y-138834666D01*
X177866952Y-138977523D01*
X177962190Y-139072761D01*
X178105047Y-139120380D01*
X178200285Y-139120380D01*
X177438380Y-138120380D02*
X176819333Y-138120380D01*
X177152666Y-138501333D01*
X177009809Y-138501333D01*
X176914571Y-138548952D01*
X176866952Y-138596571D01*
X176819333Y-138691809D01*
X176819333Y-138929904D01*
X176866952Y-139025142D01*
X176914571Y-139072761D01*
X177009809Y-139120380D01*
X177295523Y-139120380D01*
X177390761Y-139072761D01*
X177438380Y-139025142D01*
X184628857Y-128976571D02*
X184295523Y-128976571D01*
X184152666Y-129500380D02*
X184628857Y-129500380D01*
X184628857Y-128500380D01*
X184152666Y-128500380D01*
X183819333Y-128500380D02*
X183152666Y-129500380D01*
X183152666Y-128500380D02*
X183819333Y-129500380D01*
X182771714Y-129500380D02*
X182771714Y-128500380D01*
X182390761Y-128500380D01*
X182295523Y-128548000D01*
X182247904Y-128595619D01*
X182200285Y-128690857D01*
X182200285Y-128833714D01*
X182247904Y-128928952D01*
X182295523Y-128976571D01*
X182390761Y-129024190D01*
X182771714Y-129024190D01*
X181819333Y-129214666D02*
X181343142Y-129214666D01*
X181914571Y-129500380D02*
X181581238Y-128500380D01*
X181247904Y-129500380D01*
X180914571Y-129500380D02*
X180914571Y-128500380D01*
X180343142Y-129500380D01*
X180343142Y-128500380D01*
X179914571Y-129452761D02*
X179771714Y-129500380D01*
X179533619Y-129500380D01*
X179438380Y-129452761D01*
X179390761Y-129405142D01*
X179343142Y-129309904D01*
X179343142Y-129214666D01*
X179390761Y-129119428D01*
X179438380Y-129071809D01*
X179533619Y-129024190D01*
X179724095Y-128976571D01*
X179819333Y-128928952D01*
X179866952Y-128881333D01*
X179914571Y-128786095D01*
X179914571Y-128690857D01*
X179866952Y-128595619D01*
X179819333Y-128548000D01*
X179724095Y-128500380D01*
X179486000Y-128500380D01*
X179343142Y-128548000D01*
X178914571Y-129500380D02*
X178914571Y-128500380D01*
X178247904Y-128500380D02*
X178057428Y-128500380D01*
X177962190Y-128548000D01*
X177866952Y-128643238D01*
X177819333Y-128833714D01*
X177819333Y-129167047D01*
X177866952Y-129357523D01*
X177962190Y-129452761D01*
X178057428Y-129500380D01*
X178247904Y-129500380D01*
X178343142Y-129452761D01*
X178438380Y-129357523D01*
X178486000Y-129167047D01*
X178486000Y-128833714D01*
X178438380Y-128643238D01*
X178343142Y-128548000D01*
X178247904Y-128500380D01*
X177390761Y-129500380D02*
X177390761Y-128500380D01*
X176819333Y-129500380D01*
X176819333Y-128500380D01*
X175581238Y-129500380D02*
X175581238Y-128500380D01*
X175581238Y-128976571D02*
X175009809Y-128976571D01*
X175009809Y-129500380D02*
X175009809Y-128500380D01*
X174533619Y-128976571D02*
X174200285Y-128976571D01*
X174057428Y-129500380D02*
X174533619Y-129500380D01*
X174533619Y-128500380D01*
X174057428Y-128500380D01*
X173676476Y-129214666D02*
X173200285Y-129214666D01*
X173771714Y-129500380D02*
X173438380Y-128500380D01*
X173105047Y-129500380D01*
X172771714Y-129500380D02*
X172771714Y-128500380D01*
X172533619Y-128500380D01*
X172390761Y-128548000D01*
X172295523Y-128643238D01*
X172247904Y-128738476D01*
X172200285Y-128928952D01*
X172200285Y-129071809D01*
X172247904Y-129262285D01*
X172295523Y-129357523D01*
X172390761Y-129452761D01*
X172533619Y-129500380D01*
X172771714Y-129500380D01*
X171771714Y-128976571D02*
X171438380Y-128976571D01*
X171295523Y-129500380D02*
X171771714Y-129500380D01*
X171771714Y-128500380D01*
X171295523Y-128500380D01*
X170295523Y-129500380D02*
X170628857Y-129024190D01*
X170866952Y-129500380D02*
X170866952Y-128500380D01*
X170486000Y-128500380D01*
X170390761Y-128548000D01*
X170343142Y-128595619D01*
X170295523Y-128690857D01*
X170295523Y-128833714D01*
X170343142Y-128928952D01*
X170390761Y-128976571D01*
X170486000Y-129024190D01*
X170866952Y-129024190D01*
M02*
